%TF.GenerationSoftware,KiCad,Pcbnew,9.0.4*%
%TF.CreationDate,2025-10-04T20:57:18+02:00*%
%TF.ProjectId,DMH_Dual_VCA_Mk2_PCB_2,444d485f-4475-4616-9c5f-5643415f4d6b,1*%
%TF.SameCoordinates,Original*%
%TF.FileFunction,Legend,Top*%
%TF.FilePolarity,Positive*%
%FSLAX46Y46*%
G04 Gerber Fmt 4.6, Leading zero omitted, Abs format (unit mm)*
G04 Created by KiCad (PCBNEW 9.0.4) date 2025-10-04 20:57:18*
%MOMM*%
%LPD*%
G01*
G04 APERTURE LIST*
%ADD10C,0.150000*%
%ADD11C,0.120000*%
%ADD12O,2.720000X3.240000*%
%ADD13R,1.800000X1.800000*%
%ADD14C,1.800000*%
%ADD15C,1.600000*%
%ADD16O,1.600000X1.600000*%
%ADD17O,4.000000X4.200000*%
%ADD18R,1.700000X1.700000*%
%ADD19O,1.700000X1.700000*%
G04 APERTURE END LIST*
D10*
X82004819Y-76195238D02*
X81528628Y-76528571D01*
X82004819Y-76766666D02*
X81004819Y-76766666D01*
X81004819Y-76766666D02*
X81004819Y-76385714D01*
X81004819Y-76385714D02*
X81052438Y-76290476D01*
X81052438Y-76290476D02*
X81100057Y-76242857D01*
X81100057Y-76242857D02*
X81195295Y-76195238D01*
X81195295Y-76195238D02*
X81338152Y-76195238D01*
X81338152Y-76195238D02*
X81433390Y-76242857D01*
X81433390Y-76242857D02*
X81481009Y-76290476D01*
X81481009Y-76290476D02*
X81528628Y-76385714D01*
X81528628Y-76385714D02*
X81528628Y-76766666D01*
X81004819Y-75909523D02*
X82004819Y-75576190D01*
X82004819Y-75576190D02*
X81004819Y-75242857D01*
X82004819Y-74385714D02*
X82004819Y-74957142D01*
X82004819Y-74671428D02*
X81004819Y-74671428D01*
X81004819Y-74671428D02*
X81147676Y-74766666D01*
X81147676Y-74766666D02*
X81242914Y-74861904D01*
X81242914Y-74861904D02*
X81290533Y-74957142D01*
X93504819Y-76871428D02*
X93504819Y-77442856D01*
X93504819Y-77157142D02*
X92504819Y-77157142D01*
X92504819Y-77157142D02*
X92647676Y-77252380D01*
X92647676Y-77252380D02*
X92742914Y-77347618D01*
X92742914Y-77347618D02*
X92790533Y-77442856D01*
X92504819Y-76252380D02*
X92504819Y-76157142D01*
X92504819Y-76157142D02*
X92552438Y-76061904D01*
X92552438Y-76061904D02*
X92600057Y-76014285D01*
X92600057Y-76014285D02*
X92695295Y-75966666D01*
X92695295Y-75966666D02*
X92885771Y-75919047D01*
X92885771Y-75919047D02*
X93123866Y-75919047D01*
X93123866Y-75919047D02*
X93314342Y-75966666D01*
X93314342Y-75966666D02*
X93409580Y-76014285D01*
X93409580Y-76014285D02*
X93457200Y-76061904D01*
X93457200Y-76061904D02*
X93504819Y-76157142D01*
X93504819Y-76157142D02*
X93504819Y-76252380D01*
X93504819Y-76252380D02*
X93457200Y-76347618D01*
X93457200Y-76347618D02*
X93409580Y-76395237D01*
X93409580Y-76395237D02*
X93314342Y-76442856D01*
X93314342Y-76442856D02*
X93123866Y-76490475D01*
X93123866Y-76490475D02*
X92885771Y-76490475D01*
X92885771Y-76490475D02*
X92695295Y-76442856D01*
X92695295Y-76442856D02*
X92600057Y-76395237D01*
X92600057Y-76395237D02*
X92552438Y-76347618D01*
X92552438Y-76347618D02*
X92504819Y-76252380D01*
X92504819Y-75299999D02*
X92504819Y-75204761D01*
X92504819Y-75204761D02*
X92552438Y-75109523D01*
X92552438Y-75109523D02*
X92600057Y-75061904D01*
X92600057Y-75061904D02*
X92695295Y-75014285D01*
X92695295Y-75014285D02*
X92885771Y-74966666D01*
X92885771Y-74966666D02*
X93123866Y-74966666D01*
X93123866Y-74966666D02*
X93314342Y-75014285D01*
X93314342Y-75014285D02*
X93409580Y-75061904D01*
X93409580Y-75061904D02*
X93457200Y-75109523D01*
X93457200Y-75109523D02*
X93504819Y-75204761D01*
X93504819Y-75204761D02*
X93504819Y-75299999D01*
X93504819Y-75299999D02*
X93457200Y-75395237D01*
X93457200Y-75395237D02*
X93409580Y-75442856D01*
X93409580Y-75442856D02*
X93314342Y-75490475D01*
X93314342Y-75490475D02*
X93123866Y-75538094D01*
X93123866Y-75538094D02*
X92885771Y-75538094D01*
X92885771Y-75538094D02*
X92695295Y-75490475D01*
X92695295Y-75490475D02*
X92600057Y-75442856D01*
X92600057Y-75442856D02*
X92552438Y-75395237D01*
X92552438Y-75395237D02*
X92504819Y-75299999D01*
X93504819Y-74538094D02*
X92504819Y-74538094D01*
X93123866Y-74442856D02*
X93504819Y-74157142D01*
X92838152Y-74157142D02*
X93219104Y-74538094D01*
X84773809Y-79954819D02*
X84964285Y-79954819D01*
X84964285Y-79954819D02*
X85053570Y-80002438D01*
X85053570Y-80002438D02*
X85136904Y-80097676D01*
X85136904Y-80097676D02*
X85160713Y-80288152D01*
X85160713Y-80288152D02*
X85119047Y-80621485D01*
X85119047Y-80621485D02*
X85047618Y-80811961D01*
X85047618Y-80811961D02*
X84940475Y-80907200D01*
X84940475Y-80907200D02*
X84839285Y-80954819D01*
X84839285Y-80954819D02*
X84648809Y-80954819D01*
X84648809Y-80954819D02*
X84559523Y-80907200D01*
X84559523Y-80907200D02*
X84476190Y-80811961D01*
X84476190Y-80811961D02*
X84452380Y-80621485D01*
X84452380Y-80621485D02*
X84494047Y-80288152D01*
X84494047Y-80288152D02*
X84565475Y-80097676D01*
X84565475Y-80097676D02*
X84672618Y-80002438D01*
X84672618Y-80002438D02*
X84773809Y-79954819D01*
X85446428Y-80288152D02*
X85827380Y-80288152D01*
X85505951Y-80954819D02*
X85613094Y-80097676D01*
X85613094Y-80097676D02*
X85672618Y-80002438D01*
X85672618Y-80002438D02*
X85773809Y-79954819D01*
X85773809Y-79954819D02*
X85869047Y-79954819D01*
X86017857Y-80288152D02*
X86398809Y-80288152D01*
X86077380Y-80954819D02*
X86184523Y-80097676D01*
X86184523Y-80097676D02*
X86244047Y-80002438D01*
X86244047Y-80002438D02*
X86345238Y-79954819D01*
X86345238Y-79954819D02*
X86440476Y-79954819D01*
X86607143Y-80907200D02*
X86696428Y-80954819D01*
X86696428Y-80954819D02*
X86886905Y-80954819D01*
X86886905Y-80954819D02*
X86988095Y-80907200D01*
X86988095Y-80907200D02*
X87047619Y-80811961D01*
X87047619Y-80811961D02*
X87053571Y-80764342D01*
X87053571Y-80764342D02*
X87017857Y-80669104D01*
X87017857Y-80669104D02*
X86928571Y-80621485D01*
X86928571Y-80621485D02*
X86785714Y-80621485D01*
X86785714Y-80621485D02*
X86696428Y-80573866D01*
X86696428Y-80573866D02*
X86660714Y-80478628D01*
X86660714Y-80478628D02*
X86666667Y-80431009D01*
X86666667Y-80431009D02*
X86726190Y-80335771D01*
X86726190Y-80335771D02*
X86827381Y-80288152D01*
X86827381Y-80288152D02*
X86970238Y-80288152D01*
X86970238Y-80288152D02*
X87059524Y-80335771D01*
X87845238Y-80907200D02*
X87744048Y-80954819D01*
X87744048Y-80954819D02*
X87553571Y-80954819D01*
X87553571Y-80954819D02*
X87464286Y-80907200D01*
X87464286Y-80907200D02*
X87428571Y-80811961D01*
X87428571Y-80811961D02*
X87476191Y-80431009D01*
X87476191Y-80431009D02*
X87535714Y-80335771D01*
X87535714Y-80335771D02*
X87636905Y-80288152D01*
X87636905Y-80288152D02*
X87827381Y-80288152D01*
X87827381Y-80288152D02*
X87916667Y-80335771D01*
X87916667Y-80335771D02*
X87952381Y-80431009D01*
X87952381Y-80431009D02*
X87940476Y-80526247D01*
X87940476Y-80526247D02*
X87452381Y-80621485D01*
X88255953Y-80288152D02*
X88636905Y-80288152D01*
X88440476Y-79954819D02*
X88333334Y-80811961D01*
X88333334Y-80811961D02*
X88369048Y-80907200D01*
X88369048Y-80907200D02*
X88458334Y-80954819D01*
X88458334Y-80954819D02*
X88553572Y-80954819D01*
X89636906Y-80669104D02*
X90113096Y-80669104D01*
X89505953Y-80954819D02*
X89964287Y-79954819D01*
X89964287Y-79954819D02*
X90172620Y-80954819D01*
X86607142Y-83334819D02*
X86273809Y-82858628D01*
X86035714Y-83334819D02*
X86035714Y-82334819D01*
X86035714Y-82334819D02*
X86416666Y-82334819D01*
X86416666Y-82334819D02*
X86511904Y-82382438D01*
X86511904Y-82382438D02*
X86559523Y-82430057D01*
X86559523Y-82430057D02*
X86607142Y-82525295D01*
X86607142Y-82525295D02*
X86607142Y-82668152D01*
X86607142Y-82668152D02*
X86559523Y-82763390D01*
X86559523Y-82763390D02*
X86511904Y-82811009D01*
X86511904Y-82811009D02*
X86416666Y-82858628D01*
X86416666Y-82858628D02*
X86035714Y-82858628D01*
X86988095Y-82430057D02*
X87035714Y-82382438D01*
X87035714Y-82382438D02*
X87130952Y-82334819D01*
X87130952Y-82334819D02*
X87369047Y-82334819D01*
X87369047Y-82334819D02*
X87464285Y-82382438D01*
X87464285Y-82382438D02*
X87511904Y-82430057D01*
X87511904Y-82430057D02*
X87559523Y-82525295D01*
X87559523Y-82525295D02*
X87559523Y-82620533D01*
X87559523Y-82620533D02*
X87511904Y-82763390D01*
X87511904Y-82763390D02*
X86940476Y-83334819D01*
X86940476Y-83334819D02*
X87559523Y-83334819D01*
X88511904Y-83334819D02*
X87940476Y-83334819D01*
X88226190Y-83334819D02*
X88226190Y-82334819D01*
X88226190Y-82334819D02*
X88130952Y-82477676D01*
X88130952Y-82477676D02*
X88035714Y-82572914D01*
X88035714Y-82572914D02*
X87940476Y-82620533D01*
X86083333Y-84800057D02*
X86130952Y-84752438D01*
X86130952Y-84752438D02*
X86226190Y-84704819D01*
X86226190Y-84704819D02*
X86464285Y-84704819D01*
X86464285Y-84704819D02*
X86559523Y-84752438D01*
X86559523Y-84752438D02*
X86607142Y-84800057D01*
X86607142Y-84800057D02*
X86654761Y-84895295D01*
X86654761Y-84895295D02*
X86654761Y-84990533D01*
X86654761Y-84990533D02*
X86607142Y-85133390D01*
X86607142Y-85133390D02*
X86035714Y-85704819D01*
X86035714Y-85704819D02*
X86654761Y-85704819D01*
X87273809Y-84704819D02*
X87369047Y-84704819D01*
X87369047Y-84704819D02*
X87464285Y-84752438D01*
X87464285Y-84752438D02*
X87511904Y-84800057D01*
X87511904Y-84800057D02*
X87559523Y-84895295D01*
X87559523Y-84895295D02*
X87607142Y-85085771D01*
X87607142Y-85085771D02*
X87607142Y-85323866D01*
X87607142Y-85323866D02*
X87559523Y-85514342D01*
X87559523Y-85514342D02*
X87511904Y-85609580D01*
X87511904Y-85609580D02*
X87464285Y-85657200D01*
X87464285Y-85657200D02*
X87369047Y-85704819D01*
X87369047Y-85704819D02*
X87273809Y-85704819D01*
X87273809Y-85704819D02*
X87178571Y-85657200D01*
X87178571Y-85657200D02*
X87130952Y-85609580D01*
X87130952Y-85609580D02*
X87083333Y-85514342D01*
X87083333Y-85514342D02*
X87035714Y-85323866D01*
X87035714Y-85323866D02*
X87035714Y-85085771D01*
X87035714Y-85085771D02*
X87083333Y-84895295D01*
X87083333Y-84895295D02*
X87130952Y-84800057D01*
X87130952Y-84800057D02*
X87178571Y-84752438D01*
X87178571Y-84752438D02*
X87273809Y-84704819D01*
X88035714Y-85704819D02*
X88035714Y-84704819D01*
X88130952Y-85323866D02*
X88416666Y-85704819D01*
X88416666Y-85038152D02*
X88035714Y-85419104D01*
X86654761Y-141804819D02*
X86321428Y-141328628D01*
X86083333Y-141804819D02*
X86083333Y-140804819D01*
X86083333Y-140804819D02*
X86464285Y-140804819D01*
X86464285Y-140804819D02*
X86559523Y-140852438D01*
X86559523Y-140852438D02*
X86607142Y-140900057D01*
X86607142Y-140900057D02*
X86654761Y-140995295D01*
X86654761Y-140995295D02*
X86654761Y-141138152D01*
X86654761Y-141138152D02*
X86607142Y-141233390D01*
X86607142Y-141233390D02*
X86559523Y-141281009D01*
X86559523Y-141281009D02*
X86464285Y-141328628D01*
X86464285Y-141328628D02*
X86083333Y-141328628D01*
X86940476Y-140804819D02*
X87273809Y-141804819D01*
X87273809Y-141804819D02*
X87607142Y-140804819D01*
X88369047Y-140804819D02*
X88178571Y-140804819D01*
X88178571Y-140804819D02*
X88083333Y-140852438D01*
X88083333Y-140852438D02*
X88035714Y-140900057D01*
X88035714Y-140900057D02*
X87940476Y-141042914D01*
X87940476Y-141042914D02*
X87892857Y-141233390D01*
X87892857Y-141233390D02*
X87892857Y-141614342D01*
X87892857Y-141614342D02*
X87940476Y-141709580D01*
X87940476Y-141709580D02*
X87988095Y-141757200D01*
X87988095Y-141757200D02*
X88083333Y-141804819D01*
X88083333Y-141804819D02*
X88273809Y-141804819D01*
X88273809Y-141804819D02*
X88369047Y-141757200D01*
X88369047Y-141757200D02*
X88416666Y-141709580D01*
X88416666Y-141709580D02*
X88464285Y-141614342D01*
X88464285Y-141614342D02*
X88464285Y-141376247D01*
X88464285Y-141376247D02*
X88416666Y-141281009D01*
X88416666Y-141281009D02*
X88369047Y-141233390D01*
X88369047Y-141233390D02*
X88273809Y-141185771D01*
X88273809Y-141185771D02*
X88083333Y-141185771D01*
X88083333Y-141185771D02*
X87988095Y-141233390D01*
X87988095Y-141233390D02*
X87940476Y-141281009D01*
X87940476Y-141281009D02*
X87892857Y-141376247D01*
X94504819Y-158071428D02*
X94504819Y-158642856D01*
X94504819Y-158357142D02*
X93504819Y-158357142D01*
X93504819Y-158357142D02*
X93647676Y-158452380D01*
X93647676Y-158452380D02*
X93742914Y-158547618D01*
X93742914Y-158547618D02*
X93790533Y-158642856D01*
X93504819Y-157452380D02*
X93504819Y-157357142D01*
X93504819Y-157357142D02*
X93552438Y-157261904D01*
X93552438Y-157261904D02*
X93600057Y-157214285D01*
X93600057Y-157214285D02*
X93695295Y-157166666D01*
X93695295Y-157166666D02*
X93885771Y-157119047D01*
X93885771Y-157119047D02*
X94123866Y-157119047D01*
X94123866Y-157119047D02*
X94314342Y-157166666D01*
X94314342Y-157166666D02*
X94409580Y-157214285D01*
X94409580Y-157214285D02*
X94457200Y-157261904D01*
X94457200Y-157261904D02*
X94504819Y-157357142D01*
X94504819Y-157357142D02*
X94504819Y-157452380D01*
X94504819Y-157452380D02*
X94457200Y-157547618D01*
X94457200Y-157547618D02*
X94409580Y-157595237D01*
X94409580Y-157595237D02*
X94314342Y-157642856D01*
X94314342Y-157642856D02*
X94123866Y-157690475D01*
X94123866Y-157690475D02*
X93885771Y-157690475D01*
X93885771Y-157690475D02*
X93695295Y-157642856D01*
X93695295Y-157642856D02*
X93600057Y-157595237D01*
X93600057Y-157595237D02*
X93552438Y-157547618D01*
X93552438Y-157547618D02*
X93504819Y-157452380D01*
X93504819Y-156499999D02*
X93504819Y-156404761D01*
X93504819Y-156404761D02*
X93552438Y-156309523D01*
X93552438Y-156309523D02*
X93600057Y-156261904D01*
X93600057Y-156261904D02*
X93695295Y-156214285D01*
X93695295Y-156214285D02*
X93885771Y-156166666D01*
X93885771Y-156166666D02*
X94123866Y-156166666D01*
X94123866Y-156166666D02*
X94314342Y-156214285D01*
X94314342Y-156214285D02*
X94409580Y-156261904D01*
X94409580Y-156261904D02*
X94457200Y-156309523D01*
X94457200Y-156309523D02*
X94504819Y-156404761D01*
X94504819Y-156404761D02*
X94504819Y-156499999D01*
X94504819Y-156499999D02*
X94457200Y-156595237D01*
X94457200Y-156595237D02*
X94409580Y-156642856D01*
X94409580Y-156642856D02*
X94314342Y-156690475D01*
X94314342Y-156690475D02*
X94123866Y-156738094D01*
X94123866Y-156738094D02*
X93885771Y-156738094D01*
X93885771Y-156738094D02*
X93695295Y-156690475D01*
X93695295Y-156690475D02*
X93600057Y-156642856D01*
X93600057Y-156642856D02*
X93552438Y-156595237D01*
X93552438Y-156595237D02*
X93504819Y-156499999D01*
X94504819Y-155738094D02*
X93504819Y-155738094D01*
X94123866Y-155642856D02*
X94504819Y-155357142D01*
X93838152Y-155357142D02*
X94219104Y-155738094D01*
X84017857Y-162259580D02*
X83964285Y-162307200D01*
X83964285Y-162307200D02*
X83815476Y-162354819D01*
X83815476Y-162354819D02*
X83720238Y-162354819D01*
X83720238Y-162354819D02*
X83583333Y-162307200D01*
X83583333Y-162307200D02*
X83500000Y-162211961D01*
X83500000Y-162211961D02*
X83464285Y-162116723D01*
X83464285Y-162116723D02*
X83440476Y-161926247D01*
X83440476Y-161926247D02*
X83458333Y-161783390D01*
X83458333Y-161783390D02*
X83529761Y-161592914D01*
X83529761Y-161592914D02*
X83589285Y-161497676D01*
X83589285Y-161497676D02*
X83696428Y-161402438D01*
X83696428Y-161402438D02*
X83845238Y-161354819D01*
X83845238Y-161354819D02*
X83940476Y-161354819D01*
X83940476Y-161354819D02*
X84077381Y-161402438D01*
X84077381Y-161402438D02*
X84119047Y-161450057D01*
X84416666Y-161354819D02*
X84625000Y-162354819D01*
X84625000Y-162354819D02*
X85083333Y-161354819D01*
X86119048Y-161450057D02*
X86172619Y-161402438D01*
X86172619Y-161402438D02*
X86273809Y-161354819D01*
X86273809Y-161354819D02*
X86511905Y-161354819D01*
X86511905Y-161354819D02*
X86601190Y-161402438D01*
X86601190Y-161402438D02*
X86642857Y-161450057D01*
X86642857Y-161450057D02*
X86678571Y-161545295D01*
X86678571Y-161545295D02*
X86666667Y-161640533D01*
X86666667Y-161640533D02*
X86601190Y-161783390D01*
X86601190Y-161783390D02*
X85958333Y-162354819D01*
X85958333Y-162354819D02*
X86577381Y-162354819D01*
X87404762Y-161831009D02*
X87541667Y-161878628D01*
X87541667Y-161878628D02*
X87583333Y-161926247D01*
X87583333Y-161926247D02*
X87619048Y-162021485D01*
X87619048Y-162021485D02*
X87601190Y-162164342D01*
X87601190Y-162164342D02*
X87541667Y-162259580D01*
X87541667Y-162259580D02*
X87488095Y-162307200D01*
X87488095Y-162307200D02*
X87386905Y-162354819D01*
X87386905Y-162354819D02*
X87005952Y-162354819D01*
X87005952Y-162354819D02*
X87130952Y-161354819D01*
X87130952Y-161354819D02*
X87464286Y-161354819D01*
X87464286Y-161354819D02*
X87553571Y-161402438D01*
X87553571Y-161402438D02*
X87595238Y-161450057D01*
X87595238Y-161450057D02*
X87630952Y-161545295D01*
X87630952Y-161545295D02*
X87619048Y-161640533D01*
X87619048Y-161640533D02*
X87559524Y-161735771D01*
X87559524Y-161735771D02*
X87505952Y-161783390D01*
X87505952Y-161783390D02*
X87404762Y-161831009D01*
X87404762Y-161831009D02*
X87071429Y-161831009D01*
X88755953Y-162069104D02*
X89232143Y-162069104D01*
X88625000Y-162354819D02*
X89083334Y-161354819D01*
X89083334Y-161354819D02*
X89291667Y-162354819D01*
X89625000Y-162354819D02*
X89708334Y-161688152D01*
X89696429Y-161783390D02*
X89750000Y-161735771D01*
X89750000Y-161735771D02*
X89851191Y-161688152D01*
X89851191Y-161688152D02*
X89994048Y-161688152D01*
X89994048Y-161688152D02*
X90083334Y-161735771D01*
X90083334Y-161735771D02*
X90119048Y-161831009D01*
X90119048Y-161831009D02*
X90053572Y-162354819D01*
X90119048Y-161831009D02*
X90178572Y-161735771D01*
X90178572Y-161735771D02*
X90279762Y-161688152D01*
X90279762Y-161688152D02*
X90422619Y-161688152D01*
X90422619Y-161688152D02*
X90511905Y-161735771D01*
X90511905Y-161735771D02*
X90547619Y-161831009D01*
X90547619Y-161831009D02*
X90482143Y-162354819D01*
X90898810Y-161688152D02*
X91279762Y-161688152D01*
X91083333Y-161354819D02*
X90976191Y-162211961D01*
X90976191Y-162211961D02*
X91011905Y-162307200D01*
X91011905Y-162307200D02*
X91101191Y-162354819D01*
X91101191Y-162354819D02*
X91196429Y-162354819D01*
X62154761Y-48804819D02*
X61821428Y-48328628D01*
X61583333Y-48804819D02*
X61583333Y-47804819D01*
X61583333Y-47804819D02*
X61964285Y-47804819D01*
X61964285Y-47804819D02*
X62059523Y-47852438D01*
X62059523Y-47852438D02*
X62107142Y-47900057D01*
X62107142Y-47900057D02*
X62154761Y-47995295D01*
X62154761Y-47995295D02*
X62154761Y-48138152D01*
X62154761Y-48138152D02*
X62107142Y-48233390D01*
X62107142Y-48233390D02*
X62059523Y-48281009D01*
X62059523Y-48281009D02*
X61964285Y-48328628D01*
X61964285Y-48328628D02*
X61583333Y-48328628D01*
X62440476Y-47804819D02*
X62773809Y-48804819D01*
X62773809Y-48804819D02*
X63107142Y-47804819D01*
X63392857Y-47900057D02*
X63440476Y-47852438D01*
X63440476Y-47852438D02*
X63535714Y-47804819D01*
X63535714Y-47804819D02*
X63773809Y-47804819D01*
X63773809Y-47804819D02*
X63869047Y-47852438D01*
X63869047Y-47852438D02*
X63916666Y-47900057D01*
X63916666Y-47900057D02*
X63964285Y-47995295D01*
X63964285Y-47995295D02*
X63964285Y-48090533D01*
X63964285Y-48090533D02*
X63916666Y-48233390D01*
X63916666Y-48233390D02*
X63345238Y-48804819D01*
X63345238Y-48804819D02*
X63964285Y-48804819D01*
X70004819Y-65071428D02*
X70004819Y-65642856D01*
X70004819Y-65357142D02*
X69004819Y-65357142D01*
X69004819Y-65357142D02*
X69147676Y-65452380D01*
X69147676Y-65452380D02*
X69242914Y-65547618D01*
X69242914Y-65547618D02*
X69290533Y-65642856D01*
X69004819Y-64452380D02*
X69004819Y-64357142D01*
X69004819Y-64357142D02*
X69052438Y-64261904D01*
X69052438Y-64261904D02*
X69100057Y-64214285D01*
X69100057Y-64214285D02*
X69195295Y-64166666D01*
X69195295Y-64166666D02*
X69385771Y-64119047D01*
X69385771Y-64119047D02*
X69623866Y-64119047D01*
X69623866Y-64119047D02*
X69814342Y-64166666D01*
X69814342Y-64166666D02*
X69909580Y-64214285D01*
X69909580Y-64214285D02*
X69957200Y-64261904D01*
X69957200Y-64261904D02*
X70004819Y-64357142D01*
X70004819Y-64357142D02*
X70004819Y-64452380D01*
X70004819Y-64452380D02*
X69957200Y-64547618D01*
X69957200Y-64547618D02*
X69909580Y-64595237D01*
X69909580Y-64595237D02*
X69814342Y-64642856D01*
X69814342Y-64642856D02*
X69623866Y-64690475D01*
X69623866Y-64690475D02*
X69385771Y-64690475D01*
X69385771Y-64690475D02*
X69195295Y-64642856D01*
X69195295Y-64642856D02*
X69100057Y-64595237D01*
X69100057Y-64595237D02*
X69052438Y-64547618D01*
X69052438Y-64547618D02*
X69004819Y-64452380D01*
X69004819Y-63499999D02*
X69004819Y-63404761D01*
X69004819Y-63404761D02*
X69052438Y-63309523D01*
X69052438Y-63309523D02*
X69100057Y-63261904D01*
X69100057Y-63261904D02*
X69195295Y-63214285D01*
X69195295Y-63214285D02*
X69385771Y-63166666D01*
X69385771Y-63166666D02*
X69623866Y-63166666D01*
X69623866Y-63166666D02*
X69814342Y-63214285D01*
X69814342Y-63214285D02*
X69909580Y-63261904D01*
X69909580Y-63261904D02*
X69957200Y-63309523D01*
X69957200Y-63309523D02*
X70004819Y-63404761D01*
X70004819Y-63404761D02*
X70004819Y-63499999D01*
X70004819Y-63499999D02*
X69957200Y-63595237D01*
X69957200Y-63595237D02*
X69909580Y-63642856D01*
X69909580Y-63642856D02*
X69814342Y-63690475D01*
X69814342Y-63690475D02*
X69623866Y-63738094D01*
X69623866Y-63738094D02*
X69385771Y-63738094D01*
X69385771Y-63738094D02*
X69195295Y-63690475D01*
X69195295Y-63690475D02*
X69100057Y-63642856D01*
X69100057Y-63642856D02*
X69052438Y-63595237D01*
X69052438Y-63595237D02*
X69004819Y-63499999D01*
X70004819Y-62738094D02*
X69004819Y-62738094D01*
X69623866Y-62642856D02*
X70004819Y-62357142D01*
X69338152Y-62357142D02*
X69719104Y-62738094D01*
X59589285Y-69259580D02*
X59535713Y-69307200D01*
X59535713Y-69307200D02*
X59386904Y-69354819D01*
X59386904Y-69354819D02*
X59291666Y-69354819D01*
X59291666Y-69354819D02*
X59154761Y-69307200D01*
X59154761Y-69307200D02*
X59071428Y-69211961D01*
X59071428Y-69211961D02*
X59035713Y-69116723D01*
X59035713Y-69116723D02*
X59011904Y-68926247D01*
X59011904Y-68926247D02*
X59029761Y-68783390D01*
X59029761Y-68783390D02*
X59101189Y-68592914D01*
X59101189Y-68592914D02*
X59160713Y-68497676D01*
X59160713Y-68497676D02*
X59267856Y-68402438D01*
X59267856Y-68402438D02*
X59416666Y-68354819D01*
X59416666Y-68354819D02*
X59511904Y-68354819D01*
X59511904Y-68354819D02*
X59648809Y-68402438D01*
X59648809Y-68402438D02*
X59690475Y-68450057D01*
X59988094Y-68354819D02*
X60196428Y-69354819D01*
X60196428Y-69354819D02*
X60654761Y-68354819D01*
X62148809Y-69354819D02*
X61577380Y-69354819D01*
X61863095Y-69354819D02*
X61988095Y-68354819D01*
X61988095Y-68354819D02*
X61874999Y-68497676D01*
X61874999Y-68497676D02*
X61767857Y-68592914D01*
X61767857Y-68592914D02*
X61666666Y-68640533D01*
X62565476Y-69069104D02*
X63041666Y-69069104D01*
X62434523Y-69354819D02*
X62892857Y-68354819D01*
X62892857Y-68354819D02*
X63101190Y-69354819D01*
X64184524Y-69069104D02*
X64660714Y-69069104D01*
X64053571Y-69354819D02*
X64511905Y-68354819D01*
X64511905Y-68354819D02*
X64720238Y-69354819D01*
X65053571Y-69354819D02*
X65136905Y-68688152D01*
X65125000Y-68783390D02*
X65178571Y-68735771D01*
X65178571Y-68735771D02*
X65279762Y-68688152D01*
X65279762Y-68688152D02*
X65422619Y-68688152D01*
X65422619Y-68688152D02*
X65511905Y-68735771D01*
X65511905Y-68735771D02*
X65547619Y-68831009D01*
X65547619Y-68831009D02*
X65482143Y-69354819D01*
X65547619Y-68831009D02*
X65607143Y-68735771D01*
X65607143Y-68735771D02*
X65708333Y-68688152D01*
X65708333Y-68688152D02*
X65851190Y-68688152D01*
X65851190Y-68688152D02*
X65940476Y-68735771D01*
X65940476Y-68735771D02*
X65976190Y-68831009D01*
X65976190Y-68831009D02*
X65910714Y-69354819D01*
X66327381Y-68688152D02*
X66708333Y-68688152D01*
X66511904Y-68354819D02*
X66404762Y-69211961D01*
X66404762Y-69211961D02*
X66440476Y-69307200D01*
X66440476Y-69307200D02*
X66529762Y-69354819D01*
X66529762Y-69354819D02*
X66625000Y-69354819D01*
X62154761Y-78804819D02*
X61821428Y-78328628D01*
X61583333Y-78804819D02*
X61583333Y-77804819D01*
X61583333Y-77804819D02*
X61964285Y-77804819D01*
X61964285Y-77804819D02*
X62059523Y-77852438D01*
X62059523Y-77852438D02*
X62107142Y-77900057D01*
X62107142Y-77900057D02*
X62154761Y-77995295D01*
X62154761Y-77995295D02*
X62154761Y-78138152D01*
X62154761Y-78138152D02*
X62107142Y-78233390D01*
X62107142Y-78233390D02*
X62059523Y-78281009D01*
X62059523Y-78281009D02*
X61964285Y-78328628D01*
X61964285Y-78328628D02*
X61583333Y-78328628D01*
X62440476Y-77804819D02*
X62773809Y-78804819D01*
X62773809Y-78804819D02*
X63107142Y-77804819D01*
X63345238Y-77804819D02*
X63964285Y-77804819D01*
X63964285Y-77804819D02*
X63630952Y-78185771D01*
X63630952Y-78185771D02*
X63773809Y-78185771D01*
X63773809Y-78185771D02*
X63869047Y-78233390D01*
X63869047Y-78233390D02*
X63916666Y-78281009D01*
X63916666Y-78281009D02*
X63964285Y-78376247D01*
X63964285Y-78376247D02*
X63964285Y-78614342D01*
X63964285Y-78614342D02*
X63916666Y-78709580D01*
X63916666Y-78709580D02*
X63869047Y-78757200D01*
X63869047Y-78757200D02*
X63773809Y-78804819D01*
X63773809Y-78804819D02*
X63488095Y-78804819D01*
X63488095Y-78804819D02*
X63392857Y-78757200D01*
X63392857Y-78757200D02*
X63345238Y-78709580D01*
X70004819Y-95071428D02*
X70004819Y-95642856D01*
X70004819Y-95357142D02*
X69004819Y-95357142D01*
X69004819Y-95357142D02*
X69147676Y-95452380D01*
X69147676Y-95452380D02*
X69242914Y-95547618D01*
X69242914Y-95547618D02*
X69290533Y-95642856D01*
X69004819Y-94452380D02*
X69004819Y-94357142D01*
X69004819Y-94357142D02*
X69052438Y-94261904D01*
X69052438Y-94261904D02*
X69100057Y-94214285D01*
X69100057Y-94214285D02*
X69195295Y-94166666D01*
X69195295Y-94166666D02*
X69385771Y-94119047D01*
X69385771Y-94119047D02*
X69623866Y-94119047D01*
X69623866Y-94119047D02*
X69814342Y-94166666D01*
X69814342Y-94166666D02*
X69909580Y-94214285D01*
X69909580Y-94214285D02*
X69957200Y-94261904D01*
X69957200Y-94261904D02*
X70004819Y-94357142D01*
X70004819Y-94357142D02*
X70004819Y-94452380D01*
X70004819Y-94452380D02*
X69957200Y-94547618D01*
X69957200Y-94547618D02*
X69909580Y-94595237D01*
X69909580Y-94595237D02*
X69814342Y-94642856D01*
X69814342Y-94642856D02*
X69623866Y-94690475D01*
X69623866Y-94690475D02*
X69385771Y-94690475D01*
X69385771Y-94690475D02*
X69195295Y-94642856D01*
X69195295Y-94642856D02*
X69100057Y-94595237D01*
X69100057Y-94595237D02*
X69052438Y-94547618D01*
X69052438Y-94547618D02*
X69004819Y-94452380D01*
X69004819Y-93499999D02*
X69004819Y-93404761D01*
X69004819Y-93404761D02*
X69052438Y-93309523D01*
X69052438Y-93309523D02*
X69100057Y-93261904D01*
X69100057Y-93261904D02*
X69195295Y-93214285D01*
X69195295Y-93214285D02*
X69385771Y-93166666D01*
X69385771Y-93166666D02*
X69623866Y-93166666D01*
X69623866Y-93166666D02*
X69814342Y-93214285D01*
X69814342Y-93214285D02*
X69909580Y-93261904D01*
X69909580Y-93261904D02*
X69957200Y-93309523D01*
X69957200Y-93309523D02*
X70004819Y-93404761D01*
X70004819Y-93404761D02*
X70004819Y-93499999D01*
X70004819Y-93499999D02*
X69957200Y-93595237D01*
X69957200Y-93595237D02*
X69909580Y-93642856D01*
X69909580Y-93642856D02*
X69814342Y-93690475D01*
X69814342Y-93690475D02*
X69623866Y-93738094D01*
X69623866Y-93738094D02*
X69385771Y-93738094D01*
X69385771Y-93738094D02*
X69195295Y-93690475D01*
X69195295Y-93690475D02*
X69100057Y-93642856D01*
X69100057Y-93642856D02*
X69052438Y-93595237D01*
X69052438Y-93595237D02*
X69004819Y-93499999D01*
X70004819Y-92738094D02*
X69004819Y-92738094D01*
X69623866Y-92642856D02*
X70004819Y-92357142D01*
X69338152Y-92357142D02*
X69719104Y-92738094D01*
X59589285Y-99259580D02*
X59535713Y-99307200D01*
X59535713Y-99307200D02*
X59386904Y-99354819D01*
X59386904Y-99354819D02*
X59291666Y-99354819D01*
X59291666Y-99354819D02*
X59154761Y-99307200D01*
X59154761Y-99307200D02*
X59071428Y-99211961D01*
X59071428Y-99211961D02*
X59035713Y-99116723D01*
X59035713Y-99116723D02*
X59011904Y-98926247D01*
X59011904Y-98926247D02*
X59029761Y-98783390D01*
X59029761Y-98783390D02*
X59101189Y-98592914D01*
X59101189Y-98592914D02*
X59160713Y-98497676D01*
X59160713Y-98497676D02*
X59267856Y-98402438D01*
X59267856Y-98402438D02*
X59416666Y-98354819D01*
X59416666Y-98354819D02*
X59511904Y-98354819D01*
X59511904Y-98354819D02*
X59648809Y-98402438D01*
X59648809Y-98402438D02*
X59690475Y-98450057D01*
X59988094Y-98354819D02*
X60196428Y-99354819D01*
X60196428Y-99354819D02*
X60654761Y-98354819D01*
X61690476Y-98450057D02*
X61744047Y-98402438D01*
X61744047Y-98402438D02*
X61845237Y-98354819D01*
X61845237Y-98354819D02*
X62083333Y-98354819D01*
X62083333Y-98354819D02*
X62172618Y-98402438D01*
X62172618Y-98402438D02*
X62214285Y-98450057D01*
X62214285Y-98450057D02*
X62249999Y-98545295D01*
X62249999Y-98545295D02*
X62238095Y-98640533D01*
X62238095Y-98640533D02*
X62172618Y-98783390D01*
X62172618Y-98783390D02*
X61529761Y-99354819D01*
X61529761Y-99354819D02*
X62148809Y-99354819D01*
X62565476Y-99069104D02*
X63041666Y-99069104D01*
X62434523Y-99354819D02*
X62892857Y-98354819D01*
X62892857Y-98354819D02*
X63101190Y-99354819D01*
X64184524Y-99069104D02*
X64660714Y-99069104D01*
X64053571Y-99354819D02*
X64511905Y-98354819D01*
X64511905Y-98354819D02*
X64720238Y-99354819D01*
X65053571Y-99354819D02*
X65136905Y-98688152D01*
X65125000Y-98783390D02*
X65178571Y-98735771D01*
X65178571Y-98735771D02*
X65279762Y-98688152D01*
X65279762Y-98688152D02*
X65422619Y-98688152D01*
X65422619Y-98688152D02*
X65511905Y-98735771D01*
X65511905Y-98735771D02*
X65547619Y-98831009D01*
X65547619Y-98831009D02*
X65482143Y-99354819D01*
X65547619Y-98831009D02*
X65607143Y-98735771D01*
X65607143Y-98735771D02*
X65708333Y-98688152D01*
X65708333Y-98688152D02*
X65851190Y-98688152D01*
X65851190Y-98688152D02*
X65940476Y-98735771D01*
X65940476Y-98735771D02*
X65976190Y-98831009D01*
X65976190Y-98831009D02*
X65910714Y-99354819D01*
X66327381Y-98688152D02*
X66708333Y-98688152D01*
X66511904Y-98354819D02*
X66404762Y-99211961D01*
X66404762Y-99211961D02*
X66440476Y-99307200D01*
X66440476Y-99307200D02*
X66529762Y-99354819D01*
X66529762Y-99354819D02*
X66625000Y-99354819D01*
X54666666Y-106124819D02*
X54666666Y-106839104D01*
X54666666Y-106839104D02*
X54619047Y-106981961D01*
X54619047Y-106981961D02*
X54523809Y-107077200D01*
X54523809Y-107077200D02*
X54380952Y-107124819D01*
X54380952Y-107124819D02*
X54285714Y-107124819D01*
X55333333Y-106124819D02*
X55428571Y-106124819D01*
X55428571Y-106124819D02*
X55523809Y-106172438D01*
X55523809Y-106172438D02*
X55571428Y-106220057D01*
X55571428Y-106220057D02*
X55619047Y-106315295D01*
X55619047Y-106315295D02*
X55666666Y-106505771D01*
X55666666Y-106505771D02*
X55666666Y-106743866D01*
X55666666Y-106743866D02*
X55619047Y-106934342D01*
X55619047Y-106934342D02*
X55571428Y-107029580D01*
X55571428Y-107029580D02*
X55523809Y-107077200D01*
X55523809Y-107077200D02*
X55428571Y-107124819D01*
X55428571Y-107124819D02*
X55333333Y-107124819D01*
X55333333Y-107124819D02*
X55238095Y-107077200D01*
X55238095Y-107077200D02*
X55190476Y-107029580D01*
X55190476Y-107029580D02*
X55142857Y-106934342D01*
X55142857Y-106934342D02*
X55095238Y-106743866D01*
X55095238Y-106743866D02*
X55095238Y-106505771D01*
X55095238Y-106505771D02*
X55142857Y-106315295D01*
X55142857Y-106315295D02*
X55190476Y-106220057D01*
X55190476Y-106220057D02*
X55238095Y-106172438D01*
X55238095Y-106172438D02*
X55333333Y-106124819D01*
X57504819Y-139195238D02*
X57028628Y-139528571D01*
X57504819Y-139766666D02*
X56504819Y-139766666D01*
X56504819Y-139766666D02*
X56504819Y-139385714D01*
X56504819Y-139385714D02*
X56552438Y-139290476D01*
X56552438Y-139290476D02*
X56600057Y-139242857D01*
X56600057Y-139242857D02*
X56695295Y-139195238D01*
X56695295Y-139195238D02*
X56838152Y-139195238D01*
X56838152Y-139195238D02*
X56933390Y-139242857D01*
X56933390Y-139242857D02*
X56981009Y-139290476D01*
X56981009Y-139290476D02*
X57028628Y-139385714D01*
X57028628Y-139385714D02*
X57028628Y-139766666D01*
X56504819Y-138909523D02*
X57504819Y-138576190D01*
X57504819Y-138576190D02*
X56504819Y-138242857D01*
X56838152Y-137480952D02*
X57504819Y-137480952D01*
X56457200Y-137719047D02*
X57171485Y-137957142D01*
X57171485Y-137957142D02*
X57171485Y-137338095D01*
X69004819Y-139871428D02*
X69004819Y-140442856D01*
X69004819Y-140157142D02*
X68004819Y-140157142D01*
X68004819Y-140157142D02*
X68147676Y-140252380D01*
X68147676Y-140252380D02*
X68242914Y-140347618D01*
X68242914Y-140347618D02*
X68290533Y-140442856D01*
X68004819Y-139252380D02*
X68004819Y-139157142D01*
X68004819Y-139157142D02*
X68052438Y-139061904D01*
X68052438Y-139061904D02*
X68100057Y-139014285D01*
X68100057Y-139014285D02*
X68195295Y-138966666D01*
X68195295Y-138966666D02*
X68385771Y-138919047D01*
X68385771Y-138919047D02*
X68623866Y-138919047D01*
X68623866Y-138919047D02*
X68814342Y-138966666D01*
X68814342Y-138966666D02*
X68909580Y-139014285D01*
X68909580Y-139014285D02*
X68957200Y-139061904D01*
X68957200Y-139061904D02*
X69004819Y-139157142D01*
X69004819Y-139157142D02*
X69004819Y-139252380D01*
X69004819Y-139252380D02*
X68957200Y-139347618D01*
X68957200Y-139347618D02*
X68909580Y-139395237D01*
X68909580Y-139395237D02*
X68814342Y-139442856D01*
X68814342Y-139442856D02*
X68623866Y-139490475D01*
X68623866Y-139490475D02*
X68385771Y-139490475D01*
X68385771Y-139490475D02*
X68195295Y-139442856D01*
X68195295Y-139442856D02*
X68100057Y-139395237D01*
X68100057Y-139395237D02*
X68052438Y-139347618D01*
X68052438Y-139347618D02*
X68004819Y-139252380D01*
X68004819Y-138299999D02*
X68004819Y-138204761D01*
X68004819Y-138204761D02*
X68052438Y-138109523D01*
X68052438Y-138109523D02*
X68100057Y-138061904D01*
X68100057Y-138061904D02*
X68195295Y-138014285D01*
X68195295Y-138014285D02*
X68385771Y-137966666D01*
X68385771Y-137966666D02*
X68623866Y-137966666D01*
X68623866Y-137966666D02*
X68814342Y-138014285D01*
X68814342Y-138014285D02*
X68909580Y-138061904D01*
X68909580Y-138061904D02*
X68957200Y-138109523D01*
X68957200Y-138109523D02*
X69004819Y-138204761D01*
X69004819Y-138204761D02*
X69004819Y-138299999D01*
X69004819Y-138299999D02*
X68957200Y-138395237D01*
X68957200Y-138395237D02*
X68909580Y-138442856D01*
X68909580Y-138442856D02*
X68814342Y-138490475D01*
X68814342Y-138490475D02*
X68623866Y-138538094D01*
X68623866Y-138538094D02*
X68385771Y-138538094D01*
X68385771Y-138538094D02*
X68195295Y-138490475D01*
X68195295Y-138490475D02*
X68100057Y-138442856D01*
X68100057Y-138442856D02*
X68052438Y-138395237D01*
X68052438Y-138395237D02*
X68004819Y-138299999D01*
X69004819Y-137538094D02*
X68004819Y-137538094D01*
X68623866Y-137442856D02*
X69004819Y-137157142D01*
X68338152Y-137157142D02*
X68719104Y-137538094D01*
X60202380Y-142954819D02*
X60392856Y-142954819D01*
X60392856Y-142954819D02*
X60482141Y-143002438D01*
X60482141Y-143002438D02*
X60565475Y-143097676D01*
X60565475Y-143097676D02*
X60589284Y-143288152D01*
X60589284Y-143288152D02*
X60547618Y-143621485D01*
X60547618Y-143621485D02*
X60476189Y-143811961D01*
X60476189Y-143811961D02*
X60369046Y-143907200D01*
X60369046Y-143907200D02*
X60267856Y-143954819D01*
X60267856Y-143954819D02*
X60077380Y-143954819D01*
X60077380Y-143954819D02*
X59988094Y-143907200D01*
X59988094Y-143907200D02*
X59904761Y-143811961D01*
X59904761Y-143811961D02*
X59880951Y-143621485D01*
X59880951Y-143621485D02*
X59922618Y-143288152D01*
X59922618Y-143288152D02*
X59994046Y-143097676D01*
X59994046Y-143097676D02*
X60101189Y-143002438D01*
X60101189Y-143002438D02*
X60202380Y-142954819D01*
X60874999Y-143288152D02*
X61255951Y-143288152D01*
X60934522Y-143954819D02*
X61041665Y-143097676D01*
X61041665Y-143097676D02*
X61101189Y-143002438D01*
X61101189Y-143002438D02*
X61202380Y-142954819D01*
X61202380Y-142954819D02*
X61297618Y-142954819D01*
X61446428Y-143288152D02*
X61827380Y-143288152D01*
X61505951Y-143954819D02*
X61613094Y-143097676D01*
X61613094Y-143097676D02*
X61672618Y-143002438D01*
X61672618Y-143002438D02*
X61773809Y-142954819D01*
X61773809Y-142954819D02*
X61869047Y-142954819D01*
X62035714Y-143907200D02*
X62124999Y-143954819D01*
X62124999Y-143954819D02*
X62315476Y-143954819D01*
X62315476Y-143954819D02*
X62416666Y-143907200D01*
X62416666Y-143907200D02*
X62476190Y-143811961D01*
X62476190Y-143811961D02*
X62482142Y-143764342D01*
X62482142Y-143764342D02*
X62446428Y-143669104D01*
X62446428Y-143669104D02*
X62357142Y-143621485D01*
X62357142Y-143621485D02*
X62214285Y-143621485D01*
X62214285Y-143621485D02*
X62124999Y-143573866D01*
X62124999Y-143573866D02*
X62089285Y-143478628D01*
X62089285Y-143478628D02*
X62095238Y-143431009D01*
X62095238Y-143431009D02*
X62154761Y-143335771D01*
X62154761Y-143335771D02*
X62255952Y-143288152D01*
X62255952Y-143288152D02*
X62398809Y-143288152D01*
X62398809Y-143288152D02*
X62488095Y-143335771D01*
X63273809Y-143907200D02*
X63172619Y-143954819D01*
X63172619Y-143954819D02*
X62982142Y-143954819D01*
X62982142Y-143954819D02*
X62892857Y-143907200D01*
X62892857Y-143907200D02*
X62857142Y-143811961D01*
X62857142Y-143811961D02*
X62904762Y-143431009D01*
X62904762Y-143431009D02*
X62964285Y-143335771D01*
X62964285Y-143335771D02*
X63065476Y-143288152D01*
X63065476Y-143288152D02*
X63255952Y-143288152D01*
X63255952Y-143288152D02*
X63345238Y-143335771D01*
X63345238Y-143335771D02*
X63380952Y-143431009D01*
X63380952Y-143431009D02*
X63369047Y-143526247D01*
X63369047Y-143526247D02*
X62880952Y-143621485D01*
X63684524Y-143288152D02*
X64065476Y-143288152D01*
X63869047Y-142954819D02*
X63761905Y-143811961D01*
X63761905Y-143811961D02*
X63797619Y-143907200D01*
X63797619Y-143907200D02*
X63886905Y-143954819D01*
X63886905Y-143954819D02*
X63982143Y-143954819D01*
X65476191Y-143431009D02*
X65613096Y-143478628D01*
X65613096Y-143478628D02*
X65654762Y-143526247D01*
X65654762Y-143526247D02*
X65690477Y-143621485D01*
X65690477Y-143621485D02*
X65672619Y-143764342D01*
X65672619Y-143764342D02*
X65613096Y-143859580D01*
X65613096Y-143859580D02*
X65559524Y-143907200D01*
X65559524Y-143907200D02*
X65458334Y-143954819D01*
X65458334Y-143954819D02*
X65077381Y-143954819D01*
X65077381Y-143954819D02*
X65202381Y-142954819D01*
X65202381Y-142954819D02*
X65535715Y-142954819D01*
X65535715Y-142954819D02*
X65625000Y-143002438D01*
X65625000Y-143002438D02*
X65666667Y-143050057D01*
X65666667Y-143050057D02*
X65702381Y-143145295D01*
X65702381Y-143145295D02*
X65690477Y-143240533D01*
X65690477Y-143240533D02*
X65630953Y-143335771D01*
X65630953Y-143335771D02*
X65577381Y-143383390D01*
X65577381Y-143383390D02*
X65476191Y-143431009D01*
X65476191Y-143431009D02*
X65142858Y-143431009D01*
X86654761Y-111804819D02*
X86321428Y-111328628D01*
X86083333Y-111804819D02*
X86083333Y-110804819D01*
X86083333Y-110804819D02*
X86464285Y-110804819D01*
X86464285Y-110804819D02*
X86559523Y-110852438D01*
X86559523Y-110852438D02*
X86607142Y-110900057D01*
X86607142Y-110900057D02*
X86654761Y-110995295D01*
X86654761Y-110995295D02*
X86654761Y-111138152D01*
X86654761Y-111138152D02*
X86607142Y-111233390D01*
X86607142Y-111233390D02*
X86559523Y-111281009D01*
X86559523Y-111281009D02*
X86464285Y-111328628D01*
X86464285Y-111328628D02*
X86083333Y-111328628D01*
X86940476Y-110804819D02*
X87273809Y-111804819D01*
X87273809Y-111804819D02*
X87607142Y-110804819D01*
X88416666Y-110804819D02*
X87940476Y-110804819D01*
X87940476Y-110804819D02*
X87892857Y-111281009D01*
X87892857Y-111281009D02*
X87940476Y-111233390D01*
X87940476Y-111233390D02*
X88035714Y-111185771D01*
X88035714Y-111185771D02*
X88273809Y-111185771D01*
X88273809Y-111185771D02*
X88369047Y-111233390D01*
X88369047Y-111233390D02*
X88416666Y-111281009D01*
X88416666Y-111281009D02*
X88464285Y-111376247D01*
X88464285Y-111376247D02*
X88464285Y-111614342D01*
X88464285Y-111614342D02*
X88416666Y-111709580D01*
X88416666Y-111709580D02*
X88369047Y-111757200D01*
X88369047Y-111757200D02*
X88273809Y-111804819D01*
X88273809Y-111804819D02*
X88035714Y-111804819D01*
X88035714Y-111804819D02*
X87940476Y-111757200D01*
X87940476Y-111757200D02*
X87892857Y-111709580D01*
X94504819Y-128071428D02*
X94504819Y-128642856D01*
X94504819Y-128357142D02*
X93504819Y-128357142D01*
X93504819Y-128357142D02*
X93647676Y-128452380D01*
X93647676Y-128452380D02*
X93742914Y-128547618D01*
X93742914Y-128547618D02*
X93790533Y-128642856D01*
X93504819Y-127452380D02*
X93504819Y-127357142D01*
X93504819Y-127357142D02*
X93552438Y-127261904D01*
X93552438Y-127261904D02*
X93600057Y-127214285D01*
X93600057Y-127214285D02*
X93695295Y-127166666D01*
X93695295Y-127166666D02*
X93885771Y-127119047D01*
X93885771Y-127119047D02*
X94123866Y-127119047D01*
X94123866Y-127119047D02*
X94314342Y-127166666D01*
X94314342Y-127166666D02*
X94409580Y-127214285D01*
X94409580Y-127214285D02*
X94457200Y-127261904D01*
X94457200Y-127261904D02*
X94504819Y-127357142D01*
X94504819Y-127357142D02*
X94504819Y-127452380D01*
X94504819Y-127452380D02*
X94457200Y-127547618D01*
X94457200Y-127547618D02*
X94409580Y-127595237D01*
X94409580Y-127595237D02*
X94314342Y-127642856D01*
X94314342Y-127642856D02*
X94123866Y-127690475D01*
X94123866Y-127690475D02*
X93885771Y-127690475D01*
X93885771Y-127690475D02*
X93695295Y-127642856D01*
X93695295Y-127642856D02*
X93600057Y-127595237D01*
X93600057Y-127595237D02*
X93552438Y-127547618D01*
X93552438Y-127547618D02*
X93504819Y-127452380D01*
X93504819Y-126499999D02*
X93504819Y-126404761D01*
X93504819Y-126404761D02*
X93552438Y-126309523D01*
X93552438Y-126309523D02*
X93600057Y-126261904D01*
X93600057Y-126261904D02*
X93695295Y-126214285D01*
X93695295Y-126214285D02*
X93885771Y-126166666D01*
X93885771Y-126166666D02*
X94123866Y-126166666D01*
X94123866Y-126166666D02*
X94314342Y-126214285D01*
X94314342Y-126214285D02*
X94409580Y-126261904D01*
X94409580Y-126261904D02*
X94457200Y-126309523D01*
X94457200Y-126309523D02*
X94504819Y-126404761D01*
X94504819Y-126404761D02*
X94504819Y-126499999D01*
X94504819Y-126499999D02*
X94457200Y-126595237D01*
X94457200Y-126595237D02*
X94409580Y-126642856D01*
X94409580Y-126642856D02*
X94314342Y-126690475D01*
X94314342Y-126690475D02*
X94123866Y-126738094D01*
X94123866Y-126738094D02*
X93885771Y-126738094D01*
X93885771Y-126738094D02*
X93695295Y-126690475D01*
X93695295Y-126690475D02*
X93600057Y-126642856D01*
X93600057Y-126642856D02*
X93552438Y-126595237D01*
X93552438Y-126595237D02*
X93504819Y-126499999D01*
X94504819Y-125738094D02*
X93504819Y-125738094D01*
X94123866Y-125642856D02*
X94504819Y-125357142D01*
X93838152Y-125357142D02*
X94219104Y-125738094D01*
X84017857Y-132259580D02*
X83964285Y-132307200D01*
X83964285Y-132307200D02*
X83815476Y-132354819D01*
X83815476Y-132354819D02*
X83720238Y-132354819D01*
X83720238Y-132354819D02*
X83583333Y-132307200D01*
X83583333Y-132307200D02*
X83500000Y-132211961D01*
X83500000Y-132211961D02*
X83464285Y-132116723D01*
X83464285Y-132116723D02*
X83440476Y-131926247D01*
X83440476Y-131926247D02*
X83458333Y-131783390D01*
X83458333Y-131783390D02*
X83529761Y-131592914D01*
X83529761Y-131592914D02*
X83589285Y-131497676D01*
X83589285Y-131497676D02*
X83696428Y-131402438D01*
X83696428Y-131402438D02*
X83845238Y-131354819D01*
X83845238Y-131354819D02*
X83940476Y-131354819D01*
X83940476Y-131354819D02*
X84077381Y-131402438D01*
X84077381Y-131402438D02*
X84119047Y-131450057D01*
X84416666Y-131354819D02*
X84625000Y-132354819D01*
X84625000Y-132354819D02*
X85083333Y-131354819D01*
X86577381Y-132354819D02*
X86005952Y-132354819D01*
X86291667Y-132354819D02*
X86416667Y-131354819D01*
X86416667Y-131354819D02*
X86303571Y-131497676D01*
X86303571Y-131497676D02*
X86196429Y-131592914D01*
X86196429Y-131592914D02*
X86095238Y-131640533D01*
X87404762Y-131831009D02*
X87541667Y-131878628D01*
X87541667Y-131878628D02*
X87583333Y-131926247D01*
X87583333Y-131926247D02*
X87619048Y-132021485D01*
X87619048Y-132021485D02*
X87601190Y-132164342D01*
X87601190Y-132164342D02*
X87541667Y-132259580D01*
X87541667Y-132259580D02*
X87488095Y-132307200D01*
X87488095Y-132307200D02*
X87386905Y-132354819D01*
X87386905Y-132354819D02*
X87005952Y-132354819D01*
X87005952Y-132354819D02*
X87130952Y-131354819D01*
X87130952Y-131354819D02*
X87464286Y-131354819D01*
X87464286Y-131354819D02*
X87553571Y-131402438D01*
X87553571Y-131402438D02*
X87595238Y-131450057D01*
X87595238Y-131450057D02*
X87630952Y-131545295D01*
X87630952Y-131545295D02*
X87619048Y-131640533D01*
X87619048Y-131640533D02*
X87559524Y-131735771D01*
X87559524Y-131735771D02*
X87505952Y-131783390D01*
X87505952Y-131783390D02*
X87404762Y-131831009D01*
X87404762Y-131831009D02*
X87071429Y-131831009D01*
X88755953Y-132069104D02*
X89232143Y-132069104D01*
X88625000Y-132354819D02*
X89083334Y-131354819D01*
X89083334Y-131354819D02*
X89291667Y-132354819D01*
X89625000Y-132354819D02*
X89708334Y-131688152D01*
X89696429Y-131783390D02*
X89750000Y-131735771D01*
X89750000Y-131735771D02*
X89851191Y-131688152D01*
X89851191Y-131688152D02*
X89994048Y-131688152D01*
X89994048Y-131688152D02*
X90083334Y-131735771D01*
X90083334Y-131735771D02*
X90119048Y-131831009D01*
X90119048Y-131831009D02*
X90053572Y-132354819D01*
X90119048Y-131831009D02*
X90178572Y-131735771D01*
X90178572Y-131735771D02*
X90279762Y-131688152D01*
X90279762Y-131688152D02*
X90422619Y-131688152D01*
X90422619Y-131688152D02*
X90511905Y-131735771D01*
X90511905Y-131735771D02*
X90547619Y-131831009D01*
X90547619Y-131831009D02*
X90482143Y-132354819D01*
X90898810Y-131688152D02*
X91279762Y-131688152D01*
X91083333Y-131354819D02*
X90976191Y-132211961D01*
X90976191Y-132211961D02*
X91011905Y-132307200D01*
X91011905Y-132307200D02*
X91101191Y-132354819D01*
X91101191Y-132354819D02*
X91196429Y-132354819D01*
X62107142Y-121584819D02*
X61773809Y-121108628D01*
X61535714Y-121584819D02*
X61535714Y-120584819D01*
X61535714Y-120584819D02*
X61916666Y-120584819D01*
X61916666Y-120584819D02*
X62011904Y-120632438D01*
X62011904Y-120632438D02*
X62059523Y-120680057D01*
X62059523Y-120680057D02*
X62107142Y-120775295D01*
X62107142Y-120775295D02*
X62107142Y-120918152D01*
X62107142Y-120918152D02*
X62059523Y-121013390D01*
X62059523Y-121013390D02*
X62011904Y-121061009D01*
X62011904Y-121061009D02*
X61916666Y-121108628D01*
X61916666Y-121108628D02*
X61535714Y-121108628D01*
X62964285Y-120918152D02*
X62964285Y-121584819D01*
X62726190Y-120537200D02*
X62488095Y-121251485D01*
X62488095Y-121251485D02*
X63107142Y-121251485D01*
X63678571Y-120584819D02*
X63773809Y-120584819D01*
X63773809Y-120584819D02*
X63869047Y-120632438D01*
X63869047Y-120632438D02*
X63916666Y-120680057D01*
X63916666Y-120680057D02*
X63964285Y-120775295D01*
X63964285Y-120775295D02*
X64011904Y-120965771D01*
X64011904Y-120965771D02*
X64011904Y-121203866D01*
X64011904Y-121203866D02*
X63964285Y-121394342D01*
X63964285Y-121394342D02*
X63916666Y-121489580D01*
X63916666Y-121489580D02*
X63869047Y-121537200D01*
X63869047Y-121537200D02*
X63773809Y-121584819D01*
X63773809Y-121584819D02*
X63678571Y-121584819D01*
X63678571Y-121584819D02*
X63583333Y-121537200D01*
X63583333Y-121537200D02*
X63535714Y-121489580D01*
X63535714Y-121489580D02*
X63488095Y-121394342D01*
X63488095Y-121394342D02*
X63440476Y-121203866D01*
X63440476Y-121203866D02*
X63440476Y-120965771D01*
X63440476Y-120965771D02*
X63488095Y-120775295D01*
X63488095Y-120775295D02*
X63535714Y-120680057D01*
X63535714Y-120680057D02*
X63583333Y-120632438D01*
X63583333Y-120632438D02*
X63678571Y-120584819D01*
X61583333Y-123050057D02*
X61630952Y-123002438D01*
X61630952Y-123002438D02*
X61726190Y-122954819D01*
X61726190Y-122954819D02*
X61964285Y-122954819D01*
X61964285Y-122954819D02*
X62059523Y-123002438D01*
X62059523Y-123002438D02*
X62107142Y-123050057D01*
X62107142Y-123050057D02*
X62154761Y-123145295D01*
X62154761Y-123145295D02*
X62154761Y-123240533D01*
X62154761Y-123240533D02*
X62107142Y-123383390D01*
X62107142Y-123383390D02*
X61535714Y-123954819D01*
X61535714Y-123954819D02*
X62154761Y-123954819D01*
X62773809Y-122954819D02*
X62869047Y-122954819D01*
X62869047Y-122954819D02*
X62964285Y-123002438D01*
X62964285Y-123002438D02*
X63011904Y-123050057D01*
X63011904Y-123050057D02*
X63059523Y-123145295D01*
X63059523Y-123145295D02*
X63107142Y-123335771D01*
X63107142Y-123335771D02*
X63107142Y-123573866D01*
X63107142Y-123573866D02*
X63059523Y-123764342D01*
X63059523Y-123764342D02*
X63011904Y-123859580D01*
X63011904Y-123859580D02*
X62964285Y-123907200D01*
X62964285Y-123907200D02*
X62869047Y-123954819D01*
X62869047Y-123954819D02*
X62773809Y-123954819D01*
X62773809Y-123954819D02*
X62678571Y-123907200D01*
X62678571Y-123907200D02*
X62630952Y-123859580D01*
X62630952Y-123859580D02*
X62583333Y-123764342D01*
X62583333Y-123764342D02*
X62535714Y-123573866D01*
X62535714Y-123573866D02*
X62535714Y-123335771D01*
X62535714Y-123335771D02*
X62583333Y-123145295D01*
X62583333Y-123145295D02*
X62630952Y-123050057D01*
X62630952Y-123050057D02*
X62678571Y-123002438D01*
X62678571Y-123002438D02*
X62773809Y-122954819D01*
X63535714Y-123954819D02*
X63535714Y-122954819D01*
X63630952Y-123573866D02*
X63916666Y-123954819D01*
X63916666Y-123288152D02*
X63535714Y-123669104D01*
D11*
%TO.C,RV1*%
X82370000Y-77620000D02*
X82370000Y-72900000D01*
X82380000Y-69090000D02*
X82380000Y-66030000D01*
X83560000Y-77620000D02*
X82380000Y-77620000D01*
X86460000Y-77620000D02*
X85930000Y-77620000D01*
X88910000Y-77620000D02*
X88080000Y-77620000D01*
X92120000Y-66030000D02*
X82380000Y-66030000D01*
X92120000Y-69090000D02*
X92120000Y-66030000D01*
X92120000Y-77620000D02*
X90630000Y-77620000D01*
X92120000Y-77620000D02*
X92120000Y-72900000D01*
%TO.C,R21*%
X83980000Y-83880000D02*
X90520000Y-83880000D01*
X83980000Y-84210000D02*
X83980000Y-83880000D01*
X83980000Y-86290000D02*
X83980000Y-86620000D01*
X83980000Y-86620000D02*
X90520000Y-86620000D01*
X90520000Y-83880000D02*
X90520000Y-84210000D01*
X90520000Y-86620000D02*
X90520000Y-86290000D01*
%TO.C,RV6*%
X81350000Y-142380000D02*
X81350000Y-146750000D01*
X81350000Y-151300000D02*
X81350000Y-159120000D01*
X82350000Y-159120000D02*
X81350000Y-159120000D01*
X93150000Y-142380000D02*
X81350000Y-142380000D01*
X93150000Y-142380000D02*
X93150000Y-146750000D01*
X93150000Y-151300000D02*
X93150000Y-159120000D01*
X93150000Y-159120000D02*
X92150000Y-159120000D01*
%TO.C,RV2*%
X56850000Y-49380000D02*
X56850000Y-53750000D01*
X56850000Y-58300000D02*
X56850000Y-66120000D01*
X57850000Y-66120000D02*
X56850000Y-66120000D01*
X68650000Y-49380000D02*
X56850000Y-49380000D01*
X68650000Y-49380000D02*
X68650000Y-53750000D01*
X68650000Y-58300000D02*
X68650000Y-66120000D01*
X68650000Y-66120000D02*
X67650000Y-66120000D01*
%TO.C,RV3*%
X56850000Y-79380000D02*
X56850000Y-83750000D01*
X56850000Y-88300000D02*
X56850000Y-96120000D01*
X57850000Y-96120000D02*
X56850000Y-96120000D01*
X68650000Y-79380000D02*
X56850000Y-79380000D01*
X68650000Y-79380000D02*
X68650000Y-83750000D01*
X68650000Y-88300000D02*
X68650000Y-96120000D01*
X68650000Y-96120000D02*
X67650000Y-96120000D01*
%TO.C,J0*%
X53670000Y-107670000D02*
X55000000Y-107670000D01*
X53670000Y-109000000D02*
X53670000Y-107670000D01*
X53670000Y-110270000D02*
X53670000Y-110330000D01*
X53670000Y-110270000D02*
X56330000Y-110270000D01*
X53670000Y-110330000D02*
X56330000Y-110330000D01*
X56330000Y-110270000D02*
X56330000Y-110330000D01*
%TO.C,RV4*%
X57870000Y-140620000D02*
X57870000Y-135900000D01*
X57880000Y-132090000D02*
X57880000Y-129030000D01*
X59060000Y-140620000D02*
X57880000Y-140620000D01*
X61960000Y-140620000D02*
X61430000Y-140620000D01*
X64410000Y-140620000D02*
X63580000Y-140620000D01*
X67620000Y-129030000D02*
X57880000Y-129030000D01*
X67620000Y-132090000D02*
X67620000Y-129030000D01*
X67620000Y-140620000D02*
X66130000Y-140620000D01*
X67620000Y-140620000D02*
X67620000Y-135900000D01*
%TO.C,RV5*%
X81350000Y-112380000D02*
X81350000Y-116750000D01*
X81350000Y-121300000D02*
X81350000Y-129120000D01*
X82350000Y-129120000D02*
X81350000Y-129120000D01*
X93150000Y-112380000D02*
X81350000Y-112380000D01*
X93150000Y-112380000D02*
X93150000Y-116750000D01*
X93150000Y-121300000D02*
X93150000Y-129120000D01*
X93150000Y-129120000D02*
X92150000Y-129120000D01*
%TO.C,R40*%
X59480000Y-122130000D02*
X66020000Y-122130000D01*
X59480000Y-122460000D02*
X59480000Y-122130000D01*
X59480000Y-124540000D02*
X59480000Y-124870000D01*
X59480000Y-124870000D02*
X66020000Y-124870000D01*
X66020000Y-122130000D02*
X66020000Y-122460000D01*
X66020000Y-124870000D02*
X66020000Y-124540000D01*
%TD*%
%LPC*%
D12*
%TO.C,RV1*%
X82450000Y-71000000D03*
X92050000Y-71000000D03*
D13*
X84750000Y-78500000D03*
D14*
X87250000Y-78500000D03*
X89750000Y-78500000D03*
%TD*%
D15*
%TO.C,R21*%
X83440000Y-85250000D03*
D16*
X91060000Y-85250000D03*
%TD*%
D17*
%TO.C,RV6*%
X81450000Y-149000000D03*
D14*
X91000000Y-160000000D03*
D17*
X93050000Y-149000000D03*
D13*
X83500000Y-160000000D03*
D14*
X86000000Y-160000000D03*
X88500000Y-160000000D03*
%TD*%
D17*
%TO.C,RV2*%
X56950000Y-56000000D03*
D14*
X66500000Y-67000000D03*
D17*
X68550000Y-56000000D03*
D13*
X59000000Y-67000000D03*
D14*
X61500000Y-67000000D03*
X64000000Y-67000000D03*
%TD*%
D17*
%TO.C,RV3*%
X56950000Y-86000000D03*
D14*
X66500000Y-97000000D03*
D17*
X68550000Y-86000000D03*
D13*
X59000000Y-97000000D03*
D14*
X61500000Y-97000000D03*
X64000000Y-97000000D03*
%TD*%
D18*
%TO.C,J0*%
X55000000Y-109000000D03*
%TD*%
D12*
%TO.C,RV4*%
X57950000Y-134000000D03*
X67550000Y-134000000D03*
D13*
X60250000Y-141500000D03*
D14*
X62750000Y-141500000D03*
X65250000Y-141500000D03*
%TD*%
D17*
%TO.C,RV5*%
X81450000Y-119000000D03*
D14*
X91000000Y-130000000D03*
D17*
X93050000Y-119000000D03*
D13*
X83500000Y-130000000D03*
D14*
X86000000Y-130000000D03*
X88500000Y-130000000D03*
%TD*%
D15*
%TO.C,R40*%
X58940000Y-123500000D03*
D16*
X66560000Y-123500000D03*
%TD*%
D18*
%TO.C,J60*%
X54000000Y-122500000D03*
D19*
X54000000Y-125040000D03*
X54000000Y-127580000D03*
X54000000Y-130120000D03*
X54000000Y-132660000D03*
X54000000Y-135200000D03*
X54000000Y-137740000D03*
X54000000Y-140280000D03*
%TD*%
D18*
%TO.C,J50*%
X96000000Y-83620000D03*
D19*
X96000000Y-81080000D03*
X96000000Y-78540000D03*
X96000000Y-76000000D03*
X96000000Y-73460000D03*
X96000000Y-70920000D03*
X96000000Y-68380000D03*
X96000000Y-65840000D03*
%TD*%
%LPD*%
M02*
