%TF.GenerationSoftware,KiCad,Pcbnew,9.0.4*%
%TF.CreationDate,2025-10-04T20:57:21+02:00*%
%TF.ProjectId,DMH_Dual_VCA_Mk2_PCB_2,444d485f-4475-4616-9c5f-5643415f4d6b,1*%
%TF.SameCoordinates,Original*%
%TF.FileFunction,Drillmap*%
%TF.FilePolarity,Positive*%
%FSLAX45Y45*%
G04 Gerber Fmt 4.5, Leading zero omitted, Abs format (unit mm)*
G04 Created by KiCad (PCBNEW 9.0.4) date 2025-10-04 20:57:21*
%MOMM*%
%LPD*%
G01*
G04 APERTURE LIST*
%ADD10C,0.050000*%
%ADD11C,0.200000*%
%ADD12C,0.100000*%
%ADD13C,0.110000*%
G04 APERTURE END LIST*
D10*
X5100000Y-4250000D02*
X9900000Y-4250000D01*
X9900000Y-16300000D01*
X5100000Y-16300000D01*
X5100000Y-4250000D01*
D11*
D12*
X5854000Y-12310000D02*
X5934000Y-12390000D01*
X5934000Y-12310000D02*
X5854000Y-12390000D01*
X6616000Y-12310000D02*
X6696000Y-12390000D01*
X6696000Y-12310000D02*
X6616000Y-12390000D01*
X8304000Y-8485000D02*
X8384000Y-8565000D01*
X8384000Y-8485000D02*
X8304000Y-8565000D01*
X9066000Y-8485000D02*
X9146000Y-8565000D01*
X9146000Y-8485000D02*
X9066000Y-8565000D01*
X5450000Y-12250000D02*
G75*
G02*
X5350000Y-12250000I-50000J0D01*
G01*
X5350000Y-12250000D02*
G75*
G02*
X5450000Y-12250000I50000J0D01*
G01*
X5450000Y-12504000D02*
G75*
G02*
X5350000Y-12504000I-50000J0D01*
G01*
X5350000Y-12504000D02*
G75*
G02*
X5450000Y-12504000I50000J0D01*
G01*
X5450000Y-12758000D02*
G75*
G02*
X5350000Y-12758000I-50000J0D01*
G01*
X5350000Y-12758000D02*
G75*
G02*
X5450000Y-12758000I50000J0D01*
G01*
X5450000Y-13012000D02*
G75*
G02*
X5350000Y-13012000I-50000J0D01*
G01*
X5350000Y-13012000D02*
G75*
G02*
X5450000Y-13012000I50000J0D01*
G01*
X5450000Y-13266000D02*
G75*
G02*
X5350000Y-13266000I-50000J0D01*
G01*
X5350000Y-13266000D02*
G75*
G02*
X5450000Y-13266000I50000J0D01*
G01*
X5450000Y-13520000D02*
G75*
G02*
X5350000Y-13520000I-50000J0D01*
G01*
X5350000Y-13520000D02*
G75*
G02*
X5450000Y-13520000I50000J0D01*
G01*
X5450000Y-13774000D02*
G75*
G02*
X5350000Y-13774000I-50000J0D01*
G01*
X5350000Y-13774000D02*
G75*
G02*
X5450000Y-13774000I50000J0D01*
G01*
X5450000Y-14028000D02*
G75*
G02*
X5350000Y-14028000I-50000J0D01*
G01*
X5350000Y-14028000D02*
G75*
G02*
X5450000Y-14028000I50000J0D01*
G01*
X5550000Y-10900000D02*
G75*
G02*
X5450000Y-10900000I-50000J0D01*
G01*
X5450000Y-10900000D02*
G75*
G02*
X5550000Y-10900000I50000J0D01*
G01*
X5950000Y-6700000D02*
G75*
G02*
X5850000Y-6700000I-50000J0D01*
G01*
X5850000Y-6700000D02*
G75*
G02*
X5950000Y-6700000I50000J0D01*
G01*
X5950000Y-9700000D02*
G75*
G02*
X5850000Y-9700000I-50000J0D01*
G01*
X5850000Y-9700000D02*
G75*
G02*
X5950000Y-9700000I50000J0D01*
G01*
X6075000Y-14150000D02*
G75*
G02*
X5975000Y-14150000I-50000J0D01*
G01*
X5975000Y-14150000D02*
G75*
G02*
X6075000Y-14150000I50000J0D01*
G01*
X6200000Y-6700000D02*
G75*
G02*
X6100000Y-6700000I-50000J0D01*
G01*
X6100000Y-6700000D02*
G75*
G02*
X6200000Y-6700000I50000J0D01*
G01*
X6200000Y-9700000D02*
G75*
G02*
X6100000Y-9700000I-50000J0D01*
G01*
X6100000Y-9700000D02*
G75*
G02*
X6200000Y-9700000I50000J0D01*
G01*
X6325000Y-14150000D02*
G75*
G02*
X6225000Y-14150000I-50000J0D01*
G01*
X6225000Y-14150000D02*
G75*
G02*
X6325000Y-14150000I50000J0D01*
G01*
X6450000Y-6700000D02*
G75*
G02*
X6350000Y-6700000I-50000J0D01*
G01*
X6350000Y-6700000D02*
G75*
G02*
X6450000Y-6700000I50000J0D01*
G01*
X6450000Y-9700000D02*
G75*
G02*
X6350000Y-9700000I-50000J0D01*
G01*
X6350000Y-9700000D02*
G75*
G02*
X6450000Y-9700000I50000J0D01*
G01*
X6575000Y-14150000D02*
G75*
G02*
X6475000Y-14150000I-50000J0D01*
G01*
X6475000Y-14150000D02*
G75*
G02*
X6575000Y-14150000I50000J0D01*
G01*
X6700000Y-6700000D02*
G75*
G02*
X6600000Y-6700000I-50000J0D01*
G01*
X6600000Y-6700000D02*
G75*
G02*
X6700000Y-6700000I50000J0D01*
G01*
X6700000Y-9700000D02*
G75*
G02*
X6600000Y-9700000I-50000J0D01*
G01*
X6600000Y-9700000D02*
G75*
G02*
X6700000Y-9700000I50000J0D01*
G01*
X8400000Y-13000000D02*
G75*
G02*
X8300000Y-13000000I-50000J0D01*
G01*
X8300000Y-13000000D02*
G75*
G02*
X8400000Y-13000000I50000J0D01*
G01*
X8400000Y-16000000D02*
G75*
G02*
X8300000Y-16000000I-50000J0D01*
G01*
X8300000Y-16000000D02*
G75*
G02*
X8400000Y-16000000I50000J0D01*
G01*
X8525000Y-7850000D02*
G75*
G02*
X8425000Y-7850000I-50000J0D01*
G01*
X8425000Y-7850000D02*
G75*
G02*
X8525000Y-7850000I50000J0D01*
G01*
X8650000Y-13000000D02*
G75*
G02*
X8550000Y-13000000I-50000J0D01*
G01*
X8550000Y-13000000D02*
G75*
G02*
X8650000Y-13000000I50000J0D01*
G01*
X8650000Y-16000000D02*
G75*
G02*
X8550000Y-16000000I-50000J0D01*
G01*
X8550000Y-16000000D02*
G75*
G02*
X8650000Y-16000000I50000J0D01*
G01*
X8775000Y-7850000D02*
G75*
G02*
X8675000Y-7850000I-50000J0D01*
G01*
X8675000Y-7850000D02*
G75*
G02*
X8775000Y-7850000I50000J0D01*
G01*
X8900000Y-13000000D02*
G75*
G02*
X8800000Y-13000000I-50000J0D01*
G01*
X8800000Y-13000000D02*
G75*
G02*
X8900000Y-13000000I50000J0D01*
G01*
X8900000Y-16000000D02*
G75*
G02*
X8800000Y-16000000I-50000J0D01*
G01*
X8800000Y-16000000D02*
G75*
G02*
X8900000Y-16000000I50000J0D01*
G01*
X9025000Y-7850000D02*
G75*
G02*
X8925000Y-7850000I-50000J0D01*
G01*
X8925000Y-7850000D02*
G75*
G02*
X9025000Y-7850000I50000J0D01*
G01*
X9150000Y-13000000D02*
G75*
G02*
X9050000Y-13000000I-50000J0D01*
G01*
X9050000Y-13000000D02*
G75*
G02*
X9150000Y-13000000I50000J0D01*
G01*
X9150000Y-16000000D02*
G75*
G02*
X9050000Y-16000000I-50000J0D01*
G01*
X9050000Y-16000000D02*
G75*
G02*
X9150000Y-16000000I50000J0D01*
G01*
X9650000Y-6584000D02*
G75*
G02*
X9550000Y-6584000I-50000J0D01*
G01*
X9550000Y-6584000D02*
G75*
G02*
X9650000Y-6584000I50000J0D01*
G01*
X9650000Y-6838000D02*
G75*
G02*
X9550000Y-6838000I-50000J0D01*
G01*
X9550000Y-6838000D02*
G75*
G02*
X9650000Y-6838000I50000J0D01*
G01*
X9650000Y-7092000D02*
G75*
G02*
X9550000Y-7092000I-50000J0D01*
G01*
X9550000Y-7092000D02*
G75*
G02*
X9650000Y-7092000I50000J0D01*
G01*
X9650000Y-7346000D02*
G75*
G02*
X9550000Y-7346000I-50000J0D01*
G01*
X9550000Y-7346000D02*
G75*
G02*
X9650000Y-7346000I50000J0D01*
G01*
X9650000Y-7600000D02*
G75*
G02*
X9550000Y-7600000I-50000J0D01*
G01*
X9550000Y-7600000D02*
G75*
G02*
X9650000Y-7600000I50000J0D01*
G01*
X9650000Y-7854000D02*
G75*
G02*
X9550000Y-7854000I-50000J0D01*
G01*
X9550000Y-7854000D02*
G75*
G02*
X9650000Y-7854000I50000J0D01*
G01*
X9650000Y-8108000D02*
G75*
G02*
X9550000Y-8108000I-50000J0D01*
G01*
X9550000Y-8108000D02*
G75*
G02*
X9650000Y-8108000I50000J0D01*
G01*
X9650000Y-8362000D02*
G75*
G02*
X9550000Y-8362000I-50000J0D01*
G01*
X9550000Y-8362000D02*
G75*
G02*
X9650000Y-8362000I50000J0D01*
G01*
D13*
X5795000Y-13345000D02*
X5795000Y-13455000D01*
X5740000Y-13400000D02*
X5850000Y-13400000D01*
D12*
X5850000Y-13435000D02*
X5850000Y-13365000D01*
X5740000Y-13365000D02*
G75*
G02*
X5850000Y-13365000I55000J0D01*
G01*
X5740000Y-13365000D02*
X5740000Y-13435000D01*
X5740000Y-13435000D02*
G75*
G03*
X5850000Y-13435000I55000J0D01*
G01*
D13*
X6755000Y-13345000D02*
X6755000Y-13455000D01*
X6700000Y-13400000D02*
X6810000Y-13400000D01*
D12*
X6810000Y-13435000D02*
X6810000Y-13365000D01*
X6700000Y-13365000D02*
G75*
G02*
X6810000Y-13365000I55000J0D01*
G01*
X6700000Y-13365000D02*
X6700000Y-13435000D01*
X6700000Y-13435000D02*
G75*
G03*
X6810000Y-13435000I55000J0D01*
G01*
D13*
X8245000Y-7045000D02*
X8245000Y-7155000D01*
X8190000Y-7100000D02*
X8300000Y-7100000D01*
D12*
X8300000Y-7135000D02*
X8300000Y-7065000D01*
X8190000Y-7065000D02*
G75*
G02*
X8300000Y-7065000I55000J0D01*
G01*
X8190000Y-7065000D02*
X8190000Y-7135000D01*
X8190000Y-7135000D02*
G75*
G03*
X8300000Y-7135000I55000J0D01*
G01*
D13*
X9205000Y-7045000D02*
X9205000Y-7155000D01*
X9150000Y-7100000D02*
X9260000Y-7100000D01*
D12*
X9260000Y-7135000D02*
X9260000Y-7065000D01*
X9150000Y-7065000D02*
G75*
G02*
X9260000Y-7065000I55000J0D01*
G01*
X9150000Y-7065000D02*
X9150000Y-7135000D01*
X9150000Y-7135000D02*
G75*
G03*
X9260000Y-7135000I55000J0D01*
G01*
D11*
X5765711Y-5670711D02*
X5765711Y-5529289D01*
X5624289Y-5529289D01*
X5624289Y-5670711D01*
X5765711Y-5670711D01*
D12*
X5595000Y-5590000D02*
X5595000Y-5610000D01*
X5795000Y-5610000D02*
G75*
G02*
X5595000Y-5610000I-100000J0D01*
G01*
X5795000Y-5610000D02*
X5795000Y-5590000D01*
X5795000Y-5590000D02*
G75*
G03*
X5595000Y-5590000I-100000J0D01*
G01*
D11*
X5765711Y-8670711D02*
X5765711Y-8529289D01*
X5624289Y-8529289D01*
X5624289Y-8670711D01*
X5765711Y-8670711D01*
D12*
X5595000Y-8590000D02*
X5595000Y-8610000D01*
X5795000Y-8610000D02*
G75*
G02*
X5595000Y-8610000I-100000J0D01*
G01*
X5795000Y-8610000D02*
X5795000Y-8590000D01*
X5795000Y-8590000D02*
G75*
G03*
X5595000Y-8590000I-100000J0D01*
G01*
D11*
X6925711Y-5670711D02*
X6925711Y-5529289D01*
X6784289Y-5529289D01*
X6784289Y-5670711D01*
X6925711Y-5670711D01*
D12*
X6755000Y-5590000D02*
X6755000Y-5610000D01*
X6955000Y-5610000D02*
G75*
G02*
X6755000Y-5610000I-100000J0D01*
G01*
X6955000Y-5610000D02*
X6955000Y-5590000D01*
X6955000Y-5590000D02*
G75*
G03*
X6755000Y-5590000I-100000J0D01*
G01*
D11*
X6925711Y-8670711D02*
X6925711Y-8529289D01*
X6784289Y-8529289D01*
X6784289Y-8670711D01*
X6925711Y-8670711D01*
D12*
X6755000Y-8590000D02*
X6755000Y-8610000D01*
X6955000Y-8610000D02*
G75*
G02*
X6755000Y-8610000I-100000J0D01*
G01*
X6955000Y-8610000D02*
X6955000Y-8590000D01*
X6955000Y-8590000D02*
G75*
G03*
X6755000Y-8590000I-100000J0D01*
G01*
D11*
X8215711Y-11970711D02*
X8215711Y-11829289D01*
X8074289Y-11829289D01*
X8074289Y-11970711D01*
X8215711Y-11970711D01*
D12*
X8045000Y-11890000D02*
X8045000Y-11910000D01*
X8245000Y-11910000D02*
G75*
G02*
X8045000Y-11910000I-100000J0D01*
G01*
X8245000Y-11910000D02*
X8245000Y-11890000D01*
X8245000Y-11890000D02*
G75*
G03*
X8045000Y-11890000I-100000J0D01*
G01*
D11*
X8215711Y-14970711D02*
X8215711Y-14829289D01*
X8074289Y-14829289D01*
X8074289Y-14970711D01*
X8215711Y-14970711D01*
D12*
X8045000Y-14890000D02*
X8045000Y-14910000D01*
X8245000Y-14910000D02*
G75*
G02*
X8045000Y-14910000I-100000J0D01*
G01*
X8245000Y-14910000D02*
X8245000Y-14890000D01*
X8245000Y-14890000D02*
G75*
G03*
X8045000Y-14890000I-100000J0D01*
G01*
D11*
X9375711Y-11970711D02*
X9375711Y-11829289D01*
X9234289Y-11829289D01*
X9234289Y-11970711D01*
X9375711Y-11970711D01*
D12*
X9205000Y-11890000D02*
X9205000Y-11910000D01*
X9405000Y-11910000D02*
G75*
G02*
X9205000Y-11910000I-100000J0D01*
G01*
X9405000Y-11910000D02*
X9405000Y-11890000D01*
X9405000Y-11890000D02*
G75*
G03*
X9205000Y-11890000I-100000J0D01*
G01*
D11*
X9375711Y-14970711D02*
X9375711Y-14829289D01*
X9234289Y-14829289D01*
X9234289Y-14970711D01*
X9375711Y-14970711D01*
D12*
X9205000Y-14890000D02*
X9205000Y-14910000D01*
X9405000Y-14910000D02*
G75*
G02*
X9205000Y-14910000I-100000J0D01*
G01*
X9405000Y-14910000D02*
X9405000Y-14890000D01*
X9405000Y-14890000D02*
G75*
G03*
X9205000Y-14890000I-100000J0D01*
G01*
D11*
X5358277Y-16613984D02*
X5358277Y-16413984D01*
X5358277Y-16413984D02*
X5405896Y-16413984D01*
X5405896Y-16413984D02*
X5434467Y-16423508D01*
X5434467Y-16423508D02*
X5453515Y-16442555D01*
X5453515Y-16442555D02*
X5463039Y-16461603D01*
X5463039Y-16461603D02*
X5472563Y-16499698D01*
X5472563Y-16499698D02*
X5472563Y-16528269D01*
X5472563Y-16528269D02*
X5463039Y-16566365D01*
X5463039Y-16566365D02*
X5453515Y-16585412D01*
X5453515Y-16585412D02*
X5434467Y-16604460D01*
X5434467Y-16604460D02*
X5405896Y-16613984D01*
X5405896Y-16613984D02*
X5358277Y-16613984D01*
X5558277Y-16613984D02*
X5558277Y-16480650D01*
X5558277Y-16518746D02*
X5567801Y-16499698D01*
X5567801Y-16499698D02*
X5577324Y-16490174D01*
X5577324Y-16490174D02*
X5596372Y-16480650D01*
X5596372Y-16480650D02*
X5615420Y-16480650D01*
X5682086Y-16613984D02*
X5682086Y-16480650D01*
X5682086Y-16413984D02*
X5672562Y-16423508D01*
X5672562Y-16423508D02*
X5682086Y-16433031D01*
X5682086Y-16433031D02*
X5691610Y-16423508D01*
X5691610Y-16423508D02*
X5682086Y-16413984D01*
X5682086Y-16413984D02*
X5682086Y-16433031D01*
X5805896Y-16613984D02*
X5786848Y-16604460D01*
X5786848Y-16604460D02*
X5777324Y-16585412D01*
X5777324Y-16585412D02*
X5777324Y-16413984D01*
X5910658Y-16613984D02*
X5891610Y-16604460D01*
X5891610Y-16604460D02*
X5882086Y-16585412D01*
X5882086Y-16585412D02*
X5882086Y-16413984D01*
X6139229Y-16613984D02*
X6139229Y-16413984D01*
X6139229Y-16413984D02*
X6205896Y-16556841D01*
X6205896Y-16556841D02*
X6272562Y-16413984D01*
X6272562Y-16413984D02*
X6272562Y-16613984D01*
X6453515Y-16613984D02*
X6453515Y-16509222D01*
X6453515Y-16509222D02*
X6443991Y-16490174D01*
X6443991Y-16490174D02*
X6424943Y-16480650D01*
X6424943Y-16480650D02*
X6386848Y-16480650D01*
X6386848Y-16480650D02*
X6367801Y-16490174D01*
X6453515Y-16604460D02*
X6434467Y-16613984D01*
X6434467Y-16613984D02*
X6386848Y-16613984D01*
X6386848Y-16613984D02*
X6367801Y-16604460D01*
X6367801Y-16604460D02*
X6358277Y-16585412D01*
X6358277Y-16585412D02*
X6358277Y-16566365D01*
X6358277Y-16566365D02*
X6367801Y-16547317D01*
X6367801Y-16547317D02*
X6386848Y-16537793D01*
X6386848Y-16537793D02*
X6434467Y-16537793D01*
X6434467Y-16537793D02*
X6453515Y-16528269D01*
X6548753Y-16480650D02*
X6548753Y-16680650D01*
X6548753Y-16490174D02*
X6567801Y-16480650D01*
X6567801Y-16480650D02*
X6605896Y-16480650D01*
X6605896Y-16480650D02*
X6624943Y-16490174D01*
X6624943Y-16490174D02*
X6634467Y-16499698D01*
X6634467Y-16499698D02*
X6643991Y-16518746D01*
X6643991Y-16518746D02*
X6643991Y-16575888D01*
X6643991Y-16575888D02*
X6634467Y-16594936D01*
X6634467Y-16594936D02*
X6624943Y-16604460D01*
X6624943Y-16604460D02*
X6605896Y-16613984D01*
X6605896Y-16613984D02*
X6567801Y-16613984D01*
X6567801Y-16613984D02*
X6548753Y-16604460D01*
X6729705Y-16594936D02*
X6739229Y-16604460D01*
X6739229Y-16604460D02*
X6729705Y-16613984D01*
X6729705Y-16613984D02*
X6720182Y-16604460D01*
X6720182Y-16604460D02*
X6729705Y-16594936D01*
X6729705Y-16594936D02*
X6729705Y-16613984D01*
X6729705Y-16490174D02*
X6739229Y-16499698D01*
X6739229Y-16499698D02*
X6729705Y-16509222D01*
X6729705Y-16509222D02*
X6720182Y-16499698D01*
X6720182Y-16499698D02*
X6729705Y-16490174D01*
X6729705Y-16490174D02*
X6729705Y-16509222D01*
D12*
X5017500Y-16902500D02*
X5097500Y-16982500D01*
X5097500Y-16902500D02*
X5017500Y-16982500D01*
D11*
X5396372Y-16833984D02*
X5415420Y-16833984D01*
X5415420Y-16833984D02*
X5434467Y-16843508D01*
X5434467Y-16843508D02*
X5443991Y-16853031D01*
X5443991Y-16853031D02*
X5453515Y-16872079D01*
X5453515Y-16872079D02*
X5463039Y-16910174D01*
X5463039Y-16910174D02*
X5463039Y-16957793D01*
X5463039Y-16957793D02*
X5453515Y-16995889D01*
X5453515Y-16995889D02*
X5443991Y-17014936D01*
X5443991Y-17014936D02*
X5434467Y-17024460D01*
X5434467Y-17024460D02*
X5415420Y-17033984D01*
X5415420Y-17033984D02*
X5396372Y-17033984D01*
X5396372Y-17033984D02*
X5377324Y-17024460D01*
X5377324Y-17024460D02*
X5367801Y-17014936D01*
X5367801Y-17014936D02*
X5358277Y-16995889D01*
X5358277Y-16995889D02*
X5348753Y-16957793D01*
X5348753Y-16957793D02*
X5348753Y-16910174D01*
X5348753Y-16910174D02*
X5358277Y-16872079D01*
X5358277Y-16872079D02*
X5367801Y-16853031D01*
X5367801Y-16853031D02*
X5377324Y-16843508D01*
X5377324Y-16843508D02*
X5396372Y-16833984D01*
X5548753Y-17014936D02*
X5558277Y-17024460D01*
X5558277Y-17024460D02*
X5548753Y-17033984D01*
X5548753Y-17033984D02*
X5539229Y-17024460D01*
X5539229Y-17024460D02*
X5548753Y-17014936D01*
X5548753Y-17014936D02*
X5548753Y-17033984D01*
X5672562Y-16919698D02*
X5653515Y-16910174D01*
X5653515Y-16910174D02*
X5643991Y-16900650D01*
X5643991Y-16900650D02*
X5634467Y-16881603D01*
X5634467Y-16881603D02*
X5634467Y-16872079D01*
X5634467Y-16872079D02*
X5643991Y-16853031D01*
X5643991Y-16853031D02*
X5653515Y-16843508D01*
X5653515Y-16843508D02*
X5672562Y-16833984D01*
X5672562Y-16833984D02*
X5710658Y-16833984D01*
X5710658Y-16833984D02*
X5729705Y-16843508D01*
X5729705Y-16843508D02*
X5739229Y-16853031D01*
X5739229Y-16853031D02*
X5748753Y-16872079D01*
X5748753Y-16872079D02*
X5748753Y-16881603D01*
X5748753Y-16881603D02*
X5739229Y-16900650D01*
X5739229Y-16900650D02*
X5729705Y-16910174D01*
X5729705Y-16910174D02*
X5710658Y-16919698D01*
X5710658Y-16919698D02*
X5672562Y-16919698D01*
X5672562Y-16919698D02*
X5653515Y-16929222D01*
X5653515Y-16929222D02*
X5643991Y-16938746D01*
X5643991Y-16938746D02*
X5634467Y-16957793D01*
X5634467Y-16957793D02*
X5634467Y-16995889D01*
X5634467Y-16995889D02*
X5643991Y-17014936D01*
X5643991Y-17014936D02*
X5653515Y-17024460D01*
X5653515Y-17024460D02*
X5672562Y-17033984D01*
X5672562Y-17033984D02*
X5710658Y-17033984D01*
X5710658Y-17033984D02*
X5729705Y-17024460D01*
X5729705Y-17024460D02*
X5739229Y-17014936D01*
X5739229Y-17014936D02*
X5748753Y-16995889D01*
X5748753Y-16995889D02*
X5748753Y-16957793D01*
X5748753Y-16957793D02*
X5739229Y-16938746D01*
X5739229Y-16938746D02*
X5729705Y-16929222D01*
X5729705Y-16929222D02*
X5710658Y-16919698D01*
X5872562Y-16833984D02*
X5891610Y-16833984D01*
X5891610Y-16833984D02*
X5910658Y-16843508D01*
X5910658Y-16843508D02*
X5920182Y-16853031D01*
X5920182Y-16853031D02*
X5929705Y-16872079D01*
X5929705Y-16872079D02*
X5939229Y-16910174D01*
X5939229Y-16910174D02*
X5939229Y-16957793D01*
X5939229Y-16957793D02*
X5929705Y-16995889D01*
X5929705Y-16995889D02*
X5920182Y-17014936D01*
X5920182Y-17014936D02*
X5910658Y-17024460D01*
X5910658Y-17024460D02*
X5891610Y-17033984D01*
X5891610Y-17033984D02*
X5872562Y-17033984D01*
X5872562Y-17033984D02*
X5853515Y-17024460D01*
X5853515Y-17024460D02*
X5843991Y-17014936D01*
X5843991Y-17014936D02*
X5834467Y-16995889D01*
X5834467Y-16995889D02*
X5824943Y-16957793D01*
X5824943Y-16957793D02*
X5824943Y-16910174D01*
X5824943Y-16910174D02*
X5834467Y-16872079D01*
X5834467Y-16872079D02*
X5843991Y-16853031D01*
X5843991Y-16853031D02*
X5853515Y-16843508D01*
X5853515Y-16843508D02*
X5872562Y-16833984D01*
X6063039Y-16833984D02*
X6082086Y-16833984D01*
X6082086Y-16833984D02*
X6101134Y-16843508D01*
X6101134Y-16843508D02*
X6110658Y-16853031D01*
X6110658Y-16853031D02*
X6120182Y-16872079D01*
X6120182Y-16872079D02*
X6129705Y-16910174D01*
X6129705Y-16910174D02*
X6129705Y-16957793D01*
X6129705Y-16957793D02*
X6120182Y-16995889D01*
X6120182Y-16995889D02*
X6110658Y-17014936D01*
X6110658Y-17014936D02*
X6101134Y-17024460D01*
X6101134Y-17024460D02*
X6082086Y-17033984D01*
X6082086Y-17033984D02*
X6063039Y-17033984D01*
X6063039Y-17033984D02*
X6043991Y-17024460D01*
X6043991Y-17024460D02*
X6034467Y-17014936D01*
X6034467Y-17014936D02*
X6024943Y-16995889D01*
X6024943Y-16995889D02*
X6015420Y-16957793D01*
X6015420Y-16957793D02*
X6015420Y-16910174D01*
X6015420Y-16910174D02*
X6024943Y-16872079D01*
X6024943Y-16872079D02*
X6034467Y-16853031D01*
X6034467Y-16853031D02*
X6043991Y-16843508D01*
X6043991Y-16843508D02*
X6063039Y-16833984D01*
X6215420Y-17033984D02*
X6215420Y-16900650D01*
X6215420Y-16919698D02*
X6224943Y-16910174D01*
X6224943Y-16910174D02*
X6243991Y-16900650D01*
X6243991Y-16900650D02*
X6272563Y-16900650D01*
X6272563Y-16900650D02*
X6291610Y-16910174D01*
X6291610Y-16910174D02*
X6301134Y-16929222D01*
X6301134Y-16929222D02*
X6301134Y-17033984D01*
X6301134Y-16929222D02*
X6310658Y-16910174D01*
X6310658Y-16910174D02*
X6329705Y-16900650D01*
X6329705Y-16900650D02*
X6358277Y-16900650D01*
X6358277Y-16900650D02*
X6377324Y-16910174D01*
X6377324Y-16910174D02*
X6386848Y-16929222D01*
X6386848Y-16929222D02*
X6386848Y-17033984D01*
X6482086Y-17033984D02*
X6482086Y-16900650D01*
X6482086Y-16919698D02*
X6491610Y-16910174D01*
X6491610Y-16910174D02*
X6510658Y-16900650D01*
X6510658Y-16900650D02*
X6539229Y-16900650D01*
X6539229Y-16900650D02*
X6558277Y-16910174D01*
X6558277Y-16910174D02*
X6567801Y-16929222D01*
X6567801Y-16929222D02*
X6567801Y-17033984D01*
X6567801Y-16929222D02*
X6577324Y-16910174D01*
X6577324Y-16910174D02*
X6596372Y-16900650D01*
X6596372Y-16900650D02*
X6624943Y-16900650D01*
X6624943Y-16900650D02*
X6643991Y-16910174D01*
X6643991Y-16910174D02*
X6653515Y-16929222D01*
X6653515Y-16929222D02*
X6653515Y-17033984D01*
X7043991Y-16824460D02*
X6872563Y-17081603D01*
X7301134Y-16833984D02*
X7320182Y-16833984D01*
X7320182Y-16833984D02*
X7339229Y-16843508D01*
X7339229Y-16843508D02*
X7348753Y-16853031D01*
X7348753Y-16853031D02*
X7358277Y-16872079D01*
X7358277Y-16872079D02*
X7367801Y-16910174D01*
X7367801Y-16910174D02*
X7367801Y-16957793D01*
X7367801Y-16957793D02*
X7358277Y-16995889D01*
X7358277Y-16995889D02*
X7348753Y-17014936D01*
X7348753Y-17014936D02*
X7339229Y-17024460D01*
X7339229Y-17024460D02*
X7320182Y-17033984D01*
X7320182Y-17033984D02*
X7301134Y-17033984D01*
X7301134Y-17033984D02*
X7282086Y-17024460D01*
X7282086Y-17024460D02*
X7272563Y-17014936D01*
X7272563Y-17014936D02*
X7263039Y-16995889D01*
X7263039Y-16995889D02*
X7253515Y-16957793D01*
X7253515Y-16957793D02*
X7253515Y-16910174D01*
X7253515Y-16910174D02*
X7263039Y-16872079D01*
X7263039Y-16872079D02*
X7272563Y-16853031D01*
X7272563Y-16853031D02*
X7282086Y-16843508D01*
X7282086Y-16843508D02*
X7301134Y-16833984D01*
X7453515Y-17014936D02*
X7463039Y-17024460D01*
X7463039Y-17024460D02*
X7453515Y-17033984D01*
X7453515Y-17033984D02*
X7443991Y-17024460D01*
X7443991Y-17024460D02*
X7453515Y-17014936D01*
X7453515Y-17014936D02*
X7453515Y-17033984D01*
X7586848Y-16833984D02*
X7605896Y-16833984D01*
X7605896Y-16833984D02*
X7624944Y-16843508D01*
X7624944Y-16843508D02*
X7634467Y-16853031D01*
X7634467Y-16853031D02*
X7643991Y-16872079D01*
X7643991Y-16872079D02*
X7653515Y-16910174D01*
X7653515Y-16910174D02*
X7653515Y-16957793D01*
X7653515Y-16957793D02*
X7643991Y-16995889D01*
X7643991Y-16995889D02*
X7634467Y-17014936D01*
X7634467Y-17014936D02*
X7624944Y-17024460D01*
X7624944Y-17024460D02*
X7605896Y-17033984D01*
X7605896Y-17033984D02*
X7586848Y-17033984D01*
X7586848Y-17033984D02*
X7567801Y-17024460D01*
X7567801Y-17024460D02*
X7558277Y-17014936D01*
X7558277Y-17014936D02*
X7548753Y-16995889D01*
X7548753Y-16995889D02*
X7539229Y-16957793D01*
X7539229Y-16957793D02*
X7539229Y-16910174D01*
X7539229Y-16910174D02*
X7548753Y-16872079D01*
X7548753Y-16872079D02*
X7558277Y-16853031D01*
X7558277Y-16853031D02*
X7567801Y-16843508D01*
X7567801Y-16843508D02*
X7586848Y-16833984D01*
X7720182Y-16833984D02*
X7843991Y-16833984D01*
X7843991Y-16833984D02*
X7777325Y-16910174D01*
X7777325Y-16910174D02*
X7805896Y-16910174D01*
X7805896Y-16910174D02*
X7824944Y-16919698D01*
X7824944Y-16919698D02*
X7834467Y-16929222D01*
X7834467Y-16929222D02*
X7843991Y-16948270D01*
X7843991Y-16948270D02*
X7843991Y-16995889D01*
X7843991Y-16995889D02*
X7834467Y-17014936D01*
X7834467Y-17014936D02*
X7824944Y-17024460D01*
X7824944Y-17024460D02*
X7805896Y-17033984D01*
X7805896Y-17033984D02*
X7748753Y-17033984D01*
X7748753Y-17033984D02*
X7729706Y-17024460D01*
X7729706Y-17024460D02*
X7720182Y-17014936D01*
X8034467Y-17033984D02*
X7920182Y-17033984D01*
X7977325Y-17033984D02*
X7977325Y-16833984D01*
X7977325Y-16833984D02*
X7958277Y-16862555D01*
X7958277Y-16862555D02*
X7939229Y-16881603D01*
X7939229Y-16881603D02*
X7920182Y-16891127D01*
X8215420Y-16833984D02*
X8120182Y-16833984D01*
X8120182Y-16833984D02*
X8110658Y-16929222D01*
X8110658Y-16929222D02*
X8120182Y-16919698D01*
X8120182Y-16919698D02*
X8139229Y-16910174D01*
X8139229Y-16910174D02*
X8186848Y-16910174D01*
X8186848Y-16910174D02*
X8205896Y-16919698D01*
X8205896Y-16919698D02*
X8215420Y-16929222D01*
X8215420Y-16929222D02*
X8224944Y-16948270D01*
X8224944Y-16948270D02*
X8224944Y-16995889D01*
X8224944Y-16995889D02*
X8215420Y-17014936D01*
X8215420Y-17014936D02*
X8205896Y-17024460D01*
X8205896Y-17024460D02*
X8186848Y-17033984D01*
X8186848Y-17033984D02*
X8139229Y-17033984D01*
X8139229Y-17033984D02*
X8120182Y-17024460D01*
X8120182Y-17024460D02*
X8110658Y-17014936D01*
X8301134Y-16833984D02*
X8301134Y-16872079D01*
X8377325Y-16833984D02*
X8377325Y-16872079D01*
X8672563Y-17110174D02*
X8663039Y-17100650D01*
X8663039Y-17100650D02*
X8643991Y-17072079D01*
X8643991Y-17072079D02*
X8634468Y-17053031D01*
X8634468Y-17053031D02*
X8624944Y-17024460D01*
X8624944Y-17024460D02*
X8615420Y-16976841D01*
X8615420Y-16976841D02*
X8615420Y-16938746D01*
X8615420Y-16938746D02*
X8624944Y-16891127D01*
X8624944Y-16891127D02*
X8634468Y-16862555D01*
X8634468Y-16862555D02*
X8643991Y-16843508D01*
X8643991Y-16843508D02*
X8663039Y-16814936D01*
X8663039Y-16814936D02*
X8672563Y-16805412D01*
X8834468Y-16900650D02*
X8834468Y-17033984D01*
X8786849Y-16824460D02*
X8739230Y-16967317D01*
X8739230Y-16967317D02*
X8863039Y-16967317D01*
X9091611Y-17033984D02*
X9091611Y-16833984D01*
X9177325Y-17033984D02*
X9177325Y-16929222D01*
X9177325Y-16929222D02*
X9167801Y-16910174D01*
X9167801Y-16910174D02*
X9148753Y-16900650D01*
X9148753Y-16900650D02*
X9120182Y-16900650D01*
X9120182Y-16900650D02*
X9101134Y-16910174D01*
X9101134Y-16910174D02*
X9091611Y-16919698D01*
X9301134Y-17033984D02*
X9282087Y-17024460D01*
X9282087Y-17024460D02*
X9272563Y-17014936D01*
X9272563Y-17014936D02*
X9263039Y-16995889D01*
X9263039Y-16995889D02*
X9263039Y-16938746D01*
X9263039Y-16938746D02*
X9272563Y-16919698D01*
X9272563Y-16919698D02*
X9282087Y-16910174D01*
X9282087Y-16910174D02*
X9301134Y-16900650D01*
X9301134Y-16900650D02*
X9329706Y-16900650D01*
X9329706Y-16900650D02*
X9348753Y-16910174D01*
X9348753Y-16910174D02*
X9358277Y-16919698D01*
X9358277Y-16919698D02*
X9367801Y-16938746D01*
X9367801Y-16938746D02*
X9367801Y-16995889D01*
X9367801Y-16995889D02*
X9358277Y-17014936D01*
X9358277Y-17014936D02*
X9348753Y-17024460D01*
X9348753Y-17024460D02*
X9329706Y-17033984D01*
X9329706Y-17033984D02*
X9301134Y-17033984D01*
X9482087Y-17033984D02*
X9463039Y-17024460D01*
X9463039Y-17024460D02*
X9453515Y-17005412D01*
X9453515Y-17005412D02*
X9453515Y-16833984D01*
X9634468Y-17024460D02*
X9615420Y-17033984D01*
X9615420Y-17033984D02*
X9577325Y-17033984D01*
X9577325Y-17033984D02*
X9558277Y-17024460D01*
X9558277Y-17024460D02*
X9548753Y-17005412D01*
X9548753Y-17005412D02*
X9548753Y-16929222D01*
X9548753Y-16929222D02*
X9558277Y-16910174D01*
X9558277Y-16910174D02*
X9577325Y-16900650D01*
X9577325Y-16900650D02*
X9615420Y-16900650D01*
X9615420Y-16900650D02*
X9634468Y-16910174D01*
X9634468Y-16910174D02*
X9643992Y-16929222D01*
X9643992Y-16929222D02*
X9643992Y-16948270D01*
X9643992Y-16948270D02*
X9548753Y-16967317D01*
X9720182Y-17024460D02*
X9739230Y-17033984D01*
X9739230Y-17033984D02*
X9777325Y-17033984D01*
X9777325Y-17033984D02*
X9796373Y-17024460D01*
X9796373Y-17024460D02*
X9805896Y-17005412D01*
X9805896Y-17005412D02*
X9805896Y-16995889D01*
X9805896Y-16995889D02*
X9796373Y-16976841D01*
X9796373Y-16976841D02*
X9777325Y-16967317D01*
X9777325Y-16967317D02*
X9748753Y-16967317D01*
X9748753Y-16967317D02*
X9729706Y-16957793D01*
X9729706Y-16957793D02*
X9720182Y-16938746D01*
X9720182Y-16938746D02*
X9720182Y-16929222D01*
X9720182Y-16929222D02*
X9729706Y-16910174D01*
X9729706Y-16910174D02*
X9748753Y-16900650D01*
X9748753Y-16900650D02*
X9777325Y-16900650D01*
X9777325Y-16900650D02*
X9796373Y-16910174D01*
X9872563Y-17110174D02*
X9882087Y-17100650D01*
X9882087Y-17100650D02*
X9901134Y-17072079D01*
X9901134Y-17072079D02*
X9910658Y-17053031D01*
X9910658Y-17053031D02*
X9920182Y-17024460D01*
X9920182Y-17024460D02*
X9929706Y-16976841D01*
X9929706Y-16976841D02*
X9929706Y-16938746D01*
X9929706Y-16938746D02*
X9920182Y-16891127D01*
X9920182Y-16891127D02*
X9910658Y-16862555D01*
X9910658Y-16862555D02*
X9901134Y-16843508D01*
X9901134Y-16843508D02*
X9882087Y-16814936D01*
X9882087Y-16814936D02*
X9872563Y-16805412D01*
D12*
X5097500Y-17206500D02*
G75*
G02*
X4997500Y-17206500I-50000J0D01*
G01*
X4997500Y-17206500D02*
G75*
G02*
X5097500Y-17206500I50000J0D01*
G01*
D11*
X5463039Y-17297984D02*
X5348753Y-17297984D01*
X5405896Y-17297984D02*
X5405896Y-17097984D01*
X5405896Y-17097984D02*
X5386848Y-17126555D01*
X5386848Y-17126555D02*
X5367801Y-17145603D01*
X5367801Y-17145603D02*
X5348753Y-17155127D01*
X5548753Y-17278936D02*
X5558277Y-17288460D01*
X5558277Y-17288460D02*
X5548753Y-17297984D01*
X5548753Y-17297984D02*
X5539229Y-17288460D01*
X5539229Y-17288460D02*
X5548753Y-17278936D01*
X5548753Y-17278936D02*
X5548753Y-17297984D01*
X5682086Y-17097984D02*
X5701134Y-17097984D01*
X5701134Y-17097984D02*
X5720182Y-17107508D01*
X5720182Y-17107508D02*
X5729705Y-17117031D01*
X5729705Y-17117031D02*
X5739229Y-17136079D01*
X5739229Y-17136079D02*
X5748753Y-17174174D01*
X5748753Y-17174174D02*
X5748753Y-17221793D01*
X5748753Y-17221793D02*
X5739229Y-17259889D01*
X5739229Y-17259889D02*
X5729705Y-17278936D01*
X5729705Y-17278936D02*
X5720182Y-17288460D01*
X5720182Y-17288460D02*
X5701134Y-17297984D01*
X5701134Y-17297984D02*
X5682086Y-17297984D01*
X5682086Y-17297984D02*
X5663039Y-17288460D01*
X5663039Y-17288460D02*
X5653515Y-17278936D01*
X5653515Y-17278936D02*
X5643991Y-17259889D01*
X5643991Y-17259889D02*
X5634467Y-17221793D01*
X5634467Y-17221793D02*
X5634467Y-17174174D01*
X5634467Y-17174174D02*
X5643991Y-17136079D01*
X5643991Y-17136079D02*
X5653515Y-17117031D01*
X5653515Y-17117031D02*
X5663039Y-17107508D01*
X5663039Y-17107508D02*
X5682086Y-17097984D01*
X5872562Y-17097984D02*
X5891610Y-17097984D01*
X5891610Y-17097984D02*
X5910658Y-17107508D01*
X5910658Y-17107508D02*
X5920182Y-17117031D01*
X5920182Y-17117031D02*
X5929705Y-17136079D01*
X5929705Y-17136079D02*
X5939229Y-17174174D01*
X5939229Y-17174174D02*
X5939229Y-17221793D01*
X5939229Y-17221793D02*
X5929705Y-17259889D01*
X5929705Y-17259889D02*
X5920182Y-17278936D01*
X5920182Y-17278936D02*
X5910658Y-17288460D01*
X5910658Y-17288460D02*
X5891610Y-17297984D01*
X5891610Y-17297984D02*
X5872562Y-17297984D01*
X5872562Y-17297984D02*
X5853515Y-17288460D01*
X5853515Y-17288460D02*
X5843991Y-17278936D01*
X5843991Y-17278936D02*
X5834467Y-17259889D01*
X5834467Y-17259889D02*
X5824943Y-17221793D01*
X5824943Y-17221793D02*
X5824943Y-17174174D01*
X5824943Y-17174174D02*
X5834467Y-17136079D01*
X5834467Y-17136079D02*
X5843991Y-17117031D01*
X5843991Y-17117031D02*
X5853515Y-17107508D01*
X5853515Y-17107508D02*
X5872562Y-17097984D01*
X6063039Y-17097984D02*
X6082086Y-17097984D01*
X6082086Y-17097984D02*
X6101134Y-17107508D01*
X6101134Y-17107508D02*
X6110658Y-17117031D01*
X6110658Y-17117031D02*
X6120182Y-17136079D01*
X6120182Y-17136079D02*
X6129705Y-17174174D01*
X6129705Y-17174174D02*
X6129705Y-17221793D01*
X6129705Y-17221793D02*
X6120182Y-17259889D01*
X6120182Y-17259889D02*
X6110658Y-17278936D01*
X6110658Y-17278936D02*
X6101134Y-17288460D01*
X6101134Y-17288460D02*
X6082086Y-17297984D01*
X6082086Y-17297984D02*
X6063039Y-17297984D01*
X6063039Y-17297984D02*
X6043991Y-17288460D01*
X6043991Y-17288460D02*
X6034467Y-17278936D01*
X6034467Y-17278936D02*
X6024943Y-17259889D01*
X6024943Y-17259889D02*
X6015420Y-17221793D01*
X6015420Y-17221793D02*
X6015420Y-17174174D01*
X6015420Y-17174174D02*
X6024943Y-17136079D01*
X6024943Y-17136079D02*
X6034467Y-17117031D01*
X6034467Y-17117031D02*
X6043991Y-17107508D01*
X6043991Y-17107508D02*
X6063039Y-17097984D01*
X6215420Y-17297984D02*
X6215420Y-17164650D01*
X6215420Y-17183698D02*
X6224943Y-17174174D01*
X6224943Y-17174174D02*
X6243991Y-17164650D01*
X6243991Y-17164650D02*
X6272563Y-17164650D01*
X6272563Y-17164650D02*
X6291610Y-17174174D01*
X6291610Y-17174174D02*
X6301134Y-17193222D01*
X6301134Y-17193222D02*
X6301134Y-17297984D01*
X6301134Y-17193222D02*
X6310658Y-17174174D01*
X6310658Y-17174174D02*
X6329705Y-17164650D01*
X6329705Y-17164650D02*
X6358277Y-17164650D01*
X6358277Y-17164650D02*
X6377324Y-17174174D01*
X6377324Y-17174174D02*
X6386848Y-17193222D01*
X6386848Y-17193222D02*
X6386848Y-17297984D01*
X6482086Y-17297984D02*
X6482086Y-17164650D01*
X6482086Y-17183698D02*
X6491610Y-17174174D01*
X6491610Y-17174174D02*
X6510658Y-17164650D01*
X6510658Y-17164650D02*
X6539229Y-17164650D01*
X6539229Y-17164650D02*
X6558277Y-17174174D01*
X6558277Y-17174174D02*
X6567801Y-17193222D01*
X6567801Y-17193222D02*
X6567801Y-17297984D01*
X6567801Y-17193222D02*
X6577324Y-17174174D01*
X6577324Y-17174174D02*
X6596372Y-17164650D01*
X6596372Y-17164650D02*
X6624943Y-17164650D01*
X6624943Y-17164650D02*
X6643991Y-17174174D01*
X6643991Y-17174174D02*
X6653515Y-17193222D01*
X6653515Y-17193222D02*
X6653515Y-17297984D01*
X7043991Y-17088460D02*
X6872563Y-17345603D01*
X7301134Y-17097984D02*
X7320182Y-17097984D01*
X7320182Y-17097984D02*
X7339229Y-17107508D01*
X7339229Y-17107508D02*
X7348753Y-17117031D01*
X7348753Y-17117031D02*
X7358277Y-17136079D01*
X7358277Y-17136079D02*
X7367801Y-17174174D01*
X7367801Y-17174174D02*
X7367801Y-17221793D01*
X7367801Y-17221793D02*
X7358277Y-17259889D01*
X7358277Y-17259889D02*
X7348753Y-17278936D01*
X7348753Y-17278936D02*
X7339229Y-17288460D01*
X7339229Y-17288460D02*
X7320182Y-17297984D01*
X7320182Y-17297984D02*
X7301134Y-17297984D01*
X7301134Y-17297984D02*
X7282086Y-17288460D01*
X7282086Y-17288460D02*
X7272563Y-17278936D01*
X7272563Y-17278936D02*
X7263039Y-17259889D01*
X7263039Y-17259889D02*
X7253515Y-17221793D01*
X7253515Y-17221793D02*
X7253515Y-17174174D01*
X7253515Y-17174174D02*
X7263039Y-17136079D01*
X7263039Y-17136079D02*
X7272563Y-17117031D01*
X7272563Y-17117031D02*
X7282086Y-17107508D01*
X7282086Y-17107508D02*
X7301134Y-17097984D01*
X7453515Y-17278936D02*
X7463039Y-17288460D01*
X7463039Y-17288460D02*
X7453515Y-17297984D01*
X7453515Y-17297984D02*
X7443991Y-17288460D01*
X7443991Y-17288460D02*
X7453515Y-17278936D01*
X7453515Y-17278936D02*
X7453515Y-17297984D01*
X7586848Y-17097984D02*
X7605896Y-17097984D01*
X7605896Y-17097984D02*
X7624944Y-17107508D01*
X7624944Y-17107508D02*
X7634467Y-17117031D01*
X7634467Y-17117031D02*
X7643991Y-17136079D01*
X7643991Y-17136079D02*
X7653515Y-17174174D01*
X7653515Y-17174174D02*
X7653515Y-17221793D01*
X7653515Y-17221793D02*
X7643991Y-17259889D01*
X7643991Y-17259889D02*
X7634467Y-17278936D01*
X7634467Y-17278936D02*
X7624944Y-17288460D01*
X7624944Y-17288460D02*
X7605896Y-17297984D01*
X7605896Y-17297984D02*
X7586848Y-17297984D01*
X7586848Y-17297984D02*
X7567801Y-17288460D01*
X7567801Y-17288460D02*
X7558277Y-17278936D01*
X7558277Y-17278936D02*
X7548753Y-17259889D01*
X7548753Y-17259889D02*
X7539229Y-17221793D01*
X7539229Y-17221793D02*
X7539229Y-17174174D01*
X7539229Y-17174174D02*
X7548753Y-17136079D01*
X7548753Y-17136079D02*
X7558277Y-17117031D01*
X7558277Y-17117031D02*
X7567801Y-17107508D01*
X7567801Y-17107508D02*
X7586848Y-17097984D01*
X7720182Y-17097984D02*
X7843991Y-17097984D01*
X7843991Y-17097984D02*
X7777325Y-17174174D01*
X7777325Y-17174174D02*
X7805896Y-17174174D01*
X7805896Y-17174174D02*
X7824944Y-17183698D01*
X7824944Y-17183698D02*
X7834467Y-17193222D01*
X7834467Y-17193222D02*
X7843991Y-17212270D01*
X7843991Y-17212270D02*
X7843991Y-17259889D01*
X7843991Y-17259889D02*
X7834467Y-17278936D01*
X7834467Y-17278936D02*
X7824944Y-17288460D01*
X7824944Y-17288460D02*
X7805896Y-17297984D01*
X7805896Y-17297984D02*
X7748753Y-17297984D01*
X7748753Y-17297984D02*
X7729706Y-17288460D01*
X7729706Y-17288460D02*
X7720182Y-17278936D01*
X7939229Y-17297984D02*
X7977325Y-17297984D01*
X7977325Y-17297984D02*
X7996372Y-17288460D01*
X7996372Y-17288460D02*
X8005896Y-17278936D01*
X8005896Y-17278936D02*
X8024944Y-17250365D01*
X8024944Y-17250365D02*
X8034467Y-17212270D01*
X8034467Y-17212270D02*
X8034467Y-17136079D01*
X8034467Y-17136079D02*
X8024944Y-17117031D01*
X8024944Y-17117031D02*
X8015420Y-17107508D01*
X8015420Y-17107508D02*
X7996372Y-17097984D01*
X7996372Y-17097984D02*
X7958277Y-17097984D01*
X7958277Y-17097984D02*
X7939229Y-17107508D01*
X7939229Y-17107508D02*
X7929706Y-17117031D01*
X7929706Y-17117031D02*
X7920182Y-17136079D01*
X7920182Y-17136079D02*
X7920182Y-17183698D01*
X7920182Y-17183698D02*
X7929706Y-17202746D01*
X7929706Y-17202746D02*
X7939229Y-17212270D01*
X7939229Y-17212270D02*
X7958277Y-17221793D01*
X7958277Y-17221793D02*
X7996372Y-17221793D01*
X7996372Y-17221793D02*
X8015420Y-17212270D01*
X8015420Y-17212270D02*
X8024944Y-17202746D01*
X8024944Y-17202746D02*
X8034467Y-17183698D01*
X8205896Y-17164650D02*
X8205896Y-17297984D01*
X8158277Y-17088460D02*
X8110658Y-17231317D01*
X8110658Y-17231317D02*
X8234467Y-17231317D01*
X8301134Y-17097984D02*
X8301134Y-17136079D01*
X8377325Y-17097984D02*
X8377325Y-17136079D01*
X8672563Y-17374174D02*
X8663039Y-17364650D01*
X8663039Y-17364650D02*
X8643991Y-17336079D01*
X8643991Y-17336079D02*
X8634468Y-17317031D01*
X8634468Y-17317031D02*
X8624944Y-17288460D01*
X8624944Y-17288460D02*
X8615420Y-17240841D01*
X8615420Y-17240841D02*
X8615420Y-17202746D01*
X8615420Y-17202746D02*
X8624944Y-17155127D01*
X8624944Y-17155127D02*
X8634468Y-17126555D01*
X8634468Y-17126555D02*
X8643991Y-17107508D01*
X8643991Y-17107508D02*
X8663039Y-17078936D01*
X8663039Y-17078936D02*
X8672563Y-17069412D01*
X8729706Y-17097984D02*
X8853515Y-17097984D01*
X8853515Y-17097984D02*
X8786849Y-17174174D01*
X8786849Y-17174174D02*
X8815420Y-17174174D01*
X8815420Y-17174174D02*
X8834468Y-17183698D01*
X8834468Y-17183698D02*
X8843991Y-17193222D01*
X8843991Y-17193222D02*
X8853515Y-17212270D01*
X8853515Y-17212270D02*
X8853515Y-17259889D01*
X8853515Y-17259889D02*
X8843991Y-17278936D01*
X8843991Y-17278936D02*
X8834468Y-17288460D01*
X8834468Y-17288460D02*
X8815420Y-17297984D01*
X8815420Y-17297984D02*
X8758277Y-17297984D01*
X8758277Y-17297984D02*
X8739230Y-17288460D01*
X8739230Y-17288460D02*
X8729706Y-17278936D01*
X8948753Y-17297984D02*
X8986849Y-17297984D01*
X8986849Y-17297984D02*
X9005896Y-17288460D01*
X9005896Y-17288460D02*
X9015420Y-17278936D01*
X9015420Y-17278936D02*
X9034468Y-17250365D01*
X9034468Y-17250365D02*
X9043991Y-17212270D01*
X9043991Y-17212270D02*
X9043991Y-17136079D01*
X9043991Y-17136079D02*
X9034468Y-17117031D01*
X9034468Y-17117031D02*
X9024944Y-17107508D01*
X9024944Y-17107508D02*
X9005896Y-17097984D01*
X9005896Y-17097984D02*
X8967801Y-17097984D01*
X8967801Y-17097984D02*
X8948753Y-17107508D01*
X8948753Y-17107508D02*
X8939230Y-17117031D01*
X8939230Y-17117031D02*
X8929706Y-17136079D01*
X8929706Y-17136079D02*
X8929706Y-17183698D01*
X8929706Y-17183698D02*
X8939230Y-17202746D01*
X8939230Y-17202746D02*
X8948753Y-17212270D01*
X8948753Y-17212270D02*
X8967801Y-17221793D01*
X8967801Y-17221793D02*
X9005896Y-17221793D01*
X9005896Y-17221793D02*
X9024944Y-17212270D01*
X9024944Y-17212270D02*
X9034468Y-17202746D01*
X9034468Y-17202746D02*
X9043991Y-17183698D01*
X9282087Y-17297984D02*
X9282087Y-17097984D01*
X9367801Y-17297984D02*
X9367801Y-17193222D01*
X9367801Y-17193222D02*
X9358277Y-17174174D01*
X9358277Y-17174174D02*
X9339230Y-17164650D01*
X9339230Y-17164650D02*
X9310658Y-17164650D01*
X9310658Y-17164650D02*
X9291611Y-17174174D01*
X9291611Y-17174174D02*
X9282087Y-17183698D01*
X9491611Y-17297984D02*
X9472563Y-17288460D01*
X9472563Y-17288460D02*
X9463039Y-17278936D01*
X9463039Y-17278936D02*
X9453515Y-17259889D01*
X9453515Y-17259889D02*
X9453515Y-17202746D01*
X9453515Y-17202746D02*
X9463039Y-17183698D01*
X9463039Y-17183698D02*
X9472563Y-17174174D01*
X9472563Y-17174174D02*
X9491611Y-17164650D01*
X9491611Y-17164650D02*
X9520182Y-17164650D01*
X9520182Y-17164650D02*
X9539230Y-17174174D01*
X9539230Y-17174174D02*
X9548753Y-17183698D01*
X9548753Y-17183698D02*
X9558277Y-17202746D01*
X9558277Y-17202746D02*
X9558277Y-17259889D01*
X9558277Y-17259889D02*
X9548753Y-17278936D01*
X9548753Y-17278936D02*
X9539230Y-17288460D01*
X9539230Y-17288460D02*
X9520182Y-17297984D01*
X9520182Y-17297984D02*
X9491611Y-17297984D01*
X9672563Y-17297984D02*
X9653515Y-17288460D01*
X9653515Y-17288460D02*
X9643992Y-17269412D01*
X9643992Y-17269412D02*
X9643992Y-17097984D01*
X9824944Y-17288460D02*
X9805896Y-17297984D01*
X9805896Y-17297984D02*
X9767801Y-17297984D01*
X9767801Y-17297984D02*
X9748753Y-17288460D01*
X9748753Y-17288460D02*
X9739230Y-17269412D01*
X9739230Y-17269412D02*
X9739230Y-17193222D01*
X9739230Y-17193222D02*
X9748753Y-17174174D01*
X9748753Y-17174174D02*
X9767801Y-17164650D01*
X9767801Y-17164650D02*
X9805896Y-17164650D01*
X9805896Y-17164650D02*
X9824944Y-17174174D01*
X9824944Y-17174174D02*
X9834468Y-17193222D01*
X9834468Y-17193222D02*
X9834468Y-17212270D01*
X9834468Y-17212270D02*
X9739230Y-17231317D01*
X9910658Y-17288460D02*
X9929706Y-17297984D01*
X9929706Y-17297984D02*
X9967801Y-17297984D01*
X9967801Y-17297984D02*
X9986849Y-17288460D01*
X9986849Y-17288460D02*
X9996373Y-17269412D01*
X9996373Y-17269412D02*
X9996373Y-17259889D01*
X9996373Y-17259889D02*
X9986849Y-17240841D01*
X9986849Y-17240841D02*
X9967801Y-17231317D01*
X9967801Y-17231317D02*
X9939230Y-17231317D01*
X9939230Y-17231317D02*
X9920182Y-17221793D01*
X9920182Y-17221793D02*
X9910658Y-17202746D01*
X9910658Y-17202746D02*
X9910658Y-17193222D01*
X9910658Y-17193222D02*
X9920182Y-17174174D01*
X9920182Y-17174174D02*
X9939230Y-17164650D01*
X9939230Y-17164650D02*
X9967801Y-17164650D01*
X9967801Y-17164650D02*
X9986849Y-17174174D01*
X10063039Y-17374174D02*
X10072563Y-17364650D01*
X10072563Y-17364650D02*
X10091611Y-17336079D01*
X10091611Y-17336079D02*
X10101134Y-17317031D01*
X10101134Y-17317031D02*
X10110658Y-17288460D01*
X10110658Y-17288460D02*
X10120182Y-17240841D01*
X10120182Y-17240841D02*
X10120182Y-17202746D01*
X10120182Y-17202746D02*
X10110658Y-17155127D01*
X10110658Y-17155127D02*
X10101134Y-17126555D01*
X10101134Y-17126555D02*
X10091611Y-17107508D01*
X10091611Y-17107508D02*
X10072563Y-17078936D01*
X10072563Y-17078936D02*
X10063039Y-17069412D01*
D13*
X5042500Y-17415500D02*
X5042500Y-17525500D01*
X4987500Y-17470500D02*
X5097500Y-17470500D01*
D11*
X5463039Y-17561984D02*
X5348753Y-17561984D01*
X5405896Y-17561984D02*
X5405896Y-17361984D01*
X5405896Y-17361984D02*
X5386848Y-17390555D01*
X5386848Y-17390555D02*
X5367801Y-17409603D01*
X5367801Y-17409603D02*
X5348753Y-17419127D01*
X5548753Y-17542936D02*
X5558277Y-17552460D01*
X5558277Y-17552460D02*
X5548753Y-17561984D01*
X5548753Y-17561984D02*
X5539229Y-17552460D01*
X5539229Y-17552460D02*
X5548753Y-17542936D01*
X5548753Y-17542936D02*
X5548753Y-17561984D01*
X5748753Y-17561984D02*
X5634467Y-17561984D01*
X5691610Y-17561984D02*
X5691610Y-17361984D01*
X5691610Y-17361984D02*
X5672562Y-17390555D01*
X5672562Y-17390555D02*
X5653515Y-17409603D01*
X5653515Y-17409603D02*
X5634467Y-17419127D01*
X5872562Y-17361984D02*
X5891610Y-17361984D01*
X5891610Y-17361984D02*
X5910658Y-17371508D01*
X5910658Y-17371508D02*
X5920182Y-17381031D01*
X5920182Y-17381031D02*
X5929705Y-17400079D01*
X5929705Y-17400079D02*
X5939229Y-17438174D01*
X5939229Y-17438174D02*
X5939229Y-17485793D01*
X5939229Y-17485793D02*
X5929705Y-17523889D01*
X5929705Y-17523889D02*
X5920182Y-17542936D01*
X5920182Y-17542936D02*
X5910658Y-17552460D01*
X5910658Y-17552460D02*
X5891610Y-17561984D01*
X5891610Y-17561984D02*
X5872562Y-17561984D01*
X5872562Y-17561984D02*
X5853515Y-17552460D01*
X5853515Y-17552460D02*
X5843991Y-17542936D01*
X5843991Y-17542936D02*
X5834467Y-17523889D01*
X5834467Y-17523889D02*
X5824943Y-17485793D01*
X5824943Y-17485793D02*
X5824943Y-17438174D01*
X5824943Y-17438174D02*
X5834467Y-17400079D01*
X5834467Y-17400079D02*
X5843991Y-17381031D01*
X5843991Y-17381031D02*
X5853515Y-17371508D01*
X5853515Y-17371508D02*
X5872562Y-17361984D01*
X6063039Y-17361984D02*
X6082086Y-17361984D01*
X6082086Y-17361984D02*
X6101134Y-17371508D01*
X6101134Y-17371508D02*
X6110658Y-17381031D01*
X6110658Y-17381031D02*
X6120182Y-17400079D01*
X6120182Y-17400079D02*
X6129705Y-17438174D01*
X6129705Y-17438174D02*
X6129705Y-17485793D01*
X6129705Y-17485793D02*
X6120182Y-17523889D01*
X6120182Y-17523889D02*
X6110658Y-17542936D01*
X6110658Y-17542936D02*
X6101134Y-17552460D01*
X6101134Y-17552460D02*
X6082086Y-17561984D01*
X6082086Y-17561984D02*
X6063039Y-17561984D01*
X6063039Y-17561984D02*
X6043991Y-17552460D01*
X6043991Y-17552460D02*
X6034467Y-17542936D01*
X6034467Y-17542936D02*
X6024943Y-17523889D01*
X6024943Y-17523889D02*
X6015420Y-17485793D01*
X6015420Y-17485793D02*
X6015420Y-17438174D01*
X6015420Y-17438174D02*
X6024943Y-17400079D01*
X6024943Y-17400079D02*
X6034467Y-17381031D01*
X6034467Y-17381031D02*
X6043991Y-17371508D01*
X6043991Y-17371508D02*
X6063039Y-17361984D01*
X6215420Y-17561984D02*
X6215420Y-17428650D01*
X6215420Y-17447698D02*
X6224943Y-17438174D01*
X6224943Y-17438174D02*
X6243991Y-17428650D01*
X6243991Y-17428650D02*
X6272563Y-17428650D01*
X6272563Y-17428650D02*
X6291610Y-17438174D01*
X6291610Y-17438174D02*
X6301134Y-17457222D01*
X6301134Y-17457222D02*
X6301134Y-17561984D01*
X6301134Y-17457222D02*
X6310658Y-17438174D01*
X6310658Y-17438174D02*
X6329705Y-17428650D01*
X6329705Y-17428650D02*
X6358277Y-17428650D01*
X6358277Y-17428650D02*
X6377324Y-17438174D01*
X6377324Y-17438174D02*
X6386848Y-17457222D01*
X6386848Y-17457222D02*
X6386848Y-17561984D01*
X6482086Y-17561984D02*
X6482086Y-17428650D01*
X6482086Y-17447698D02*
X6491610Y-17438174D01*
X6491610Y-17438174D02*
X6510658Y-17428650D01*
X6510658Y-17428650D02*
X6539229Y-17428650D01*
X6539229Y-17428650D02*
X6558277Y-17438174D01*
X6558277Y-17438174D02*
X6567801Y-17457222D01*
X6567801Y-17457222D02*
X6567801Y-17561984D01*
X6567801Y-17457222D02*
X6577324Y-17438174D01*
X6577324Y-17438174D02*
X6596372Y-17428650D01*
X6596372Y-17428650D02*
X6624943Y-17428650D01*
X6624943Y-17428650D02*
X6643991Y-17438174D01*
X6643991Y-17438174D02*
X6653515Y-17457222D01*
X6653515Y-17457222D02*
X6653515Y-17561984D01*
X7043991Y-17352460D02*
X6872563Y-17609603D01*
X7301134Y-17361984D02*
X7320182Y-17361984D01*
X7320182Y-17361984D02*
X7339229Y-17371508D01*
X7339229Y-17371508D02*
X7348753Y-17381031D01*
X7348753Y-17381031D02*
X7358277Y-17400079D01*
X7358277Y-17400079D02*
X7367801Y-17438174D01*
X7367801Y-17438174D02*
X7367801Y-17485793D01*
X7367801Y-17485793D02*
X7358277Y-17523889D01*
X7358277Y-17523889D02*
X7348753Y-17542936D01*
X7348753Y-17542936D02*
X7339229Y-17552460D01*
X7339229Y-17552460D02*
X7320182Y-17561984D01*
X7320182Y-17561984D02*
X7301134Y-17561984D01*
X7301134Y-17561984D02*
X7282086Y-17552460D01*
X7282086Y-17552460D02*
X7272563Y-17542936D01*
X7272563Y-17542936D02*
X7263039Y-17523889D01*
X7263039Y-17523889D02*
X7253515Y-17485793D01*
X7253515Y-17485793D02*
X7253515Y-17438174D01*
X7253515Y-17438174D02*
X7263039Y-17400079D01*
X7263039Y-17400079D02*
X7272563Y-17381031D01*
X7272563Y-17381031D02*
X7282086Y-17371508D01*
X7282086Y-17371508D02*
X7301134Y-17361984D01*
X7453515Y-17542936D02*
X7463039Y-17552460D01*
X7463039Y-17552460D02*
X7453515Y-17561984D01*
X7453515Y-17561984D02*
X7443991Y-17552460D01*
X7443991Y-17552460D02*
X7453515Y-17542936D01*
X7453515Y-17542936D02*
X7453515Y-17561984D01*
X7586848Y-17361984D02*
X7605896Y-17361984D01*
X7605896Y-17361984D02*
X7624944Y-17371508D01*
X7624944Y-17371508D02*
X7634467Y-17381031D01*
X7634467Y-17381031D02*
X7643991Y-17400079D01*
X7643991Y-17400079D02*
X7653515Y-17438174D01*
X7653515Y-17438174D02*
X7653515Y-17485793D01*
X7653515Y-17485793D02*
X7643991Y-17523889D01*
X7643991Y-17523889D02*
X7634467Y-17542936D01*
X7634467Y-17542936D02*
X7624944Y-17552460D01*
X7624944Y-17552460D02*
X7605896Y-17561984D01*
X7605896Y-17561984D02*
X7586848Y-17561984D01*
X7586848Y-17561984D02*
X7567801Y-17552460D01*
X7567801Y-17552460D02*
X7558277Y-17542936D01*
X7558277Y-17542936D02*
X7548753Y-17523889D01*
X7548753Y-17523889D02*
X7539229Y-17485793D01*
X7539229Y-17485793D02*
X7539229Y-17438174D01*
X7539229Y-17438174D02*
X7548753Y-17400079D01*
X7548753Y-17400079D02*
X7558277Y-17381031D01*
X7558277Y-17381031D02*
X7567801Y-17371508D01*
X7567801Y-17371508D02*
X7586848Y-17361984D01*
X7824944Y-17428650D02*
X7824944Y-17561984D01*
X7777325Y-17352460D02*
X7729706Y-17495317D01*
X7729706Y-17495317D02*
X7853515Y-17495317D01*
X7910658Y-17361984D02*
X8034467Y-17361984D01*
X8034467Y-17361984D02*
X7967801Y-17438174D01*
X7967801Y-17438174D02*
X7996372Y-17438174D01*
X7996372Y-17438174D02*
X8015420Y-17447698D01*
X8015420Y-17447698D02*
X8024944Y-17457222D01*
X8024944Y-17457222D02*
X8034467Y-17476270D01*
X8034467Y-17476270D02*
X8034467Y-17523889D01*
X8034467Y-17523889D02*
X8024944Y-17542936D01*
X8024944Y-17542936D02*
X8015420Y-17552460D01*
X8015420Y-17552460D02*
X7996372Y-17561984D01*
X7996372Y-17561984D02*
X7939229Y-17561984D01*
X7939229Y-17561984D02*
X7920182Y-17552460D01*
X7920182Y-17552460D02*
X7910658Y-17542936D01*
X8101134Y-17361984D02*
X8224944Y-17361984D01*
X8224944Y-17361984D02*
X8158277Y-17438174D01*
X8158277Y-17438174D02*
X8186848Y-17438174D01*
X8186848Y-17438174D02*
X8205896Y-17447698D01*
X8205896Y-17447698D02*
X8215420Y-17457222D01*
X8215420Y-17457222D02*
X8224944Y-17476270D01*
X8224944Y-17476270D02*
X8224944Y-17523889D01*
X8224944Y-17523889D02*
X8215420Y-17542936D01*
X8215420Y-17542936D02*
X8205896Y-17552460D01*
X8205896Y-17552460D02*
X8186848Y-17561984D01*
X8186848Y-17561984D02*
X8129706Y-17561984D01*
X8129706Y-17561984D02*
X8110658Y-17552460D01*
X8110658Y-17552460D02*
X8101134Y-17542936D01*
X8301134Y-17361984D02*
X8301134Y-17400079D01*
X8377325Y-17361984D02*
X8377325Y-17400079D01*
X8672563Y-17638174D02*
X8663039Y-17628650D01*
X8663039Y-17628650D02*
X8643991Y-17600079D01*
X8643991Y-17600079D02*
X8634468Y-17581031D01*
X8634468Y-17581031D02*
X8624944Y-17552460D01*
X8624944Y-17552460D02*
X8615420Y-17504841D01*
X8615420Y-17504841D02*
X8615420Y-17466746D01*
X8615420Y-17466746D02*
X8624944Y-17419127D01*
X8624944Y-17419127D02*
X8634468Y-17390555D01*
X8634468Y-17390555D02*
X8643991Y-17371508D01*
X8643991Y-17371508D02*
X8663039Y-17342936D01*
X8663039Y-17342936D02*
X8672563Y-17333412D01*
X8786849Y-17361984D02*
X8805896Y-17361984D01*
X8805896Y-17361984D02*
X8824944Y-17371508D01*
X8824944Y-17371508D02*
X8834468Y-17381031D01*
X8834468Y-17381031D02*
X8843991Y-17400079D01*
X8843991Y-17400079D02*
X8853515Y-17438174D01*
X8853515Y-17438174D02*
X8853515Y-17485793D01*
X8853515Y-17485793D02*
X8843991Y-17523889D01*
X8843991Y-17523889D02*
X8834468Y-17542936D01*
X8834468Y-17542936D02*
X8824944Y-17552460D01*
X8824944Y-17552460D02*
X8805896Y-17561984D01*
X8805896Y-17561984D02*
X8786849Y-17561984D01*
X8786849Y-17561984D02*
X8767801Y-17552460D01*
X8767801Y-17552460D02*
X8758277Y-17542936D01*
X8758277Y-17542936D02*
X8748753Y-17523889D01*
X8748753Y-17523889D02*
X8739230Y-17485793D01*
X8739230Y-17485793D02*
X8739230Y-17438174D01*
X8739230Y-17438174D02*
X8748753Y-17400079D01*
X8748753Y-17400079D02*
X8758277Y-17381031D01*
X8758277Y-17381031D02*
X8767801Y-17371508D01*
X8767801Y-17371508D02*
X8786849Y-17361984D01*
X9091611Y-17561984D02*
X9091611Y-17361984D01*
X9177325Y-17561984D02*
X9177325Y-17457222D01*
X9177325Y-17457222D02*
X9167801Y-17438174D01*
X9167801Y-17438174D02*
X9148753Y-17428650D01*
X9148753Y-17428650D02*
X9120182Y-17428650D01*
X9120182Y-17428650D02*
X9101134Y-17438174D01*
X9101134Y-17438174D02*
X9091611Y-17447698D01*
X9301134Y-17561984D02*
X9282087Y-17552460D01*
X9282087Y-17552460D02*
X9272563Y-17542936D01*
X9272563Y-17542936D02*
X9263039Y-17523889D01*
X9263039Y-17523889D02*
X9263039Y-17466746D01*
X9263039Y-17466746D02*
X9272563Y-17447698D01*
X9272563Y-17447698D02*
X9282087Y-17438174D01*
X9282087Y-17438174D02*
X9301134Y-17428650D01*
X9301134Y-17428650D02*
X9329706Y-17428650D01*
X9329706Y-17428650D02*
X9348753Y-17438174D01*
X9348753Y-17438174D02*
X9358277Y-17447698D01*
X9358277Y-17447698D02*
X9367801Y-17466746D01*
X9367801Y-17466746D02*
X9367801Y-17523889D01*
X9367801Y-17523889D02*
X9358277Y-17542936D01*
X9358277Y-17542936D02*
X9348753Y-17552460D01*
X9348753Y-17552460D02*
X9329706Y-17561984D01*
X9329706Y-17561984D02*
X9301134Y-17561984D01*
X9482087Y-17561984D02*
X9463039Y-17552460D01*
X9463039Y-17552460D02*
X9453515Y-17533412D01*
X9453515Y-17533412D02*
X9453515Y-17361984D01*
X9634468Y-17552460D02*
X9615420Y-17561984D01*
X9615420Y-17561984D02*
X9577325Y-17561984D01*
X9577325Y-17561984D02*
X9558277Y-17552460D01*
X9558277Y-17552460D02*
X9548753Y-17533412D01*
X9548753Y-17533412D02*
X9548753Y-17457222D01*
X9548753Y-17457222D02*
X9558277Y-17438174D01*
X9558277Y-17438174D02*
X9577325Y-17428650D01*
X9577325Y-17428650D02*
X9615420Y-17428650D01*
X9615420Y-17428650D02*
X9634468Y-17438174D01*
X9634468Y-17438174D02*
X9643992Y-17457222D01*
X9643992Y-17457222D02*
X9643992Y-17476270D01*
X9643992Y-17476270D02*
X9548753Y-17495317D01*
X9720182Y-17552460D02*
X9739230Y-17561984D01*
X9739230Y-17561984D02*
X9777325Y-17561984D01*
X9777325Y-17561984D02*
X9796373Y-17552460D01*
X9796373Y-17552460D02*
X9805896Y-17533412D01*
X9805896Y-17533412D02*
X9805896Y-17523889D01*
X9805896Y-17523889D02*
X9796373Y-17504841D01*
X9796373Y-17504841D02*
X9777325Y-17495317D01*
X9777325Y-17495317D02*
X9748753Y-17495317D01*
X9748753Y-17495317D02*
X9729706Y-17485793D01*
X9729706Y-17485793D02*
X9720182Y-17466746D01*
X9720182Y-17466746D02*
X9720182Y-17457222D01*
X9720182Y-17457222D02*
X9729706Y-17438174D01*
X9729706Y-17438174D02*
X9748753Y-17428650D01*
X9748753Y-17428650D02*
X9777325Y-17428650D01*
X9777325Y-17428650D02*
X9796373Y-17438174D01*
X10043992Y-17485793D02*
X10196373Y-17485793D01*
X10120182Y-17561984D02*
X10120182Y-17409603D01*
X10529706Y-17428650D02*
X10529706Y-17561984D01*
X10482087Y-17352460D02*
X10434468Y-17495317D01*
X10434468Y-17495317D02*
X10558277Y-17495317D01*
X10777325Y-17552460D02*
X10796373Y-17561984D01*
X10796373Y-17561984D02*
X10834468Y-17561984D01*
X10834468Y-17561984D02*
X10853516Y-17552460D01*
X10853516Y-17552460D02*
X10863039Y-17533412D01*
X10863039Y-17533412D02*
X10863039Y-17523889D01*
X10863039Y-17523889D02*
X10853516Y-17504841D01*
X10853516Y-17504841D02*
X10834468Y-17495317D01*
X10834468Y-17495317D02*
X10805896Y-17495317D01*
X10805896Y-17495317D02*
X10786849Y-17485793D01*
X10786849Y-17485793D02*
X10777325Y-17466746D01*
X10777325Y-17466746D02*
X10777325Y-17457222D01*
X10777325Y-17457222D02*
X10786849Y-17438174D01*
X10786849Y-17438174D02*
X10805896Y-17428650D01*
X10805896Y-17428650D02*
X10834468Y-17428650D01*
X10834468Y-17428650D02*
X10853516Y-17438174D01*
X10977325Y-17561984D02*
X10958277Y-17552460D01*
X10958277Y-17552460D02*
X10948754Y-17533412D01*
X10948754Y-17533412D02*
X10948754Y-17361984D01*
X11082087Y-17561984D02*
X11063039Y-17552460D01*
X11063039Y-17552460D02*
X11053516Y-17542936D01*
X11053516Y-17542936D02*
X11043992Y-17523889D01*
X11043992Y-17523889D02*
X11043992Y-17466746D01*
X11043992Y-17466746D02*
X11053516Y-17447698D01*
X11053516Y-17447698D02*
X11063039Y-17438174D01*
X11063039Y-17438174D02*
X11082087Y-17428650D01*
X11082087Y-17428650D02*
X11110658Y-17428650D01*
X11110658Y-17428650D02*
X11129706Y-17438174D01*
X11129706Y-17438174D02*
X11139230Y-17447698D01*
X11139230Y-17447698D02*
X11148754Y-17466746D01*
X11148754Y-17466746D02*
X11148754Y-17523889D01*
X11148754Y-17523889D02*
X11139230Y-17542936D01*
X11139230Y-17542936D02*
X11129706Y-17552460D01*
X11129706Y-17552460D02*
X11110658Y-17561984D01*
X11110658Y-17561984D02*
X11082087Y-17561984D01*
X11205896Y-17428650D02*
X11282087Y-17428650D01*
X11234468Y-17361984D02*
X11234468Y-17533412D01*
X11234468Y-17533412D02*
X11243992Y-17552460D01*
X11243992Y-17552460D02*
X11263039Y-17561984D01*
X11263039Y-17561984D02*
X11282087Y-17561984D01*
X11339230Y-17552460D02*
X11358277Y-17561984D01*
X11358277Y-17561984D02*
X11396373Y-17561984D01*
X11396373Y-17561984D02*
X11415420Y-17552460D01*
X11415420Y-17552460D02*
X11424944Y-17533412D01*
X11424944Y-17533412D02*
X11424944Y-17523889D01*
X11424944Y-17523889D02*
X11415420Y-17504841D01*
X11415420Y-17504841D02*
X11396373Y-17495317D01*
X11396373Y-17495317D02*
X11367801Y-17495317D01*
X11367801Y-17495317D02*
X11348754Y-17485793D01*
X11348754Y-17485793D02*
X11339230Y-17466746D01*
X11339230Y-17466746D02*
X11339230Y-17457222D01*
X11339230Y-17457222D02*
X11348754Y-17438174D01*
X11348754Y-17438174D02*
X11367801Y-17428650D01*
X11367801Y-17428650D02*
X11396373Y-17428650D01*
X11396373Y-17428650D02*
X11415420Y-17438174D01*
X11491611Y-17638174D02*
X11501135Y-17628650D01*
X11501135Y-17628650D02*
X11520182Y-17600079D01*
X11520182Y-17600079D02*
X11529706Y-17581031D01*
X11529706Y-17581031D02*
X11539230Y-17552460D01*
X11539230Y-17552460D02*
X11548754Y-17504841D01*
X11548754Y-17504841D02*
X11548754Y-17466746D01*
X11548754Y-17466746D02*
X11539230Y-17419127D01*
X11539230Y-17419127D02*
X11529706Y-17390555D01*
X11529706Y-17390555D02*
X11520182Y-17371508D01*
X11520182Y-17371508D02*
X11501135Y-17342936D01*
X11501135Y-17342936D02*
X11491611Y-17333412D01*
X5068211Y-17805211D02*
X5068211Y-17663789D01*
X4926789Y-17663789D01*
X4926789Y-17805211D01*
X5068211Y-17805211D01*
X5348753Y-17645031D02*
X5358277Y-17635508D01*
X5358277Y-17635508D02*
X5377324Y-17625984D01*
X5377324Y-17625984D02*
X5424944Y-17625984D01*
X5424944Y-17625984D02*
X5443991Y-17635508D01*
X5443991Y-17635508D02*
X5453515Y-17645031D01*
X5453515Y-17645031D02*
X5463039Y-17664079D01*
X5463039Y-17664079D02*
X5463039Y-17683127D01*
X5463039Y-17683127D02*
X5453515Y-17711698D01*
X5453515Y-17711698D02*
X5339229Y-17825984D01*
X5339229Y-17825984D02*
X5463039Y-17825984D01*
X5548753Y-17806936D02*
X5558277Y-17816460D01*
X5558277Y-17816460D02*
X5548753Y-17825984D01*
X5548753Y-17825984D02*
X5539229Y-17816460D01*
X5539229Y-17816460D02*
X5548753Y-17806936D01*
X5548753Y-17806936D02*
X5548753Y-17825984D01*
X5682086Y-17625984D02*
X5701134Y-17625984D01*
X5701134Y-17625984D02*
X5720182Y-17635508D01*
X5720182Y-17635508D02*
X5729705Y-17645031D01*
X5729705Y-17645031D02*
X5739229Y-17664079D01*
X5739229Y-17664079D02*
X5748753Y-17702174D01*
X5748753Y-17702174D02*
X5748753Y-17749793D01*
X5748753Y-17749793D02*
X5739229Y-17787889D01*
X5739229Y-17787889D02*
X5729705Y-17806936D01*
X5729705Y-17806936D02*
X5720182Y-17816460D01*
X5720182Y-17816460D02*
X5701134Y-17825984D01*
X5701134Y-17825984D02*
X5682086Y-17825984D01*
X5682086Y-17825984D02*
X5663039Y-17816460D01*
X5663039Y-17816460D02*
X5653515Y-17806936D01*
X5653515Y-17806936D02*
X5643991Y-17787889D01*
X5643991Y-17787889D02*
X5634467Y-17749793D01*
X5634467Y-17749793D02*
X5634467Y-17702174D01*
X5634467Y-17702174D02*
X5643991Y-17664079D01*
X5643991Y-17664079D02*
X5653515Y-17645031D01*
X5653515Y-17645031D02*
X5663039Y-17635508D01*
X5663039Y-17635508D02*
X5682086Y-17625984D01*
X5872562Y-17625984D02*
X5891610Y-17625984D01*
X5891610Y-17625984D02*
X5910658Y-17635508D01*
X5910658Y-17635508D02*
X5920182Y-17645031D01*
X5920182Y-17645031D02*
X5929705Y-17664079D01*
X5929705Y-17664079D02*
X5939229Y-17702174D01*
X5939229Y-17702174D02*
X5939229Y-17749793D01*
X5939229Y-17749793D02*
X5929705Y-17787889D01*
X5929705Y-17787889D02*
X5920182Y-17806936D01*
X5920182Y-17806936D02*
X5910658Y-17816460D01*
X5910658Y-17816460D02*
X5891610Y-17825984D01*
X5891610Y-17825984D02*
X5872562Y-17825984D01*
X5872562Y-17825984D02*
X5853515Y-17816460D01*
X5853515Y-17816460D02*
X5843991Y-17806936D01*
X5843991Y-17806936D02*
X5834467Y-17787889D01*
X5834467Y-17787889D02*
X5824943Y-17749793D01*
X5824943Y-17749793D02*
X5824943Y-17702174D01*
X5824943Y-17702174D02*
X5834467Y-17664079D01*
X5834467Y-17664079D02*
X5843991Y-17645031D01*
X5843991Y-17645031D02*
X5853515Y-17635508D01*
X5853515Y-17635508D02*
X5872562Y-17625984D01*
X6063039Y-17625984D02*
X6082086Y-17625984D01*
X6082086Y-17625984D02*
X6101134Y-17635508D01*
X6101134Y-17635508D02*
X6110658Y-17645031D01*
X6110658Y-17645031D02*
X6120182Y-17664079D01*
X6120182Y-17664079D02*
X6129705Y-17702174D01*
X6129705Y-17702174D02*
X6129705Y-17749793D01*
X6129705Y-17749793D02*
X6120182Y-17787889D01*
X6120182Y-17787889D02*
X6110658Y-17806936D01*
X6110658Y-17806936D02*
X6101134Y-17816460D01*
X6101134Y-17816460D02*
X6082086Y-17825984D01*
X6082086Y-17825984D02*
X6063039Y-17825984D01*
X6063039Y-17825984D02*
X6043991Y-17816460D01*
X6043991Y-17816460D02*
X6034467Y-17806936D01*
X6034467Y-17806936D02*
X6024943Y-17787889D01*
X6024943Y-17787889D02*
X6015420Y-17749793D01*
X6015420Y-17749793D02*
X6015420Y-17702174D01*
X6015420Y-17702174D02*
X6024943Y-17664079D01*
X6024943Y-17664079D02*
X6034467Y-17645031D01*
X6034467Y-17645031D02*
X6043991Y-17635508D01*
X6043991Y-17635508D02*
X6063039Y-17625984D01*
X6215420Y-17825984D02*
X6215420Y-17692650D01*
X6215420Y-17711698D02*
X6224943Y-17702174D01*
X6224943Y-17702174D02*
X6243991Y-17692650D01*
X6243991Y-17692650D02*
X6272563Y-17692650D01*
X6272563Y-17692650D02*
X6291610Y-17702174D01*
X6291610Y-17702174D02*
X6301134Y-17721222D01*
X6301134Y-17721222D02*
X6301134Y-17825984D01*
X6301134Y-17721222D02*
X6310658Y-17702174D01*
X6310658Y-17702174D02*
X6329705Y-17692650D01*
X6329705Y-17692650D02*
X6358277Y-17692650D01*
X6358277Y-17692650D02*
X6377324Y-17702174D01*
X6377324Y-17702174D02*
X6386848Y-17721222D01*
X6386848Y-17721222D02*
X6386848Y-17825984D01*
X6482086Y-17825984D02*
X6482086Y-17692650D01*
X6482086Y-17711698D02*
X6491610Y-17702174D01*
X6491610Y-17702174D02*
X6510658Y-17692650D01*
X6510658Y-17692650D02*
X6539229Y-17692650D01*
X6539229Y-17692650D02*
X6558277Y-17702174D01*
X6558277Y-17702174D02*
X6567801Y-17721222D01*
X6567801Y-17721222D02*
X6567801Y-17825984D01*
X6567801Y-17721222D02*
X6577324Y-17702174D01*
X6577324Y-17702174D02*
X6596372Y-17692650D01*
X6596372Y-17692650D02*
X6624943Y-17692650D01*
X6624943Y-17692650D02*
X6643991Y-17702174D01*
X6643991Y-17702174D02*
X6653515Y-17721222D01*
X6653515Y-17721222D02*
X6653515Y-17825984D01*
X7043991Y-17616460D02*
X6872563Y-17873603D01*
X7301134Y-17625984D02*
X7320182Y-17625984D01*
X7320182Y-17625984D02*
X7339229Y-17635508D01*
X7339229Y-17635508D02*
X7348753Y-17645031D01*
X7348753Y-17645031D02*
X7358277Y-17664079D01*
X7358277Y-17664079D02*
X7367801Y-17702174D01*
X7367801Y-17702174D02*
X7367801Y-17749793D01*
X7367801Y-17749793D02*
X7358277Y-17787889D01*
X7358277Y-17787889D02*
X7348753Y-17806936D01*
X7348753Y-17806936D02*
X7339229Y-17816460D01*
X7339229Y-17816460D02*
X7320182Y-17825984D01*
X7320182Y-17825984D02*
X7301134Y-17825984D01*
X7301134Y-17825984D02*
X7282086Y-17816460D01*
X7282086Y-17816460D02*
X7272563Y-17806936D01*
X7272563Y-17806936D02*
X7263039Y-17787889D01*
X7263039Y-17787889D02*
X7253515Y-17749793D01*
X7253515Y-17749793D02*
X7253515Y-17702174D01*
X7253515Y-17702174D02*
X7263039Y-17664079D01*
X7263039Y-17664079D02*
X7272563Y-17645031D01*
X7272563Y-17645031D02*
X7282086Y-17635508D01*
X7282086Y-17635508D02*
X7301134Y-17625984D01*
X7453515Y-17806936D02*
X7463039Y-17816460D01*
X7463039Y-17816460D02*
X7453515Y-17825984D01*
X7453515Y-17825984D02*
X7443991Y-17816460D01*
X7443991Y-17816460D02*
X7453515Y-17806936D01*
X7453515Y-17806936D02*
X7453515Y-17825984D01*
X7586848Y-17625984D02*
X7605896Y-17625984D01*
X7605896Y-17625984D02*
X7624944Y-17635508D01*
X7624944Y-17635508D02*
X7634467Y-17645031D01*
X7634467Y-17645031D02*
X7643991Y-17664079D01*
X7643991Y-17664079D02*
X7653515Y-17702174D01*
X7653515Y-17702174D02*
X7653515Y-17749793D01*
X7653515Y-17749793D02*
X7643991Y-17787889D01*
X7643991Y-17787889D02*
X7634467Y-17806936D01*
X7634467Y-17806936D02*
X7624944Y-17816460D01*
X7624944Y-17816460D02*
X7605896Y-17825984D01*
X7605896Y-17825984D02*
X7586848Y-17825984D01*
X7586848Y-17825984D02*
X7567801Y-17816460D01*
X7567801Y-17816460D02*
X7558277Y-17806936D01*
X7558277Y-17806936D02*
X7548753Y-17787889D01*
X7548753Y-17787889D02*
X7539229Y-17749793D01*
X7539229Y-17749793D02*
X7539229Y-17702174D01*
X7539229Y-17702174D02*
X7548753Y-17664079D01*
X7548753Y-17664079D02*
X7558277Y-17645031D01*
X7558277Y-17645031D02*
X7567801Y-17635508D01*
X7567801Y-17635508D02*
X7586848Y-17625984D01*
X7720182Y-17625984D02*
X7853515Y-17625984D01*
X7853515Y-17625984D02*
X7767801Y-17825984D01*
X7958277Y-17711698D02*
X7939229Y-17702174D01*
X7939229Y-17702174D02*
X7929706Y-17692650D01*
X7929706Y-17692650D02*
X7920182Y-17673603D01*
X7920182Y-17673603D02*
X7920182Y-17664079D01*
X7920182Y-17664079D02*
X7929706Y-17645031D01*
X7929706Y-17645031D02*
X7939229Y-17635508D01*
X7939229Y-17635508D02*
X7958277Y-17625984D01*
X7958277Y-17625984D02*
X7996372Y-17625984D01*
X7996372Y-17625984D02*
X8015420Y-17635508D01*
X8015420Y-17635508D02*
X8024944Y-17645031D01*
X8024944Y-17645031D02*
X8034467Y-17664079D01*
X8034467Y-17664079D02*
X8034467Y-17673603D01*
X8034467Y-17673603D02*
X8024944Y-17692650D01*
X8024944Y-17692650D02*
X8015420Y-17702174D01*
X8015420Y-17702174D02*
X7996372Y-17711698D01*
X7996372Y-17711698D02*
X7958277Y-17711698D01*
X7958277Y-17711698D02*
X7939229Y-17721222D01*
X7939229Y-17721222D02*
X7929706Y-17730746D01*
X7929706Y-17730746D02*
X7920182Y-17749793D01*
X7920182Y-17749793D02*
X7920182Y-17787889D01*
X7920182Y-17787889D02*
X7929706Y-17806936D01*
X7929706Y-17806936D02*
X7939229Y-17816460D01*
X7939229Y-17816460D02*
X7958277Y-17825984D01*
X7958277Y-17825984D02*
X7996372Y-17825984D01*
X7996372Y-17825984D02*
X8015420Y-17816460D01*
X8015420Y-17816460D02*
X8024944Y-17806936D01*
X8024944Y-17806936D02*
X8034467Y-17787889D01*
X8034467Y-17787889D02*
X8034467Y-17749793D01*
X8034467Y-17749793D02*
X8024944Y-17730746D01*
X8024944Y-17730746D02*
X8015420Y-17721222D01*
X8015420Y-17721222D02*
X7996372Y-17711698D01*
X8101134Y-17625984D02*
X8234467Y-17625984D01*
X8234467Y-17625984D02*
X8148753Y-17825984D01*
X8301134Y-17625984D02*
X8301134Y-17664079D01*
X8377325Y-17625984D02*
X8377325Y-17664079D01*
X8672563Y-17902174D02*
X8663039Y-17892650D01*
X8663039Y-17892650D02*
X8643991Y-17864079D01*
X8643991Y-17864079D02*
X8634468Y-17845031D01*
X8634468Y-17845031D02*
X8624944Y-17816460D01*
X8624944Y-17816460D02*
X8615420Y-17768841D01*
X8615420Y-17768841D02*
X8615420Y-17730746D01*
X8615420Y-17730746D02*
X8624944Y-17683127D01*
X8624944Y-17683127D02*
X8634468Y-17654555D01*
X8634468Y-17654555D02*
X8643991Y-17635508D01*
X8643991Y-17635508D02*
X8663039Y-17606936D01*
X8663039Y-17606936D02*
X8672563Y-17597412D01*
X8786849Y-17625984D02*
X8805896Y-17625984D01*
X8805896Y-17625984D02*
X8824944Y-17635508D01*
X8824944Y-17635508D02*
X8834468Y-17645031D01*
X8834468Y-17645031D02*
X8843991Y-17664079D01*
X8843991Y-17664079D02*
X8853515Y-17702174D01*
X8853515Y-17702174D02*
X8853515Y-17749793D01*
X8853515Y-17749793D02*
X8843991Y-17787889D01*
X8843991Y-17787889D02*
X8834468Y-17806936D01*
X8834468Y-17806936D02*
X8824944Y-17816460D01*
X8824944Y-17816460D02*
X8805896Y-17825984D01*
X8805896Y-17825984D02*
X8786849Y-17825984D01*
X8786849Y-17825984D02*
X8767801Y-17816460D01*
X8767801Y-17816460D02*
X8758277Y-17806936D01*
X8758277Y-17806936D02*
X8748753Y-17787889D01*
X8748753Y-17787889D02*
X8739230Y-17749793D01*
X8739230Y-17749793D02*
X8739230Y-17702174D01*
X8739230Y-17702174D02*
X8748753Y-17664079D01*
X8748753Y-17664079D02*
X8758277Y-17645031D01*
X8758277Y-17645031D02*
X8767801Y-17635508D01*
X8767801Y-17635508D02*
X8786849Y-17625984D01*
X9091611Y-17825984D02*
X9091611Y-17625984D01*
X9177325Y-17825984D02*
X9177325Y-17721222D01*
X9177325Y-17721222D02*
X9167801Y-17702174D01*
X9167801Y-17702174D02*
X9148753Y-17692650D01*
X9148753Y-17692650D02*
X9120182Y-17692650D01*
X9120182Y-17692650D02*
X9101134Y-17702174D01*
X9101134Y-17702174D02*
X9091611Y-17711698D01*
X9301134Y-17825984D02*
X9282087Y-17816460D01*
X9282087Y-17816460D02*
X9272563Y-17806936D01*
X9272563Y-17806936D02*
X9263039Y-17787889D01*
X9263039Y-17787889D02*
X9263039Y-17730746D01*
X9263039Y-17730746D02*
X9272563Y-17711698D01*
X9272563Y-17711698D02*
X9282087Y-17702174D01*
X9282087Y-17702174D02*
X9301134Y-17692650D01*
X9301134Y-17692650D02*
X9329706Y-17692650D01*
X9329706Y-17692650D02*
X9348753Y-17702174D01*
X9348753Y-17702174D02*
X9358277Y-17711698D01*
X9358277Y-17711698D02*
X9367801Y-17730746D01*
X9367801Y-17730746D02*
X9367801Y-17787889D01*
X9367801Y-17787889D02*
X9358277Y-17806936D01*
X9358277Y-17806936D02*
X9348753Y-17816460D01*
X9348753Y-17816460D02*
X9329706Y-17825984D01*
X9329706Y-17825984D02*
X9301134Y-17825984D01*
X9482087Y-17825984D02*
X9463039Y-17816460D01*
X9463039Y-17816460D02*
X9453515Y-17797412D01*
X9453515Y-17797412D02*
X9453515Y-17625984D01*
X9634468Y-17816460D02*
X9615420Y-17825984D01*
X9615420Y-17825984D02*
X9577325Y-17825984D01*
X9577325Y-17825984D02*
X9558277Y-17816460D01*
X9558277Y-17816460D02*
X9548753Y-17797412D01*
X9548753Y-17797412D02*
X9548753Y-17721222D01*
X9548753Y-17721222D02*
X9558277Y-17702174D01*
X9558277Y-17702174D02*
X9577325Y-17692650D01*
X9577325Y-17692650D02*
X9615420Y-17692650D01*
X9615420Y-17692650D02*
X9634468Y-17702174D01*
X9634468Y-17702174D02*
X9643992Y-17721222D01*
X9643992Y-17721222D02*
X9643992Y-17740270D01*
X9643992Y-17740270D02*
X9548753Y-17759317D01*
X9720182Y-17816460D02*
X9739230Y-17825984D01*
X9739230Y-17825984D02*
X9777325Y-17825984D01*
X9777325Y-17825984D02*
X9796373Y-17816460D01*
X9796373Y-17816460D02*
X9805896Y-17797412D01*
X9805896Y-17797412D02*
X9805896Y-17787889D01*
X9805896Y-17787889D02*
X9796373Y-17768841D01*
X9796373Y-17768841D02*
X9777325Y-17759317D01*
X9777325Y-17759317D02*
X9748753Y-17759317D01*
X9748753Y-17759317D02*
X9729706Y-17749793D01*
X9729706Y-17749793D02*
X9720182Y-17730746D01*
X9720182Y-17730746D02*
X9720182Y-17721222D01*
X9720182Y-17721222D02*
X9729706Y-17702174D01*
X9729706Y-17702174D02*
X9748753Y-17692650D01*
X9748753Y-17692650D02*
X9777325Y-17692650D01*
X9777325Y-17692650D02*
X9796373Y-17702174D01*
X10043992Y-17749793D02*
X10196373Y-17749793D01*
X10120182Y-17825984D02*
X10120182Y-17673603D01*
X10472563Y-17711698D02*
X10453515Y-17702174D01*
X10453515Y-17702174D02*
X10443992Y-17692650D01*
X10443992Y-17692650D02*
X10434468Y-17673603D01*
X10434468Y-17673603D02*
X10434468Y-17664079D01*
X10434468Y-17664079D02*
X10443992Y-17645031D01*
X10443992Y-17645031D02*
X10453515Y-17635508D01*
X10453515Y-17635508D02*
X10472563Y-17625984D01*
X10472563Y-17625984D02*
X10510658Y-17625984D01*
X10510658Y-17625984D02*
X10529706Y-17635508D01*
X10529706Y-17635508D02*
X10539230Y-17645031D01*
X10539230Y-17645031D02*
X10548754Y-17664079D01*
X10548754Y-17664079D02*
X10548754Y-17673603D01*
X10548754Y-17673603D02*
X10539230Y-17692650D01*
X10539230Y-17692650D02*
X10529706Y-17702174D01*
X10529706Y-17702174D02*
X10510658Y-17711698D01*
X10510658Y-17711698D02*
X10472563Y-17711698D01*
X10472563Y-17711698D02*
X10453515Y-17721222D01*
X10453515Y-17721222D02*
X10443992Y-17730746D01*
X10443992Y-17730746D02*
X10434468Y-17749793D01*
X10434468Y-17749793D02*
X10434468Y-17787889D01*
X10434468Y-17787889D02*
X10443992Y-17806936D01*
X10443992Y-17806936D02*
X10453515Y-17816460D01*
X10453515Y-17816460D02*
X10472563Y-17825984D01*
X10472563Y-17825984D02*
X10510658Y-17825984D01*
X10510658Y-17825984D02*
X10529706Y-17816460D01*
X10529706Y-17816460D02*
X10539230Y-17806936D01*
X10539230Y-17806936D02*
X10548754Y-17787889D01*
X10548754Y-17787889D02*
X10548754Y-17749793D01*
X10548754Y-17749793D02*
X10539230Y-17730746D01*
X10539230Y-17730746D02*
X10529706Y-17721222D01*
X10529706Y-17721222D02*
X10510658Y-17711698D01*
X10777325Y-17816460D02*
X10796373Y-17825984D01*
X10796373Y-17825984D02*
X10834468Y-17825984D01*
X10834468Y-17825984D02*
X10853516Y-17816460D01*
X10853516Y-17816460D02*
X10863039Y-17797412D01*
X10863039Y-17797412D02*
X10863039Y-17787889D01*
X10863039Y-17787889D02*
X10853516Y-17768841D01*
X10853516Y-17768841D02*
X10834468Y-17759317D01*
X10834468Y-17759317D02*
X10805896Y-17759317D01*
X10805896Y-17759317D02*
X10786849Y-17749793D01*
X10786849Y-17749793D02*
X10777325Y-17730746D01*
X10777325Y-17730746D02*
X10777325Y-17721222D01*
X10777325Y-17721222D02*
X10786849Y-17702174D01*
X10786849Y-17702174D02*
X10805896Y-17692650D01*
X10805896Y-17692650D02*
X10834468Y-17692650D01*
X10834468Y-17692650D02*
X10853516Y-17702174D01*
X10977325Y-17825984D02*
X10958277Y-17816460D01*
X10958277Y-17816460D02*
X10948754Y-17797412D01*
X10948754Y-17797412D02*
X10948754Y-17625984D01*
X11082087Y-17825984D02*
X11063039Y-17816460D01*
X11063039Y-17816460D02*
X11053516Y-17806936D01*
X11053516Y-17806936D02*
X11043992Y-17787889D01*
X11043992Y-17787889D02*
X11043992Y-17730746D01*
X11043992Y-17730746D02*
X11053516Y-17711698D01*
X11053516Y-17711698D02*
X11063039Y-17702174D01*
X11063039Y-17702174D02*
X11082087Y-17692650D01*
X11082087Y-17692650D02*
X11110658Y-17692650D01*
X11110658Y-17692650D02*
X11129706Y-17702174D01*
X11129706Y-17702174D02*
X11139230Y-17711698D01*
X11139230Y-17711698D02*
X11148754Y-17730746D01*
X11148754Y-17730746D02*
X11148754Y-17787889D01*
X11148754Y-17787889D02*
X11139230Y-17806936D01*
X11139230Y-17806936D02*
X11129706Y-17816460D01*
X11129706Y-17816460D02*
X11110658Y-17825984D01*
X11110658Y-17825984D02*
X11082087Y-17825984D01*
X11205896Y-17692650D02*
X11282087Y-17692650D01*
X11234468Y-17625984D02*
X11234468Y-17797412D01*
X11234468Y-17797412D02*
X11243992Y-17816460D01*
X11243992Y-17816460D02*
X11263039Y-17825984D01*
X11263039Y-17825984D02*
X11282087Y-17825984D01*
X11339230Y-17816460D02*
X11358277Y-17825984D01*
X11358277Y-17825984D02*
X11396373Y-17825984D01*
X11396373Y-17825984D02*
X11415420Y-17816460D01*
X11415420Y-17816460D02*
X11424944Y-17797412D01*
X11424944Y-17797412D02*
X11424944Y-17787889D01*
X11424944Y-17787889D02*
X11415420Y-17768841D01*
X11415420Y-17768841D02*
X11396373Y-17759317D01*
X11396373Y-17759317D02*
X11367801Y-17759317D01*
X11367801Y-17759317D02*
X11348754Y-17749793D01*
X11348754Y-17749793D02*
X11339230Y-17730746D01*
X11339230Y-17730746D02*
X11339230Y-17721222D01*
X11339230Y-17721222D02*
X11348754Y-17702174D01*
X11348754Y-17702174D02*
X11367801Y-17692650D01*
X11367801Y-17692650D02*
X11396373Y-17692650D01*
X11396373Y-17692650D02*
X11415420Y-17702174D01*
X11491611Y-17902174D02*
X11501135Y-17892650D01*
X11501135Y-17892650D02*
X11520182Y-17864079D01*
X11520182Y-17864079D02*
X11529706Y-17845031D01*
X11529706Y-17845031D02*
X11539230Y-17816460D01*
X11539230Y-17816460D02*
X11548754Y-17768841D01*
X11548754Y-17768841D02*
X11548754Y-17730746D01*
X11548754Y-17730746D02*
X11539230Y-17683127D01*
X11539230Y-17683127D02*
X11529706Y-17654555D01*
X11529706Y-17654555D02*
X11520182Y-17635508D01*
X11520182Y-17635508D02*
X11501135Y-17606936D01*
X11501135Y-17606936D02*
X11491611Y-17597412D01*
M02*
