%TF.GenerationSoftware,KiCad,Pcbnew,9.0.4*%
%TF.CreationDate,2025-10-04T20:57:18+02:00*%
%TF.ProjectId,DMH_Dual_VCA_Mk2_PCB_2,444d485f-4475-4616-9c5f-5643415f4d6b,1*%
%TF.SameCoordinates,Original*%
%TF.FileFunction,Soldermask,Top*%
%TF.FilePolarity,Negative*%
%FSLAX46Y46*%
G04 Gerber Fmt 4.6, Leading zero omitted, Abs format (unit mm)*
G04 Created by KiCad (PCBNEW 9.0.4) date 2025-10-04 20:57:18*
%MOMM*%
%LPD*%
G01*
G04 APERTURE LIST*
%ADD10O,2.720000X3.240000*%
%ADD11R,1.800000X1.800000*%
%ADD12C,1.800000*%
%ADD13C,1.600000*%
%ADD14O,1.600000X1.600000*%
%ADD15O,4.000000X4.200000*%
%ADD16R,1.700000X1.700000*%
%ADD17O,1.700000X1.700000*%
G04 APERTURE END LIST*
D10*
%TO.C,RV1*%
X82450000Y-71000000D03*
X92050000Y-71000000D03*
D11*
X84750000Y-78500000D03*
D12*
X87250000Y-78500000D03*
X89750000Y-78500000D03*
%TD*%
D13*
%TO.C,R21*%
X83440000Y-85250000D03*
D14*
X91060000Y-85250000D03*
%TD*%
D15*
%TO.C,RV6*%
X81450000Y-149000000D03*
D12*
X91000000Y-160000000D03*
D15*
X93050000Y-149000000D03*
D11*
X83500000Y-160000000D03*
D12*
X86000000Y-160000000D03*
X88500000Y-160000000D03*
%TD*%
D15*
%TO.C,RV2*%
X56950000Y-56000000D03*
D12*
X66500000Y-67000000D03*
D15*
X68550000Y-56000000D03*
D11*
X59000000Y-67000000D03*
D12*
X61500000Y-67000000D03*
X64000000Y-67000000D03*
%TD*%
D15*
%TO.C,RV3*%
X56950000Y-86000000D03*
D12*
X66500000Y-97000000D03*
D15*
X68550000Y-86000000D03*
D11*
X59000000Y-97000000D03*
D12*
X61500000Y-97000000D03*
X64000000Y-97000000D03*
%TD*%
D16*
%TO.C,J0*%
X55000000Y-109000000D03*
%TD*%
D10*
%TO.C,RV4*%
X57950000Y-134000000D03*
X67550000Y-134000000D03*
D11*
X60250000Y-141500000D03*
D12*
X62750000Y-141500000D03*
X65250000Y-141500000D03*
%TD*%
D15*
%TO.C,RV5*%
X81450000Y-119000000D03*
D12*
X91000000Y-130000000D03*
D15*
X93050000Y-119000000D03*
D11*
X83500000Y-130000000D03*
D12*
X86000000Y-130000000D03*
X88500000Y-130000000D03*
%TD*%
D13*
%TO.C,R40*%
X58940000Y-123500000D03*
D14*
X66560000Y-123500000D03*
%TD*%
D16*
%TO.C,J60*%
X54000000Y-122500000D03*
D17*
X54000000Y-125040000D03*
X54000000Y-127580000D03*
X54000000Y-130120000D03*
X54000000Y-132660000D03*
X54000000Y-135200000D03*
X54000000Y-137740000D03*
X54000000Y-140280000D03*
%TD*%
D16*
%TO.C,J50*%
X96000000Y-83620000D03*
D17*
X96000000Y-81080000D03*
X96000000Y-78540000D03*
X96000000Y-76000000D03*
X96000000Y-73460000D03*
X96000000Y-70920000D03*
X96000000Y-68380000D03*
X96000000Y-65840000D03*
%TD*%
M02*
