M48
; DRILL file {KiCad 9.0.4} date 2025-10-04T20:57:21+0200
; FORMAT={-:-/ absolute / metric / decimal}
; #@! TF.CreationDate,2025-10-04T20:57:21+02:00
; #@! TF.GenerationSoftware,Kicad,Pcbnew,9.0.4
; #@! TF.FileFunction,Plated,1,2,PTH
FMAT,2
METRIC
; #@! TA.AperFunction,Plated,PTH,ComponentDrill
T1C0.800
; #@! TA.AperFunction,Plated,PTH,ComponentDrill
T2C1.000
; #@! TA.AperFunction,Plated,PTH,ComponentDrill
T3C1.100
; #@! TA.AperFunction,Plated,PTH,ComponentDrill
T4C2.000
%
G90
G05
T1
X58.94Y-123.5
X66.56Y-123.5
X83.44Y-85.25
X91.06Y-85.25
T2
X54.0Y-122.5
X54.0Y-125.04
X54.0Y-127.58
X54.0Y-130.12
X54.0Y-132.66
X54.0Y-135.2
X54.0Y-137.74
X54.0Y-140.28
X55.0Y-109.0
X59.0Y-67.0
X59.0Y-97.0
X60.25Y-141.5
X61.5Y-67.0
X61.5Y-97.0
X62.75Y-141.5
X64.0Y-67.0
X64.0Y-97.0
X65.25Y-141.5
X66.5Y-67.0
X66.5Y-97.0
X83.5Y-130.0
X83.5Y-160.0
X84.75Y-78.5
X86.0Y-130.0
X86.0Y-160.0
X87.25Y-78.5
X88.5Y-130.0
X88.5Y-160.0
X89.75Y-78.5
X91.0Y-130.0
X91.0Y-160.0
X96.0Y-65.84
X96.0Y-68.38
X96.0Y-70.92
X96.0Y-73.46
X96.0Y-76.0
X96.0Y-78.54
X96.0Y-81.08
X96.0Y-83.62
T3
X57.95Y-134.35G85X57.95Y-133.65
G05
X67.55Y-134.35G85X67.55Y-133.65
G05
X82.45Y-71.35G85X82.45Y-70.65
G05
X92.05Y-71.35G85X92.05Y-70.65
G05
T4
X56.95Y-55.9G85X56.95Y-56.1
G05
X56.95Y-85.9G85X56.95Y-86.1
G05
X68.55Y-55.9G85X68.55Y-56.1
G05
X68.55Y-85.9G85X68.55Y-86.1
G05
X81.45Y-118.9G85X81.45Y-119.1
G05
X81.45Y-148.9G85X81.45Y-149.1
G05
X93.05Y-118.9G85X93.05Y-119.1
G05
X93.05Y-148.9G85X93.05Y-149.1
G05
M30
