%TF.GenerationSoftware,KiCad,Pcbnew,9.0.4*%
%TF.CreationDate,2025-10-04T20:57:17+02:00*%
%TF.ProjectId,DMH_Dual_VCA_Mk2_PCB_2,444d485f-4475-4616-9c5f-5643415f4d6b,1*%
%TF.SameCoordinates,Original*%
%TF.FileFunction,Copper,L2,Bot*%
%TF.FilePolarity,Positive*%
%FSLAX46Y46*%
G04 Gerber Fmt 4.6, Leading zero omitted, Abs format (unit mm)*
G04 Created by KiCad (PCBNEW 9.0.4) date 2025-10-04 20:57:17*
%MOMM*%
%LPD*%
G01*
G04 APERTURE LIST*
%TA.AperFunction,ComponentPad*%
%ADD10O,2.720000X3.240000*%
%TD*%
%TA.AperFunction,ComponentPad*%
%ADD11R,1.800000X1.800000*%
%TD*%
%TA.AperFunction,ComponentPad*%
%ADD12C,1.800000*%
%TD*%
%TA.AperFunction,ComponentPad*%
%ADD13C,1.600000*%
%TD*%
%TA.AperFunction,ComponentPad*%
%ADD14O,1.600000X1.600000*%
%TD*%
%TA.AperFunction,ComponentPad*%
%ADD15O,4.000000X4.200000*%
%TD*%
%TA.AperFunction,ComponentPad*%
%ADD16R,1.700000X1.700000*%
%TD*%
%TA.AperFunction,ComponentPad*%
%ADD17O,1.700000X1.700000*%
%TD*%
%TA.AperFunction,Conductor*%
%ADD18C,1.000000*%
%TD*%
%TA.AperFunction,Conductor*%
%ADD19C,0.200000*%
%TD*%
G04 APERTURE END LIST*
D10*
%TO.P,RV1,*%
%TO.N,*%
X82450000Y-71000000D03*
X92050000Y-71000000D03*
D11*
%TO.P,RV1,1,1*%
%TO.N,GND*%
X84750000Y-78500000D03*
D12*
%TO.P,RV1,2,2*%
%TO.N,/Inputs and Outputs/Offset A Pot*%
X87250000Y-78500000D03*
%TO.P,RV1,3,3*%
%TO.N,Net-(R21-Pad1)*%
X89750000Y-78500000D03*
%TD*%
D13*
%TO.P,R21,1*%
%TO.N,Net-(R21-Pad1)*%
X83440000Y-85250000D03*
D14*
%TO.P,R21,2*%
%TO.N,+12V*%
X91060000Y-85250000D03*
%TD*%
D15*
%TO.P,RV6,*%
%TO.N,*%
X81450000Y-149000000D03*
D12*
X91000000Y-160000000D03*
D15*
X93050000Y-149000000D03*
D11*
%TO.P,RV6,1,1*%
%TO.N,GND*%
X83500000Y-160000000D03*
D12*
%TO.P,RV6,2,2*%
%TO.N,/Inputs and Outputs/CV 2 B Pot*%
X86000000Y-160000000D03*
%TO.P,RV6,3,3*%
%TO.N,/Inputs and Outputs/CV 2 B Jack*%
X88500000Y-160000000D03*
%TD*%
D15*
%TO.P,RV2,*%
%TO.N,*%
X56950000Y-56000000D03*
D12*
X66500000Y-67000000D03*
D15*
X68550000Y-56000000D03*
D11*
%TO.P,RV2,1,1*%
%TO.N,GND*%
X59000000Y-67000000D03*
D12*
%TO.P,RV2,2,2*%
%TO.N,/Inputs and Outputs/CV 1 A Pot*%
X61500000Y-67000000D03*
%TO.P,RV2,3,3*%
%TO.N,/Inputs and Outputs/CV 1 A Jack*%
X64000000Y-67000000D03*
%TD*%
D15*
%TO.P,RV3,*%
%TO.N,*%
X56950000Y-86000000D03*
D12*
X66500000Y-97000000D03*
D15*
X68550000Y-86000000D03*
D11*
%TO.P,RV3,1,1*%
%TO.N,GND*%
X59000000Y-97000000D03*
D12*
%TO.P,RV3,2,2*%
%TO.N,/Inputs and Outputs/CV 2 A Pot*%
X61500000Y-97000000D03*
%TO.P,RV3,3,3*%
%TO.N,/Inputs and Outputs/CV 2 A Jack*%
X64000000Y-97000000D03*
%TD*%
D16*
%TO.P,J0,1,Pin_1*%
%TO.N,GND*%
X55000000Y-109000000D03*
%TD*%
D10*
%TO.P,RV4,*%
%TO.N,*%
X57950000Y-134000000D03*
X67550000Y-134000000D03*
D11*
%TO.P,RV4,1,1*%
%TO.N,GND*%
X60250000Y-141500000D03*
D12*
%TO.P,RV4,2,2*%
%TO.N,/Inputs and Outputs/Offset B Pot*%
X62750000Y-141500000D03*
%TO.P,RV4,3,3*%
%TO.N,Net-(R40-Pad1)*%
X65250000Y-141500000D03*
%TD*%
D15*
%TO.P,RV5,*%
%TO.N,*%
X81450000Y-119000000D03*
D12*
X91000000Y-130000000D03*
D15*
X93050000Y-119000000D03*
D11*
%TO.P,RV5,1,1*%
%TO.N,GND*%
X83500000Y-130000000D03*
D12*
%TO.P,RV5,2,2*%
%TO.N,/Inputs and Outputs/CV 1 B Pot*%
X86000000Y-130000000D03*
%TO.P,RV5,3,3*%
%TO.N,/Inputs and Outputs/CV 1 B Jack*%
X88500000Y-130000000D03*
%TD*%
D13*
%TO.P,R40,1*%
%TO.N,Net-(R40-Pad1)*%
X58940000Y-123500000D03*
D14*
%TO.P,R40,2*%
%TO.N,+12V*%
X66560000Y-123500000D03*
%TD*%
D16*
%TO.P,J60,1,Pin_1*%
%TO.N,/Inputs and Outputs/CV 1 B Jack*%
X54000000Y-122500000D03*
D17*
%TO.P,J60,2,Pin_2*%
%TO.N,/Inputs and Outputs/CV 2 B Jack*%
X54000000Y-125040000D03*
%TO.P,J60,3,Pin_3*%
%TO.N,+12V*%
X54000000Y-127580000D03*
%TO.P,J60,4,Pin_4*%
%TO.N,/Inputs and Outputs/Offset B Pot*%
X54000000Y-130120000D03*
%TO.P,J60,5,Pin_5*%
%TO.N,/Inputs and Outputs/CV 1 B Pot*%
X54000000Y-132660000D03*
%TO.P,J60,6,Pin_6*%
%TO.N,/Inputs and Outputs/CV 2 B Pot*%
X54000000Y-135200000D03*
%TO.P,J60,7,Pin_7*%
%TO.N,GND*%
X54000000Y-137740000D03*
%TO.P,J60,8,Pin_8*%
X54000000Y-140280000D03*
%TD*%
D16*
%TO.P,J50,1,Pin_1*%
%TO.N,/Inputs and Outputs/CV 1 A Jack*%
X96000000Y-83620000D03*
D17*
%TO.P,J50,2,Pin_2*%
%TO.N,/Inputs and Outputs/CV 2 A Jack*%
X96000000Y-81080000D03*
%TO.P,J50,3,Pin_3*%
%TO.N,+12V*%
X96000000Y-78540000D03*
%TO.P,J50,4,Pin_4*%
%TO.N,/Inputs and Outputs/Offset A Pot*%
X96000000Y-76000000D03*
%TO.P,J50,5,Pin_5*%
%TO.N,/Inputs and Outputs/CV 1 A Pot*%
X96000000Y-73460000D03*
%TO.P,J50,6,Pin_6*%
%TO.N,/Inputs and Outputs/CV 2 A Pot*%
X96000000Y-70920000D03*
%TO.P,J50,7,Pin_7*%
%TO.N,GND*%
X96000000Y-68380000D03*
%TO.P,J50,8,Pin_8*%
X96000000Y-65840000D03*
%TD*%
D18*
%TO.N,+12V*%
X91060000Y-85250000D02*
X91060000Y-83480000D01*
X91060000Y-83480000D02*
X96000000Y-78540000D01*
X66560000Y-123500000D02*
X66560000Y-109750000D01*
X66560000Y-109750000D02*
X91060000Y-85250000D01*
D19*
%TO.N,Net-(R21-Pad1)*%
X89750000Y-78940000D02*
X89750000Y-78500000D01*
X83440000Y-85250000D02*
X89750000Y-78940000D01*
%TO.N,Net-(R40-Pad1)*%
X65250000Y-129810000D02*
X65250000Y-141500000D01*
X58940000Y-123500000D02*
X65250000Y-129810000D01*
%TO.N,/Inputs and Outputs/CV 2 A Pot*%
X61500000Y-97000000D02*
X84500000Y-74000000D01*
X92920000Y-74000000D02*
X96000000Y-70920000D01*
X84500000Y-74000000D02*
X92920000Y-74000000D01*
%TO.N,/Inputs and Outputs/Offset B Pot*%
X58620000Y-130120000D02*
X62750000Y-134250000D01*
X54000000Y-130120000D02*
X58620000Y-130120000D01*
X62750000Y-134250000D02*
X62750000Y-141500000D01*
%TO.N,/Inputs and Outputs/CV 1 B Jack*%
X54000000Y-122500000D02*
X55900000Y-120600000D01*
X85300000Y-126800000D02*
X88500000Y-130000000D01*
X60417100Y-120600000D02*
X66617100Y-126800000D01*
X66617100Y-126800000D02*
X85300000Y-126800000D01*
X55900000Y-120600000D02*
X60417100Y-120600000D01*
%TO.N,/Inputs and Outputs/CV 2 B Jack*%
X66451000Y-127201000D02*
X88500000Y-149250000D01*
X58039000Y-121001000D02*
X60251000Y-121001000D01*
X54000000Y-125040000D02*
X58039000Y-121001000D01*
X88500000Y-149250000D02*
X88500000Y-160000000D01*
X60251000Y-121001000D02*
X66216100Y-126966100D01*
X66216100Y-126966100D02*
X66451000Y-127201000D01*
%TD*%
%TA.AperFunction,Conductor*%
%TO.N,GND*%
G36*
X54250000Y-139846988D02*
G01*
X54192993Y-139814075D01*
X54065826Y-139780000D01*
X53934174Y-139780000D01*
X53807007Y-139814075D01*
X53750000Y-139846988D01*
X53750000Y-138173012D01*
X53807007Y-138205925D01*
X53934174Y-138240000D01*
X54065826Y-138240000D01*
X54192993Y-138205925D01*
X54250000Y-138173012D01*
X54250000Y-139846988D01*
G37*
%TD.AperFunction*%
%TA.AperFunction,Conductor*%
G36*
X96250000Y-67946988D02*
G01*
X96192993Y-67914075D01*
X96065826Y-67880000D01*
X95934174Y-67880000D01*
X95807007Y-67914075D01*
X95750000Y-67946988D01*
X95750000Y-66273012D01*
X95807007Y-66305925D01*
X95934174Y-66340000D01*
X96065826Y-66340000D01*
X96192993Y-66305925D01*
X96250000Y-66273012D01*
X96250000Y-67946988D01*
G37*
%TD.AperFunction*%
%TA.AperFunction,Conductor*%
G36*
X98442539Y-43020185D02*
G01*
X98488294Y-43072989D01*
X98499500Y-43124500D01*
X98499500Y-162375500D01*
X98479815Y-162442539D01*
X98427011Y-162488294D01*
X98375500Y-162499500D01*
X51624500Y-162499500D01*
X51557461Y-162479815D01*
X51511706Y-162427011D01*
X51500500Y-162375500D01*
X51500500Y-148759568D01*
X78949500Y-148759568D01*
X78949500Y-149240431D01*
X78980942Y-149519494D01*
X78980945Y-149519512D01*
X79043439Y-149793317D01*
X79043443Y-149793329D01*
X79136200Y-150058411D01*
X79258053Y-150311442D01*
X79258055Y-150311445D01*
X79407477Y-150549248D01*
X79582584Y-150768825D01*
X79781175Y-150967416D01*
X80000752Y-151142523D01*
X80238555Y-151291945D01*
X80491592Y-151413801D01*
X80690680Y-151483465D01*
X80756670Y-151506556D01*
X80756682Y-151506560D01*
X81030491Y-151569055D01*
X81030497Y-151569055D01*
X81030505Y-151569057D01*
X81216547Y-151590018D01*
X81309569Y-151600499D01*
X81309572Y-151600500D01*
X81309575Y-151600500D01*
X81590428Y-151600500D01*
X81590429Y-151600499D01*
X81733055Y-151584429D01*
X81869494Y-151569057D01*
X81869499Y-151569056D01*
X81869509Y-151569055D01*
X82143318Y-151506560D01*
X82408408Y-151413801D01*
X82661445Y-151291945D01*
X82899248Y-151142523D01*
X83118825Y-150967416D01*
X83317416Y-150768825D01*
X83492523Y-150549248D01*
X83641945Y-150311445D01*
X83763801Y-150058408D01*
X83856560Y-149793318D01*
X83919055Y-149519509D01*
X83950500Y-149240425D01*
X83950500Y-148759575D01*
X83919055Y-148480491D01*
X83856560Y-148206682D01*
X83763801Y-147941592D01*
X83641945Y-147688555D01*
X83492523Y-147450752D01*
X83317416Y-147231175D01*
X83118825Y-147032584D01*
X82899248Y-146857477D01*
X82661445Y-146708055D01*
X82661442Y-146708053D01*
X82408411Y-146586200D01*
X82143329Y-146493443D01*
X82143317Y-146493439D01*
X81869512Y-146430945D01*
X81869494Y-146430942D01*
X81590431Y-146399500D01*
X81590425Y-146399500D01*
X81309575Y-146399500D01*
X81309568Y-146399500D01*
X81030505Y-146430942D01*
X81030487Y-146430945D01*
X80756682Y-146493439D01*
X80756670Y-146493443D01*
X80491588Y-146586200D01*
X80238557Y-146708053D01*
X80000753Y-146857476D01*
X79781175Y-147032583D01*
X79582583Y-147231175D01*
X79407476Y-147450753D01*
X79258053Y-147688557D01*
X79136200Y-147941588D01*
X79043443Y-148206670D01*
X79043439Y-148206682D01*
X78980945Y-148480487D01*
X78980942Y-148480505D01*
X78949500Y-148759568D01*
X51500500Y-148759568D01*
X51500500Y-121602135D01*
X52649500Y-121602135D01*
X52649500Y-123397870D01*
X52649501Y-123397876D01*
X52655908Y-123457483D01*
X52706202Y-123592328D01*
X52706206Y-123592335D01*
X52792452Y-123707544D01*
X52792455Y-123707547D01*
X52907664Y-123793793D01*
X52907671Y-123793797D01*
X53039082Y-123842810D01*
X53095016Y-123884681D01*
X53119433Y-123950145D01*
X53104582Y-124018418D01*
X53083431Y-124046673D01*
X52969889Y-124160215D01*
X52844951Y-124332179D01*
X52748444Y-124521585D01*
X52682753Y-124723760D01*
X52649500Y-124933713D01*
X52649500Y-125146286D01*
X52682753Y-125356239D01*
X52748444Y-125558414D01*
X52844951Y-125747820D01*
X52969890Y-125919786D01*
X53120213Y-126070109D01*
X53292182Y-126195050D01*
X53300946Y-126199516D01*
X53351742Y-126247491D01*
X53368536Y-126315312D01*
X53345998Y-126381447D01*
X53300946Y-126420484D01*
X53292182Y-126424949D01*
X53120213Y-126549890D01*
X52969890Y-126700213D01*
X52844951Y-126872179D01*
X52748444Y-127061585D01*
X52682753Y-127263760D01*
X52649500Y-127473713D01*
X52649500Y-127686286D01*
X52682753Y-127896239D01*
X52748444Y-128098414D01*
X52844951Y-128287820D01*
X52969890Y-128459786D01*
X53120213Y-128610109D01*
X53292182Y-128735050D01*
X53300946Y-128739516D01*
X53351742Y-128787491D01*
X53368536Y-128855312D01*
X53345998Y-128921447D01*
X53300946Y-128960484D01*
X53292182Y-128964949D01*
X53120213Y-129089890D01*
X52969890Y-129240213D01*
X52844951Y-129412179D01*
X52748444Y-129601585D01*
X52682753Y-129803760D01*
X52667661Y-129899047D01*
X52649500Y-130013713D01*
X52649500Y-130226287D01*
X52682754Y-130436243D01*
X52692398Y-130465925D01*
X52748444Y-130638414D01*
X52844951Y-130827820D01*
X52969890Y-130999786D01*
X53120213Y-131150109D01*
X53292182Y-131275050D01*
X53300946Y-131279516D01*
X53351742Y-131327491D01*
X53368536Y-131395312D01*
X53345998Y-131461447D01*
X53300946Y-131500484D01*
X53292182Y-131504949D01*
X53120213Y-131629890D01*
X52969890Y-131780213D01*
X52844951Y-131952179D01*
X52748444Y-132141585D01*
X52682753Y-132343760D01*
X52652728Y-132533334D01*
X52649500Y-132553713D01*
X52649500Y-132766287D01*
X52682754Y-132976243D01*
X52736179Y-133140669D01*
X52748444Y-133178414D01*
X52844951Y-133367820D01*
X52969890Y-133539786D01*
X53120213Y-133690109D01*
X53292182Y-133815050D01*
X53300946Y-133819516D01*
X53351742Y-133867491D01*
X53368536Y-133935312D01*
X53345998Y-134001447D01*
X53300946Y-134040484D01*
X53292182Y-134044949D01*
X53120213Y-134169890D01*
X52969890Y-134320213D01*
X52844951Y-134492179D01*
X52748444Y-134681585D01*
X52682753Y-134883760D01*
X52649500Y-135093713D01*
X52649500Y-135306286D01*
X52678494Y-135489350D01*
X52682754Y-135516243D01*
X52730048Y-135661799D01*
X52748444Y-135718414D01*
X52844951Y-135907820D01*
X52969890Y-136079786D01*
X53120213Y-136230109D01*
X53292179Y-136355048D01*
X53292181Y-136355049D01*
X53292184Y-136355051D01*
X53301493Y-136359794D01*
X53352290Y-136407766D01*
X53369087Y-136475587D01*
X53346552Y-136541722D01*
X53301502Y-136580762D01*
X53292443Y-136585378D01*
X53120540Y-136710272D01*
X53120535Y-136710276D01*
X52970276Y-136860535D01*
X52970272Y-136860540D01*
X52845379Y-137032442D01*
X52748904Y-137221782D01*
X52683242Y-137423870D01*
X52683242Y-137423873D01*
X52672769Y-137490000D01*
X53566988Y-137490000D01*
X53534075Y-137547007D01*
X53500000Y-137674174D01*
X53500000Y-137805826D01*
X53534075Y-137932993D01*
X53566988Y-137990000D01*
X52672769Y-137990000D01*
X52683242Y-138056126D01*
X52683242Y-138056129D01*
X52748904Y-138258217D01*
X52845379Y-138447557D01*
X52970272Y-138619459D01*
X52970276Y-138619464D01*
X53120535Y-138769723D01*
X53120540Y-138769727D01*
X53292444Y-138894622D01*
X53302048Y-138899516D01*
X53352844Y-138947491D01*
X53369638Y-139015312D01*
X53347100Y-139081447D01*
X53302048Y-139120484D01*
X53292444Y-139125377D01*
X53120540Y-139250272D01*
X53120535Y-139250276D01*
X52970276Y-139400535D01*
X52970272Y-139400540D01*
X52845379Y-139572442D01*
X52748904Y-139761782D01*
X52683242Y-139963870D01*
X52683242Y-139963873D01*
X52672769Y-140030000D01*
X53566988Y-140030000D01*
X53534075Y-140087007D01*
X53500000Y-140214174D01*
X53500000Y-140345826D01*
X53534075Y-140472993D01*
X53566988Y-140530000D01*
X52672769Y-140530000D01*
X52683242Y-140596126D01*
X52683242Y-140596129D01*
X52748904Y-140798217D01*
X52845379Y-140987557D01*
X52970272Y-141159459D01*
X52970276Y-141159464D01*
X53120535Y-141309723D01*
X53120540Y-141309727D01*
X53292442Y-141434620D01*
X53481782Y-141531095D01*
X53683871Y-141596757D01*
X53750000Y-141607231D01*
X53750000Y-140713012D01*
X53807007Y-140745925D01*
X53934174Y-140780000D01*
X54065826Y-140780000D01*
X54192993Y-140745925D01*
X54250000Y-140713012D01*
X54250000Y-141607230D01*
X54316126Y-141596757D01*
X54316129Y-141596757D01*
X54365527Y-141580707D01*
X54518217Y-141531095D01*
X54707557Y-141434620D01*
X54879459Y-141309727D01*
X54879464Y-141309723D01*
X55029723Y-141159464D01*
X55029727Y-141159459D01*
X55154620Y-140987557D01*
X55251095Y-140798217D01*
X55316757Y-140596129D01*
X55316757Y-140596126D01*
X55327231Y-140530000D01*
X54433012Y-140530000D01*
X54465925Y-140472993D01*
X54500000Y-140345826D01*
X54500000Y-140214174D01*
X54465925Y-140087007D01*
X54433012Y-140030000D01*
X55327231Y-140030000D01*
X55316757Y-139963873D01*
X55316757Y-139963870D01*
X55251095Y-139761782D01*
X55154620Y-139572442D01*
X55029727Y-139400540D01*
X55029723Y-139400535D01*
X54879464Y-139250276D01*
X54879459Y-139250272D01*
X54707558Y-139125379D01*
X54697954Y-139120486D01*
X54647157Y-139072512D01*
X54630361Y-139004692D01*
X54652897Y-138938556D01*
X54697954Y-138899514D01*
X54707558Y-138894620D01*
X54879459Y-138769727D01*
X54879464Y-138769723D01*
X55029723Y-138619464D01*
X55029727Y-138619459D01*
X55154620Y-138447557D01*
X55251095Y-138258217D01*
X55316757Y-138056129D01*
X55316757Y-138056126D01*
X55327231Y-137990000D01*
X54433012Y-137990000D01*
X54465925Y-137932993D01*
X54500000Y-137805826D01*
X54500000Y-137674174D01*
X54465925Y-137547007D01*
X54433012Y-137490000D01*
X55327231Y-137490000D01*
X55316757Y-137423873D01*
X55316757Y-137423870D01*
X55251095Y-137221782D01*
X55154620Y-137032442D01*
X55029727Y-136860540D01*
X55029723Y-136860535D01*
X54879464Y-136710276D01*
X54879459Y-136710272D01*
X54707555Y-136585377D01*
X54698500Y-136580763D01*
X54647706Y-136532788D01*
X54630912Y-136464966D01*
X54653451Y-136398832D01*
X54698508Y-136359793D01*
X54707816Y-136355051D01*
X54787007Y-136297515D01*
X54879786Y-136230109D01*
X54879788Y-136230106D01*
X54879792Y-136230104D01*
X55030104Y-136079792D01*
X55030106Y-136079788D01*
X55030109Y-136079786D01*
X55155048Y-135907820D01*
X55155047Y-135907820D01*
X55155051Y-135907816D01*
X55251557Y-135718412D01*
X55317246Y-135516243D01*
X55350500Y-135306287D01*
X55350500Y-135093713D01*
X55317246Y-134883757D01*
X55251557Y-134681588D01*
X55155051Y-134492184D01*
X55155049Y-134492181D01*
X55155048Y-134492179D01*
X55030109Y-134320213D01*
X54879786Y-134169890D01*
X54707820Y-134044951D01*
X54707115Y-134044591D01*
X54699054Y-134040485D01*
X54648259Y-133992512D01*
X54631463Y-133924692D01*
X54653999Y-133858556D01*
X54699054Y-133819515D01*
X54707816Y-133815051D01*
X54770540Y-133769480D01*
X54879786Y-133690109D01*
X54879788Y-133690106D01*
X54879792Y-133690104D01*
X54951848Y-133618048D01*
X56089500Y-133618048D01*
X56089500Y-134381951D01*
X56104876Y-134498735D01*
X56121334Y-134623744D01*
X56184456Y-134859320D01*
X56184459Y-134859330D01*
X56277786Y-135084640D01*
X56277791Y-135084651D01*
X56399727Y-135295848D01*
X56399738Y-135295864D01*
X56548199Y-135489343D01*
X56548205Y-135489350D01*
X56720649Y-135661794D01*
X56720655Y-135661799D01*
X56914144Y-135810268D01*
X56914151Y-135810272D01*
X57125348Y-135932208D01*
X57125353Y-135932210D01*
X57125356Y-135932212D01*
X57350679Y-136025544D01*
X57586256Y-136088666D01*
X57828056Y-136120500D01*
X57828063Y-136120500D01*
X58071937Y-136120500D01*
X58071944Y-136120500D01*
X58313744Y-136088666D01*
X58549321Y-136025544D01*
X58774644Y-135932212D01*
X58985856Y-135810268D01*
X59179345Y-135661799D01*
X59351799Y-135489345D01*
X59500268Y-135295856D01*
X59622212Y-135084644D01*
X59715544Y-134859321D01*
X59778666Y-134623744D01*
X59810500Y-134381944D01*
X59810500Y-133618056D01*
X59778666Y-133376256D01*
X59715544Y-133140679D01*
X59622212Y-132915356D01*
X59622210Y-132915353D01*
X59622208Y-132915348D01*
X59500272Y-132704151D01*
X59500268Y-132704144D01*
X59435676Y-132619966D01*
X59351800Y-132510656D01*
X59351794Y-132510649D01*
X59179350Y-132338205D01*
X59179343Y-132338199D01*
X58985864Y-132189738D01*
X58985862Y-132189736D01*
X58985856Y-132189732D01*
X58985851Y-132189729D01*
X58985848Y-132189727D01*
X58774651Y-132067791D01*
X58774640Y-132067786D01*
X58549330Y-131974459D01*
X58549323Y-131974457D01*
X58549321Y-131974456D01*
X58313744Y-131911334D01*
X58273333Y-131906013D01*
X58071951Y-131879500D01*
X58071944Y-131879500D01*
X57828056Y-131879500D01*
X57828048Y-131879500D01*
X57597896Y-131909801D01*
X57586256Y-131911334D01*
X57433819Y-131952179D01*
X57350679Y-131974456D01*
X57350669Y-131974459D01*
X57125359Y-132067786D01*
X57125348Y-132067791D01*
X56914151Y-132189727D01*
X56914135Y-132189738D01*
X56720656Y-132338199D01*
X56720649Y-132338205D01*
X56548205Y-132510649D01*
X56548199Y-132510656D01*
X56399738Y-132704135D01*
X56399727Y-132704151D01*
X56277791Y-132915348D01*
X56277786Y-132915359D01*
X56184459Y-133140669D01*
X56184456Y-133140679D01*
X56123595Y-133367820D01*
X56121335Y-133376253D01*
X56121333Y-133376264D01*
X56089500Y-133618048D01*
X54951848Y-133618048D01*
X55030104Y-133539792D01*
X55155051Y-133367816D01*
X55251557Y-133178412D01*
X55317246Y-132976243D01*
X55350500Y-132766287D01*
X55350500Y-132553713D01*
X55317246Y-132343757D01*
X55251557Y-132141588D01*
X55155051Y-131952184D01*
X55155049Y-131952181D01*
X55155048Y-131952179D01*
X55030109Y-131780213D01*
X54879786Y-131629890D01*
X54707820Y-131504951D01*
X54707115Y-131504591D01*
X54699054Y-131500485D01*
X54648259Y-131452512D01*
X54631463Y-131384692D01*
X54653999Y-131318556D01*
X54699054Y-131279515D01*
X54707816Y-131275051D01*
X54814123Y-131197815D01*
X54879786Y-131150109D01*
X54879788Y-131150106D01*
X54879792Y-131150104D01*
X55030104Y-130999792D01*
X55030106Y-130999788D01*
X55030109Y-130999786D01*
X55093628Y-130912358D01*
X55155051Y-130827816D01*
X55155349Y-130827230D01*
X55175235Y-130788205D01*
X55223209Y-130737409D01*
X55285719Y-130720500D01*
X58319903Y-130720500D01*
X58386942Y-130740185D01*
X58407584Y-130756819D01*
X62113181Y-134462416D01*
X62146666Y-134523739D01*
X62149500Y-134550097D01*
X62149500Y-140158164D01*
X62129815Y-140225203D01*
X62081796Y-140268648D01*
X62015976Y-140302185D01*
X61837641Y-140431752D01*
X61837635Y-140431757D01*
X61816207Y-140453185D01*
X61754884Y-140486669D01*
X61685192Y-140481683D01*
X61629259Y-140439810D01*
X61612346Y-140408834D01*
X61593355Y-140357915D01*
X61593350Y-140357906D01*
X61507190Y-140242812D01*
X61507187Y-140242809D01*
X61392093Y-140156649D01*
X61392086Y-140156645D01*
X61257379Y-140106403D01*
X61257372Y-140106401D01*
X61197844Y-140100000D01*
X60500000Y-140100000D01*
X60500000Y-141066988D01*
X60442993Y-141034075D01*
X60315826Y-141000000D01*
X60184174Y-141000000D01*
X60057007Y-141034075D01*
X60000000Y-141066988D01*
X60000000Y-140100000D01*
X59302155Y-140100000D01*
X59242627Y-140106401D01*
X59242620Y-140106403D01*
X59107913Y-140156645D01*
X59107906Y-140156649D01*
X58992812Y-140242809D01*
X58992809Y-140242812D01*
X58906649Y-140357906D01*
X58906645Y-140357913D01*
X58856403Y-140492620D01*
X58856401Y-140492627D01*
X58850000Y-140552155D01*
X58850000Y-141250000D01*
X59816988Y-141250000D01*
X59784075Y-141307007D01*
X59750000Y-141434174D01*
X59750000Y-141565826D01*
X59784075Y-141692993D01*
X59816988Y-141750000D01*
X58850000Y-141750000D01*
X58850000Y-142447844D01*
X58856401Y-142507372D01*
X58856403Y-142507379D01*
X58906645Y-142642086D01*
X58906649Y-142642093D01*
X58992809Y-142757187D01*
X58992812Y-142757190D01*
X59107906Y-142843350D01*
X59107913Y-142843354D01*
X59242620Y-142893596D01*
X59242627Y-142893598D01*
X59302155Y-142899999D01*
X59302172Y-142900000D01*
X60000000Y-142900000D01*
X60000000Y-141933012D01*
X60057007Y-141965925D01*
X60184174Y-142000000D01*
X60315826Y-142000000D01*
X60442993Y-141965925D01*
X60500000Y-141933012D01*
X60500000Y-142900000D01*
X61197828Y-142900000D01*
X61197844Y-142899999D01*
X61257372Y-142893598D01*
X61257379Y-142893596D01*
X61392086Y-142843354D01*
X61392093Y-142843350D01*
X61507187Y-142757190D01*
X61507190Y-142757187D01*
X61593350Y-142642093D01*
X61593353Y-142642088D01*
X61612345Y-142591166D01*
X61654215Y-142535232D01*
X61719679Y-142510813D01*
X61787952Y-142525663D01*
X61816209Y-142546816D01*
X61837636Y-142568243D01*
X61837641Y-142568247D01*
X61993192Y-142681260D01*
X62015978Y-142697815D01*
X62132501Y-142757187D01*
X62212393Y-142797895D01*
X62212396Y-142797896D01*
X62317221Y-142831955D01*
X62422049Y-142866015D01*
X62639778Y-142900500D01*
X62639779Y-142900500D01*
X62860221Y-142900500D01*
X62860222Y-142900500D01*
X63077951Y-142866015D01*
X63287606Y-142797895D01*
X63484022Y-142697815D01*
X63662365Y-142568242D01*
X63818242Y-142412365D01*
X63899682Y-142300270D01*
X63955011Y-142257606D01*
X64024624Y-142251627D01*
X64086420Y-142284232D01*
X64100313Y-142300265D01*
X64181753Y-142412358D01*
X64181758Y-142412365D01*
X64337636Y-142568243D01*
X64337641Y-142568247D01*
X64493192Y-142681260D01*
X64515978Y-142697815D01*
X64632501Y-142757187D01*
X64712393Y-142797895D01*
X64712396Y-142797896D01*
X64817221Y-142831955D01*
X64922049Y-142866015D01*
X65139778Y-142900500D01*
X65139779Y-142900500D01*
X65360221Y-142900500D01*
X65360222Y-142900500D01*
X65577951Y-142866015D01*
X65787606Y-142797895D01*
X65984022Y-142697815D01*
X66162365Y-142568242D01*
X66318242Y-142412365D01*
X66447815Y-142234022D01*
X66547895Y-142037606D01*
X66616015Y-141827951D01*
X66650500Y-141610222D01*
X66650500Y-141389778D01*
X66616015Y-141172049D01*
X66547895Y-140962394D01*
X66547895Y-140962393D01*
X66513237Y-140894375D01*
X66447815Y-140765978D01*
X66385421Y-140680099D01*
X66318247Y-140587641D01*
X66318243Y-140587636D01*
X66162363Y-140431756D01*
X66162358Y-140431752D01*
X65984023Y-140302185D01*
X65918204Y-140268648D01*
X65867409Y-140220674D01*
X65850500Y-140158164D01*
X65850500Y-135466665D01*
X65870185Y-135399626D01*
X65922989Y-135353871D01*
X65992147Y-135343927D01*
X66055703Y-135372952D01*
X66072874Y-135391177D01*
X66099396Y-135425741D01*
X66148199Y-135489343D01*
X66148205Y-135489350D01*
X66320649Y-135661794D01*
X66320655Y-135661799D01*
X66514144Y-135810268D01*
X66514151Y-135810272D01*
X66725348Y-135932208D01*
X66725353Y-135932210D01*
X66725356Y-135932212D01*
X66950679Y-136025544D01*
X67186256Y-136088666D01*
X67428056Y-136120500D01*
X67428063Y-136120500D01*
X67671937Y-136120500D01*
X67671944Y-136120500D01*
X67913744Y-136088666D01*
X68149321Y-136025544D01*
X68374644Y-135932212D01*
X68585856Y-135810268D01*
X68779345Y-135661799D01*
X68951799Y-135489345D01*
X69100268Y-135295856D01*
X69222212Y-135084644D01*
X69315544Y-134859321D01*
X69378666Y-134623744D01*
X69410500Y-134381944D01*
X69410500Y-133618056D01*
X69378666Y-133376256D01*
X69315544Y-133140679D01*
X69222212Y-132915356D01*
X69222210Y-132915353D01*
X69222208Y-132915348D01*
X69100272Y-132704151D01*
X69100268Y-132704144D01*
X69035676Y-132619966D01*
X68951800Y-132510656D01*
X68951794Y-132510649D01*
X68779350Y-132338205D01*
X68779343Y-132338199D01*
X68585864Y-132189738D01*
X68585862Y-132189736D01*
X68585856Y-132189732D01*
X68585851Y-132189729D01*
X68585848Y-132189727D01*
X68374651Y-132067791D01*
X68374640Y-132067786D01*
X68149330Y-131974459D01*
X68149323Y-131974457D01*
X68149321Y-131974456D01*
X67913744Y-131911334D01*
X67873333Y-131906013D01*
X67671951Y-131879500D01*
X67671944Y-131879500D01*
X67428056Y-131879500D01*
X67428048Y-131879500D01*
X67197896Y-131909801D01*
X67186256Y-131911334D01*
X67033819Y-131952179D01*
X66950679Y-131974456D01*
X66950669Y-131974459D01*
X66725359Y-132067786D01*
X66725348Y-132067791D01*
X66514151Y-132189727D01*
X66514135Y-132189738D01*
X66320656Y-132338199D01*
X66320649Y-132338205D01*
X66148205Y-132510649D01*
X66148199Y-132510656D01*
X66072876Y-132608820D01*
X66016448Y-132650023D01*
X65946702Y-132654178D01*
X65885782Y-132619966D01*
X65853029Y-132558249D01*
X65850500Y-132533334D01*
X65850500Y-129899060D01*
X65850501Y-129899047D01*
X65850501Y-129730944D01*
X65834720Y-129672049D01*
X65809577Y-129578216D01*
X65799304Y-129560423D01*
X65730524Y-129441290D01*
X65730518Y-129441282D01*
X60234077Y-123944842D01*
X60200592Y-123883519D01*
X60203828Y-123818841D01*
X60208477Y-123804534D01*
X60240500Y-123602352D01*
X60240500Y-123397648D01*
X60208477Y-123195466D01*
X60145220Y-123000781D01*
X60145218Y-123000778D01*
X60145218Y-123000776D01*
X60063432Y-122840264D01*
X60052287Y-122818390D01*
X60044556Y-122807749D01*
X59931971Y-122652786D01*
X59787213Y-122508028D01*
X59621613Y-122387715D01*
X59621612Y-122387714D01*
X59621610Y-122387713D01*
X59564653Y-122358691D01*
X59439223Y-122294781D01*
X59244534Y-122231522D01*
X59069995Y-122203878D01*
X59042352Y-122199500D01*
X58837648Y-122199500D01*
X58813329Y-122203351D01*
X58635465Y-122231522D01*
X58440776Y-122294781D01*
X58258386Y-122387715D01*
X58092786Y-122508028D01*
X57948028Y-122652786D01*
X57827715Y-122818386D01*
X57734781Y-123000776D01*
X57671522Y-123195465D01*
X57639500Y-123397648D01*
X57639500Y-123602351D01*
X57671522Y-123804534D01*
X57734781Y-123999223D01*
X57827715Y-124181613D01*
X57948028Y-124347213D01*
X58092786Y-124491971D01*
X58247749Y-124604556D01*
X58258390Y-124612287D01*
X58374607Y-124671503D01*
X58440776Y-124705218D01*
X58440778Y-124705218D01*
X58440781Y-124705220D01*
X58545137Y-124739127D01*
X58635465Y-124768477D01*
X58736557Y-124784488D01*
X58837648Y-124800500D01*
X58837649Y-124800500D01*
X59042351Y-124800500D01*
X59042352Y-124800500D01*
X59244534Y-124768477D01*
X59258842Y-124763827D01*
X59328682Y-124761831D01*
X59384842Y-124794077D01*
X64613181Y-130022416D01*
X64646666Y-130083739D01*
X64649500Y-130110097D01*
X64649500Y-140158164D01*
X64629815Y-140225203D01*
X64581796Y-140268648D01*
X64515976Y-140302185D01*
X64337641Y-140431752D01*
X64337636Y-140431756D01*
X64181756Y-140587636D01*
X64181752Y-140587641D01*
X64100318Y-140699727D01*
X64044989Y-140742393D01*
X63975375Y-140748372D01*
X63913580Y-140715767D01*
X63899682Y-140699727D01*
X63818247Y-140587641D01*
X63818243Y-140587636D01*
X63662363Y-140431756D01*
X63662358Y-140431752D01*
X63484023Y-140302185D01*
X63418204Y-140268648D01*
X63367409Y-140220674D01*
X63350500Y-140158164D01*
X63350500Y-134339059D01*
X63350501Y-134339046D01*
X63350501Y-134170945D01*
X63350501Y-134170943D01*
X63309577Y-134018215D01*
X63269294Y-133948443D01*
X63230520Y-133881284D01*
X63118716Y-133769480D01*
X63118715Y-133769479D01*
X63114385Y-133765149D01*
X63114374Y-133765139D01*
X59107590Y-129758355D01*
X59107588Y-129758352D01*
X58988717Y-129639481D01*
X58988709Y-129639475D01*
X58882604Y-129578216D01*
X58882603Y-129578215D01*
X58882603Y-129578216D01*
X58851785Y-129560423D01*
X58699057Y-129519499D01*
X58540943Y-129519499D01*
X58533347Y-129519499D01*
X58533331Y-129519500D01*
X55285719Y-129519500D01*
X55218680Y-129499815D01*
X55175235Y-129451795D01*
X55155052Y-129412185D01*
X55155051Y-129412184D01*
X55030109Y-129240213D01*
X54879786Y-129089890D01*
X54707820Y-128964951D01*
X54707115Y-128964591D01*
X54699054Y-128960485D01*
X54648259Y-128912512D01*
X54631463Y-128844692D01*
X54653999Y-128778556D01*
X54699054Y-128739515D01*
X54707816Y-128735051D01*
X54815728Y-128656649D01*
X54879786Y-128610109D01*
X54879788Y-128610106D01*
X54879792Y-128610104D01*
X55030104Y-128459792D01*
X55030106Y-128459788D01*
X55030109Y-128459786D01*
X55155048Y-128287820D01*
X55155047Y-128287820D01*
X55155051Y-128287816D01*
X55251557Y-128098412D01*
X55317246Y-127896243D01*
X55350500Y-127686287D01*
X55350500Y-127473713D01*
X55317246Y-127263757D01*
X55251557Y-127061588D01*
X55155051Y-126872184D01*
X55155049Y-126872181D01*
X55155048Y-126872179D01*
X55030109Y-126700213D01*
X54879786Y-126549890D01*
X54707820Y-126424951D01*
X54707115Y-126424591D01*
X54699054Y-126420485D01*
X54648259Y-126372512D01*
X54631463Y-126304692D01*
X54653999Y-126238556D01*
X54699054Y-126199515D01*
X54707816Y-126195051D01*
X54751682Y-126163181D01*
X54879786Y-126070109D01*
X54879788Y-126070106D01*
X54879792Y-126070104D01*
X55030104Y-125919792D01*
X55030106Y-125919788D01*
X55030109Y-125919786D01*
X55155048Y-125747820D01*
X55155047Y-125747820D01*
X55155051Y-125747816D01*
X55251557Y-125558412D01*
X55317246Y-125356243D01*
X55350500Y-125146287D01*
X55350500Y-124933713D01*
X55317246Y-124723757D01*
X55303506Y-124681473D01*
X55301512Y-124611635D01*
X55333755Y-124555478D01*
X58251417Y-121637819D01*
X58312740Y-121604334D01*
X58339098Y-121601500D01*
X59950903Y-121601500D01*
X60017942Y-121621185D01*
X60038584Y-121637819D01*
X65735581Y-127334816D01*
X66089349Y-127688585D01*
X66089355Y-127688590D01*
X87863181Y-149462416D01*
X87896666Y-149523739D01*
X87899500Y-149550097D01*
X87899500Y-158658164D01*
X87879815Y-158725203D01*
X87831796Y-158768648D01*
X87765976Y-158802185D01*
X87587641Y-158931752D01*
X87587636Y-158931756D01*
X87431756Y-159087636D01*
X87431752Y-159087641D01*
X87350318Y-159199727D01*
X87294989Y-159242393D01*
X87225375Y-159248372D01*
X87163580Y-159215767D01*
X87149682Y-159199727D01*
X87068247Y-159087641D01*
X87068243Y-159087636D01*
X86912363Y-158931756D01*
X86912358Y-158931752D01*
X86734025Y-158802187D01*
X86734024Y-158802186D01*
X86734022Y-158802185D01*
X86668203Y-158768648D01*
X86537606Y-158702104D01*
X86537603Y-158702103D01*
X86327952Y-158633985D01*
X86219086Y-158616742D01*
X86110222Y-158599500D01*
X85889778Y-158599500D01*
X85817201Y-158610995D01*
X85672047Y-158633985D01*
X85462396Y-158702103D01*
X85462393Y-158702104D01*
X85265974Y-158802187D01*
X85087641Y-158931752D01*
X85087635Y-158931757D01*
X85066207Y-158953185D01*
X85004884Y-158986669D01*
X84935192Y-158981683D01*
X84879259Y-158939810D01*
X84862346Y-158908834D01*
X84843355Y-158857915D01*
X84843350Y-158857906D01*
X84757190Y-158742812D01*
X84757187Y-158742809D01*
X84642093Y-158656649D01*
X84642086Y-158656645D01*
X84507379Y-158606403D01*
X84507372Y-158606401D01*
X84447844Y-158600000D01*
X83750000Y-158600000D01*
X83750000Y-159566988D01*
X83692993Y-159534075D01*
X83565826Y-159500000D01*
X83434174Y-159500000D01*
X83307007Y-159534075D01*
X83250000Y-159566988D01*
X83250000Y-158600000D01*
X82552155Y-158600000D01*
X82492627Y-158606401D01*
X82492620Y-158606403D01*
X82357913Y-158656645D01*
X82357906Y-158656649D01*
X82242812Y-158742809D01*
X82242809Y-158742812D01*
X82156649Y-158857906D01*
X82156645Y-158857913D01*
X82106403Y-158992620D01*
X82106401Y-158992627D01*
X82100000Y-159052155D01*
X82100000Y-159750000D01*
X83066988Y-159750000D01*
X83034075Y-159807007D01*
X83000000Y-159934174D01*
X83000000Y-160065826D01*
X83034075Y-160192993D01*
X83066988Y-160250000D01*
X82100000Y-160250000D01*
X82100000Y-160947844D01*
X82106401Y-161007372D01*
X82106403Y-161007379D01*
X82156645Y-161142086D01*
X82156649Y-161142093D01*
X82242809Y-161257187D01*
X82242812Y-161257190D01*
X82357906Y-161343350D01*
X82357913Y-161343354D01*
X82492620Y-161393596D01*
X82492627Y-161393598D01*
X82552155Y-161399999D01*
X82552172Y-161400000D01*
X83250000Y-161400000D01*
X83250000Y-160433012D01*
X83307007Y-160465925D01*
X83434174Y-160500000D01*
X83565826Y-160500000D01*
X83692993Y-160465925D01*
X83750000Y-160433012D01*
X83750000Y-161400000D01*
X84447828Y-161400000D01*
X84447844Y-161399999D01*
X84507372Y-161393598D01*
X84507379Y-161393596D01*
X84642086Y-161343354D01*
X84642093Y-161343350D01*
X84757187Y-161257190D01*
X84757190Y-161257187D01*
X84843350Y-161142093D01*
X84843353Y-161142088D01*
X84862345Y-161091166D01*
X84904215Y-161035232D01*
X84969679Y-161010813D01*
X85037952Y-161025663D01*
X85066209Y-161046816D01*
X85087636Y-161068243D01*
X85087641Y-161068247D01*
X85243192Y-161181260D01*
X85265978Y-161197815D01*
X85382501Y-161257187D01*
X85462393Y-161297895D01*
X85462396Y-161297896D01*
X85567221Y-161331955D01*
X85672049Y-161366015D01*
X85889778Y-161400500D01*
X85889779Y-161400500D01*
X86110221Y-161400500D01*
X86110222Y-161400500D01*
X86327951Y-161366015D01*
X86537606Y-161297895D01*
X86734022Y-161197815D01*
X86912365Y-161068242D01*
X87068242Y-160912365D01*
X87149682Y-160800270D01*
X87205011Y-160757606D01*
X87274624Y-160751627D01*
X87336420Y-160784232D01*
X87350313Y-160800265D01*
X87431753Y-160912358D01*
X87431758Y-160912365D01*
X87587636Y-161068243D01*
X87587641Y-161068247D01*
X87743192Y-161181260D01*
X87765978Y-161197815D01*
X87882501Y-161257187D01*
X87962393Y-161297895D01*
X87962396Y-161297896D01*
X88067221Y-161331955D01*
X88172049Y-161366015D01*
X88389778Y-161400500D01*
X88389779Y-161400500D01*
X88610221Y-161400500D01*
X88610222Y-161400500D01*
X88827951Y-161366015D01*
X89037606Y-161297895D01*
X89234022Y-161197815D01*
X89412365Y-161068242D01*
X89568242Y-160912365D01*
X89649682Y-160800270D01*
X89705011Y-160757606D01*
X89774624Y-160751627D01*
X89836420Y-160784232D01*
X89850313Y-160800265D01*
X89931753Y-160912358D01*
X89931758Y-160912365D01*
X90087636Y-161068243D01*
X90087641Y-161068247D01*
X90243192Y-161181260D01*
X90265978Y-161197815D01*
X90382501Y-161257187D01*
X90462393Y-161297895D01*
X90462396Y-161297896D01*
X90567221Y-161331955D01*
X90672049Y-161366015D01*
X90889778Y-161400500D01*
X90889779Y-161400500D01*
X91110221Y-161400500D01*
X91110222Y-161400500D01*
X91327951Y-161366015D01*
X91537606Y-161297895D01*
X91734022Y-161197815D01*
X91912365Y-161068242D01*
X92068242Y-160912365D01*
X92197815Y-160734022D01*
X92297895Y-160537606D01*
X92366015Y-160327951D01*
X92400500Y-160110222D01*
X92400500Y-159889778D01*
X92366015Y-159672049D01*
X92297895Y-159462394D01*
X92297895Y-159462393D01*
X92263237Y-159394375D01*
X92197815Y-159265978D01*
X92149681Y-159199727D01*
X92068247Y-159087641D01*
X92068243Y-159087636D01*
X91912363Y-158931756D01*
X91912358Y-158931752D01*
X91734025Y-158802187D01*
X91734024Y-158802186D01*
X91734022Y-158802185D01*
X91668203Y-158768648D01*
X91537606Y-158702104D01*
X91537603Y-158702103D01*
X91327952Y-158633985D01*
X91219086Y-158616742D01*
X91110222Y-158599500D01*
X90889778Y-158599500D01*
X90817201Y-158610995D01*
X90672047Y-158633985D01*
X90462396Y-158702103D01*
X90462393Y-158702104D01*
X90265974Y-158802187D01*
X90087641Y-158931752D01*
X90087636Y-158931756D01*
X89931756Y-159087636D01*
X89931752Y-159087641D01*
X89850318Y-159199727D01*
X89794989Y-159242393D01*
X89725375Y-159248372D01*
X89663580Y-159215767D01*
X89649682Y-159199727D01*
X89568247Y-159087641D01*
X89568243Y-159087636D01*
X89412363Y-158931756D01*
X89412358Y-158931752D01*
X89234023Y-158802185D01*
X89168204Y-158768648D01*
X89117409Y-158720674D01*
X89100500Y-158658164D01*
X89100500Y-149339059D01*
X89100501Y-149339046D01*
X89100501Y-149170945D01*
X89100501Y-149170943D01*
X89059577Y-149018215D01*
X89030639Y-148968095D01*
X88980520Y-148881284D01*
X88868716Y-148769480D01*
X88868715Y-148769479D01*
X88864385Y-148765149D01*
X88864374Y-148765139D01*
X88858803Y-148759568D01*
X90549500Y-148759568D01*
X90549500Y-149240431D01*
X90580942Y-149519494D01*
X90580945Y-149519512D01*
X90643439Y-149793317D01*
X90643443Y-149793329D01*
X90736200Y-150058411D01*
X90858053Y-150311442D01*
X90858055Y-150311445D01*
X91007477Y-150549248D01*
X91182584Y-150768825D01*
X91381175Y-150967416D01*
X91600752Y-151142523D01*
X91838555Y-151291945D01*
X92091592Y-151413801D01*
X92290680Y-151483465D01*
X92356670Y-151506556D01*
X92356682Y-151506560D01*
X92630491Y-151569055D01*
X92630497Y-151569055D01*
X92630505Y-151569057D01*
X92816547Y-151590018D01*
X92909569Y-151600499D01*
X92909572Y-151600500D01*
X92909575Y-151600500D01*
X93190428Y-151600500D01*
X93190429Y-151600499D01*
X93333055Y-151584429D01*
X93469494Y-151569057D01*
X93469499Y-151569056D01*
X93469509Y-151569055D01*
X93743318Y-151506560D01*
X94008408Y-151413801D01*
X94261445Y-151291945D01*
X94499248Y-151142523D01*
X94718825Y-150967416D01*
X94917416Y-150768825D01*
X95092523Y-150549248D01*
X95241945Y-150311445D01*
X95363801Y-150058408D01*
X95456560Y-149793318D01*
X95519055Y-149519509D01*
X95550500Y-149240425D01*
X95550500Y-148759575D01*
X95519055Y-148480491D01*
X95456560Y-148206682D01*
X95363801Y-147941592D01*
X95241945Y-147688555D01*
X95092523Y-147450752D01*
X94917416Y-147231175D01*
X94718825Y-147032584D01*
X94499248Y-146857477D01*
X94261445Y-146708055D01*
X94261442Y-146708053D01*
X94008411Y-146586200D01*
X93743329Y-146493443D01*
X93743317Y-146493439D01*
X93469512Y-146430945D01*
X93469494Y-146430942D01*
X93190431Y-146399500D01*
X93190425Y-146399500D01*
X92909575Y-146399500D01*
X92909568Y-146399500D01*
X92630505Y-146430942D01*
X92630487Y-146430945D01*
X92356682Y-146493439D01*
X92356670Y-146493443D01*
X92091588Y-146586200D01*
X91838557Y-146708053D01*
X91600753Y-146857476D01*
X91381175Y-147032583D01*
X91182583Y-147231175D01*
X91007476Y-147450753D01*
X90858053Y-147688557D01*
X90736200Y-147941588D01*
X90643443Y-148206670D01*
X90643439Y-148206682D01*
X90580945Y-148480487D01*
X90580942Y-148480505D01*
X90549500Y-148759568D01*
X88858803Y-148759568D01*
X67711416Y-127612181D01*
X67677931Y-127550858D01*
X67682915Y-127481166D01*
X67724787Y-127425233D01*
X67790251Y-127400816D01*
X67799097Y-127400500D01*
X84999903Y-127400500D01*
X85066942Y-127420185D01*
X85087584Y-127436819D01*
X86038584Y-128387819D01*
X86072069Y-128449142D01*
X86067085Y-128518834D01*
X86025213Y-128574767D01*
X85959749Y-128599184D01*
X85950903Y-128599500D01*
X85889778Y-128599500D01*
X85822827Y-128610104D01*
X85672047Y-128633985D01*
X85462396Y-128702103D01*
X85462393Y-128702104D01*
X85265974Y-128802187D01*
X85087641Y-128931752D01*
X85087635Y-128931757D01*
X85066207Y-128953185D01*
X85004884Y-128986669D01*
X84935192Y-128981683D01*
X84879259Y-128939810D01*
X84862346Y-128908834D01*
X84843355Y-128857915D01*
X84843350Y-128857906D01*
X84757190Y-128742812D01*
X84757187Y-128742809D01*
X84642093Y-128656649D01*
X84642086Y-128656645D01*
X84507379Y-128606403D01*
X84507372Y-128606401D01*
X84447844Y-128600000D01*
X83750000Y-128600000D01*
X83750000Y-129566988D01*
X83692993Y-129534075D01*
X83565826Y-129500000D01*
X83434174Y-129500000D01*
X83307007Y-129534075D01*
X83250000Y-129566988D01*
X83250000Y-128600000D01*
X82552155Y-128600000D01*
X82492627Y-128606401D01*
X82492620Y-128606403D01*
X82357913Y-128656645D01*
X82357906Y-128656649D01*
X82242812Y-128742809D01*
X82242809Y-128742812D01*
X82156649Y-128857906D01*
X82156645Y-128857913D01*
X82106403Y-128992620D01*
X82106401Y-128992627D01*
X82100000Y-129052155D01*
X82100000Y-129750000D01*
X83066988Y-129750000D01*
X83034075Y-129807007D01*
X83000000Y-129934174D01*
X83000000Y-130065826D01*
X83034075Y-130192993D01*
X83066988Y-130250000D01*
X82100000Y-130250000D01*
X82100000Y-130947844D01*
X82106401Y-131007372D01*
X82106403Y-131007379D01*
X82156645Y-131142086D01*
X82156649Y-131142093D01*
X82242809Y-131257187D01*
X82242812Y-131257190D01*
X82357906Y-131343350D01*
X82357913Y-131343354D01*
X82492620Y-131393596D01*
X82492627Y-131393598D01*
X82552155Y-131399999D01*
X82552172Y-131400000D01*
X83250000Y-131400000D01*
X83250000Y-130433012D01*
X83307007Y-130465925D01*
X83434174Y-130500000D01*
X83565826Y-130500000D01*
X83692993Y-130465925D01*
X83750000Y-130433012D01*
X83750000Y-131400000D01*
X84447828Y-131400000D01*
X84447844Y-131399999D01*
X84507372Y-131393598D01*
X84507379Y-131393596D01*
X84642086Y-131343354D01*
X84642093Y-131343350D01*
X84757187Y-131257190D01*
X84757190Y-131257187D01*
X84843350Y-131142093D01*
X84843353Y-131142088D01*
X84862345Y-131091166D01*
X84904215Y-131035232D01*
X84969679Y-131010813D01*
X85037952Y-131025663D01*
X85066209Y-131046816D01*
X85087636Y-131068243D01*
X85087641Y-131068247D01*
X85200309Y-131150104D01*
X85265978Y-131197815D01*
X85382501Y-131257187D01*
X85462393Y-131297895D01*
X85462396Y-131297896D01*
X85567221Y-131331955D01*
X85672049Y-131366015D01*
X85889778Y-131400500D01*
X85889779Y-131400500D01*
X86110221Y-131400500D01*
X86110222Y-131400500D01*
X86327951Y-131366015D01*
X86537606Y-131297895D01*
X86734022Y-131197815D01*
X86912365Y-131068242D01*
X87068242Y-130912365D01*
X87149682Y-130800270D01*
X87205011Y-130757606D01*
X87274624Y-130751627D01*
X87336420Y-130784232D01*
X87350313Y-130800265D01*
X87370333Y-130827820D01*
X87431758Y-130912365D01*
X87587636Y-131068243D01*
X87587641Y-131068247D01*
X87700309Y-131150104D01*
X87765978Y-131197815D01*
X87882501Y-131257187D01*
X87962393Y-131297895D01*
X87962396Y-131297896D01*
X88067221Y-131331955D01*
X88172049Y-131366015D01*
X88389778Y-131400500D01*
X88389779Y-131400500D01*
X88610221Y-131400500D01*
X88610222Y-131400500D01*
X88827951Y-131366015D01*
X89037606Y-131297895D01*
X89234022Y-131197815D01*
X89412365Y-131068242D01*
X89568242Y-130912365D01*
X89649682Y-130800270D01*
X89705011Y-130757606D01*
X89774624Y-130751627D01*
X89836420Y-130784232D01*
X89850313Y-130800265D01*
X89870333Y-130827820D01*
X89931758Y-130912365D01*
X90087636Y-131068243D01*
X90087641Y-131068247D01*
X90200309Y-131150104D01*
X90265978Y-131197815D01*
X90382501Y-131257187D01*
X90462393Y-131297895D01*
X90462396Y-131297896D01*
X90567221Y-131331955D01*
X90672049Y-131366015D01*
X90889778Y-131400500D01*
X90889779Y-131400500D01*
X91110221Y-131400500D01*
X91110222Y-131400500D01*
X91327951Y-131366015D01*
X91537606Y-131297895D01*
X91734022Y-131197815D01*
X91912365Y-131068242D01*
X92068242Y-130912365D01*
X92197815Y-130734022D01*
X92297895Y-130537606D01*
X92366015Y-130327951D01*
X92400500Y-130110222D01*
X92400500Y-129889778D01*
X92366015Y-129672049D01*
X92297895Y-129462394D01*
X92297895Y-129462393D01*
X92263237Y-129394375D01*
X92197815Y-129265978D01*
X92069885Y-129089896D01*
X92068247Y-129087641D01*
X92068243Y-129087636D01*
X91912363Y-128931756D01*
X91912358Y-128931752D01*
X91734025Y-128802187D01*
X91734024Y-128802186D01*
X91734022Y-128802185D01*
X91671096Y-128770122D01*
X91537606Y-128702104D01*
X91537603Y-128702103D01*
X91327952Y-128633985D01*
X91177204Y-128610109D01*
X91110222Y-128599500D01*
X90889778Y-128599500D01*
X90822827Y-128610104D01*
X90672047Y-128633985D01*
X90462396Y-128702103D01*
X90462393Y-128702104D01*
X90265974Y-128802187D01*
X90087641Y-128931752D01*
X90087636Y-128931756D01*
X89931756Y-129087636D01*
X89931752Y-129087641D01*
X89850318Y-129199727D01*
X89794989Y-129242393D01*
X89725375Y-129248372D01*
X89663580Y-129215767D01*
X89649682Y-129199727D01*
X89568247Y-129087641D01*
X89568243Y-129087636D01*
X89412363Y-128931756D01*
X89412358Y-128931752D01*
X89234025Y-128802187D01*
X89234024Y-128802186D01*
X89234022Y-128802185D01*
X89171096Y-128770122D01*
X89037606Y-128702104D01*
X89037603Y-128702103D01*
X88827952Y-128633985D01*
X88677204Y-128610109D01*
X88610222Y-128599500D01*
X88389778Y-128599500D01*
X88346232Y-128606397D01*
X88172045Y-128633985D01*
X88101794Y-128656811D01*
X88031953Y-128658806D01*
X87975796Y-128626561D01*
X85787590Y-126438355D01*
X85787588Y-126438352D01*
X85668717Y-126319481D01*
X85668709Y-126319475D01*
X85570464Y-126262754D01*
X85531788Y-126240424D01*
X85531787Y-126240423D01*
X85470693Y-126224053D01*
X85379057Y-126199499D01*
X85220943Y-126199499D01*
X85213347Y-126199499D01*
X85213331Y-126199500D01*
X66917197Y-126199500D01*
X66850158Y-126179815D01*
X66829516Y-126163181D01*
X60904690Y-120238355D01*
X60904688Y-120238352D01*
X60785817Y-120119481D01*
X60785816Y-120119480D01*
X60699004Y-120069360D01*
X60699004Y-120069359D01*
X60699000Y-120069358D01*
X60648885Y-120040423D01*
X60496157Y-119999499D01*
X60338043Y-119999499D01*
X60330447Y-119999499D01*
X60330431Y-119999500D01*
X55986670Y-119999500D01*
X55986654Y-119999499D01*
X55979058Y-119999499D01*
X55820943Y-119999499D01*
X55744579Y-120019961D01*
X55668214Y-120040423D01*
X55668209Y-120040426D01*
X55531290Y-120119475D01*
X55531282Y-120119481D01*
X54537582Y-121113181D01*
X54476259Y-121146666D01*
X54449901Y-121149500D01*
X53102129Y-121149500D01*
X53102123Y-121149501D01*
X53042516Y-121155908D01*
X52907671Y-121206202D01*
X52907664Y-121206206D01*
X52792455Y-121292452D01*
X52792452Y-121292455D01*
X52706206Y-121407664D01*
X52706202Y-121407671D01*
X52655908Y-121542517D01*
X52649501Y-121602116D01*
X52649500Y-121602135D01*
X51500500Y-121602135D01*
X51500500Y-108102155D01*
X53650000Y-108102155D01*
X53650000Y-108750000D01*
X54566988Y-108750000D01*
X54534075Y-108807007D01*
X54500000Y-108934174D01*
X54500000Y-109065826D01*
X54534075Y-109192993D01*
X54566988Y-109250000D01*
X53650000Y-109250000D01*
X53650000Y-109897844D01*
X53656401Y-109957372D01*
X53656403Y-109957379D01*
X53706645Y-110092086D01*
X53706649Y-110092093D01*
X53792809Y-110207187D01*
X53792812Y-110207190D01*
X53907906Y-110293350D01*
X53907913Y-110293354D01*
X54042620Y-110343596D01*
X54042627Y-110343598D01*
X54102155Y-110349999D01*
X54102172Y-110350000D01*
X54750000Y-110350000D01*
X54750000Y-109433012D01*
X54807007Y-109465925D01*
X54934174Y-109500000D01*
X55065826Y-109500000D01*
X55192993Y-109465925D01*
X55250000Y-109433012D01*
X55250000Y-110350000D01*
X55897828Y-110350000D01*
X55897844Y-110349999D01*
X55957372Y-110343598D01*
X55957379Y-110343596D01*
X56092086Y-110293354D01*
X56092093Y-110293350D01*
X56207187Y-110207190D01*
X56207190Y-110207187D01*
X56293350Y-110092093D01*
X56293354Y-110092086D01*
X56343596Y-109957379D01*
X56343598Y-109957372D01*
X56349999Y-109897844D01*
X56350000Y-109897827D01*
X56350000Y-109250000D01*
X55433012Y-109250000D01*
X55465925Y-109192993D01*
X55500000Y-109065826D01*
X55500000Y-108934174D01*
X55465925Y-108807007D01*
X55433012Y-108750000D01*
X56350000Y-108750000D01*
X56350000Y-108102172D01*
X56349999Y-108102155D01*
X56343598Y-108042627D01*
X56343596Y-108042620D01*
X56293354Y-107907913D01*
X56293350Y-107907906D01*
X56207190Y-107792812D01*
X56207187Y-107792809D01*
X56092093Y-107706649D01*
X56092086Y-107706645D01*
X55957379Y-107656403D01*
X55957372Y-107656401D01*
X55897844Y-107650000D01*
X55250000Y-107650000D01*
X55250000Y-108566988D01*
X55192993Y-108534075D01*
X55065826Y-108500000D01*
X54934174Y-108500000D01*
X54807007Y-108534075D01*
X54750000Y-108566988D01*
X54750000Y-107650000D01*
X54102155Y-107650000D01*
X54042627Y-107656401D01*
X54042620Y-107656403D01*
X53907913Y-107706645D01*
X53907906Y-107706649D01*
X53792812Y-107792809D01*
X53792809Y-107792812D01*
X53706649Y-107907906D01*
X53706645Y-107907913D01*
X53656403Y-108042620D01*
X53656401Y-108042627D01*
X53650000Y-108102155D01*
X51500500Y-108102155D01*
X51500500Y-96052155D01*
X57600000Y-96052155D01*
X57600000Y-96750000D01*
X58566988Y-96750000D01*
X58534075Y-96807007D01*
X58500000Y-96934174D01*
X58500000Y-97065826D01*
X58534075Y-97192993D01*
X58566988Y-97250000D01*
X57600000Y-97250000D01*
X57600000Y-97947844D01*
X57606401Y-98007372D01*
X57606403Y-98007379D01*
X57656645Y-98142086D01*
X57656649Y-98142093D01*
X57742809Y-98257187D01*
X57742812Y-98257190D01*
X57857906Y-98343350D01*
X57857913Y-98343354D01*
X57992620Y-98393596D01*
X57992627Y-98393598D01*
X58052155Y-98399999D01*
X58052172Y-98400000D01*
X58750000Y-98400000D01*
X58750000Y-97433012D01*
X58807007Y-97465925D01*
X58934174Y-97500000D01*
X59065826Y-97500000D01*
X59192993Y-97465925D01*
X59250000Y-97433012D01*
X59250000Y-98400000D01*
X59947828Y-98400000D01*
X59947844Y-98399999D01*
X60007372Y-98393598D01*
X60007379Y-98393596D01*
X60142086Y-98343354D01*
X60142093Y-98343350D01*
X60257187Y-98257190D01*
X60257190Y-98257187D01*
X60343350Y-98142093D01*
X60343353Y-98142088D01*
X60362345Y-98091166D01*
X60404215Y-98035232D01*
X60469679Y-98010813D01*
X60537952Y-98025663D01*
X60566209Y-98046816D01*
X60587636Y-98068243D01*
X60587641Y-98068247D01*
X60743192Y-98181260D01*
X60765978Y-98197815D01*
X60882501Y-98257187D01*
X60962393Y-98297895D01*
X60962396Y-98297896D01*
X61067221Y-98331955D01*
X61172049Y-98366015D01*
X61389778Y-98400500D01*
X61389779Y-98400500D01*
X61610221Y-98400500D01*
X61610222Y-98400500D01*
X61827951Y-98366015D01*
X62037606Y-98297895D01*
X62234022Y-98197815D01*
X62412365Y-98068242D01*
X62568242Y-97912365D01*
X62649682Y-97800270D01*
X62705011Y-97757606D01*
X62774624Y-97751627D01*
X62836420Y-97784232D01*
X62850313Y-97800265D01*
X62931753Y-97912358D01*
X62931758Y-97912365D01*
X63087636Y-98068243D01*
X63087641Y-98068247D01*
X63243192Y-98181260D01*
X63265978Y-98197815D01*
X63382501Y-98257187D01*
X63462393Y-98297895D01*
X63462396Y-98297896D01*
X63567221Y-98331955D01*
X63672049Y-98366015D01*
X63889778Y-98400500D01*
X63889779Y-98400500D01*
X64110221Y-98400500D01*
X64110222Y-98400500D01*
X64327951Y-98366015D01*
X64537606Y-98297895D01*
X64734022Y-98197815D01*
X64912365Y-98068242D01*
X65068242Y-97912365D01*
X65149682Y-97800270D01*
X65205011Y-97757606D01*
X65274624Y-97751627D01*
X65336420Y-97784232D01*
X65350313Y-97800265D01*
X65431753Y-97912358D01*
X65431758Y-97912365D01*
X65587636Y-98068243D01*
X65587641Y-98068247D01*
X65743192Y-98181260D01*
X65765978Y-98197815D01*
X65882501Y-98257187D01*
X65962393Y-98297895D01*
X65962396Y-98297896D01*
X66067221Y-98331955D01*
X66172049Y-98366015D01*
X66389778Y-98400500D01*
X66389779Y-98400500D01*
X66610221Y-98400500D01*
X66610222Y-98400500D01*
X66827951Y-98366015D01*
X67037606Y-98297895D01*
X67234022Y-98197815D01*
X67412365Y-98068242D01*
X67568242Y-97912365D01*
X67697815Y-97734022D01*
X67797895Y-97537606D01*
X67866015Y-97327951D01*
X67900500Y-97110222D01*
X67900500Y-96889778D01*
X67866015Y-96672049D01*
X67797895Y-96462394D01*
X67797895Y-96462393D01*
X67763237Y-96394375D01*
X67697815Y-96265978D01*
X67649681Y-96199727D01*
X67568247Y-96087641D01*
X67568243Y-96087636D01*
X67412363Y-95931756D01*
X67412358Y-95931752D01*
X67234025Y-95802187D01*
X67234024Y-95802186D01*
X67234022Y-95802185D01*
X67171096Y-95770122D01*
X67037606Y-95702104D01*
X67037603Y-95702103D01*
X66827952Y-95633985D01*
X66719086Y-95616742D01*
X66610222Y-95599500D01*
X66389778Y-95599500D01*
X66317201Y-95610995D01*
X66172047Y-95633985D01*
X65962396Y-95702103D01*
X65962393Y-95702104D01*
X65765974Y-95802187D01*
X65587641Y-95931752D01*
X65587636Y-95931756D01*
X65431756Y-96087636D01*
X65431752Y-96087641D01*
X65350318Y-96199727D01*
X65294989Y-96242393D01*
X65225375Y-96248372D01*
X65163580Y-96215767D01*
X65149682Y-96199727D01*
X65068247Y-96087641D01*
X65068243Y-96087636D01*
X64912363Y-95931756D01*
X64912358Y-95931752D01*
X64734025Y-95802187D01*
X64734024Y-95802186D01*
X64734022Y-95802185D01*
X64671096Y-95770122D01*
X64537606Y-95702104D01*
X64537603Y-95702103D01*
X64327952Y-95633985D01*
X64219086Y-95616742D01*
X64110222Y-95599500D01*
X64049096Y-95599500D01*
X63982057Y-95579815D01*
X63936302Y-95527011D01*
X63926358Y-95457853D01*
X63955383Y-95394297D01*
X63961415Y-95387819D01*
X74201586Y-85147648D01*
X82139500Y-85147648D01*
X82139500Y-85352351D01*
X82171522Y-85554534D01*
X82234781Y-85749223D01*
X82327715Y-85931613D01*
X82448028Y-86097213D01*
X82592786Y-86241971D01*
X82747749Y-86354556D01*
X82758390Y-86362287D01*
X82874607Y-86421503D01*
X82940776Y-86455218D01*
X82940778Y-86455218D01*
X82940781Y-86455220D01*
X83045137Y-86489127D01*
X83135465Y-86518477D01*
X83236557Y-86534488D01*
X83337648Y-86550500D01*
X83337649Y-86550500D01*
X83542351Y-86550500D01*
X83542352Y-86550500D01*
X83744534Y-86518477D01*
X83939219Y-86455220D01*
X84121610Y-86362287D01*
X84215859Y-86293812D01*
X84287213Y-86241971D01*
X84287215Y-86241968D01*
X84287219Y-86241966D01*
X84431966Y-86097219D01*
X84431968Y-86097215D01*
X84431971Y-86097213D01*
X84484732Y-86024590D01*
X84552287Y-85931610D01*
X84645220Y-85749219D01*
X84708477Y-85554534D01*
X84740500Y-85352352D01*
X84740500Y-85147648D01*
X84708477Y-84945466D01*
X84703825Y-84931151D01*
X84701832Y-84861312D01*
X84734075Y-84805158D01*
X89602416Y-79936819D01*
X89663739Y-79903334D01*
X89690097Y-79900500D01*
X89860221Y-79900500D01*
X89860222Y-79900500D01*
X90077951Y-79866015D01*
X90287606Y-79797895D01*
X90484022Y-79697815D01*
X90662365Y-79568242D01*
X90818242Y-79412365D01*
X90947815Y-79234022D01*
X91047895Y-79037606D01*
X91116015Y-78827951D01*
X91150500Y-78610222D01*
X91150500Y-78389778D01*
X91116015Y-78172049D01*
X91047895Y-77962394D01*
X91047895Y-77962393D01*
X91013237Y-77894375D01*
X90947815Y-77765978D01*
X90870969Y-77660208D01*
X90818247Y-77587641D01*
X90818243Y-77587636D01*
X90662363Y-77431756D01*
X90662358Y-77431752D01*
X90484025Y-77302187D01*
X90484024Y-77302186D01*
X90484022Y-77302185D01*
X90410439Y-77264692D01*
X90287606Y-77202104D01*
X90287603Y-77202103D01*
X90077952Y-77133985D01*
X89969086Y-77116742D01*
X89860222Y-77099500D01*
X89639778Y-77099500D01*
X89567201Y-77110995D01*
X89422047Y-77133985D01*
X89212396Y-77202103D01*
X89212393Y-77202104D01*
X89015974Y-77302187D01*
X88837641Y-77431752D01*
X88837636Y-77431756D01*
X88681756Y-77587636D01*
X88681752Y-77587641D01*
X88600318Y-77699727D01*
X88544989Y-77742393D01*
X88475375Y-77748372D01*
X88413580Y-77715767D01*
X88399682Y-77699727D01*
X88318247Y-77587641D01*
X88318243Y-77587636D01*
X88162363Y-77431756D01*
X88162358Y-77431752D01*
X87984025Y-77302187D01*
X87984024Y-77302186D01*
X87984022Y-77302185D01*
X87910439Y-77264692D01*
X87787606Y-77202104D01*
X87787603Y-77202103D01*
X87577952Y-77133985D01*
X87469086Y-77116742D01*
X87360222Y-77099500D01*
X87139778Y-77099500D01*
X87067201Y-77110995D01*
X86922047Y-77133985D01*
X86712396Y-77202103D01*
X86712393Y-77202104D01*
X86515974Y-77302187D01*
X86337641Y-77431752D01*
X86337635Y-77431757D01*
X86316207Y-77453185D01*
X86254884Y-77486669D01*
X86185192Y-77481683D01*
X86129259Y-77439810D01*
X86112346Y-77408834D01*
X86093355Y-77357915D01*
X86093350Y-77357906D01*
X86007190Y-77242812D01*
X86007187Y-77242809D01*
X85892093Y-77156649D01*
X85892086Y-77156645D01*
X85757379Y-77106403D01*
X85757372Y-77106401D01*
X85697844Y-77100000D01*
X85000000Y-77100000D01*
X85000000Y-78066988D01*
X84942993Y-78034075D01*
X84815826Y-78000000D01*
X84684174Y-78000000D01*
X84557007Y-78034075D01*
X84500000Y-78066988D01*
X84500000Y-77100000D01*
X83802155Y-77100000D01*
X83742627Y-77106401D01*
X83742620Y-77106403D01*
X83607913Y-77156645D01*
X83607906Y-77156649D01*
X83492812Y-77242809D01*
X83492809Y-77242812D01*
X83406649Y-77357906D01*
X83406645Y-77357913D01*
X83356403Y-77492620D01*
X83356401Y-77492627D01*
X83350000Y-77552155D01*
X83350000Y-78250000D01*
X84316988Y-78250000D01*
X84284075Y-78307007D01*
X84250000Y-78434174D01*
X84250000Y-78565826D01*
X84284075Y-78692993D01*
X84316988Y-78750000D01*
X83350000Y-78750000D01*
X83350000Y-79447844D01*
X83356401Y-79507372D01*
X83356403Y-79507379D01*
X83406645Y-79642086D01*
X83406649Y-79642093D01*
X83492809Y-79757187D01*
X83492812Y-79757190D01*
X83607906Y-79843350D01*
X83607913Y-79843354D01*
X83742620Y-79893596D01*
X83742627Y-79893598D01*
X83802155Y-79899999D01*
X83802172Y-79900000D01*
X84500000Y-79900000D01*
X84500000Y-78933012D01*
X84557007Y-78965925D01*
X84684174Y-79000000D01*
X84815826Y-79000000D01*
X84942993Y-78965925D01*
X85000000Y-78933012D01*
X85000000Y-79900000D01*
X85697828Y-79900000D01*
X85697844Y-79899999D01*
X85757372Y-79893598D01*
X85757379Y-79893596D01*
X85892086Y-79843354D01*
X85892093Y-79843350D01*
X86007187Y-79757190D01*
X86007190Y-79757187D01*
X86093350Y-79642093D01*
X86093353Y-79642088D01*
X86112345Y-79591166D01*
X86154215Y-79535232D01*
X86219679Y-79510813D01*
X86287952Y-79525663D01*
X86316209Y-79546816D01*
X86337636Y-79568243D01*
X86337641Y-79568247D01*
X86493192Y-79681260D01*
X86515978Y-79697815D01*
X86632501Y-79757187D01*
X86712393Y-79797895D01*
X86712396Y-79797896D01*
X86817221Y-79831955D01*
X86922049Y-79866015D01*
X87139778Y-79900500D01*
X87139779Y-79900500D01*
X87360221Y-79900500D01*
X87360222Y-79900500D01*
X87577951Y-79866015D01*
X87674511Y-79834640D01*
X87744351Y-79832646D01*
X87804184Y-79868726D01*
X87835012Y-79931427D01*
X87827048Y-80000841D01*
X87800509Y-80040253D01*
X83884842Y-83955921D01*
X83823519Y-83989406D01*
X83758848Y-83986173D01*
X83744534Y-83981522D01*
X83569995Y-83953878D01*
X83542352Y-83949500D01*
X83337648Y-83949500D01*
X83313329Y-83953351D01*
X83135465Y-83981522D01*
X82940776Y-84044781D01*
X82758386Y-84137715D01*
X82592786Y-84258028D01*
X82448028Y-84402786D01*
X82327715Y-84568386D01*
X82234781Y-84750776D01*
X82171522Y-84945465D01*
X82139500Y-85147648D01*
X74201586Y-85147648D01*
X74215927Y-85133307D01*
X84712416Y-74636819D01*
X84773739Y-74603334D01*
X84800097Y-74600500D01*
X92833331Y-74600500D01*
X92833347Y-74600501D01*
X92840943Y-74600501D01*
X92999054Y-74600501D01*
X92999057Y-74600501D01*
X93151785Y-74559577D01*
X93201904Y-74530639D01*
X93288716Y-74480520D01*
X93400520Y-74368716D01*
X93400520Y-74368714D01*
X93410728Y-74358507D01*
X93410729Y-74358504D01*
X94437820Y-73331414D01*
X94499142Y-73297930D01*
X94568834Y-73302914D01*
X94624767Y-73344786D01*
X94649184Y-73410250D01*
X94649500Y-73419096D01*
X94649500Y-73566286D01*
X94682753Y-73776239D01*
X94748444Y-73978414D01*
X94844951Y-74167820D01*
X94969890Y-74339786D01*
X95120213Y-74490109D01*
X95292182Y-74615050D01*
X95300946Y-74619516D01*
X95351742Y-74667491D01*
X95368536Y-74735312D01*
X95345998Y-74801447D01*
X95300946Y-74840484D01*
X95292182Y-74844949D01*
X95120213Y-74969890D01*
X94969890Y-75120213D01*
X94844951Y-75292179D01*
X94748444Y-75481585D01*
X94682753Y-75683760D01*
X94649500Y-75893713D01*
X94649500Y-76106286D01*
X94682753Y-76316239D01*
X94748444Y-76518414D01*
X94844951Y-76707820D01*
X94969890Y-76879786D01*
X95120213Y-77030109D01*
X95292182Y-77155050D01*
X95300946Y-77159516D01*
X95351742Y-77207491D01*
X95368536Y-77275312D01*
X95345998Y-77341447D01*
X95300946Y-77380484D01*
X95292182Y-77384949D01*
X95120213Y-77509890D01*
X94969890Y-77660213D01*
X94844951Y-77832179D01*
X94748444Y-78021585D01*
X94682753Y-78223760D01*
X94648738Y-78438525D01*
X94647684Y-78438358D01*
X94624621Y-78498850D01*
X94613576Y-78511503D01*
X92361322Y-80763757D01*
X90422221Y-82702858D01*
X90422218Y-82702861D01*
X90352538Y-82772540D01*
X90282859Y-82842219D01*
X90173371Y-83006079D01*
X90173366Y-83006089D01*
X90120041Y-83134824D01*
X90120042Y-83134825D01*
X90115386Y-83146070D01*
X90115379Y-83146086D01*
X90097949Y-83188164D01*
X90097947Y-83188170D01*
X90059500Y-83381456D01*
X90059500Y-84374237D01*
X90039815Y-84441276D01*
X90035818Y-84447122D01*
X89947715Y-84568386D01*
X89854781Y-84750778D01*
X89791522Y-84945468D01*
X89768073Y-85093514D01*
X89738143Y-85156649D01*
X89733281Y-85161796D01*
X65917889Y-108977188D01*
X65917880Y-108977198D01*
X65782863Y-109112214D01*
X65782860Y-109112218D01*
X65673371Y-109276079D01*
X65673364Y-109276092D01*
X65597950Y-109458160D01*
X65597947Y-109458170D01*
X65559500Y-109651456D01*
X65559500Y-122624237D01*
X65539815Y-122691276D01*
X65535818Y-122697122D01*
X65447715Y-122818386D01*
X65354781Y-123000776D01*
X65291522Y-123195465D01*
X65259500Y-123397648D01*
X65259500Y-123602351D01*
X65291522Y-123804534D01*
X65354781Y-123999223D01*
X65447715Y-124181613D01*
X65568028Y-124347213D01*
X65712786Y-124491971D01*
X65867749Y-124604556D01*
X65878390Y-124612287D01*
X65994607Y-124671503D01*
X66060776Y-124705218D01*
X66060778Y-124705218D01*
X66060781Y-124705220D01*
X66165137Y-124739127D01*
X66255465Y-124768477D01*
X66356557Y-124784488D01*
X66457648Y-124800500D01*
X66457649Y-124800500D01*
X66662351Y-124800500D01*
X66662352Y-124800500D01*
X66864534Y-124768477D01*
X67059219Y-124705220D01*
X67241610Y-124612287D01*
X67334590Y-124544732D01*
X67407213Y-124491971D01*
X67407215Y-124491968D01*
X67407219Y-124491966D01*
X67551966Y-124347219D01*
X67551968Y-124347215D01*
X67551971Y-124347213D01*
X67604732Y-124274590D01*
X67672287Y-124181610D01*
X67765220Y-123999219D01*
X67828477Y-123804534D01*
X67860500Y-123602352D01*
X67860500Y-123397648D01*
X67828477Y-123195466D01*
X67765220Y-123000781D01*
X67765218Y-123000778D01*
X67765218Y-123000776D01*
X67683432Y-122840264D01*
X67672287Y-122818390D01*
X67659654Y-122801003D01*
X67584182Y-122697122D01*
X67560702Y-122631316D01*
X67560500Y-122624237D01*
X67560500Y-118759568D01*
X78949500Y-118759568D01*
X78949500Y-119240431D01*
X78980942Y-119519494D01*
X78980945Y-119519512D01*
X79043439Y-119793317D01*
X79043443Y-119793329D01*
X79136200Y-120058411D01*
X79258053Y-120311442D01*
X79258055Y-120311445D01*
X79407477Y-120549248D01*
X79582584Y-120768825D01*
X79781175Y-120967416D01*
X80000752Y-121142523D01*
X80238555Y-121291945D01*
X80491592Y-121413801D01*
X80690680Y-121483465D01*
X80756670Y-121506556D01*
X80756682Y-121506560D01*
X81030491Y-121569055D01*
X81030497Y-121569055D01*
X81030505Y-121569057D01*
X81216547Y-121590018D01*
X81309569Y-121600499D01*
X81309572Y-121600500D01*
X81309575Y-121600500D01*
X81590428Y-121600500D01*
X81590429Y-121600499D01*
X81733055Y-121584429D01*
X81869494Y-121569057D01*
X81869499Y-121569056D01*
X81869509Y-121569055D01*
X82143318Y-121506560D01*
X82408408Y-121413801D01*
X82661445Y-121291945D01*
X82899248Y-121142523D01*
X83118825Y-120967416D01*
X83317416Y-120768825D01*
X83492523Y-120549248D01*
X83641945Y-120311445D01*
X83763801Y-120058408D01*
X83856560Y-119793318D01*
X83919055Y-119519509D01*
X83950500Y-119240425D01*
X83950500Y-118759575D01*
X83950499Y-118759568D01*
X90549500Y-118759568D01*
X90549500Y-119240431D01*
X90580942Y-119519494D01*
X90580945Y-119519512D01*
X90643439Y-119793317D01*
X90643443Y-119793329D01*
X90736200Y-120058411D01*
X90858053Y-120311442D01*
X90858055Y-120311445D01*
X91007477Y-120549248D01*
X91182584Y-120768825D01*
X91381175Y-120967416D01*
X91600752Y-121142523D01*
X91838555Y-121291945D01*
X92091592Y-121413801D01*
X92290680Y-121483465D01*
X92356670Y-121506556D01*
X92356682Y-121506560D01*
X92630491Y-121569055D01*
X92630497Y-121569055D01*
X92630505Y-121569057D01*
X92816547Y-121590018D01*
X92909569Y-121600499D01*
X92909572Y-121600500D01*
X92909575Y-121600500D01*
X93190428Y-121600500D01*
X93190429Y-121600499D01*
X93333055Y-121584429D01*
X93469494Y-121569057D01*
X93469499Y-121569056D01*
X93469509Y-121569055D01*
X93743318Y-121506560D01*
X94008408Y-121413801D01*
X94261445Y-121291945D01*
X94499248Y-121142523D01*
X94718825Y-120967416D01*
X94917416Y-120768825D01*
X95092523Y-120549248D01*
X95241945Y-120311445D01*
X95363801Y-120058408D01*
X95456560Y-119793318D01*
X95519055Y-119519509D01*
X95550500Y-119240425D01*
X95550500Y-118759575D01*
X95519055Y-118480491D01*
X95456560Y-118206682D01*
X95363801Y-117941592D01*
X95241945Y-117688555D01*
X95092523Y-117450752D01*
X94917416Y-117231175D01*
X94718825Y-117032584D01*
X94499248Y-116857477D01*
X94261445Y-116708055D01*
X94261442Y-116708053D01*
X94008411Y-116586200D01*
X93743329Y-116493443D01*
X93743317Y-116493439D01*
X93469512Y-116430945D01*
X93469494Y-116430942D01*
X93190431Y-116399500D01*
X93190425Y-116399500D01*
X92909575Y-116399500D01*
X92909568Y-116399500D01*
X92630505Y-116430942D01*
X92630487Y-116430945D01*
X92356682Y-116493439D01*
X92356670Y-116493443D01*
X92091588Y-116586200D01*
X91838557Y-116708053D01*
X91600753Y-116857476D01*
X91381175Y-117032583D01*
X91182583Y-117231175D01*
X91007476Y-117450753D01*
X90858053Y-117688557D01*
X90736200Y-117941588D01*
X90643443Y-118206670D01*
X90643439Y-118206682D01*
X90580945Y-118480487D01*
X90580942Y-118480505D01*
X90549500Y-118759568D01*
X83950499Y-118759568D01*
X83919055Y-118480491D01*
X83856560Y-118206682D01*
X83763801Y-117941592D01*
X83641945Y-117688555D01*
X83492523Y-117450752D01*
X83317416Y-117231175D01*
X83118825Y-117032584D01*
X82899248Y-116857477D01*
X82661445Y-116708055D01*
X82661442Y-116708053D01*
X82408411Y-116586200D01*
X82143329Y-116493443D01*
X82143317Y-116493439D01*
X81869512Y-116430945D01*
X81869494Y-116430942D01*
X81590431Y-116399500D01*
X81590425Y-116399500D01*
X81309575Y-116399500D01*
X81309568Y-116399500D01*
X81030505Y-116430942D01*
X81030487Y-116430945D01*
X80756682Y-116493439D01*
X80756670Y-116493443D01*
X80491588Y-116586200D01*
X80238557Y-116708053D01*
X80000753Y-116857476D01*
X79781175Y-117032583D01*
X79582583Y-117231175D01*
X79407476Y-117450753D01*
X79258053Y-117688557D01*
X79136200Y-117941588D01*
X79043443Y-118206670D01*
X79043439Y-118206682D01*
X78980945Y-118480487D01*
X78980942Y-118480505D01*
X78949500Y-118759568D01*
X67560500Y-118759568D01*
X67560500Y-110215782D01*
X67580185Y-110148743D01*
X67596819Y-110128101D01*
X79358906Y-98366014D01*
X91148204Y-86576715D01*
X91209525Y-86543232D01*
X91216475Y-86541926D01*
X91364534Y-86518477D01*
X91559219Y-86455220D01*
X91741610Y-86362287D01*
X91835859Y-86293812D01*
X91907213Y-86241971D01*
X91907215Y-86241968D01*
X91907219Y-86241966D01*
X92051966Y-86097219D01*
X92051968Y-86097215D01*
X92051971Y-86097213D01*
X92104732Y-86024590D01*
X92172287Y-85931610D01*
X92265220Y-85749219D01*
X92328477Y-85554534D01*
X92360500Y-85352352D01*
X92360500Y-85147648D01*
X92328477Y-84945466D01*
X92327218Y-84941592D01*
X92290162Y-84827544D01*
X92265220Y-84750781D01*
X92265218Y-84750778D01*
X92265218Y-84750776D01*
X92231503Y-84684607D01*
X92172287Y-84568390D01*
X92135584Y-84517872D01*
X92084182Y-84447122D01*
X92060702Y-84381316D01*
X92060500Y-84374237D01*
X92060500Y-83945781D01*
X92080185Y-83878742D01*
X92096814Y-83858105D01*
X94509245Y-81445673D01*
X94570566Y-81412190D01*
X94640258Y-81417174D01*
X94696191Y-81459046D01*
X94714855Y-81495038D01*
X94748444Y-81598414D01*
X94844951Y-81787820D01*
X94969890Y-81959786D01*
X95083430Y-82073326D01*
X95116915Y-82134649D01*
X95111931Y-82204341D01*
X95070059Y-82260274D01*
X95039083Y-82277189D01*
X94907669Y-82326203D01*
X94907664Y-82326206D01*
X94792455Y-82412452D01*
X94792452Y-82412455D01*
X94706206Y-82527664D01*
X94706202Y-82527671D01*
X94655908Y-82662517D01*
X94651571Y-82702861D01*
X94649501Y-82722123D01*
X94649500Y-82722135D01*
X94649500Y-84517870D01*
X94649501Y-84517876D01*
X94655908Y-84577483D01*
X94706202Y-84712328D01*
X94706206Y-84712335D01*
X94792452Y-84827544D01*
X94792455Y-84827547D01*
X94907664Y-84913793D01*
X94907671Y-84913797D01*
X95042517Y-84964091D01*
X95042516Y-84964091D01*
X95049444Y-84964835D01*
X95102127Y-84970500D01*
X96897872Y-84970499D01*
X96957483Y-84964091D01*
X97092331Y-84913796D01*
X97207546Y-84827546D01*
X97293796Y-84712331D01*
X97344091Y-84577483D01*
X97350500Y-84517873D01*
X97350499Y-82722128D01*
X97344091Y-82662517D01*
X97293796Y-82527669D01*
X97293795Y-82527668D01*
X97293793Y-82527664D01*
X97207547Y-82412455D01*
X97207544Y-82412452D01*
X97092335Y-82326206D01*
X97092328Y-82326202D01*
X96960917Y-82277189D01*
X96904983Y-82235318D01*
X96880566Y-82169853D01*
X96895418Y-82101580D01*
X96916563Y-82073332D01*
X97030104Y-81959792D01*
X97155051Y-81787816D01*
X97251557Y-81598412D01*
X97317246Y-81396243D01*
X97350500Y-81186287D01*
X97350500Y-80973713D01*
X97317246Y-80763757D01*
X97251557Y-80561588D01*
X97155051Y-80372184D01*
X97155049Y-80372181D01*
X97155048Y-80372179D01*
X97030109Y-80200213D01*
X96879786Y-80049890D01*
X96707820Y-79924951D01*
X96707115Y-79924591D01*
X96699054Y-79920485D01*
X96648259Y-79872512D01*
X96631463Y-79804692D01*
X96653999Y-79738556D01*
X96699054Y-79699515D01*
X96707816Y-79695051D01*
X96780717Y-79642086D01*
X96879786Y-79570109D01*
X96879788Y-79570106D01*
X96879792Y-79570104D01*
X97030104Y-79419792D01*
X97030106Y-79419788D01*
X97030109Y-79419786D01*
X97155048Y-79247820D01*
X97155047Y-79247820D01*
X97155051Y-79247816D01*
X97251557Y-79058412D01*
X97317246Y-78856243D01*
X97350500Y-78646287D01*
X97350500Y-78433713D01*
X97317246Y-78223757D01*
X97251557Y-78021588D01*
X97155051Y-77832184D01*
X97155049Y-77832181D01*
X97155048Y-77832179D01*
X97030109Y-77660213D01*
X96879786Y-77509890D01*
X96707820Y-77384951D01*
X96707115Y-77384591D01*
X96699054Y-77380485D01*
X96648259Y-77332512D01*
X96631463Y-77264692D01*
X96653999Y-77198556D01*
X96699054Y-77159515D01*
X96707816Y-77155051D01*
X96774775Y-77106403D01*
X96879786Y-77030109D01*
X96879788Y-77030106D01*
X96879792Y-77030104D01*
X97030104Y-76879792D01*
X97030106Y-76879788D01*
X97030109Y-76879786D01*
X97155048Y-76707820D01*
X97155047Y-76707820D01*
X97155051Y-76707816D01*
X97251557Y-76518412D01*
X97317246Y-76316243D01*
X97350500Y-76106287D01*
X97350500Y-75893713D01*
X97317246Y-75683757D01*
X97251557Y-75481588D01*
X97155051Y-75292184D01*
X97155049Y-75292181D01*
X97155048Y-75292179D01*
X97030109Y-75120213D01*
X96879786Y-74969890D01*
X96707820Y-74844951D01*
X96707115Y-74844591D01*
X96699054Y-74840485D01*
X96648259Y-74792512D01*
X96631463Y-74724692D01*
X96653999Y-74658556D01*
X96699054Y-74619515D01*
X96707816Y-74615051D01*
X96784170Y-74559577D01*
X96879786Y-74490109D01*
X96879788Y-74490106D01*
X96879792Y-74490104D01*
X97030104Y-74339792D01*
X97030106Y-74339788D01*
X97030109Y-74339786D01*
X97155048Y-74167820D01*
X97155047Y-74167820D01*
X97155051Y-74167816D01*
X97251557Y-73978412D01*
X97317246Y-73776243D01*
X97350500Y-73566287D01*
X97350500Y-73353713D01*
X97317246Y-73143757D01*
X97251557Y-72941588D01*
X97155051Y-72752184D01*
X97155049Y-72752181D01*
X97155048Y-72752179D01*
X97030109Y-72580213D01*
X96879786Y-72429890D01*
X96707820Y-72304951D01*
X96707115Y-72304591D01*
X96699054Y-72300485D01*
X96648259Y-72252512D01*
X96631463Y-72184692D01*
X96653999Y-72118556D01*
X96699054Y-72079515D01*
X96707816Y-72075051D01*
X96867237Y-71959226D01*
X96879786Y-71950109D01*
X96879788Y-71950106D01*
X96879792Y-71950104D01*
X97030104Y-71799792D01*
X97030106Y-71799788D01*
X97030109Y-71799786D01*
X97155048Y-71627820D01*
X97155047Y-71627820D01*
X97155051Y-71627816D01*
X97251557Y-71438412D01*
X97317246Y-71236243D01*
X97350500Y-71026287D01*
X97350500Y-70813713D01*
X97317246Y-70603757D01*
X97251557Y-70401588D01*
X97155051Y-70212184D01*
X97155049Y-70212181D01*
X97155048Y-70212179D01*
X97030109Y-70040213D01*
X96879786Y-69889890D01*
X96707817Y-69764949D01*
X96698504Y-69760204D01*
X96647707Y-69712230D01*
X96630912Y-69644409D01*
X96653449Y-69578274D01*
X96698507Y-69539232D01*
X96707558Y-69534620D01*
X96879459Y-69409727D01*
X96879464Y-69409723D01*
X97029723Y-69259464D01*
X97029727Y-69259459D01*
X97154620Y-69087557D01*
X97251095Y-68898217D01*
X97316757Y-68696129D01*
X97316757Y-68696126D01*
X97327231Y-68630000D01*
X96433012Y-68630000D01*
X96465925Y-68572993D01*
X96500000Y-68445826D01*
X96500000Y-68314174D01*
X96465925Y-68187007D01*
X96433012Y-68130000D01*
X97327231Y-68130000D01*
X97316757Y-68063873D01*
X97316757Y-68063870D01*
X97251095Y-67861782D01*
X97154620Y-67672442D01*
X97029727Y-67500540D01*
X97029723Y-67500535D01*
X96879464Y-67350276D01*
X96879459Y-67350272D01*
X96707558Y-67225379D01*
X96697954Y-67220486D01*
X96647157Y-67172512D01*
X96630361Y-67104692D01*
X96652897Y-67038556D01*
X96697954Y-66999514D01*
X96707558Y-66994620D01*
X96879459Y-66869727D01*
X96879464Y-66869723D01*
X97029723Y-66719464D01*
X97029727Y-66719459D01*
X97154620Y-66547557D01*
X97251095Y-66358217D01*
X97316757Y-66156129D01*
X97316757Y-66156126D01*
X97327231Y-66090000D01*
X96433012Y-66090000D01*
X96465925Y-66032993D01*
X96500000Y-65905826D01*
X96500000Y-65774174D01*
X96465925Y-65647007D01*
X96433012Y-65590000D01*
X97327231Y-65590000D01*
X97316757Y-65523873D01*
X97316757Y-65523870D01*
X97251095Y-65321782D01*
X97154620Y-65132442D01*
X97029727Y-64960540D01*
X97029723Y-64960535D01*
X96879464Y-64810276D01*
X96879459Y-64810272D01*
X96707557Y-64685379D01*
X96518215Y-64588903D01*
X96316124Y-64523241D01*
X96250000Y-64512768D01*
X96250000Y-65406988D01*
X96192993Y-65374075D01*
X96065826Y-65340000D01*
X95934174Y-65340000D01*
X95807007Y-65374075D01*
X95750000Y-65406988D01*
X95750000Y-64512768D01*
X95749999Y-64512768D01*
X95683875Y-64523241D01*
X95481784Y-64588903D01*
X95292442Y-64685379D01*
X95120540Y-64810272D01*
X95120535Y-64810276D01*
X94970276Y-64960535D01*
X94970272Y-64960540D01*
X94845379Y-65132442D01*
X94748904Y-65321782D01*
X94683242Y-65523870D01*
X94683242Y-65523873D01*
X94672769Y-65590000D01*
X95566988Y-65590000D01*
X95534075Y-65647007D01*
X95500000Y-65774174D01*
X95500000Y-65905826D01*
X95534075Y-66032993D01*
X95566988Y-66090000D01*
X94672769Y-66090000D01*
X94683242Y-66156126D01*
X94683242Y-66156129D01*
X94748904Y-66358217D01*
X94845379Y-66547557D01*
X94970272Y-66719459D01*
X94970276Y-66719464D01*
X95120535Y-66869723D01*
X95120540Y-66869727D01*
X95292444Y-66994622D01*
X95302048Y-66999516D01*
X95352844Y-67047491D01*
X95369638Y-67115312D01*
X95347100Y-67181447D01*
X95302048Y-67220484D01*
X95292444Y-67225377D01*
X95120540Y-67350272D01*
X95120535Y-67350276D01*
X94970276Y-67500535D01*
X94970272Y-67500540D01*
X94845379Y-67672442D01*
X94748904Y-67861782D01*
X94683242Y-68063870D01*
X94683242Y-68063873D01*
X94672769Y-68130000D01*
X95566988Y-68130000D01*
X95534075Y-68187007D01*
X95500000Y-68314174D01*
X95500000Y-68445826D01*
X95534075Y-68572993D01*
X95566988Y-68630000D01*
X94672769Y-68630000D01*
X94683242Y-68696126D01*
X94683242Y-68696129D01*
X94748904Y-68898217D01*
X94845379Y-69087557D01*
X94970272Y-69259459D01*
X94970276Y-69259464D01*
X95120535Y-69409723D01*
X95120540Y-69409727D01*
X95292444Y-69534622D01*
X95301495Y-69539234D01*
X95352292Y-69587208D01*
X95369087Y-69655029D01*
X95346550Y-69721164D01*
X95301499Y-69760202D01*
X95292182Y-69764949D01*
X95120213Y-69889890D01*
X94969890Y-70040213D01*
X94844951Y-70212179D01*
X94748444Y-70401585D01*
X94682753Y-70603760D01*
X94649500Y-70813713D01*
X94649500Y-71026286D01*
X94682754Y-71236244D01*
X94682754Y-71236247D01*
X94696491Y-71278523D01*
X94698486Y-71348364D01*
X94666241Y-71404522D01*
X93976404Y-72094360D01*
X93915081Y-72127845D01*
X93845390Y-72122861D01*
X93789456Y-72080990D01*
X93765039Y-72015525D01*
X93774162Y-71959226D01*
X93815540Y-71859330D01*
X93815544Y-71859321D01*
X93878666Y-71623744D01*
X93910500Y-71381944D01*
X93910500Y-70618056D01*
X93878666Y-70376256D01*
X93815544Y-70140679D01*
X93722212Y-69915356D01*
X93722210Y-69915353D01*
X93722208Y-69915348D01*
X93600272Y-69704151D01*
X93600268Y-69704144D01*
X93496952Y-69569500D01*
X93451800Y-69510656D01*
X93451794Y-69510649D01*
X93279350Y-69338205D01*
X93279343Y-69338199D01*
X93085864Y-69189738D01*
X93085862Y-69189736D01*
X93085856Y-69189732D01*
X93085851Y-69189729D01*
X93085848Y-69189727D01*
X92874651Y-69067791D01*
X92874640Y-69067786D01*
X92649330Y-68974459D01*
X92649323Y-68974457D01*
X92649321Y-68974456D01*
X92413744Y-68911334D01*
X92373333Y-68906013D01*
X92171951Y-68879500D01*
X92171944Y-68879500D01*
X91928056Y-68879500D01*
X91928048Y-68879500D01*
X91697896Y-68909801D01*
X91686256Y-68911334D01*
X91450679Y-68974456D01*
X91450669Y-68974459D01*
X91225359Y-69067786D01*
X91225348Y-69067791D01*
X91014151Y-69189727D01*
X91014135Y-69189738D01*
X90820656Y-69338199D01*
X90820649Y-69338205D01*
X90648205Y-69510649D01*
X90648199Y-69510656D01*
X90499738Y-69704135D01*
X90499727Y-69704151D01*
X90377791Y-69915348D01*
X90377786Y-69915359D01*
X90284459Y-70140669D01*
X90284456Y-70140679D01*
X90265297Y-70212184D01*
X90221335Y-70376253D01*
X90221333Y-70376264D01*
X90189500Y-70618048D01*
X90189500Y-71381951D01*
X90216013Y-71583333D01*
X90221334Y-71623744D01*
X90284456Y-71859320D01*
X90284459Y-71859330D01*
X90377786Y-72084640D01*
X90377791Y-72084651D01*
X90499727Y-72295848D01*
X90499738Y-72295864D01*
X90648199Y-72489343D01*
X90648205Y-72489350D01*
X90820649Y-72661794D01*
X90820655Y-72661799D01*
X91014144Y-72810268D01*
X91014151Y-72810272D01*
X91225348Y-72932208D01*
X91225353Y-72932210D01*
X91225356Y-72932212D01*
X91450679Y-73025544D01*
X91686256Y-73088666D01*
X91928056Y-73120500D01*
X91928063Y-73120500D01*
X92171937Y-73120500D01*
X92171944Y-73120500D01*
X92413744Y-73088666D01*
X92649321Y-73025544D01*
X92749229Y-72984160D01*
X92818696Y-72976692D01*
X92881175Y-73007966D01*
X92916828Y-73068055D01*
X92914335Y-73137880D01*
X92884361Y-73186403D01*
X92707584Y-73363181D01*
X92646261Y-73396666D01*
X92619903Y-73399500D01*
X84586669Y-73399500D01*
X84586653Y-73399499D01*
X84579057Y-73399499D01*
X84420943Y-73399499D01*
X84313587Y-73428265D01*
X84268210Y-73440424D01*
X84268209Y-73440425D01*
X84218096Y-73469359D01*
X84218095Y-73469360D01*
X84174689Y-73494420D01*
X84131285Y-73519479D01*
X84131282Y-73519481D01*
X84019478Y-73631286D01*
X71255386Y-86395377D01*
X71194063Y-86428862D01*
X71124371Y-86423878D01*
X71068438Y-86382006D01*
X71044021Y-86316542D01*
X71044485Y-86293812D01*
X71046255Y-86278097D01*
X71050500Y-86240425D01*
X71050500Y-85759575D01*
X71019055Y-85480491D01*
X70956560Y-85206682D01*
X70863801Y-84941592D01*
X70741945Y-84688555D01*
X70592523Y-84450752D01*
X70417416Y-84231175D01*
X70218825Y-84032584D01*
X70190070Y-84009653D01*
X70163060Y-83988113D01*
X69999248Y-83857477D01*
X69761445Y-83708055D01*
X69761442Y-83708053D01*
X69508411Y-83586200D01*
X69243329Y-83493443D01*
X69243317Y-83493439D01*
X68969512Y-83430945D01*
X68969494Y-83430942D01*
X68690431Y-83399500D01*
X68690425Y-83399500D01*
X68409575Y-83399500D01*
X68409568Y-83399500D01*
X68130505Y-83430942D01*
X68130487Y-83430945D01*
X67856682Y-83493439D01*
X67856670Y-83493443D01*
X67591588Y-83586200D01*
X67338557Y-83708053D01*
X67100753Y-83857476D01*
X66881175Y-84032583D01*
X66682583Y-84231175D01*
X66507476Y-84450753D01*
X66358053Y-84688557D01*
X66236200Y-84941588D01*
X66143443Y-85206670D01*
X66143439Y-85206682D01*
X66080945Y-85480487D01*
X66080942Y-85480505D01*
X66049500Y-85759568D01*
X66049500Y-86240431D01*
X66080942Y-86519494D01*
X66080945Y-86519512D01*
X66143439Y-86793317D01*
X66143443Y-86793329D01*
X66236200Y-87058411D01*
X66358053Y-87311442D01*
X66358055Y-87311445D01*
X66507477Y-87549248D01*
X66682584Y-87768825D01*
X66881175Y-87967416D01*
X67100752Y-88142523D01*
X67338555Y-88291945D01*
X67591592Y-88413801D01*
X67790680Y-88483465D01*
X67856670Y-88506556D01*
X67856682Y-88506560D01*
X68130491Y-88569055D01*
X68130497Y-88569055D01*
X68130505Y-88569057D01*
X68316547Y-88590018D01*
X68409569Y-88600499D01*
X68409572Y-88600500D01*
X68409575Y-88600500D01*
X68690428Y-88600500D01*
X68690428Y-88600499D01*
X68728097Y-88596255D01*
X68743812Y-88594485D01*
X68812634Y-88606539D01*
X68864014Y-88653888D01*
X68881638Y-88721499D01*
X68859912Y-88787904D01*
X68845377Y-88805386D01*
X62024202Y-95626561D01*
X61962879Y-95660046D01*
X61898203Y-95656811D01*
X61873584Y-95648812D01*
X61827952Y-95633985D01*
X61719086Y-95616742D01*
X61610222Y-95599500D01*
X61389778Y-95599500D01*
X61317201Y-95610995D01*
X61172047Y-95633985D01*
X60962396Y-95702103D01*
X60962393Y-95702104D01*
X60765974Y-95802187D01*
X60587641Y-95931752D01*
X60587635Y-95931757D01*
X60566207Y-95953185D01*
X60504884Y-95986669D01*
X60435192Y-95981683D01*
X60379259Y-95939810D01*
X60362346Y-95908834D01*
X60343355Y-95857915D01*
X60343350Y-95857906D01*
X60257190Y-95742812D01*
X60257187Y-95742809D01*
X60142093Y-95656649D01*
X60142086Y-95656645D01*
X60007379Y-95606403D01*
X60007372Y-95606401D01*
X59947844Y-95600000D01*
X59250000Y-95600000D01*
X59250000Y-96566988D01*
X59192993Y-96534075D01*
X59065826Y-96500000D01*
X58934174Y-96500000D01*
X58807007Y-96534075D01*
X58750000Y-96566988D01*
X58750000Y-95600000D01*
X58052155Y-95600000D01*
X57992627Y-95606401D01*
X57992620Y-95606403D01*
X57857913Y-95656645D01*
X57857906Y-95656649D01*
X57742812Y-95742809D01*
X57742809Y-95742812D01*
X57656649Y-95857906D01*
X57656645Y-95857913D01*
X57606403Y-95992620D01*
X57606401Y-95992627D01*
X57600000Y-96052155D01*
X51500500Y-96052155D01*
X51500500Y-85759568D01*
X54449500Y-85759568D01*
X54449500Y-86240431D01*
X54480942Y-86519494D01*
X54480945Y-86519512D01*
X54543439Y-86793317D01*
X54543443Y-86793329D01*
X54636200Y-87058411D01*
X54758053Y-87311442D01*
X54758055Y-87311445D01*
X54907477Y-87549248D01*
X55082584Y-87768825D01*
X55281175Y-87967416D01*
X55500752Y-88142523D01*
X55738555Y-88291945D01*
X55991592Y-88413801D01*
X56190680Y-88483465D01*
X56256670Y-88506556D01*
X56256682Y-88506560D01*
X56530491Y-88569055D01*
X56530497Y-88569055D01*
X56530505Y-88569057D01*
X56716547Y-88590018D01*
X56809569Y-88600499D01*
X56809572Y-88600500D01*
X56809575Y-88600500D01*
X57090428Y-88600500D01*
X57090429Y-88600499D01*
X57233055Y-88584429D01*
X57369494Y-88569057D01*
X57369499Y-88569056D01*
X57369509Y-88569055D01*
X57643318Y-88506560D01*
X57908408Y-88413801D01*
X58161445Y-88291945D01*
X58399248Y-88142523D01*
X58618825Y-87967416D01*
X58817416Y-87768825D01*
X58992523Y-87549248D01*
X59141945Y-87311445D01*
X59263801Y-87058408D01*
X59356560Y-86793318D01*
X59419055Y-86519509D01*
X59419172Y-86518477D01*
X59434548Y-86382006D01*
X59450500Y-86240425D01*
X59450500Y-85759575D01*
X59419055Y-85480491D01*
X59356560Y-85206682D01*
X59263801Y-84941592D01*
X59141945Y-84688555D01*
X58992523Y-84450752D01*
X58817416Y-84231175D01*
X58618825Y-84032584D01*
X58590070Y-84009653D01*
X58563060Y-83988113D01*
X58399248Y-83857477D01*
X58161445Y-83708055D01*
X58161442Y-83708053D01*
X57908411Y-83586200D01*
X57643329Y-83493443D01*
X57643317Y-83493439D01*
X57369512Y-83430945D01*
X57369494Y-83430942D01*
X57090431Y-83399500D01*
X57090425Y-83399500D01*
X56809575Y-83399500D01*
X56809568Y-83399500D01*
X56530505Y-83430942D01*
X56530487Y-83430945D01*
X56256682Y-83493439D01*
X56256670Y-83493443D01*
X55991588Y-83586200D01*
X55738557Y-83708053D01*
X55500753Y-83857476D01*
X55281175Y-84032583D01*
X55082583Y-84231175D01*
X54907476Y-84450753D01*
X54758053Y-84688557D01*
X54636200Y-84941588D01*
X54543443Y-85206670D01*
X54543439Y-85206682D01*
X54480945Y-85480487D01*
X54480942Y-85480505D01*
X54449500Y-85759568D01*
X51500500Y-85759568D01*
X51500500Y-70618048D01*
X80589500Y-70618048D01*
X80589500Y-71381951D01*
X80616013Y-71583333D01*
X80621334Y-71623744D01*
X80684456Y-71859320D01*
X80684459Y-71859330D01*
X80777786Y-72084640D01*
X80777791Y-72084651D01*
X80899727Y-72295848D01*
X80899738Y-72295864D01*
X81048199Y-72489343D01*
X81048205Y-72489350D01*
X81220649Y-72661794D01*
X81220655Y-72661799D01*
X81414144Y-72810268D01*
X81414151Y-72810272D01*
X81625348Y-72932208D01*
X81625353Y-72932210D01*
X81625356Y-72932212D01*
X81850679Y-73025544D01*
X82086256Y-73088666D01*
X82328056Y-73120500D01*
X82328063Y-73120500D01*
X82571937Y-73120500D01*
X82571944Y-73120500D01*
X82813744Y-73088666D01*
X83049321Y-73025544D01*
X83274644Y-72932212D01*
X83485856Y-72810268D01*
X83679345Y-72661799D01*
X83851799Y-72489345D01*
X84000268Y-72295856D01*
X84122212Y-72084644D01*
X84215544Y-71859321D01*
X84278666Y-71623744D01*
X84310500Y-71381944D01*
X84310500Y-70618056D01*
X84278666Y-70376256D01*
X84215544Y-70140679D01*
X84122212Y-69915356D01*
X84122210Y-69915353D01*
X84122208Y-69915348D01*
X84000272Y-69704151D01*
X84000268Y-69704144D01*
X83896952Y-69569500D01*
X83851800Y-69510656D01*
X83851794Y-69510649D01*
X83679350Y-69338205D01*
X83679343Y-69338199D01*
X83485864Y-69189738D01*
X83485862Y-69189736D01*
X83485856Y-69189732D01*
X83485851Y-69189729D01*
X83485848Y-69189727D01*
X83274651Y-69067791D01*
X83274640Y-69067786D01*
X83049330Y-68974459D01*
X83049323Y-68974457D01*
X83049321Y-68974456D01*
X82813744Y-68911334D01*
X82773333Y-68906013D01*
X82571951Y-68879500D01*
X82571944Y-68879500D01*
X82328056Y-68879500D01*
X82328048Y-68879500D01*
X82097896Y-68909801D01*
X82086256Y-68911334D01*
X81850679Y-68974456D01*
X81850669Y-68974459D01*
X81625359Y-69067786D01*
X81625348Y-69067791D01*
X81414151Y-69189727D01*
X81414135Y-69189738D01*
X81220656Y-69338199D01*
X81220649Y-69338205D01*
X81048205Y-69510649D01*
X81048199Y-69510656D01*
X80899738Y-69704135D01*
X80899727Y-69704151D01*
X80777791Y-69915348D01*
X80777786Y-69915359D01*
X80684459Y-70140669D01*
X80684456Y-70140679D01*
X80665297Y-70212184D01*
X80621335Y-70376253D01*
X80621333Y-70376264D01*
X80589500Y-70618048D01*
X51500500Y-70618048D01*
X51500500Y-66052155D01*
X57600000Y-66052155D01*
X57600000Y-66750000D01*
X58566988Y-66750000D01*
X58534075Y-66807007D01*
X58500000Y-66934174D01*
X58500000Y-67065826D01*
X58534075Y-67192993D01*
X58566988Y-67250000D01*
X57600000Y-67250000D01*
X57600000Y-67947844D01*
X57606401Y-68007372D01*
X57606403Y-68007379D01*
X57656645Y-68142086D01*
X57656649Y-68142093D01*
X57742809Y-68257187D01*
X57742812Y-68257190D01*
X57857906Y-68343350D01*
X57857913Y-68343354D01*
X57992620Y-68393596D01*
X57992627Y-68393598D01*
X58052155Y-68399999D01*
X58052172Y-68400000D01*
X58750000Y-68400000D01*
X58750000Y-67433012D01*
X58807007Y-67465925D01*
X58934174Y-67500000D01*
X59065826Y-67500000D01*
X59192993Y-67465925D01*
X59250000Y-67433012D01*
X59250000Y-68400000D01*
X59947828Y-68400000D01*
X59947844Y-68399999D01*
X60007372Y-68393598D01*
X60007379Y-68393596D01*
X60142086Y-68343354D01*
X60142093Y-68343350D01*
X60257187Y-68257190D01*
X60257190Y-68257187D01*
X60343350Y-68142093D01*
X60343353Y-68142088D01*
X60362345Y-68091166D01*
X60404215Y-68035232D01*
X60469679Y-68010813D01*
X60537952Y-68025663D01*
X60566209Y-68046816D01*
X60587636Y-68068243D01*
X60587641Y-68068247D01*
X60743192Y-68181260D01*
X60765978Y-68197815D01*
X60882501Y-68257187D01*
X60962393Y-68297895D01*
X60962396Y-68297896D01*
X61012496Y-68314174D01*
X61172049Y-68366015D01*
X61389778Y-68400500D01*
X61389779Y-68400500D01*
X61610221Y-68400500D01*
X61610222Y-68400500D01*
X61827951Y-68366015D01*
X62037606Y-68297895D01*
X62234022Y-68197815D01*
X62412365Y-68068242D01*
X62568242Y-67912365D01*
X62649682Y-67800270D01*
X62705011Y-67757606D01*
X62774624Y-67751627D01*
X62836420Y-67784232D01*
X62850313Y-67800265D01*
X62895008Y-67861782D01*
X62931758Y-67912365D01*
X63087636Y-68068243D01*
X63087641Y-68068247D01*
X63243192Y-68181260D01*
X63265978Y-68197815D01*
X63382501Y-68257187D01*
X63462393Y-68297895D01*
X63462396Y-68297896D01*
X63512496Y-68314174D01*
X63672049Y-68366015D01*
X63889778Y-68400500D01*
X63889779Y-68400500D01*
X64110221Y-68400500D01*
X64110222Y-68400500D01*
X64327951Y-68366015D01*
X64537606Y-68297895D01*
X64734022Y-68197815D01*
X64912365Y-68068242D01*
X65068242Y-67912365D01*
X65149682Y-67800270D01*
X65205011Y-67757606D01*
X65274624Y-67751627D01*
X65336420Y-67784232D01*
X65350313Y-67800265D01*
X65395008Y-67861782D01*
X65431758Y-67912365D01*
X65587636Y-68068243D01*
X65587641Y-68068247D01*
X65743192Y-68181260D01*
X65765978Y-68197815D01*
X65882501Y-68257187D01*
X65962393Y-68297895D01*
X65962396Y-68297896D01*
X66012496Y-68314174D01*
X66172049Y-68366015D01*
X66389778Y-68400500D01*
X66389779Y-68400500D01*
X66610221Y-68400500D01*
X66610222Y-68400500D01*
X66827951Y-68366015D01*
X67037606Y-68297895D01*
X67234022Y-68197815D01*
X67412365Y-68068242D01*
X67568242Y-67912365D01*
X67697815Y-67734022D01*
X67797895Y-67537606D01*
X67866015Y-67327951D01*
X67900500Y-67110222D01*
X67900500Y-66889778D01*
X67866015Y-66672049D01*
X67797895Y-66462394D01*
X67797895Y-66462393D01*
X67697815Y-66265978D01*
X67595986Y-66125821D01*
X67595985Y-66125820D01*
X67568243Y-66087636D01*
X67412363Y-65931756D01*
X67412358Y-65931752D01*
X67234025Y-65802187D01*
X67234024Y-65802186D01*
X67234022Y-65802185D01*
X67107167Y-65737548D01*
X67107165Y-65737546D01*
X67037616Y-65702109D01*
X67037603Y-65702103D01*
X66827952Y-65633985D01*
X66719086Y-65616742D01*
X66610222Y-65599500D01*
X66389778Y-65599500D01*
X66317201Y-65610995D01*
X66172047Y-65633985D01*
X65962396Y-65702103D01*
X65962393Y-65702104D01*
X65765974Y-65802187D01*
X65587641Y-65931752D01*
X65587636Y-65931756D01*
X65431756Y-66087636D01*
X65431752Y-66087641D01*
X65350318Y-66199727D01*
X65294989Y-66242393D01*
X65225375Y-66248372D01*
X65163580Y-66215767D01*
X65149682Y-66199727D01*
X65068247Y-66087641D01*
X65068243Y-66087636D01*
X64912363Y-65931756D01*
X64912358Y-65931752D01*
X64734025Y-65802187D01*
X64734024Y-65802186D01*
X64734022Y-65802185D01*
X64671096Y-65770122D01*
X64537606Y-65702104D01*
X64537603Y-65702103D01*
X64327952Y-65633985D01*
X64219086Y-65616742D01*
X64110222Y-65599500D01*
X63889778Y-65599500D01*
X63817201Y-65610995D01*
X63672047Y-65633985D01*
X63462396Y-65702103D01*
X63462393Y-65702104D01*
X63265974Y-65802187D01*
X63087641Y-65931752D01*
X63087636Y-65931756D01*
X62931756Y-66087636D01*
X62931752Y-66087641D01*
X62850318Y-66199727D01*
X62794989Y-66242393D01*
X62725375Y-66248372D01*
X62663580Y-66215767D01*
X62649682Y-66199727D01*
X62568247Y-66087641D01*
X62568243Y-66087636D01*
X62412363Y-65931756D01*
X62412358Y-65931752D01*
X62234025Y-65802187D01*
X62234024Y-65802186D01*
X62234022Y-65802185D01*
X62171096Y-65770122D01*
X62037606Y-65702104D01*
X62037603Y-65702103D01*
X61827952Y-65633985D01*
X61719086Y-65616742D01*
X61610222Y-65599500D01*
X61389778Y-65599500D01*
X61317201Y-65610995D01*
X61172047Y-65633985D01*
X60962396Y-65702103D01*
X60962393Y-65702104D01*
X60765974Y-65802187D01*
X60587641Y-65931752D01*
X60587635Y-65931757D01*
X60566207Y-65953185D01*
X60504884Y-65986669D01*
X60435192Y-65981683D01*
X60379259Y-65939810D01*
X60362346Y-65908834D01*
X60343355Y-65857915D01*
X60343350Y-65857906D01*
X60257190Y-65742812D01*
X60257187Y-65742809D01*
X60142093Y-65656649D01*
X60142086Y-65656645D01*
X60007379Y-65606403D01*
X60007372Y-65606401D01*
X59947844Y-65600000D01*
X59250000Y-65600000D01*
X59250000Y-66566988D01*
X59192993Y-66534075D01*
X59065826Y-66500000D01*
X58934174Y-66500000D01*
X58807007Y-66534075D01*
X58750000Y-66566988D01*
X58750000Y-65600000D01*
X58052155Y-65600000D01*
X57992627Y-65606401D01*
X57992620Y-65606403D01*
X57857913Y-65656645D01*
X57857906Y-65656649D01*
X57742812Y-65742809D01*
X57742809Y-65742812D01*
X57656649Y-65857906D01*
X57656645Y-65857913D01*
X57606403Y-65992620D01*
X57606401Y-65992627D01*
X57600000Y-66052155D01*
X51500500Y-66052155D01*
X51500500Y-55759568D01*
X54449500Y-55759568D01*
X54449500Y-56240431D01*
X54480942Y-56519494D01*
X54480945Y-56519512D01*
X54543439Y-56793317D01*
X54543443Y-56793329D01*
X54636200Y-57058411D01*
X54758053Y-57311442D01*
X54758055Y-57311445D01*
X54907477Y-57549248D01*
X55082584Y-57768825D01*
X55281175Y-57967416D01*
X55500752Y-58142523D01*
X55738555Y-58291945D01*
X55991592Y-58413801D01*
X56190680Y-58483465D01*
X56256670Y-58506556D01*
X56256682Y-58506560D01*
X56530491Y-58569055D01*
X56530497Y-58569055D01*
X56530505Y-58569057D01*
X56716547Y-58590018D01*
X56809569Y-58600499D01*
X56809572Y-58600500D01*
X56809575Y-58600500D01*
X57090428Y-58600500D01*
X57090429Y-58600499D01*
X57233055Y-58584429D01*
X57369494Y-58569057D01*
X57369499Y-58569056D01*
X57369509Y-58569055D01*
X57643318Y-58506560D01*
X57908408Y-58413801D01*
X58161445Y-58291945D01*
X58399248Y-58142523D01*
X58618825Y-57967416D01*
X58817416Y-57768825D01*
X58992523Y-57549248D01*
X59141945Y-57311445D01*
X59263801Y-57058408D01*
X59356560Y-56793318D01*
X59419055Y-56519509D01*
X59450500Y-56240425D01*
X59450500Y-55759575D01*
X59450499Y-55759568D01*
X66049500Y-55759568D01*
X66049500Y-56240431D01*
X66080942Y-56519494D01*
X66080945Y-56519512D01*
X66143439Y-56793317D01*
X66143443Y-56793329D01*
X66236200Y-57058411D01*
X66358053Y-57311442D01*
X66358055Y-57311445D01*
X66507477Y-57549248D01*
X66682584Y-57768825D01*
X66881175Y-57967416D01*
X67100752Y-58142523D01*
X67338555Y-58291945D01*
X67591592Y-58413801D01*
X67790680Y-58483465D01*
X67856670Y-58506556D01*
X67856682Y-58506560D01*
X68130491Y-58569055D01*
X68130497Y-58569055D01*
X68130505Y-58569057D01*
X68316547Y-58590018D01*
X68409569Y-58600499D01*
X68409572Y-58600500D01*
X68409575Y-58600500D01*
X68690428Y-58600500D01*
X68690429Y-58600499D01*
X68833055Y-58584429D01*
X68969494Y-58569057D01*
X68969499Y-58569056D01*
X68969509Y-58569055D01*
X69243318Y-58506560D01*
X69508408Y-58413801D01*
X69761445Y-58291945D01*
X69999248Y-58142523D01*
X70218825Y-57967416D01*
X70417416Y-57768825D01*
X70592523Y-57549248D01*
X70741945Y-57311445D01*
X70863801Y-57058408D01*
X70956560Y-56793318D01*
X71019055Y-56519509D01*
X71050500Y-56240425D01*
X71050500Y-55759575D01*
X71019055Y-55480491D01*
X70956560Y-55206682D01*
X70863801Y-54941592D01*
X70741945Y-54688555D01*
X70592523Y-54450752D01*
X70417416Y-54231175D01*
X70218825Y-54032584D01*
X69999248Y-53857477D01*
X69761445Y-53708055D01*
X69761442Y-53708053D01*
X69508411Y-53586200D01*
X69243329Y-53493443D01*
X69243317Y-53493439D01*
X68969512Y-53430945D01*
X68969494Y-53430942D01*
X68690431Y-53399500D01*
X68690425Y-53399500D01*
X68409575Y-53399500D01*
X68409568Y-53399500D01*
X68130505Y-53430942D01*
X68130487Y-53430945D01*
X67856682Y-53493439D01*
X67856670Y-53493443D01*
X67591588Y-53586200D01*
X67338557Y-53708053D01*
X67100753Y-53857476D01*
X66881175Y-54032583D01*
X66682583Y-54231175D01*
X66507476Y-54450753D01*
X66358053Y-54688557D01*
X66236200Y-54941588D01*
X66143443Y-55206670D01*
X66143439Y-55206682D01*
X66080945Y-55480487D01*
X66080942Y-55480505D01*
X66049500Y-55759568D01*
X59450499Y-55759568D01*
X59419055Y-55480491D01*
X59356560Y-55206682D01*
X59263801Y-54941592D01*
X59141945Y-54688555D01*
X58992523Y-54450752D01*
X58817416Y-54231175D01*
X58618825Y-54032584D01*
X58399248Y-53857477D01*
X58161445Y-53708055D01*
X58161442Y-53708053D01*
X57908411Y-53586200D01*
X57643329Y-53493443D01*
X57643317Y-53493439D01*
X57369512Y-53430945D01*
X57369494Y-53430942D01*
X57090431Y-53399500D01*
X57090425Y-53399500D01*
X56809575Y-53399500D01*
X56809568Y-53399500D01*
X56530505Y-53430942D01*
X56530487Y-53430945D01*
X56256682Y-53493439D01*
X56256670Y-53493443D01*
X55991588Y-53586200D01*
X55738557Y-53708053D01*
X55500753Y-53857476D01*
X55281175Y-54032583D01*
X55082583Y-54231175D01*
X54907476Y-54450753D01*
X54758053Y-54688557D01*
X54636200Y-54941588D01*
X54543443Y-55206670D01*
X54543439Y-55206682D01*
X54480945Y-55480487D01*
X54480942Y-55480505D01*
X54449500Y-55759568D01*
X51500500Y-55759568D01*
X51500500Y-43124500D01*
X51520185Y-43057461D01*
X51572989Y-43011706D01*
X51624500Y-43000500D01*
X98375500Y-43000500D01*
X98442539Y-43020185D01*
G37*
%TD.AperFunction*%
%TD*%
M02*
