M48
; DRILL file {KiCad 9.0.4} date 2025-10-04T20:54:10+0200
; FORMAT={-:-/ absolute / metric / decimal}
; #@! TF.CreationDate,2025-10-04T20:54:10+02:00
; #@! TF.GenerationSoftware,Kicad,Pcbnew,9.0.4
; #@! TF.FileFunction,Plated,1,2,PTH
FMAT,2
METRIC
; #@! TA.AperFunction,Plated,PTH,ComponentDrill
T1C0.800
; #@! TA.AperFunction,Plated,PTH,ComponentDrill
T2C1.000
; #@! TA.AperFunction,Plated,PTH,ComponentDrill
T3C1.100
%
G90
G05
T1
X53.75Y-69.69
X53.75Y-77.31
X55.365Y-80.43
X55.365Y-83.68
X55.365Y-86.93
X56.45Y-58.75
X56.45Y-64.25
X57.0Y-69.69
X57.0Y-77.31
X57.5Y-97.19
X57.5Y-104.81
X58.545Y-47.25
X58.99Y-58.75
X58.99Y-64.25
X59.21Y-125.44
X59.21Y-133.06
X60.545Y-47.25
X61.19Y-109.5
X61.4Y-136.39
X61.4Y-139.64
X61.4Y-142.89
X61.53Y-58.75
X61.53Y-64.25
X62.25Y-97.19
X62.25Y-104.81
X62.45Y-114.5
X62.46Y-120.0
X62.46Y-125.44
X62.46Y-133.06
X62.985Y-80.43
X62.985Y-83.68
X62.985Y-86.93
X63.05Y-69.63
X63.05Y-77.25
X64.99Y-114.5
X65.0Y-120.0
X65.59Y-69.63
X65.59Y-77.25
X66.5Y-98.5
X66.5Y-103.5
X66.865Y-83.68
X66.865Y-86.93
X66.88Y-57.0
X66.88Y-60.25
X66.88Y-63.5
X66.88Y-90.25
X66.88Y-93.5
X67.53Y-114.5
X67.54Y-120.0
X68.13Y-69.63
X68.13Y-77.25
X68.81Y-109.5
X69.02Y-136.39
X69.02Y-139.64
X69.02Y-142.89
X69.085Y-125.09
X69.085Y-132.71
X69.5Y-66.5
X69.5Y-80.5
X70.67Y-69.63
X70.67Y-77.25
X71.19Y-97.19
X71.19Y-104.81
X71.625Y-125.09
X71.625Y-132.71
X72.86Y-112.75
X72.88Y-109.5
X72.88Y-115.89
X72.88Y-119.14
X72.9Y-139.64
X72.9Y-142.89
X73.21Y-69.63
X73.21Y-77.25
X73.73Y-97.19
X73.73Y-104.81
X74.165Y-125.09
X74.165Y-132.71
X74.485Y-83.68
X74.485Y-86.93
X74.5Y-57.0
X74.5Y-60.25
X74.5Y-63.5
X74.5Y-66.5
X74.5Y-80.5
X74.5Y-90.25
X74.5Y-93.5
X75.46Y-122.14
X75.46Y-135.64
X75.75Y-69.63
X75.75Y-77.25
X76.27Y-97.19
X76.27Y-104.81
X76.705Y-125.09
X76.705Y-132.71
X78.29Y-69.63
X78.29Y-77.25
X78.365Y-66.43
X78.365Y-80.43
X78.365Y-83.68
X78.365Y-86.93
X78.81Y-97.19
X78.81Y-104.81
X79.245Y-125.09
X79.245Y-132.71
X80.46Y-122.14
X80.46Y-135.64
X80.48Y-112.75
X80.5Y-109.5
X80.5Y-115.89
X80.5Y-119.14
X80.52Y-139.64
X80.52Y-142.89
X81.7Y-56.96
X81.7Y-59.5
X81.7Y-62.04
X81.785Y-125.09
X81.785Y-132.71
X82.865Y-69.68
X82.865Y-73.43
X82.865Y-77.18
X83.5Y-98.5
X83.5Y-103.5
X84.325Y-125.09
X84.325Y-132.71
X84.4Y-121.89
X84.4Y-136.39
X84.4Y-139.64
X84.4Y-142.89
X84.75Y-112.46
X84.75Y-115.0
X84.75Y-117.54
X85.985Y-66.43
X85.985Y-80.43
X85.985Y-83.68
X85.985Y-86.93
X88.2Y-57.45
X88.2Y-59.99
X88.2Y-62.53
X88.65Y-125.64
X88.65Y-128.89
X88.65Y-132.14
X89.545Y-47.25
X90.425Y-81.12
X90.425Y-88.74
X90.485Y-69.68
X90.485Y-73.43
X90.485Y-77.18
X90.75Y-113.71
X90.75Y-116.25
X90.75Y-118.79
X91.545Y-47.25
X92.02Y-121.89
X92.02Y-136.39
X92.02Y-139.64
X92.02Y-142.89
X92.05Y-57.47
X92.05Y-60.01
X92.05Y-62.55
X94.6Y-113.71
X94.6Y-116.25
X94.6Y-118.79
X95.75Y-135.69
X95.75Y-143.31
X96.27Y-125.64
X96.27Y-128.89
X96.27Y-132.14
T2
X54.0Y-122.5
X54.0Y-125.04
X54.0Y-127.58
X54.0Y-130.12
X54.0Y-132.66
X54.0Y-135.2
X54.0Y-137.74
X54.0Y-140.28
X69.92Y-46.462
X69.92Y-49.002
X69.92Y-157.0
X69.92Y-159.54
X72.46Y-46.462
X72.46Y-49.002
X72.46Y-157.0
X72.46Y-159.54
X75.0Y-46.462
X75.0Y-49.002
X75.0Y-157.0
X75.0Y-159.54
X77.54Y-46.462
X77.54Y-49.002
X77.54Y-157.0
X77.54Y-159.54
X80.08Y-46.462
X80.08Y-49.002
X80.08Y-157.0
X80.08Y-159.54
X96.0Y-65.84
X96.0Y-68.38
X96.0Y-70.92
X96.0Y-73.46
X96.0Y-76.0
X96.0Y-78.54
X96.0Y-81.08
X96.0Y-83.62
T3
X53.0Y-44.17
X53.0Y-54.33
X97.0Y-44.17
X97.0Y-54.33
T2
X59.75Y-178.25G85X58.25Y-178.25
G05
X59.75Y-196.75G85X58.25Y-196.75
G05
X59.75Y-215.25G85X58.25Y-215.25
G05
X63.627Y-167.684G85X62.566Y-166.623
G05
X63.627Y-186.184G85X62.566Y-185.123
G05
X63.627Y-204.684G85X62.566Y-203.623
G05
X65.0Y-173.5G85X65.0Y-175.0
G05
X65.0Y-192.0G85X65.0Y-193.5
G05
X65.0Y-210.5G85X65.0Y-212.0
G05
X70.934Y-166.623G85X69.873Y-167.684
G05
X70.934Y-185.123G85X69.873Y-186.184
G05
X70.934Y-203.623G85X69.873Y-204.684
G05
X76.75Y-165.25G85X78.25Y-165.25
G05
X76.75Y-183.75G85X78.25Y-183.75
G05
X76.75Y-202.25G85X78.25Y-202.25
G05
X81.5Y-170.5G85X81.5Y-172.0
G05
X81.5Y-189.0G85X81.5Y-190.5
G05
X81.5Y-207.5G85X81.5Y-209.0
G05
X85.0Y-170.0G85X85.0Y-168.5
G05
X85.0Y-188.5G85X85.0Y-187.0
G05
X85.0Y-207.0G85X85.0Y-205.5
G05
X86.373Y-175.816G85X87.434Y-176.877
G05
X86.373Y-194.316G85X87.434Y-195.377
G05
X86.373Y-212.816G85X87.434Y-213.877
G05
X90.25Y-165.25G85X91.75Y-165.25
G05
X90.25Y-183.75G85X91.75Y-183.75
G05
X90.25Y-202.25G85X91.75Y-202.25
G05
M30
