%TF.GenerationSoftware,KiCad,Pcbnew,9.0.4*%
%TF.CreationDate,2025-10-04T20:54:10+02:00*%
%TF.ProjectId,DMH_Dual_VCA_Mk2_PCB_1,444d485f-4475-4616-9c5f-5643415f4d6b,1*%
%TF.SameCoordinates,Original*%
%TF.FileFunction,Drillmap*%
%TF.FilePolarity,Positive*%
%FSLAX45Y45*%
G04 Gerber Fmt 4.5, Leading zero omitted, Abs format (unit mm)*
G04 Created by KiCad (PCBNEW 9.0.4) date 2025-10-04 20:54:10*
%MOMM*%
%LPD*%
G01*
G04 APERTURE LIST*
%ADD10C,0.050000*%
%ADD11C,0.200000*%
%ADD12C,0.100000*%
%ADD13C,0.110000*%
G04 APERTURE END LIST*
D10*
X5100000Y-4250000D02*
X9900000Y-4250000D01*
X9900000Y-21750000D01*
X5100000Y-21750000D01*
X5100000Y-4250000D01*
D11*
D12*
X5335000Y-6929000D02*
X5415000Y-7009000D01*
X5415000Y-6929000D02*
X5335000Y-7009000D01*
X5335000Y-7691000D02*
X5415000Y-7771000D01*
X5415000Y-7691000D02*
X5335000Y-7771000D01*
X5496500Y-8003000D02*
X5576500Y-8083000D01*
X5576500Y-8003000D02*
X5496500Y-8083000D01*
X5496500Y-8328000D02*
X5576500Y-8408000D01*
X5576500Y-8328000D02*
X5496500Y-8408000D01*
X5496500Y-8653000D02*
X5576500Y-8733000D01*
X5576500Y-8653000D02*
X5496500Y-8733000D01*
X5605000Y-5835000D02*
X5685000Y-5915000D01*
X5685000Y-5835000D02*
X5605000Y-5915000D01*
X5605000Y-6385000D02*
X5685000Y-6465000D01*
X5685000Y-6385000D02*
X5605000Y-6465000D01*
X5660000Y-6929000D02*
X5740000Y-7009000D01*
X5740000Y-6929000D02*
X5660000Y-7009000D01*
X5660000Y-7691000D02*
X5740000Y-7771000D01*
X5740000Y-7691000D02*
X5660000Y-7771000D01*
X5710000Y-9679000D02*
X5790000Y-9759000D01*
X5790000Y-9679000D02*
X5710000Y-9759000D01*
X5710000Y-10441000D02*
X5790000Y-10521000D01*
X5790000Y-10441000D02*
X5710000Y-10521000D01*
X5814489Y-4685000D02*
X5894489Y-4765000D01*
X5894489Y-4685000D02*
X5814489Y-4765000D01*
X5859000Y-5835000D02*
X5939000Y-5915000D01*
X5939000Y-5835000D02*
X5859000Y-5915000D01*
X5859000Y-6385000D02*
X5939000Y-6465000D01*
X5939000Y-6385000D02*
X5859000Y-6465000D01*
X5881000Y-12504000D02*
X5961000Y-12584000D01*
X5961000Y-12504000D02*
X5881000Y-12584000D01*
X5881000Y-13266000D02*
X5961000Y-13346000D01*
X5961000Y-13266000D02*
X5881000Y-13346000D01*
X6014489Y-4685000D02*
X6094489Y-4765000D01*
X6094489Y-4685000D02*
X6014489Y-4765000D01*
X6079000Y-10910000D02*
X6159000Y-10990000D01*
X6159000Y-10910000D02*
X6079000Y-10990000D01*
X6100000Y-13599000D02*
X6180000Y-13679000D01*
X6180000Y-13599000D02*
X6100000Y-13679000D01*
X6100000Y-13924000D02*
X6180000Y-14004000D01*
X6180000Y-13924000D02*
X6100000Y-14004000D01*
X6100000Y-14249000D02*
X6180000Y-14329000D01*
X6180000Y-14249000D02*
X6100000Y-14329000D01*
X6113000Y-5835000D02*
X6193000Y-5915000D01*
X6193000Y-5835000D02*
X6113000Y-5915000D01*
X6113000Y-6385000D02*
X6193000Y-6465000D01*
X6193000Y-6385000D02*
X6113000Y-6465000D01*
X6185000Y-9679000D02*
X6265000Y-9759000D01*
X6265000Y-9679000D02*
X6185000Y-9759000D01*
X6185000Y-10441000D02*
X6265000Y-10521000D01*
X6265000Y-10441000D02*
X6185000Y-10521000D01*
X6205000Y-11410000D02*
X6285000Y-11490000D01*
X6285000Y-11410000D02*
X6205000Y-11490000D01*
X6206000Y-11960000D02*
X6286000Y-12040000D01*
X6286000Y-11960000D02*
X6206000Y-12040000D01*
X6206000Y-12504000D02*
X6286000Y-12584000D01*
X6286000Y-12504000D02*
X6206000Y-12584000D01*
X6206000Y-13266000D02*
X6286000Y-13346000D01*
X6286000Y-13266000D02*
X6206000Y-13346000D01*
X6258500Y-8003000D02*
X6338500Y-8083000D01*
X6338500Y-8003000D02*
X6258500Y-8083000D01*
X6258500Y-8328000D02*
X6338500Y-8408000D01*
X6338500Y-8328000D02*
X6258500Y-8408000D01*
X6258500Y-8653000D02*
X6338500Y-8733000D01*
X6338500Y-8653000D02*
X6258500Y-8733000D01*
X6265000Y-6923000D02*
X6345000Y-7003000D01*
X6345000Y-6923000D02*
X6265000Y-7003000D01*
X6265000Y-7685000D02*
X6345000Y-7765000D01*
X6345000Y-7685000D02*
X6265000Y-7765000D01*
X6459000Y-11410000D02*
X6539000Y-11490000D01*
X6539000Y-11410000D02*
X6459000Y-11490000D01*
X6460000Y-11960000D02*
X6540000Y-12040000D01*
X6540000Y-11960000D02*
X6460000Y-12040000D01*
X6519000Y-6923000D02*
X6599000Y-7003000D01*
X6599000Y-6923000D02*
X6519000Y-7003000D01*
X6519000Y-7685000D02*
X6599000Y-7765000D01*
X6599000Y-7685000D02*
X6519000Y-7765000D01*
X6610000Y-9810000D02*
X6690000Y-9890000D01*
X6690000Y-9810000D02*
X6610000Y-9890000D01*
X6610000Y-10310000D02*
X6690000Y-10390000D01*
X6690000Y-10310000D02*
X6610000Y-10390000D01*
X6646500Y-8328000D02*
X6726500Y-8408000D01*
X6726500Y-8328000D02*
X6646500Y-8408000D01*
X6646500Y-8653000D02*
X6726500Y-8733000D01*
X6726500Y-8653000D02*
X6646500Y-8733000D01*
X6648000Y-5660000D02*
X6728000Y-5740000D01*
X6728000Y-5660000D02*
X6648000Y-5740000D01*
X6648000Y-5985000D02*
X6728000Y-6065000D01*
X6728000Y-5985000D02*
X6648000Y-6065000D01*
X6648000Y-6310000D02*
X6728000Y-6390000D01*
X6728000Y-6310000D02*
X6648000Y-6390000D01*
X6648000Y-8985000D02*
X6728000Y-9065000D01*
X6728000Y-8985000D02*
X6648000Y-9065000D01*
X6648000Y-9310000D02*
X6728000Y-9390000D01*
X6728000Y-9310000D02*
X6648000Y-9390000D01*
X6713000Y-11410000D02*
X6793000Y-11490000D01*
X6793000Y-11410000D02*
X6713000Y-11490000D01*
X6714000Y-11960000D02*
X6794000Y-12040000D01*
X6794000Y-11960000D02*
X6714000Y-12040000D01*
X6773000Y-6923000D02*
X6853000Y-7003000D01*
X6853000Y-6923000D02*
X6773000Y-7003000D01*
X6773000Y-7685000D02*
X6853000Y-7765000D01*
X6853000Y-7685000D02*
X6773000Y-7765000D01*
X6841000Y-10910000D02*
X6921000Y-10990000D01*
X6921000Y-10910000D02*
X6841000Y-10990000D01*
X6862000Y-13599000D02*
X6942000Y-13679000D01*
X6942000Y-13599000D02*
X6862000Y-13679000D01*
X6862000Y-13924000D02*
X6942000Y-14004000D01*
X6942000Y-13924000D02*
X6862000Y-14004000D01*
X6862000Y-14249000D02*
X6942000Y-14329000D01*
X6942000Y-14249000D02*
X6862000Y-14329000D01*
X6868500Y-12469000D02*
X6948500Y-12549000D01*
X6948500Y-12469000D02*
X6868500Y-12549000D01*
X6868500Y-13231000D02*
X6948500Y-13311000D01*
X6948500Y-13231000D02*
X6868500Y-13311000D01*
X6910000Y-6610000D02*
X6990000Y-6690000D01*
X6990000Y-6610000D02*
X6910000Y-6690000D01*
X6910000Y-8010000D02*
X6990000Y-8090000D01*
X6990000Y-8010000D02*
X6910000Y-8090000D01*
X7027000Y-6923000D02*
X7107000Y-7003000D01*
X7107000Y-6923000D02*
X7027000Y-7003000D01*
X7027000Y-7685000D02*
X7107000Y-7765000D01*
X7107000Y-7685000D02*
X7027000Y-7765000D01*
X7079000Y-9679000D02*
X7159000Y-9759000D01*
X7159000Y-9679000D02*
X7079000Y-9759000D01*
X7079000Y-10441000D02*
X7159000Y-10521000D01*
X7159000Y-10441000D02*
X7079000Y-10521000D01*
X7122500Y-12469000D02*
X7202500Y-12549000D01*
X7202500Y-12469000D02*
X7122500Y-12549000D01*
X7122500Y-13231000D02*
X7202500Y-13311000D01*
X7202500Y-13231000D02*
X7122500Y-13311000D01*
X7246000Y-11235000D02*
X7326000Y-11315000D01*
X7326000Y-11235000D02*
X7246000Y-11315000D01*
X7248000Y-10910000D02*
X7328000Y-10990000D01*
X7328000Y-10910000D02*
X7248000Y-10990000D01*
X7248000Y-11549000D02*
X7328000Y-11629000D01*
X7328000Y-11549000D02*
X7248000Y-11629000D01*
X7248000Y-11874000D02*
X7328000Y-11954000D01*
X7328000Y-11874000D02*
X7248000Y-11954000D01*
X7250000Y-13924000D02*
X7330000Y-14004000D01*
X7330000Y-13924000D02*
X7250000Y-14004000D01*
X7250000Y-14249000D02*
X7330000Y-14329000D01*
X7330000Y-14249000D02*
X7250000Y-14329000D01*
X7281000Y-6923000D02*
X7361000Y-7003000D01*
X7361000Y-6923000D02*
X7281000Y-7003000D01*
X7281000Y-7685000D02*
X7361000Y-7765000D01*
X7361000Y-7685000D02*
X7281000Y-7765000D01*
X7333000Y-9679000D02*
X7413000Y-9759000D01*
X7413000Y-9679000D02*
X7333000Y-9759000D01*
X7333000Y-10441000D02*
X7413000Y-10521000D01*
X7413000Y-10441000D02*
X7333000Y-10521000D01*
X7376500Y-12469000D02*
X7456500Y-12549000D01*
X7456500Y-12469000D02*
X7376500Y-12549000D01*
X7376500Y-13231000D02*
X7456500Y-13311000D01*
X7456500Y-13231000D02*
X7376500Y-13311000D01*
X7408500Y-8328000D02*
X7488500Y-8408000D01*
X7488500Y-8328000D02*
X7408500Y-8408000D01*
X7408500Y-8653000D02*
X7488500Y-8733000D01*
X7488500Y-8653000D02*
X7408500Y-8733000D01*
X7410000Y-5660000D02*
X7490000Y-5740000D01*
X7490000Y-5660000D02*
X7410000Y-5740000D01*
X7410000Y-5985000D02*
X7490000Y-6065000D01*
X7490000Y-5985000D02*
X7410000Y-6065000D01*
X7410000Y-6310000D02*
X7490000Y-6390000D01*
X7490000Y-6310000D02*
X7410000Y-6390000D01*
X7410000Y-6610000D02*
X7490000Y-6690000D01*
X7490000Y-6610000D02*
X7410000Y-6690000D01*
X7410000Y-8010000D02*
X7490000Y-8090000D01*
X7490000Y-8010000D02*
X7410000Y-8090000D01*
X7410000Y-8985000D02*
X7490000Y-9065000D01*
X7490000Y-8985000D02*
X7410000Y-9065000D01*
X7410000Y-9310000D02*
X7490000Y-9390000D01*
X7490000Y-9310000D02*
X7410000Y-9390000D01*
X7506000Y-12174000D02*
X7586000Y-12254000D01*
X7586000Y-12174000D02*
X7506000Y-12254000D01*
X7506000Y-13524000D02*
X7586000Y-13604000D01*
X7586000Y-13524000D02*
X7506000Y-13604000D01*
X7535000Y-6923000D02*
X7615000Y-7003000D01*
X7615000Y-6923000D02*
X7535000Y-7003000D01*
X7535000Y-7685000D02*
X7615000Y-7765000D01*
X7615000Y-7685000D02*
X7535000Y-7765000D01*
X7587000Y-9679000D02*
X7667000Y-9759000D01*
X7667000Y-9679000D02*
X7587000Y-9759000D01*
X7587000Y-10441000D02*
X7667000Y-10521000D01*
X7667000Y-10441000D02*
X7587000Y-10521000D01*
X7630500Y-12469000D02*
X7710500Y-12549000D01*
X7710500Y-12469000D02*
X7630500Y-12549000D01*
X7630500Y-13231000D02*
X7710500Y-13311000D01*
X7710500Y-13231000D02*
X7630500Y-13311000D01*
X7789000Y-6923000D02*
X7869000Y-7003000D01*
X7869000Y-6923000D02*
X7789000Y-7003000D01*
X7789000Y-7685000D02*
X7869000Y-7765000D01*
X7869000Y-7685000D02*
X7789000Y-7765000D01*
X7796500Y-6603000D02*
X7876500Y-6683000D01*
X7876500Y-6603000D02*
X7796500Y-6683000D01*
X7796500Y-8003000D02*
X7876500Y-8083000D01*
X7876500Y-8003000D02*
X7796500Y-8083000D01*
X7796500Y-8328000D02*
X7876500Y-8408000D01*
X7876500Y-8328000D02*
X7796500Y-8408000D01*
X7796500Y-8653000D02*
X7876500Y-8733000D01*
X7876500Y-8653000D02*
X7796500Y-8733000D01*
X7841000Y-9679000D02*
X7921000Y-9759000D01*
X7921000Y-9679000D02*
X7841000Y-9759000D01*
X7841000Y-10441000D02*
X7921000Y-10521000D01*
X7921000Y-10441000D02*
X7841000Y-10521000D01*
X7884500Y-12469000D02*
X7964500Y-12549000D01*
X7964500Y-12469000D02*
X7884500Y-12549000D01*
X7884500Y-13231000D02*
X7964500Y-13311000D01*
X7964500Y-13231000D02*
X7884500Y-13311000D01*
X8006000Y-12174000D02*
X8086000Y-12254000D01*
X8086000Y-12174000D02*
X8006000Y-12254000D01*
X8006000Y-13524000D02*
X8086000Y-13604000D01*
X8086000Y-13524000D02*
X8006000Y-13604000D01*
X8008000Y-11235000D02*
X8088000Y-11315000D01*
X8088000Y-11235000D02*
X8008000Y-11315000D01*
X8010000Y-10910000D02*
X8090000Y-10990000D01*
X8090000Y-10910000D02*
X8010000Y-10990000D01*
X8010000Y-11549000D02*
X8090000Y-11629000D01*
X8090000Y-11549000D02*
X8010000Y-11629000D01*
X8010000Y-11874000D02*
X8090000Y-11954000D01*
X8090000Y-11874000D02*
X8010000Y-11954000D01*
X8012000Y-13924000D02*
X8092000Y-14004000D01*
X8092000Y-13924000D02*
X8012000Y-14004000D01*
X8012000Y-14249000D02*
X8092000Y-14329000D01*
X8092000Y-14249000D02*
X8012000Y-14329000D01*
X8130000Y-5656000D02*
X8210000Y-5736000D01*
X8210000Y-5656000D02*
X8130000Y-5736000D01*
X8130000Y-5910000D02*
X8210000Y-5990000D01*
X8210000Y-5910000D02*
X8130000Y-5990000D01*
X8130000Y-6164000D02*
X8210000Y-6244000D01*
X8210000Y-6164000D02*
X8130000Y-6244000D01*
X8138500Y-12469000D02*
X8218500Y-12549000D01*
X8218500Y-12469000D02*
X8138500Y-12549000D01*
X8138500Y-13231000D02*
X8218500Y-13311000D01*
X8218500Y-13231000D02*
X8138500Y-13311000D01*
X8246500Y-6928000D02*
X8326500Y-7008000D01*
X8326500Y-6928000D02*
X8246500Y-7008000D01*
X8246500Y-7303000D02*
X8326500Y-7383000D01*
X8326500Y-7303000D02*
X8246500Y-7383000D01*
X8246500Y-7678000D02*
X8326500Y-7758000D01*
X8326500Y-7678000D02*
X8246500Y-7758000D01*
X8310000Y-9810000D02*
X8390000Y-9890000D01*
X8390000Y-9810000D02*
X8310000Y-9890000D01*
X8310000Y-10310000D02*
X8390000Y-10390000D01*
X8390000Y-10310000D02*
X8310000Y-10390000D01*
X8392500Y-12469000D02*
X8472500Y-12549000D01*
X8472500Y-12469000D02*
X8392500Y-12549000D01*
X8392500Y-13231000D02*
X8472500Y-13311000D01*
X8472500Y-13231000D02*
X8392500Y-13311000D01*
X8400000Y-12149000D02*
X8480000Y-12229000D01*
X8480000Y-12149000D02*
X8400000Y-12229000D01*
X8400000Y-13599000D02*
X8480000Y-13679000D01*
X8480000Y-13599000D02*
X8400000Y-13679000D01*
X8400000Y-13924000D02*
X8480000Y-14004000D01*
X8480000Y-13924000D02*
X8400000Y-14004000D01*
X8400000Y-14249000D02*
X8480000Y-14329000D01*
X8480000Y-14249000D02*
X8400000Y-14329000D01*
X8435000Y-11206000D02*
X8515000Y-11286000D01*
X8515000Y-11206000D02*
X8435000Y-11286000D01*
X8435000Y-11460000D02*
X8515000Y-11540000D01*
X8515000Y-11460000D02*
X8435000Y-11540000D01*
X8435000Y-11714000D02*
X8515000Y-11794000D01*
X8515000Y-11714000D02*
X8435000Y-11794000D01*
X8558500Y-6603000D02*
X8638500Y-6683000D01*
X8638500Y-6603000D02*
X8558500Y-6683000D01*
X8558500Y-8003000D02*
X8638500Y-8083000D01*
X8638500Y-8003000D02*
X8558500Y-8083000D01*
X8558500Y-8328000D02*
X8638500Y-8408000D01*
X8638500Y-8328000D02*
X8558500Y-8408000D01*
X8558500Y-8653000D02*
X8638500Y-8733000D01*
X8638500Y-8653000D02*
X8558500Y-8733000D01*
X8780000Y-5705000D02*
X8860000Y-5785000D01*
X8860000Y-5705000D02*
X8780000Y-5785000D01*
X8780000Y-5959000D02*
X8860000Y-6039000D01*
X8860000Y-5959000D02*
X8780000Y-6039000D01*
X8780000Y-6213000D02*
X8860000Y-6293000D01*
X8860000Y-6213000D02*
X8780000Y-6293000D01*
X8825000Y-12524000D02*
X8905000Y-12604000D01*
X8905000Y-12524000D02*
X8825000Y-12604000D01*
X8825000Y-12849000D02*
X8905000Y-12929000D01*
X8905000Y-12849000D02*
X8825000Y-12929000D01*
X8825000Y-13174000D02*
X8905000Y-13254000D01*
X8905000Y-13174000D02*
X8825000Y-13254000D01*
X8914489Y-4685000D02*
X8994489Y-4765000D01*
X8994489Y-4685000D02*
X8914489Y-4765000D01*
X9002500Y-8072000D02*
X9082500Y-8152000D01*
X9082500Y-8072000D02*
X9002500Y-8152000D01*
X9002500Y-8834000D02*
X9082500Y-8914000D01*
X9082500Y-8834000D02*
X9002500Y-8914000D01*
X9008500Y-6928000D02*
X9088500Y-7008000D01*
X9088500Y-6928000D02*
X9008500Y-7008000D01*
X9008500Y-7303000D02*
X9088500Y-7383000D01*
X9088500Y-7303000D02*
X9008500Y-7383000D01*
X9008500Y-7678000D02*
X9088500Y-7758000D01*
X9088500Y-7678000D02*
X9008500Y-7758000D01*
X9035000Y-11331000D02*
X9115000Y-11411000D01*
X9115000Y-11331000D02*
X9035000Y-11411000D01*
X9035000Y-11585000D02*
X9115000Y-11665000D01*
X9115000Y-11585000D02*
X9035000Y-11665000D01*
X9035000Y-11839000D02*
X9115000Y-11919000D01*
X9115000Y-11839000D02*
X9035000Y-11919000D01*
X9114489Y-4685000D02*
X9194489Y-4765000D01*
X9194489Y-4685000D02*
X9114489Y-4765000D01*
X9162000Y-12149000D02*
X9242000Y-12229000D01*
X9242000Y-12149000D02*
X9162000Y-12229000D01*
X9162000Y-13599000D02*
X9242000Y-13679000D01*
X9242000Y-13599000D02*
X9162000Y-13679000D01*
X9162000Y-13924000D02*
X9242000Y-14004000D01*
X9242000Y-13924000D02*
X9162000Y-14004000D01*
X9162000Y-14249000D02*
X9242000Y-14329000D01*
X9242000Y-14249000D02*
X9162000Y-14329000D01*
X9165000Y-5707000D02*
X9245000Y-5787000D01*
X9245000Y-5707000D02*
X9165000Y-5787000D01*
X9165000Y-5961000D02*
X9245000Y-6041000D01*
X9245000Y-5961000D02*
X9165000Y-6041000D01*
X9165000Y-6215000D02*
X9245000Y-6295000D01*
X9245000Y-6215000D02*
X9165000Y-6295000D01*
X9420000Y-11331000D02*
X9500000Y-11411000D01*
X9500000Y-11331000D02*
X9420000Y-11411000D01*
X9420000Y-11585000D02*
X9500000Y-11665000D01*
X9500000Y-11585000D02*
X9420000Y-11665000D01*
X9420000Y-11839000D02*
X9500000Y-11919000D01*
X9500000Y-11839000D02*
X9420000Y-11919000D01*
X9535000Y-13529000D02*
X9615000Y-13609000D01*
X9615000Y-13529000D02*
X9535000Y-13609000D01*
X9535000Y-14291000D02*
X9615000Y-14371000D01*
X9615000Y-14291000D02*
X9535000Y-14371000D01*
X9587000Y-12524000D02*
X9667000Y-12604000D01*
X9667000Y-12524000D02*
X9587000Y-12604000D01*
X9587000Y-12849000D02*
X9667000Y-12929000D01*
X9667000Y-12849000D02*
X9587000Y-12929000D01*
X9587000Y-13174000D02*
X9667000Y-13254000D01*
X9667000Y-13174000D02*
X9587000Y-13254000D01*
X5450000Y-12250000D02*
G75*
G02*
X5350000Y-12250000I-50000J0D01*
G01*
X5350000Y-12250000D02*
G75*
G02*
X5450000Y-12250000I50000J0D01*
G01*
X5450000Y-12504000D02*
G75*
G02*
X5350000Y-12504000I-50000J0D01*
G01*
X5350000Y-12504000D02*
G75*
G02*
X5450000Y-12504000I50000J0D01*
G01*
X5450000Y-12758000D02*
G75*
G02*
X5350000Y-12758000I-50000J0D01*
G01*
X5350000Y-12758000D02*
G75*
G02*
X5450000Y-12758000I50000J0D01*
G01*
X5450000Y-13012000D02*
G75*
G02*
X5350000Y-13012000I-50000J0D01*
G01*
X5350000Y-13012000D02*
G75*
G02*
X5450000Y-13012000I50000J0D01*
G01*
X5450000Y-13266000D02*
G75*
G02*
X5350000Y-13266000I-50000J0D01*
G01*
X5350000Y-13266000D02*
G75*
G02*
X5450000Y-13266000I50000J0D01*
G01*
X5450000Y-13520000D02*
G75*
G02*
X5350000Y-13520000I-50000J0D01*
G01*
X5350000Y-13520000D02*
G75*
G02*
X5450000Y-13520000I50000J0D01*
G01*
X5450000Y-13774000D02*
G75*
G02*
X5350000Y-13774000I-50000J0D01*
G01*
X5350000Y-13774000D02*
G75*
G02*
X5450000Y-13774000I50000J0D01*
G01*
X5450000Y-14028000D02*
G75*
G02*
X5350000Y-14028000I-50000J0D01*
G01*
X5350000Y-14028000D02*
G75*
G02*
X5450000Y-14028000I50000J0D01*
G01*
X5950000Y-17825000D02*
G75*
G02*
X5850000Y-17825000I-50000J0D01*
G01*
X5850000Y-17825000D02*
G75*
G02*
X5950000Y-17825000I50000J0D01*
G01*
X5975000Y-17775000D02*
X5825000Y-17775000D01*
X5825000Y-17875000D02*
G75*
G02*
X5825000Y-17775000I0J50000D01*
G01*
X5825000Y-17875000D02*
X5975000Y-17875000D01*
X5975000Y-17875000D02*
G75*
G03*
X5975000Y-17775000I0J50000D01*
G01*
X5950000Y-19675000D02*
G75*
G02*
X5850000Y-19675000I-50000J0D01*
G01*
X5850000Y-19675000D02*
G75*
G02*
X5950000Y-19675000I50000J0D01*
G01*
X5975000Y-19625000D02*
X5825000Y-19625000D01*
X5825000Y-19725000D02*
G75*
G02*
X5825000Y-19625000I0J50000D01*
G01*
X5825000Y-19725000D02*
X5975000Y-19725000D01*
X5975000Y-19725000D02*
G75*
G03*
X5975000Y-19625000I0J50000D01*
G01*
X5950000Y-21525000D02*
G75*
G02*
X5850000Y-21525000I-50000J0D01*
G01*
X5850000Y-21525000D02*
G75*
G02*
X5950000Y-21525000I50000J0D01*
G01*
X5975000Y-21475000D02*
X5825000Y-21475000D01*
X5825000Y-21575000D02*
G75*
G02*
X5825000Y-21475000I0J50000D01*
G01*
X5825000Y-21575000D02*
X5975000Y-21575000D01*
X5975000Y-21575000D02*
G75*
G03*
X5975000Y-21475000I0J50000D01*
G01*
X6359619Y-16715381D02*
G75*
G02*
X6259619Y-16715381I-50000J0D01*
G01*
X6259619Y-16715381D02*
G75*
G02*
X6359619Y-16715381I50000J0D01*
G01*
X6398007Y-16733059D02*
X6291941Y-16626993D01*
X6221231Y-16697703D02*
G75*
G02*
X6291941Y-16626993I35355J35355D01*
G01*
X6221231Y-16697703D02*
X6327297Y-16803769D01*
X6327297Y-16803769D02*
G75*
G03*
X6398007Y-16733059I35355J35355D01*
G01*
X6359619Y-18565381D02*
G75*
G02*
X6259619Y-18565381I-50000J0D01*
G01*
X6259619Y-18565381D02*
G75*
G02*
X6359619Y-18565381I50000J0D01*
G01*
X6398007Y-18583059D02*
X6291941Y-18476993D01*
X6221231Y-18547703D02*
G75*
G02*
X6291941Y-18476993I35355J35355D01*
G01*
X6221231Y-18547703D02*
X6327297Y-18653769D01*
X6327297Y-18653769D02*
G75*
G03*
X6398007Y-18583059I35355J35355D01*
G01*
X6359619Y-20415381D02*
G75*
G02*
X6259619Y-20415381I-50000J0D01*
G01*
X6259619Y-20415381D02*
G75*
G02*
X6359619Y-20415381I50000J0D01*
G01*
X6398007Y-20433059D02*
X6291941Y-20326993D01*
X6221231Y-20397703D02*
G75*
G02*
X6291941Y-20326993I35355J35355D01*
G01*
X6221231Y-20397703D02*
X6327297Y-20503769D01*
X6327297Y-20503769D02*
G75*
G03*
X6398007Y-20433059I35355J35355D01*
G01*
X6550000Y-17425000D02*
G75*
G02*
X6450000Y-17425000I-50000J0D01*
G01*
X6450000Y-17425000D02*
G75*
G02*
X6550000Y-17425000I50000J0D01*
G01*
X6450000Y-17350000D02*
X6450000Y-17500000D01*
X6550000Y-17500000D02*
G75*
G02*
X6450000Y-17500000I-50000J0D01*
G01*
X6550000Y-17500000D02*
X6550000Y-17350000D01*
X6550000Y-17350000D02*
G75*
G03*
X6450000Y-17350000I-50000J0D01*
G01*
X6550000Y-19275000D02*
G75*
G02*
X6450000Y-19275000I-50000J0D01*
G01*
X6450000Y-19275000D02*
G75*
G02*
X6550000Y-19275000I50000J0D01*
G01*
X6450000Y-19200000D02*
X6450000Y-19350000D01*
X6550000Y-19350000D02*
G75*
G02*
X6450000Y-19350000I-50000J0D01*
G01*
X6550000Y-19350000D02*
X6550000Y-19200000D01*
X6550000Y-19200000D02*
G75*
G03*
X6450000Y-19200000I-50000J0D01*
G01*
X6550000Y-21125000D02*
G75*
G02*
X6450000Y-21125000I-50000J0D01*
G01*
X6450000Y-21125000D02*
G75*
G02*
X6550000Y-21125000I50000J0D01*
G01*
X6450000Y-21050000D02*
X6450000Y-21200000D01*
X6550000Y-21200000D02*
G75*
G02*
X6450000Y-21200000I-50000J0D01*
G01*
X6550000Y-21200000D02*
X6550000Y-21050000D01*
X6550000Y-21050000D02*
G75*
G03*
X6450000Y-21050000I-50000J0D01*
G01*
X7042000Y-4646250D02*
G75*
G02*
X6942000Y-4646250I-50000J0D01*
G01*
X6942000Y-4646250D02*
G75*
G02*
X7042000Y-4646250I50000J0D01*
G01*
X7042000Y-4900250D02*
G75*
G02*
X6942000Y-4900250I-50000J0D01*
G01*
X6942000Y-4900250D02*
G75*
G02*
X7042000Y-4900250I50000J0D01*
G01*
X7042000Y-15700000D02*
G75*
G02*
X6942000Y-15700000I-50000J0D01*
G01*
X6942000Y-15700000D02*
G75*
G02*
X7042000Y-15700000I50000J0D01*
G01*
X7042000Y-15954000D02*
G75*
G02*
X6942000Y-15954000I-50000J0D01*
G01*
X6942000Y-15954000D02*
G75*
G02*
X7042000Y-15954000I50000J0D01*
G01*
X7090381Y-16715381D02*
G75*
G02*
X6990381Y-16715381I-50000J0D01*
G01*
X6990381Y-16715381D02*
G75*
G02*
X7090381Y-16715381I50000J0D01*
G01*
X7058059Y-16626993D02*
X6951993Y-16733059D01*
X7022703Y-16803769D02*
G75*
G02*
X6951993Y-16733059I-35355J35355D01*
G01*
X7022703Y-16803769D02*
X7128769Y-16697703D01*
X7128769Y-16697703D02*
G75*
G03*
X7058059Y-16626993I-35355J35355D01*
G01*
X7090381Y-18565381D02*
G75*
G02*
X6990381Y-18565381I-50000J0D01*
G01*
X6990381Y-18565381D02*
G75*
G02*
X7090381Y-18565381I50000J0D01*
G01*
X7058059Y-18476993D02*
X6951993Y-18583059D01*
X7022703Y-18653769D02*
G75*
G02*
X6951993Y-18583059I-35355J35355D01*
G01*
X7022703Y-18653769D02*
X7128769Y-18547703D01*
X7128769Y-18547703D02*
G75*
G03*
X7058059Y-18476993I-35355J35355D01*
G01*
X7090381Y-20415381D02*
G75*
G02*
X6990381Y-20415381I-50000J0D01*
G01*
X6990381Y-20415381D02*
G75*
G02*
X7090381Y-20415381I50000J0D01*
G01*
X7058059Y-20326993D02*
X6951993Y-20433059D01*
X7022703Y-20503769D02*
G75*
G02*
X6951993Y-20433059I-35355J35355D01*
G01*
X7022703Y-20503769D02*
X7128769Y-20397703D01*
X7128769Y-20397703D02*
G75*
G03*
X7058059Y-20326993I-35355J35355D01*
G01*
X7296000Y-4646250D02*
G75*
G02*
X7196000Y-4646250I-50000J0D01*
G01*
X7196000Y-4646250D02*
G75*
G02*
X7296000Y-4646250I50000J0D01*
G01*
X7296000Y-4900250D02*
G75*
G02*
X7196000Y-4900250I-50000J0D01*
G01*
X7196000Y-4900250D02*
G75*
G02*
X7296000Y-4900250I50000J0D01*
G01*
X7296000Y-15700000D02*
G75*
G02*
X7196000Y-15700000I-50000J0D01*
G01*
X7196000Y-15700000D02*
G75*
G02*
X7296000Y-15700000I50000J0D01*
G01*
X7296000Y-15954000D02*
G75*
G02*
X7196000Y-15954000I-50000J0D01*
G01*
X7196000Y-15954000D02*
G75*
G02*
X7296000Y-15954000I50000J0D01*
G01*
X7550000Y-4646250D02*
G75*
G02*
X7450000Y-4646250I-50000J0D01*
G01*
X7450000Y-4646250D02*
G75*
G02*
X7550000Y-4646250I50000J0D01*
G01*
X7550000Y-4900250D02*
G75*
G02*
X7450000Y-4900250I-50000J0D01*
G01*
X7450000Y-4900250D02*
G75*
G02*
X7550000Y-4900250I50000J0D01*
G01*
X7550000Y-15700000D02*
G75*
G02*
X7450000Y-15700000I-50000J0D01*
G01*
X7450000Y-15700000D02*
G75*
G02*
X7550000Y-15700000I50000J0D01*
G01*
X7550000Y-15954000D02*
G75*
G02*
X7450000Y-15954000I-50000J0D01*
G01*
X7450000Y-15954000D02*
G75*
G02*
X7550000Y-15954000I50000J0D01*
G01*
X7800000Y-16525000D02*
G75*
G02*
X7700000Y-16525000I-50000J0D01*
G01*
X7700000Y-16525000D02*
G75*
G02*
X7800000Y-16525000I50000J0D01*
G01*
X7675000Y-16575000D02*
X7825000Y-16575000D01*
X7825000Y-16475000D02*
G75*
G02*
X7825000Y-16575000I0J-50000D01*
G01*
X7825000Y-16475000D02*
X7675000Y-16475000D01*
X7675000Y-16475000D02*
G75*
G03*
X7675000Y-16575000I0J-50000D01*
G01*
X7800000Y-18375000D02*
G75*
G02*
X7700000Y-18375000I-50000J0D01*
G01*
X7700000Y-18375000D02*
G75*
G02*
X7800000Y-18375000I50000J0D01*
G01*
X7675000Y-18425000D02*
X7825000Y-18425000D01*
X7825000Y-18325000D02*
G75*
G02*
X7825000Y-18425000I0J-50000D01*
G01*
X7825000Y-18325000D02*
X7675000Y-18325000D01*
X7675000Y-18325000D02*
G75*
G03*
X7675000Y-18425000I0J-50000D01*
G01*
X7800000Y-20225000D02*
G75*
G02*
X7700000Y-20225000I-50000J0D01*
G01*
X7700000Y-20225000D02*
G75*
G02*
X7800000Y-20225000I50000J0D01*
G01*
X7675000Y-20275000D02*
X7825000Y-20275000D01*
X7825000Y-20175000D02*
G75*
G02*
X7825000Y-20275000I0J-50000D01*
G01*
X7825000Y-20175000D02*
X7675000Y-20175000D01*
X7675000Y-20175000D02*
G75*
G03*
X7675000Y-20275000I0J-50000D01*
G01*
X7804000Y-4646250D02*
G75*
G02*
X7704000Y-4646250I-50000J0D01*
G01*
X7704000Y-4646250D02*
G75*
G02*
X7804000Y-4646250I50000J0D01*
G01*
X7804000Y-4900250D02*
G75*
G02*
X7704000Y-4900250I-50000J0D01*
G01*
X7704000Y-4900250D02*
G75*
G02*
X7804000Y-4900250I50000J0D01*
G01*
X7804000Y-15700000D02*
G75*
G02*
X7704000Y-15700000I-50000J0D01*
G01*
X7704000Y-15700000D02*
G75*
G02*
X7804000Y-15700000I50000J0D01*
G01*
X7804000Y-15954000D02*
G75*
G02*
X7704000Y-15954000I-50000J0D01*
G01*
X7704000Y-15954000D02*
G75*
G02*
X7804000Y-15954000I50000J0D01*
G01*
X8058000Y-4646250D02*
G75*
G02*
X7958000Y-4646250I-50000J0D01*
G01*
X7958000Y-4646250D02*
G75*
G02*
X8058000Y-4646250I50000J0D01*
G01*
X8058000Y-4900250D02*
G75*
G02*
X7958000Y-4900250I-50000J0D01*
G01*
X7958000Y-4900250D02*
G75*
G02*
X8058000Y-4900250I50000J0D01*
G01*
X8058000Y-15700000D02*
G75*
G02*
X7958000Y-15700000I-50000J0D01*
G01*
X7958000Y-15700000D02*
G75*
G02*
X8058000Y-15700000I50000J0D01*
G01*
X8058000Y-15954000D02*
G75*
G02*
X7958000Y-15954000I-50000J0D01*
G01*
X7958000Y-15954000D02*
G75*
G02*
X8058000Y-15954000I50000J0D01*
G01*
X8200000Y-17125000D02*
G75*
G02*
X8100000Y-17125000I-50000J0D01*
G01*
X8100000Y-17125000D02*
G75*
G02*
X8200000Y-17125000I50000J0D01*
G01*
X8100000Y-17050000D02*
X8100000Y-17200000D01*
X8200000Y-17200000D02*
G75*
G02*
X8100000Y-17200000I-50000J0D01*
G01*
X8200000Y-17200000D02*
X8200000Y-17050000D01*
X8200000Y-17050000D02*
G75*
G03*
X8100000Y-17050000I-50000J0D01*
G01*
X8200000Y-18975000D02*
G75*
G02*
X8100000Y-18975000I-50000J0D01*
G01*
X8100000Y-18975000D02*
G75*
G02*
X8200000Y-18975000I50000J0D01*
G01*
X8100000Y-18900000D02*
X8100000Y-19050000D01*
X8200000Y-19050000D02*
G75*
G02*
X8100000Y-19050000I-50000J0D01*
G01*
X8200000Y-19050000D02*
X8200000Y-18900000D01*
X8200000Y-18900000D02*
G75*
G03*
X8100000Y-18900000I-50000J0D01*
G01*
X8200000Y-20825000D02*
G75*
G02*
X8100000Y-20825000I-50000J0D01*
G01*
X8100000Y-20825000D02*
G75*
G02*
X8200000Y-20825000I50000J0D01*
G01*
X8100000Y-20750000D02*
X8100000Y-20900000D01*
X8200000Y-20900000D02*
G75*
G02*
X8100000Y-20900000I-50000J0D01*
G01*
X8200000Y-20900000D02*
X8200000Y-20750000D01*
X8200000Y-20750000D02*
G75*
G03*
X8100000Y-20750000I-50000J0D01*
G01*
X8550000Y-16925000D02*
G75*
G02*
X8450000Y-16925000I-50000J0D01*
G01*
X8450000Y-16925000D02*
G75*
G02*
X8550000Y-16925000I50000J0D01*
G01*
X8550000Y-17000000D02*
X8550000Y-16850000D01*
X8450000Y-16850000D02*
G75*
G02*
X8550000Y-16850000I50000J0D01*
G01*
X8450000Y-16850000D02*
X8450000Y-17000000D01*
X8450000Y-17000000D02*
G75*
G03*
X8550000Y-17000000I50000J0D01*
G01*
X8550000Y-18775000D02*
G75*
G02*
X8450000Y-18775000I-50000J0D01*
G01*
X8450000Y-18775000D02*
G75*
G02*
X8550000Y-18775000I50000J0D01*
G01*
X8550000Y-18850000D02*
X8550000Y-18700000D01*
X8450000Y-18700000D02*
G75*
G02*
X8550000Y-18700000I50000J0D01*
G01*
X8450000Y-18700000D02*
X8450000Y-18850000D01*
X8450000Y-18850000D02*
G75*
G03*
X8550000Y-18850000I50000J0D01*
G01*
X8550000Y-20625000D02*
G75*
G02*
X8450000Y-20625000I-50000J0D01*
G01*
X8450000Y-20625000D02*
G75*
G02*
X8550000Y-20625000I50000J0D01*
G01*
X8550000Y-20700000D02*
X8550000Y-20550000D01*
X8450000Y-20550000D02*
G75*
G02*
X8550000Y-20550000I50000J0D01*
G01*
X8450000Y-20550000D02*
X8450000Y-20700000D01*
X8450000Y-20700000D02*
G75*
G03*
X8550000Y-20700000I50000J0D01*
G01*
X8740381Y-17634619D02*
G75*
G02*
X8640381Y-17634619I-50000J0D01*
G01*
X8640381Y-17634619D02*
G75*
G02*
X8740381Y-17634619I50000J0D01*
G01*
X8601993Y-17616941D02*
X8708059Y-17723007D01*
X8778769Y-17652297D02*
G75*
G02*
X8708059Y-17723007I-35355J-35355D01*
G01*
X8778769Y-17652297D02*
X8672703Y-17546231D01*
X8672703Y-17546231D02*
G75*
G03*
X8601993Y-17616941I-35355J-35355D01*
G01*
X8740381Y-19484619D02*
G75*
G02*
X8640381Y-19484619I-50000J0D01*
G01*
X8640381Y-19484619D02*
G75*
G02*
X8740381Y-19484619I50000J0D01*
G01*
X8601993Y-19466941D02*
X8708059Y-19573007D01*
X8778769Y-19502297D02*
G75*
G02*
X8708059Y-19573007I-35355J-35355D01*
G01*
X8778769Y-19502297D02*
X8672703Y-19396231D01*
X8672703Y-19396231D02*
G75*
G03*
X8601993Y-19466941I-35355J-35355D01*
G01*
X8740381Y-21334619D02*
G75*
G02*
X8640381Y-21334619I-50000J0D01*
G01*
X8640381Y-21334619D02*
G75*
G02*
X8740381Y-21334619I50000J0D01*
G01*
X8601993Y-21316941D02*
X8708059Y-21423007D01*
X8778769Y-21352297D02*
G75*
G02*
X8708059Y-21423007I-35355J-35355D01*
G01*
X8778769Y-21352297D02*
X8672703Y-21246231D01*
X8672703Y-21246231D02*
G75*
G03*
X8601993Y-21316941I-35355J-35355D01*
G01*
X9150000Y-16525000D02*
G75*
G02*
X9050000Y-16525000I-50000J0D01*
G01*
X9050000Y-16525000D02*
G75*
G02*
X9150000Y-16525000I50000J0D01*
G01*
X9025000Y-16575000D02*
X9175000Y-16575000D01*
X9175000Y-16475000D02*
G75*
G02*
X9175000Y-16575000I0J-50000D01*
G01*
X9175000Y-16475000D02*
X9025000Y-16475000D01*
X9025000Y-16475000D02*
G75*
G03*
X9025000Y-16575000I0J-50000D01*
G01*
X9150000Y-18375000D02*
G75*
G02*
X9050000Y-18375000I-50000J0D01*
G01*
X9050000Y-18375000D02*
G75*
G02*
X9150000Y-18375000I50000J0D01*
G01*
X9025000Y-18425000D02*
X9175000Y-18425000D01*
X9175000Y-18325000D02*
G75*
G02*
X9175000Y-18425000I0J-50000D01*
G01*
X9175000Y-18325000D02*
X9025000Y-18325000D01*
X9025000Y-18325000D02*
G75*
G03*
X9025000Y-18425000I0J-50000D01*
G01*
X9150000Y-20225000D02*
G75*
G02*
X9050000Y-20225000I-50000J0D01*
G01*
X9050000Y-20225000D02*
G75*
G02*
X9150000Y-20225000I50000J0D01*
G01*
X9025000Y-20275000D02*
X9175000Y-20275000D01*
X9175000Y-20175000D02*
G75*
G02*
X9175000Y-20275000I0J-50000D01*
G01*
X9175000Y-20175000D02*
X9025000Y-20175000D01*
X9025000Y-20175000D02*
G75*
G03*
X9025000Y-20275000I0J-50000D01*
G01*
X9650000Y-6584000D02*
G75*
G02*
X9550000Y-6584000I-50000J0D01*
G01*
X9550000Y-6584000D02*
G75*
G02*
X9650000Y-6584000I50000J0D01*
G01*
X9650000Y-6838000D02*
G75*
G02*
X9550000Y-6838000I-50000J0D01*
G01*
X9550000Y-6838000D02*
G75*
G02*
X9650000Y-6838000I50000J0D01*
G01*
X9650000Y-7092000D02*
G75*
G02*
X9550000Y-7092000I-50000J0D01*
G01*
X9550000Y-7092000D02*
G75*
G02*
X9650000Y-7092000I50000J0D01*
G01*
X9650000Y-7346000D02*
G75*
G02*
X9550000Y-7346000I-50000J0D01*
G01*
X9550000Y-7346000D02*
G75*
G02*
X9650000Y-7346000I50000J0D01*
G01*
X9650000Y-7600000D02*
G75*
G02*
X9550000Y-7600000I-50000J0D01*
G01*
X9550000Y-7600000D02*
G75*
G02*
X9650000Y-7600000I50000J0D01*
G01*
X9650000Y-7854000D02*
G75*
G02*
X9550000Y-7854000I-50000J0D01*
G01*
X9550000Y-7854000D02*
G75*
G02*
X9650000Y-7854000I50000J0D01*
G01*
X9650000Y-8108000D02*
G75*
G02*
X9550000Y-8108000I-50000J0D01*
G01*
X9550000Y-8108000D02*
G75*
G02*
X9650000Y-8108000I50000J0D01*
G01*
X9650000Y-8362000D02*
G75*
G02*
X9550000Y-8362000I-50000J0D01*
G01*
X9550000Y-8362000D02*
G75*
G02*
X9650000Y-8362000I50000J0D01*
G01*
D13*
X5300000Y-4362000D02*
X5300000Y-4472000D01*
X5245000Y-4417000D02*
X5355000Y-4417000D01*
X5300000Y-5378000D02*
X5300000Y-5488000D01*
X5245000Y-5433000D02*
X5355000Y-5433000D01*
X9700000Y-4362000D02*
X9700000Y-4472000D01*
X9645000Y-4417000D02*
X9755000Y-4417000D01*
X9700000Y-5378000D02*
X9700000Y-5488000D01*
X9645000Y-5433000D02*
X9755000Y-5433000D01*
D11*
X5358277Y-22063984D02*
X5358277Y-21863984D01*
X5358277Y-21863984D02*
X5405896Y-21863984D01*
X5405896Y-21863984D02*
X5434467Y-21873508D01*
X5434467Y-21873508D02*
X5453515Y-21892555D01*
X5453515Y-21892555D02*
X5463039Y-21911603D01*
X5463039Y-21911603D02*
X5472563Y-21949698D01*
X5472563Y-21949698D02*
X5472563Y-21978270D01*
X5472563Y-21978270D02*
X5463039Y-22016365D01*
X5463039Y-22016365D02*
X5453515Y-22035412D01*
X5453515Y-22035412D02*
X5434467Y-22054460D01*
X5434467Y-22054460D02*
X5405896Y-22063984D01*
X5405896Y-22063984D02*
X5358277Y-22063984D01*
X5558277Y-22063984D02*
X5558277Y-21930650D01*
X5558277Y-21968746D02*
X5567801Y-21949698D01*
X5567801Y-21949698D02*
X5577324Y-21940174D01*
X5577324Y-21940174D02*
X5596372Y-21930650D01*
X5596372Y-21930650D02*
X5615420Y-21930650D01*
X5682086Y-22063984D02*
X5682086Y-21930650D01*
X5682086Y-21863984D02*
X5672562Y-21873508D01*
X5672562Y-21873508D02*
X5682086Y-21883031D01*
X5682086Y-21883031D02*
X5691610Y-21873508D01*
X5691610Y-21873508D02*
X5682086Y-21863984D01*
X5682086Y-21863984D02*
X5682086Y-21883031D01*
X5805896Y-22063984D02*
X5786848Y-22054460D01*
X5786848Y-22054460D02*
X5777324Y-22035412D01*
X5777324Y-22035412D02*
X5777324Y-21863984D01*
X5910658Y-22063984D02*
X5891610Y-22054460D01*
X5891610Y-22054460D02*
X5882086Y-22035412D01*
X5882086Y-22035412D02*
X5882086Y-21863984D01*
X6139229Y-22063984D02*
X6139229Y-21863984D01*
X6139229Y-21863984D02*
X6205896Y-22006841D01*
X6205896Y-22006841D02*
X6272562Y-21863984D01*
X6272562Y-21863984D02*
X6272562Y-22063984D01*
X6453515Y-22063984D02*
X6453515Y-21959222D01*
X6453515Y-21959222D02*
X6443991Y-21940174D01*
X6443991Y-21940174D02*
X6424943Y-21930650D01*
X6424943Y-21930650D02*
X6386848Y-21930650D01*
X6386848Y-21930650D02*
X6367801Y-21940174D01*
X6453515Y-22054460D02*
X6434467Y-22063984D01*
X6434467Y-22063984D02*
X6386848Y-22063984D01*
X6386848Y-22063984D02*
X6367801Y-22054460D01*
X6367801Y-22054460D02*
X6358277Y-22035412D01*
X6358277Y-22035412D02*
X6358277Y-22016365D01*
X6358277Y-22016365D02*
X6367801Y-21997317D01*
X6367801Y-21997317D02*
X6386848Y-21987793D01*
X6386848Y-21987793D02*
X6434467Y-21987793D01*
X6434467Y-21987793D02*
X6453515Y-21978270D01*
X6548753Y-21930650D02*
X6548753Y-22130650D01*
X6548753Y-21940174D02*
X6567801Y-21930650D01*
X6567801Y-21930650D02*
X6605896Y-21930650D01*
X6605896Y-21930650D02*
X6624943Y-21940174D01*
X6624943Y-21940174D02*
X6634467Y-21949698D01*
X6634467Y-21949698D02*
X6643991Y-21968746D01*
X6643991Y-21968746D02*
X6643991Y-22025889D01*
X6643991Y-22025889D02*
X6634467Y-22044936D01*
X6634467Y-22044936D02*
X6624943Y-22054460D01*
X6624943Y-22054460D02*
X6605896Y-22063984D01*
X6605896Y-22063984D02*
X6567801Y-22063984D01*
X6567801Y-22063984D02*
X6548753Y-22054460D01*
X6729705Y-22044936D02*
X6739229Y-22054460D01*
X6739229Y-22054460D02*
X6729705Y-22063984D01*
X6729705Y-22063984D02*
X6720182Y-22054460D01*
X6720182Y-22054460D02*
X6729705Y-22044936D01*
X6729705Y-22044936D02*
X6729705Y-22063984D01*
X6729705Y-21940174D02*
X6739229Y-21949698D01*
X6739229Y-21949698D02*
X6729705Y-21959222D01*
X6729705Y-21959222D02*
X6720182Y-21949698D01*
X6720182Y-21949698D02*
X6729705Y-21940174D01*
X6729705Y-21940174D02*
X6729705Y-21959222D01*
D12*
X5017500Y-22352500D02*
X5097500Y-22432500D01*
X5097500Y-22352500D02*
X5017500Y-22432500D01*
D11*
X5396372Y-22283984D02*
X5415420Y-22283984D01*
X5415420Y-22283984D02*
X5434467Y-22293508D01*
X5434467Y-22293508D02*
X5443991Y-22303031D01*
X5443991Y-22303031D02*
X5453515Y-22322079D01*
X5453515Y-22322079D02*
X5463039Y-22360174D01*
X5463039Y-22360174D02*
X5463039Y-22407793D01*
X5463039Y-22407793D02*
X5453515Y-22445888D01*
X5453515Y-22445888D02*
X5443991Y-22464936D01*
X5443991Y-22464936D02*
X5434467Y-22474460D01*
X5434467Y-22474460D02*
X5415420Y-22483984D01*
X5415420Y-22483984D02*
X5396372Y-22483984D01*
X5396372Y-22483984D02*
X5377324Y-22474460D01*
X5377324Y-22474460D02*
X5367801Y-22464936D01*
X5367801Y-22464936D02*
X5358277Y-22445888D01*
X5358277Y-22445888D02*
X5348753Y-22407793D01*
X5348753Y-22407793D02*
X5348753Y-22360174D01*
X5348753Y-22360174D02*
X5358277Y-22322079D01*
X5358277Y-22322079D02*
X5367801Y-22303031D01*
X5367801Y-22303031D02*
X5377324Y-22293508D01*
X5377324Y-22293508D02*
X5396372Y-22283984D01*
X5548753Y-22464936D02*
X5558277Y-22474460D01*
X5558277Y-22474460D02*
X5548753Y-22483984D01*
X5548753Y-22483984D02*
X5539229Y-22474460D01*
X5539229Y-22474460D02*
X5548753Y-22464936D01*
X5548753Y-22464936D02*
X5548753Y-22483984D01*
X5672562Y-22369698D02*
X5653515Y-22360174D01*
X5653515Y-22360174D02*
X5643991Y-22350650D01*
X5643991Y-22350650D02*
X5634467Y-22331603D01*
X5634467Y-22331603D02*
X5634467Y-22322079D01*
X5634467Y-22322079D02*
X5643991Y-22303031D01*
X5643991Y-22303031D02*
X5653515Y-22293508D01*
X5653515Y-22293508D02*
X5672562Y-22283984D01*
X5672562Y-22283984D02*
X5710658Y-22283984D01*
X5710658Y-22283984D02*
X5729705Y-22293508D01*
X5729705Y-22293508D02*
X5739229Y-22303031D01*
X5739229Y-22303031D02*
X5748753Y-22322079D01*
X5748753Y-22322079D02*
X5748753Y-22331603D01*
X5748753Y-22331603D02*
X5739229Y-22350650D01*
X5739229Y-22350650D02*
X5729705Y-22360174D01*
X5729705Y-22360174D02*
X5710658Y-22369698D01*
X5710658Y-22369698D02*
X5672562Y-22369698D01*
X5672562Y-22369698D02*
X5653515Y-22379222D01*
X5653515Y-22379222D02*
X5643991Y-22388746D01*
X5643991Y-22388746D02*
X5634467Y-22407793D01*
X5634467Y-22407793D02*
X5634467Y-22445888D01*
X5634467Y-22445888D02*
X5643991Y-22464936D01*
X5643991Y-22464936D02*
X5653515Y-22474460D01*
X5653515Y-22474460D02*
X5672562Y-22483984D01*
X5672562Y-22483984D02*
X5710658Y-22483984D01*
X5710658Y-22483984D02*
X5729705Y-22474460D01*
X5729705Y-22474460D02*
X5739229Y-22464936D01*
X5739229Y-22464936D02*
X5748753Y-22445888D01*
X5748753Y-22445888D02*
X5748753Y-22407793D01*
X5748753Y-22407793D02*
X5739229Y-22388746D01*
X5739229Y-22388746D02*
X5729705Y-22379222D01*
X5729705Y-22379222D02*
X5710658Y-22369698D01*
X5872562Y-22283984D02*
X5891610Y-22283984D01*
X5891610Y-22283984D02*
X5910658Y-22293508D01*
X5910658Y-22293508D02*
X5920182Y-22303031D01*
X5920182Y-22303031D02*
X5929705Y-22322079D01*
X5929705Y-22322079D02*
X5939229Y-22360174D01*
X5939229Y-22360174D02*
X5939229Y-22407793D01*
X5939229Y-22407793D02*
X5929705Y-22445888D01*
X5929705Y-22445888D02*
X5920182Y-22464936D01*
X5920182Y-22464936D02*
X5910658Y-22474460D01*
X5910658Y-22474460D02*
X5891610Y-22483984D01*
X5891610Y-22483984D02*
X5872562Y-22483984D01*
X5872562Y-22483984D02*
X5853515Y-22474460D01*
X5853515Y-22474460D02*
X5843991Y-22464936D01*
X5843991Y-22464936D02*
X5834467Y-22445888D01*
X5834467Y-22445888D02*
X5824943Y-22407793D01*
X5824943Y-22407793D02*
X5824943Y-22360174D01*
X5824943Y-22360174D02*
X5834467Y-22322079D01*
X5834467Y-22322079D02*
X5843991Y-22303031D01*
X5843991Y-22303031D02*
X5853515Y-22293508D01*
X5853515Y-22293508D02*
X5872562Y-22283984D01*
X6063039Y-22283984D02*
X6082086Y-22283984D01*
X6082086Y-22283984D02*
X6101134Y-22293508D01*
X6101134Y-22293508D02*
X6110658Y-22303031D01*
X6110658Y-22303031D02*
X6120182Y-22322079D01*
X6120182Y-22322079D02*
X6129705Y-22360174D01*
X6129705Y-22360174D02*
X6129705Y-22407793D01*
X6129705Y-22407793D02*
X6120182Y-22445888D01*
X6120182Y-22445888D02*
X6110658Y-22464936D01*
X6110658Y-22464936D02*
X6101134Y-22474460D01*
X6101134Y-22474460D02*
X6082086Y-22483984D01*
X6082086Y-22483984D02*
X6063039Y-22483984D01*
X6063039Y-22483984D02*
X6043991Y-22474460D01*
X6043991Y-22474460D02*
X6034467Y-22464936D01*
X6034467Y-22464936D02*
X6024943Y-22445888D01*
X6024943Y-22445888D02*
X6015420Y-22407793D01*
X6015420Y-22407793D02*
X6015420Y-22360174D01*
X6015420Y-22360174D02*
X6024943Y-22322079D01*
X6024943Y-22322079D02*
X6034467Y-22303031D01*
X6034467Y-22303031D02*
X6043991Y-22293508D01*
X6043991Y-22293508D02*
X6063039Y-22283984D01*
X6215420Y-22483984D02*
X6215420Y-22350650D01*
X6215420Y-22369698D02*
X6224943Y-22360174D01*
X6224943Y-22360174D02*
X6243991Y-22350650D01*
X6243991Y-22350650D02*
X6272563Y-22350650D01*
X6272563Y-22350650D02*
X6291610Y-22360174D01*
X6291610Y-22360174D02*
X6301134Y-22379222D01*
X6301134Y-22379222D02*
X6301134Y-22483984D01*
X6301134Y-22379222D02*
X6310658Y-22360174D01*
X6310658Y-22360174D02*
X6329705Y-22350650D01*
X6329705Y-22350650D02*
X6358277Y-22350650D01*
X6358277Y-22350650D02*
X6377324Y-22360174D01*
X6377324Y-22360174D02*
X6386848Y-22379222D01*
X6386848Y-22379222D02*
X6386848Y-22483984D01*
X6482086Y-22483984D02*
X6482086Y-22350650D01*
X6482086Y-22369698D02*
X6491610Y-22360174D01*
X6491610Y-22360174D02*
X6510658Y-22350650D01*
X6510658Y-22350650D02*
X6539229Y-22350650D01*
X6539229Y-22350650D02*
X6558277Y-22360174D01*
X6558277Y-22360174D02*
X6567801Y-22379222D01*
X6567801Y-22379222D02*
X6567801Y-22483984D01*
X6567801Y-22379222D02*
X6577324Y-22360174D01*
X6577324Y-22360174D02*
X6596372Y-22350650D01*
X6596372Y-22350650D02*
X6624943Y-22350650D01*
X6624943Y-22350650D02*
X6643991Y-22360174D01*
X6643991Y-22360174D02*
X6653515Y-22379222D01*
X6653515Y-22379222D02*
X6653515Y-22483984D01*
X7043991Y-22274460D02*
X6872563Y-22531603D01*
X7301134Y-22283984D02*
X7320182Y-22283984D01*
X7320182Y-22283984D02*
X7339229Y-22293508D01*
X7339229Y-22293508D02*
X7348753Y-22303031D01*
X7348753Y-22303031D02*
X7358277Y-22322079D01*
X7358277Y-22322079D02*
X7367801Y-22360174D01*
X7367801Y-22360174D02*
X7367801Y-22407793D01*
X7367801Y-22407793D02*
X7358277Y-22445888D01*
X7358277Y-22445888D02*
X7348753Y-22464936D01*
X7348753Y-22464936D02*
X7339229Y-22474460D01*
X7339229Y-22474460D02*
X7320182Y-22483984D01*
X7320182Y-22483984D02*
X7301134Y-22483984D01*
X7301134Y-22483984D02*
X7282086Y-22474460D01*
X7282086Y-22474460D02*
X7272563Y-22464936D01*
X7272563Y-22464936D02*
X7263039Y-22445888D01*
X7263039Y-22445888D02*
X7253515Y-22407793D01*
X7253515Y-22407793D02*
X7253515Y-22360174D01*
X7253515Y-22360174D02*
X7263039Y-22322079D01*
X7263039Y-22322079D02*
X7272563Y-22303031D01*
X7272563Y-22303031D02*
X7282086Y-22293508D01*
X7282086Y-22293508D02*
X7301134Y-22283984D01*
X7453515Y-22464936D02*
X7463039Y-22474460D01*
X7463039Y-22474460D02*
X7453515Y-22483984D01*
X7453515Y-22483984D02*
X7443991Y-22474460D01*
X7443991Y-22474460D02*
X7453515Y-22464936D01*
X7453515Y-22464936D02*
X7453515Y-22483984D01*
X7586848Y-22283984D02*
X7605896Y-22283984D01*
X7605896Y-22283984D02*
X7624944Y-22293508D01*
X7624944Y-22293508D02*
X7634467Y-22303031D01*
X7634467Y-22303031D02*
X7643991Y-22322079D01*
X7643991Y-22322079D02*
X7653515Y-22360174D01*
X7653515Y-22360174D02*
X7653515Y-22407793D01*
X7653515Y-22407793D02*
X7643991Y-22445888D01*
X7643991Y-22445888D02*
X7634467Y-22464936D01*
X7634467Y-22464936D02*
X7624944Y-22474460D01*
X7624944Y-22474460D02*
X7605896Y-22483984D01*
X7605896Y-22483984D02*
X7586848Y-22483984D01*
X7586848Y-22483984D02*
X7567801Y-22474460D01*
X7567801Y-22474460D02*
X7558277Y-22464936D01*
X7558277Y-22464936D02*
X7548753Y-22445888D01*
X7548753Y-22445888D02*
X7539229Y-22407793D01*
X7539229Y-22407793D02*
X7539229Y-22360174D01*
X7539229Y-22360174D02*
X7548753Y-22322079D01*
X7548753Y-22322079D02*
X7558277Y-22303031D01*
X7558277Y-22303031D02*
X7567801Y-22293508D01*
X7567801Y-22293508D02*
X7586848Y-22283984D01*
X7720182Y-22283984D02*
X7843991Y-22283984D01*
X7843991Y-22283984D02*
X7777325Y-22360174D01*
X7777325Y-22360174D02*
X7805896Y-22360174D01*
X7805896Y-22360174D02*
X7824944Y-22369698D01*
X7824944Y-22369698D02*
X7834467Y-22379222D01*
X7834467Y-22379222D02*
X7843991Y-22398269D01*
X7843991Y-22398269D02*
X7843991Y-22445888D01*
X7843991Y-22445888D02*
X7834467Y-22464936D01*
X7834467Y-22464936D02*
X7824944Y-22474460D01*
X7824944Y-22474460D02*
X7805896Y-22483984D01*
X7805896Y-22483984D02*
X7748753Y-22483984D01*
X7748753Y-22483984D02*
X7729706Y-22474460D01*
X7729706Y-22474460D02*
X7720182Y-22464936D01*
X8034467Y-22483984D02*
X7920182Y-22483984D01*
X7977325Y-22483984D02*
X7977325Y-22283984D01*
X7977325Y-22283984D02*
X7958277Y-22312555D01*
X7958277Y-22312555D02*
X7939229Y-22331603D01*
X7939229Y-22331603D02*
X7920182Y-22341127D01*
X8215420Y-22283984D02*
X8120182Y-22283984D01*
X8120182Y-22283984D02*
X8110658Y-22379222D01*
X8110658Y-22379222D02*
X8120182Y-22369698D01*
X8120182Y-22369698D02*
X8139229Y-22360174D01*
X8139229Y-22360174D02*
X8186848Y-22360174D01*
X8186848Y-22360174D02*
X8205896Y-22369698D01*
X8205896Y-22369698D02*
X8215420Y-22379222D01*
X8215420Y-22379222D02*
X8224944Y-22398269D01*
X8224944Y-22398269D02*
X8224944Y-22445888D01*
X8224944Y-22445888D02*
X8215420Y-22464936D01*
X8215420Y-22464936D02*
X8205896Y-22474460D01*
X8205896Y-22474460D02*
X8186848Y-22483984D01*
X8186848Y-22483984D02*
X8139229Y-22483984D01*
X8139229Y-22483984D02*
X8120182Y-22474460D01*
X8120182Y-22474460D02*
X8110658Y-22464936D01*
X8301134Y-22283984D02*
X8301134Y-22322079D01*
X8377325Y-22283984D02*
X8377325Y-22322079D01*
X8672563Y-22560174D02*
X8663039Y-22550650D01*
X8663039Y-22550650D02*
X8643991Y-22522079D01*
X8643991Y-22522079D02*
X8634468Y-22503031D01*
X8634468Y-22503031D02*
X8624944Y-22474460D01*
X8624944Y-22474460D02*
X8615420Y-22426841D01*
X8615420Y-22426841D02*
X8615420Y-22388746D01*
X8615420Y-22388746D02*
X8624944Y-22341127D01*
X8624944Y-22341127D02*
X8634468Y-22312555D01*
X8634468Y-22312555D02*
X8643991Y-22293508D01*
X8643991Y-22293508D02*
X8663039Y-22264936D01*
X8663039Y-22264936D02*
X8672563Y-22255412D01*
X8853515Y-22483984D02*
X8739230Y-22483984D01*
X8796372Y-22483984D02*
X8796372Y-22283984D01*
X8796372Y-22283984D02*
X8777325Y-22312555D01*
X8777325Y-22312555D02*
X8758277Y-22331603D01*
X8758277Y-22331603D02*
X8739230Y-22341127D01*
X9024944Y-22283984D02*
X8986849Y-22283984D01*
X8986849Y-22283984D02*
X8967801Y-22293508D01*
X8967801Y-22293508D02*
X8958277Y-22303031D01*
X8958277Y-22303031D02*
X8939230Y-22331603D01*
X8939230Y-22331603D02*
X8929706Y-22369698D01*
X8929706Y-22369698D02*
X8929706Y-22445888D01*
X8929706Y-22445888D02*
X8939230Y-22464936D01*
X8939230Y-22464936D02*
X8948753Y-22474460D01*
X8948753Y-22474460D02*
X8967801Y-22483984D01*
X8967801Y-22483984D02*
X9005896Y-22483984D01*
X9005896Y-22483984D02*
X9024944Y-22474460D01*
X9024944Y-22474460D02*
X9034468Y-22464936D01*
X9034468Y-22464936D02*
X9043991Y-22445888D01*
X9043991Y-22445888D02*
X9043991Y-22398269D01*
X9043991Y-22398269D02*
X9034468Y-22379222D01*
X9034468Y-22379222D02*
X9024944Y-22369698D01*
X9024944Y-22369698D02*
X9005896Y-22360174D01*
X9005896Y-22360174D02*
X8967801Y-22360174D01*
X8967801Y-22360174D02*
X8948753Y-22369698D01*
X8948753Y-22369698D02*
X8939230Y-22379222D01*
X8939230Y-22379222D02*
X8929706Y-22398269D01*
X9215420Y-22283984D02*
X9177325Y-22283984D01*
X9177325Y-22283984D02*
X9158277Y-22293508D01*
X9158277Y-22293508D02*
X9148753Y-22303031D01*
X9148753Y-22303031D02*
X9129706Y-22331603D01*
X9129706Y-22331603D02*
X9120182Y-22369698D01*
X9120182Y-22369698D02*
X9120182Y-22445888D01*
X9120182Y-22445888D02*
X9129706Y-22464936D01*
X9129706Y-22464936D02*
X9139230Y-22474460D01*
X9139230Y-22474460D02*
X9158277Y-22483984D01*
X9158277Y-22483984D02*
X9196372Y-22483984D01*
X9196372Y-22483984D02*
X9215420Y-22474460D01*
X9215420Y-22474460D02*
X9224944Y-22464936D01*
X9224944Y-22464936D02*
X9234468Y-22445888D01*
X9234468Y-22445888D02*
X9234468Y-22398269D01*
X9234468Y-22398269D02*
X9224944Y-22379222D01*
X9224944Y-22379222D02*
X9215420Y-22369698D01*
X9215420Y-22369698D02*
X9196372Y-22360174D01*
X9196372Y-22360174D02*
X9158277Y-22360174D01*
X9158277Y-22360174D02*
X9139230Y-22369698D01*
X9139230Y-22369698D02*
X9129706Y-22379222D01*
X9129706Y-22379222D02*
X9120182Y-22398269D01*
X9472563Y-22483984D02*
X9472563Y-22283984D01*
X9558277Y-22483984D02*
X9558277Y-22379222D01*
X9558277Y-22379222D02*
X9548753Y-22360174D01*
X9548753Y-22360174D02*
X9529706Y-22350650D01*
X9529706Y-22350650D02*
X9501134Y-22350650D01*
X9501134Y-22350650D02*
X9482087Y-22360174D01*
X9482087Y-22360174D02*
X9472563Y-22369698D01*
X9682087Y-22483984D02*
X9663039Y-22474460D01*
X9663039Y-22474460D02*
X9653515Y-22464936D01*
X9653515Y-22464936D02*
X9643992Y-22445888D01*
X9643992Y-22445888D02*
X9643992Y-22388746D01*
X9643992Y-22388746D02*
X9653515Y-22369698D01*
X9653515Y-22369698D02*
X9663039Y-22360174D01*
X9663039Y-22360174D02*
X9682087Y-22350650D01*
X9682087Y-22350650D02*
X9710658Y-22350650D01*
X9710658Y-22350650D02*
X9729706Y-22360174D01*
X9729706Y-22360174D02*
X9739230Y-22369698D01*
X9739230Y-22369698D02*
X9748753Y-22388746D01*
X9748753Y-22388746D02*
X9748753Y-22445888D01*
X9748753Y-22445888D02*
X9739230Y-22464936D01*
X9739230Y-22464936D02*
X9729706Y-22474460D01*
X9729706Y-22474460D02*
X9710658Y-22483984D01*
X9710658Y-22483984D02*
X9682087Y-22483984D01*
X9863039Y-22483984D02*
X9843992Y-22474460D01*
X9843992Y-22474460D02*
X9834468Y-22455412D01*
X9834468Y-22455412D02*
X9834468Y-22283984D01*
X10015420Y-22474460D02*
X9996373Y-22483984D01*
X9996373Y-22483984D02*
X9958277Y-22483984D01*
X9958277Y-22483984D02*
X9939230Y-22474460D01*
X9939230Y-22474460D02*
X9929706Y-22455412D01*
X9929706Y-22455412D02*
X9929706Y-22379222D01*
X9929706Y-22379222D02*
X9939230Y-22360174D01*
X9939230Y-22360174D02*
X9958277Y-22350650D01*
X9958277Y-22350650D02*
X9996373Y-22350650D01*
X9996373Y-22350650D02*
X10015420Y-22360174D01*
X10015420Y-22360174D02*
X10024944Y-22379222D01*
X10024944Y-22379222D02*
X10024944Y-22398269D01*
X10024944Y-22398269D02*
X9929706Y-22417317D01*
X10101134Y-22474460D02*
X10120182Y-22483984D01*
X10120182Y-22483984D02*
X10158277Y-22483984D01*
X10158277Y-22483984D02*
X10177325Y-22474460D01*
X10177325Y-22474460D02*
X10186849Y-22455412D01*
X10186849Y-22455412D02*
X10186849Y-22445888D01*
X10186849Y-22445888D02*
X10177325Y-22426841D01*
X10177325Y-22426841D02*
X10158277Y-22417317D01*
X10158277Y-22417317D02*
X10129706Y-22417317D01*
X10129706Y-22417317D02*
X10110658Y-22407793D01*
X10110658Y-22407793D02*
X10101134Y-22388746D01*
X10101134Y-22388746D02*
X10101134Y-22379222D01*
X10101134Y-22379222D02*
X10110658Y-22360174D01*
X10110658Y-22360174D02*
X10129706Y-22350650D01*
X10129706Y-22350650D02*
X10158277Y-22350650D01*
X10158277Y-22350650D02*
X10177325Y-22360174D01*
X10253515Y-22560174D02*
X10263039Y-22550650D01*
X10263039Y-22550650D02*
X10282087Y-22522079D01*
X10282087Y-22522079D02*
X10291611Y-22503031D01*
X10291611Y-22503031D02*
X10301134Y-22474460D01*
X10301134Y-22474460D02*
X10310658Y-22426841D01*
X10310658Y-22426841D02*
X10310658Y-22388746D01*
X10310658Y-22388746D02*
X10301134Y-22341127D01*
X10301134Y-22341127D02*
X10291611Y-22312555D01*
X10291611Y-22312555D02*
X10282087Y-22293508D01*
X10282087Y-22293508D02*
X10263039Y-22264936D01*
X10263039Y-22264936D02*
X10253515Y-22255412D01*
D12*
X5097500Y-22656500D02*
G75*
G02*
X4997500Y-22656500I-50000J0D01*
G01*
X4997500Y-22656500D02*
G75*
G02*
X5097500Y-22656500I50000J0D01*
G01*
D11*
X5463039Y-22747984D02*
X5348753Y-22747984D01*
X5405896Y-22747984D02*
X5405896Y-22547984D01*
X5405896Y-22547984D02*
X5386848Y-22576555D01*
X5386848Y-22576555D02*
X5367801Y-22595603D01*
X5367801Y-22595603D02*
X5348753Y-22605127D01*
X5548753Y-22728936D02*
X5558277Y-22738460D01*
X5558277Y-22738460D02*
X5548753Y-22747984D01*
X5548753Y-22747984D02*
X5539229Y-22738460D01*
X5539229Y-22738460D02*
X5548753Y-22728936D01*
X5548753Y-22728936D02*
X5548753Y-22747984D01*
X5682086Y-22547984D02*
X5701134Y-22547984D01*
X5701134Y-22547984D02*
X5720182Y-22557508D01*
X5720182Y-22557508D02*
X5729705Y-22567031D01*
X5729705Y-22567031D02*
X5739229Y-22586079D01*
X5739229Y-22586079D02*
X5748753Y-22624174D01*
X5748753Y-22624174D02*
X5748753Y-22671793D01*
X5748753Y-22671793D02*
X5739229Y-22709888D01*
X5739229Y-22709888D02*
X5729705Y-22728936D01*
X5729705Y-22728936D02*
X5720182Y-22738460D01*
X5720182Y-22738460D02*
X5701134Y-22747984D01*
X5701134Y-22747984D02*
X5682086Y-22747984D01*
X5682086Y-22747984D02*
X5663039Y-22738460D01*
X5663039Y-22738460D02*
X5653515Y-22728936D01*
X5653515Y-22728936D02*
X5643991Y-22709888D01*
X5643991Y-22709888D02*
X5634467Y-22671793D01*
X5634467Y-22671793D02*
X5634467Y-22624174D01*
X5634467Y-22624174D02*
X5643991Y-22586079D01*
X5643991Y-22586079D02*
X5653515Y-22567031D01*
X5653515Y-22567031D02*
X5663039Y-22557508D01*
X5663039Y-22557508D02*
X5682086Y-22547984D01*
X5872562Y-22547984D02*
X5891610Y-22547984D01*
X5891610Y-22547984D02*
X5910658Y-22557508D01*
X5910658Y-22557508D02*
X5920182Y-22567031D01*
X5920182Y-22567031D02*
X5929705Y-22586079D01*
X5929705Y-22586079D02*
X5939229Y-22624174D01*
X5939229Y-22624174D02*
X5939229Y-22671793D01*
X5939229Y-22671793D02*
X5929705Y-22709888D01*
X5929705Y-22709888D02*
X5920182Y-22728936D01*
X5920182Y-22728936D02*
X5910658Y-22738460D01*
X5910658Y-22738460D02*
X5891610Y-22747984D01*
X5891610Y-22747984D02*
X5872562Y-22747984D01*
X5872562Y-22747984D02*
X5853515Y-22738460D01*
X5853515Y-22738460D02*
X5843991Y-22728936D01*
X5843991Y-22728936D02*
X5834467Y-22709888D01*
X5834467Y-22709888D02*
X5824943Y-22671793D01*
X5824943Y-22671793D02*
X5824943Y-22624174D01*
X5824943Y-22624174D02*
X5834467Y-22586079D01*
X5834467Y-22586079D02*
X5843991Y-22567031D01*
X5843991Y-22567031D02*
X5853515Y-22557508D01*
X5853515Y-22557508D02*
X5872562Y-22547984D01*
X6063039Y-22547984D02*
X6082086Y-22547984D01*
X6082086Y-22547984D02*
X6101134Y-22557508D01*
X6101134Y-22557508D02*
X6110658Y-22567031D01*
X6110658Y-22567031D02*
X6120182Y-22586079D01*
X6120182Y-22586079D02*
X6129705Y-22624174D01*
X6129705Y-22624174D02*
X6129705Y-22671793D01*
X6129705Y-22671793D02*
X6120182Y-22709888D01*
X6120182Y-22709888D02*
X6110658Y-22728936D01*
X6110658Y-22728936D02*
X6101134Y-22738460D01*
X6101134Y-22738460D02*
X6082086Y-22747984D01*
X6082086Y-22747984D02*
X6063039Y-22747984D01*
X6063039Y-22747984D02*
X6043991Y-22738460D01*
X6043991Y-22738460D02*
X6034467Y-22728936D01*
X6034467Y-22728936D02*
X6024943Y-22709888D01*
X6024943Y-22709888D02*
X6015420Y-22671793D01*
X6015420Y-22671793D02*
X6015420Y-22624174D01*
X6015420Y-22624174D02*
X6024943Y-22586079D01*
X6024943Y-22586079D02*
X6034467Y-22567031D01*
X6034467Y-22567031D02*
X6043991Y-22557508D01*
X6043991Y-22557508D02*
X6063039Y-22547984D01*
X6215420Y-22747984D02*
X6215420Y-22614650D01*
X6215420Y-22633698D02*
X6224943Y-22624174D01*
X6224943Y-22624174D02*
X6243991Y-22614650D01*
X6243991Y-22614650D02*
X6272563Y-22614650D01*
X6272563Y-22614650D02*
X6291610Y-22624174D01*
X6291610Y-22624174D02*
X6301134Y-22643222D01*
X6301134Y-22643222D02*
X6301134Y-22747984D01*
X6301134Y-22643222D02*
X6310658Y-22624174D01*
X6310658Y-22624174D02*
X6329705Y-22614650D01*
X6329705Y-22614650D02*
X6358277Y-22614650D01*
X6358277Y-22614650D02*
X6377324Y-22624174D01*
X6377324Y-22624174D02*
X6386848Y-22643222D01*
X6386848Y-22643222D02*
X6386848Y-22747984D01*
X6482086Y-22747984D02*
X6482086Y-22614650D01*
X6482086Y-22633698D02*
X6491610Y-22624174D01*
X6491610Y-22624174D02*
X6510658Y-22614650D01*
X6510658Y-22614650D02*
X6539229Y-22614650D01*
X6539229Y-22614650D02*
X6558277Y-22624174D01*
X6558277Y-22624174D02*
X6567801Y-22643222D01*
X6567801Y-22643222D02*
X6567801Y-22747984D01*
X6567801Y-22643222D02*
X6577324Y-22624174D01*
X6577324Y-22624174D02*
X6596372Y-22614650D01*
X6596372Y-22614650D02*
X6624943Y-22614650D01*
X6624943Y-22614650D02*
X6643991Y-22624174D01*
X6643991Y-22624174D02*
X6653515Y-22643222D01*
X6653515Y-22643222D02*
X6653515Y-22747984D01*
X7043991Y-22538460D02*
X6872563Y-22795603D01*
X7301134Y-22547984D02*
X7320182Y-22547984D01*
X7320182Y-22547984D02*
X7339229Y-22557508D01*
X7339229Y-22557508D02*
X7348753Y-22567031D01*
X7348753Y-22567031D02*
X7358277Y-22586079D01*
X7358277Y-22586079D02*
X7367801Y-22624174D01*
X7367801Y-22624174D02*
X7367801Y-22671793D01*
X7367801Y-22671793D02*
X7358277Y-22709888D01*
X7358277Y-22709888D02*
X7348753Y-22728936D01*
X7348753Y-22728936D02*
X7339229Y-22738460D01*
X7339229Y-22738460D02*
X7320182Y-22747984D01*
X7320182Y-22747984D02*
X7301134Y-22747984D01*
X7301134Y-22747984D02*
X7282086Y-22738460D01*
X7282086Y-22738460D02*
X7272563Y-22728936D01*
X7272563Y-22728936D02*
X7263039Y-22709888D01*
X7263039Y-22709888D02*
X7253515Y-22671793D01*
X7253515Y-22671793D02*
X7253515Y-22624174D01*
X7253515Y-22624174D02*
X7263039Y-22586079D01*
X7263039Y-22586079D02*
X7272563Y-22567031D01*
X7272563Y-22567031D02*
X7282086Y-22557508D01*
X7282086Y-22557508D02*
X7301134Y-22547984D01*
X7453515Y-22728936D02*
X7463039Y-22738460D01*
X7463039Y-22738460D02*
X7453515Y-22747984D01*
X7453515Y-22747984D02*
X7443991Y-22738460D01*
X7443991Y-22738460D02*
X7453515Y-22728936D01*
X7453515Y-22728936D02*
X7453515Y-22747984D01*
X7586848Y-22547984D02*
X7605896Y-22547984D01*
X7605896Y-22547984D02*
X7624944Y-22557508D01*
X7624944Y-22557508D02*
X7634467Y-22567031D01*
X7634467Y-22567031D02*
X7643991Y-22586079D01*
X7643991Y-22586079D02*
X7653515Y-22624174D01*
X7653515Y-22624174D02*
X7653515Y-22671793D01*
X7653515Y-22671793D02*
X7643991Y-22709888D01*
X7643991Y-22709888D02*
X7634467Y-22728936D01*
X7634467Y-22728936D02*
X7624944Y-22738460D01*
X7624944Y-22738460D02*
X7605896Y-22747984D01*
X7605896Y-22747984D02*
X7586848Y-22747984D01*
X7586848Y-22747984D02*
X7567801Y-22738460D01*
X7567801Y-22738460D02*
X7558277Y-22728936D01*
X7558277Y-22728936D02*
X7548753Y-22709888D01*
X7548753Y-22709888D02*
X7539229Y-22671793D01*
X7539229Y-22671793D02*
X7539229Y-22624174D01*
X7539229Y-22624174D02*
X7548753Y-22586079D01*
X7548753Y-22586079D02*
X7558277Y-22567031D01*
X7558277Y-22567031D02*
X7567801Y-22557508D01*
X7567801Y-22557508D02*
X7586848Y-22547984D01*
X7720182Y-22547984D02*
X7843991Y-22547984D01*
X7843991Y-22547984D02*
X7777325Y-22624174D01*
X7777325Y-22624174D02*
X7805896Y-22624174D01*
X7805896Y-22624174D02*
X7824944Y-22633698D01*
X7824944Y-22633698D02*
X7834467Y-22643222D01*
X7834467Y-22643222D02*
X7843991Y-22662269D01*
X7843991Y-22662269D02*
X7843991Y-22709888D01*
X7843991Y-22709888D02*
X7834467Y-22728936D01*
X7834467Y-22728936D02*
X7824944Y-22738460D01*
X7824944Y-22738460D02*
X7805896Y-22747984D01*
X7805896Y-22747984D02*
X7748753Y-22747984D01*
X7748753Y-22747984D02*
X7729706Y-22738460D01*
X7729706Y-22738460D02*
X7720182Y-22728936D01*
X7939229Y-22747984D02*
X7977325Y-22747984D01*
X7977325Y-22747984D02*
X7996372Y-22738460D01*
X7996372Y-22738460D02*
X8005896Y-22728936D01*
X8005896Y-22728936D02*
X8024944Y-22700365D01*
X8024944Y-22700365D02*
X8034467Y-22662269D01*
X8034467Y-22662269D02*
X8034467Y-22586079D01*
X8034467Y-22586079D02*
X8024944Y-22567031D01*
X8024944Y-22567031D02*
X8015420Y-22557508D01*
X8015420Y-22557508D02*
X7996372Y-22547984D01*
X7996372Y-22547984D02*
X7958277Y-22547984D01*
X7958277Y-22547984D02*
X7939229Y-22557508D01*
X7939229Y-22557508D02*
X7929706Y-22567031D01*
X7929706Y-22567031D02*
X7920182Y-22586079D01*
X7920182Y-22586079D02*
X7920182Y-22633698D01*
X7920182Y-22633698D02*
X7929706Y-22652746D01*
X7929706Y-22652746D02*
X7939229Y-22662269D01*
X7939229Y-22662269D02*
X7958277Y-22671793D01*
X7958277Y-22671793D02*
X7996372Y-22671793D01*
X7996372Y-22671793D02*
X8015420Y-22662269D01*
X8015420Y-22662269D02*
X8024944Y-22652746D01*
X8024944Y-22652746D02*
X8034467Y-22633698D01*
X8205896Y-22614650D02*
X8205896Y-22747984D01*
X8158277Y-22538460D02*
X8110658Y-22681317D01*
X8110658Y-22681317D02*
X8234467Y-22681317D01*
X8301134Y-22547984D02*
X8301134Y-22586079D01*
X8377325Y-22547984D02*
X8377325Y-22586079D01*
X8672563Y-22824174D02*
X8663039Y-22814650D01*
X8663039Y-22814650D02*
X8643991Y-22786079D01*
X8643991Y-22786079D02*
X8634468Y-22767031D01*
X8634468Y-22767031D02*
X8624944Y-22738460D01*
X8624944Y-22738460D02*
X8615420Y-22690841D01*
X8615420Y-22690841D02*
X8615420Y-22652746D01*
X8615420Y-22652746D02*
X8624944Y-22605127D01*
X8624944Y-22605127D02*
X8634468Y-22576555D01*
X8634468Y-22576555D02*
X8643991Y-22557508D01*
X8643991Y-22557508D02*
X8663039Y-22528936D01*
X8663039Y-22528936D02*
X8672563Y-22519412D01*
X8729706Y-22547984D02*
X8853515Y-22547984D01*
X8853515Y-22547984D02*
X8786849Y-22624174D01*
X8786849Y-22624174D02*
X8815420Y-22624174D01*
X8815420Y-22624174D02*
X8834468Y-22633698D01*
X8834468Y-22633698D02*
X8843991Y-22643222D01*
X8843991Y-22643222D02*
X8853515Y-22662269D01*
X8853515Y-22662269D02*
X8853515Y-22709888D01*
X8853515Y-22709888D02*
X8843991Y-22728936D01*
X8843991Y-22728936D02*
X8834468Y-22738460D01*
X8834468Y-22738460D02*
X8815420Y-22747984D01*
X8815420Y-22747984D02*
X8758277Y-22747984D01*
X8758277Y-22747984D02*
X8739230Y-22738460D01*
X8739230Y-22738460D02*
X8729706Y-22728936D01*
X9024944Y-22547984D02*
X8986849Y-22547984D01*
X8986849Y-22547984D02*
X8967801Y-22557508D01*
X8967801Y-22557508D02*
X8958277Y-22567031D01*
X8958277Y-22567031D02*
X8939230Y-22595603D01*
X8939230Y-22595603D02*
X8929706Y-22633698D01*
X8929706Y-22633698D02*
X8929706Y-22709888D01*
X8929706Y-22709888D02*
X8939230Y-22728936D01*
X8939230Y-22728936D02*
X8948753Y-22738460D01*
X8948753Y-22738460D02*
X8967801Y-22747984D01*
X8967801Y-22747984D02*
X9005896Y-22747984D01*
X9005896Y-22747984D02*
X9024944Y-22738460D01*
X9024944Y-22738460D02*
X9034468Y-22728936D01*
X9034468Y-22728936D02*
X9043991Y-22709888D01*
X9043991Y-22709888D02*
X9043991Y-22662269D01*
X9043991Y-22662269D02*
X9034468Y-22643222D01*
X9034468Y-22643222D02*
X9024944Y-22633698D01*
X9024944Y-22633698D02*
X9005896Y-22624174D01*
X9005896Y-22624174D02*
X8967801Y-22624174D01*
X8967801Y-22624174D02*
X8948753Y-22633698D01*
X8948753Y-22633698D02*
X8939230Y-22643222D01*
X8939230Y-22643222D02*
X8929706Y-22662269D01*
X9282087Y-22747984D02*
X9282087Y-22547984D01*
X9367801Y-22747984D02*
X9367801Y-22643222D01*
X9367801Y-22643222D02*
X9358277Y-22624174D01*
X9358277Y-22624174D02*
X9339230Y-22614650D01*
X9339230Y-22614650D02*
X9310658Y-22614650D01*
X9310658Y-22614650D02*
X9291611Y-22624174D01*
X9291611Y-22624174D02*
X9282087Y-22633698D01*
X9491611Y-22747984D02*
X9472563Y-22738460D01*
X9472563Y-22738460D02*
X9463039Y-22728936D01*
X9463039Y-22728936D02*
X9453515Y-22709888D01*
X9453515Y-22709888D02*
X9453515Y-22652746D01*
X9453515Y-22652746D02*
X9463039Y-22633698D01*
X9463039Y-22633698D02*
X9472563Y-22624174D01*
X9472563Y-22624174D02*
X9491611Y-22614650D01*
X9491611Y-22614650D02*
X9520182Y-22614650D01*
X9520182Y-22614650D02*
X9539230Y-22624174D01*
X9539230Y-22624174D02*
X9548753Y-22633698D01*
X9548753Y-22633698D02*
X9558277Y-22652746D01*
X9558277Y-22652746D02*
X9558277Y-22709888D01*
X9558277Y-22709888D02*
X9548753Y-22728936D01*
X9548753Y-22728936D02*
X9539230Y-22738460D01*
X9539230Y-22738460D02*
X9520182Y-22747984D01*
X9520182Y-22747984D02*
X9491611Y-22747984D01*
X9672563Y-22747984D02*
X9653515Y-22738460D01*
X9653515Y-22738460D02*
X9643992Y-22719412D01*
X9643992Y-22719412D02*
X9643992Y-22547984D01*
X9824944Y-22738460D02*
X9805896Y-22747984D01*
X9805896Y-22747984D02*
X9767801Y-22747984D01*
X9767801Y-22747984D02*
X9748753Y-22738460D01*
X9748753Y-22738460D02*
X9739230Y-22719412D01*
X9739230Y-22719412D02*
X9739230Y-22643222D01*
X9739230Y-22643222D02*
X9748753Y-22624174D01*
X9748753Y-22624174D02*
X9767801Y-22614650D01*
X9767801Y-22614650D02*
X9805896Y-22614650D01*
X9805896Y-22614650D02*
X9824944Y-22624174D01*
X9824944Y-22624174D02*
X9834468Y-22643222D01*
X9834468Y-22643222D02*
X9834468Y-22662269D01*
X9834468Y-22662269D02*
X9739230Y-22681317D01*
X9910658Y-22738460D02*
X9929706Y-22747984D01*
X9929706Y-22747984D02*
X9967801Y-22747984D01*
X9967801Y-22747984D02*
X9986849Y-22738460D01*
X9986849Y-22738460D02*
X9996373Y-22719412D01*
X9996373Y-22719412D02*
X9996373Y-22709888D01*
X9996373Y-22709888D02*
X9986849Y-22690841D01*
X9986849Y-22690841D02*
X9967801Y-22681317D01*
X9967801Y-22681317D02*
X9939230Y-22681317D01*
X9939230Y-22681317D02*
X9920182Y-22671793D01*
X9920182Y-22671793D02*
X9910658Y-22652746D01*
X9910658Y-22652746D02*
X9910658Y-22643222D01*
X9910658Y-22643222D02*
X9920182Y-22624174D01*
X9920182Y-22624174D02*
X9939230Y-22614650D01*
X9939230Y-22614650D02*
X9967801Y-22614650D01*
X9967801Y-22614650D02*
X9986849Y-22624174D01*
X10234468Y-22671793D02*
X10386849Y-22671793D01*
X10310658Y-22747984D02*
X10310658Y-22595603D01*
X10624944Y-22567031D02*
X10634468Y-22557508D01*
X10634468Y-22557508D02*
X10653515Y-22547984D01*
X10653515Y-22547984D02*
X10701135Y-22547984D01*
X10701135Y-22547984D02*
X10720182Y-22557508D01*
X10720182Y-22557508D02*
X10729706Y-22567031D01*
X10729706Y-22567031D02*
X10739230Y-22586079D01*
X10739230Y-22586079D02*
X10739230Y-22605127D01*
X10739230Y-22605127D02*
X10729706Y-22633698D01*
X10729706Y-22633698D02*
X10615420Y-22747984D01*
X10615420Y-22747984D02*
X10739230Y-22747984D01*
X10805896Y-22547984D02*
X10939230Y-22547984D01*
X10939230Y-22547984D02*
X10853515Y-22747984D01*
X11158277Y-22738460D02*
X11177325Y-22747984D01*
X11177325Y-22747984D02*
X11215420Y-22747984D01*
X11215420Y-22747984D02*
X11234468Y-22738460D01*
X11234468Y-22738460D02*
X11243992Y-22719412D01*
X11243992Y-22719412D02*
X11243992Y-22709888D01*
X11243992Y-22709888D02*
X11234468Y-22690841D01*
X11234468Y-22690841D02*
X11215420Y-22681317D01*
X11215420Y-22681317D02*
X11186849Y-22681317D01*
X11186849Y-22681317D02*
X11167801Y-22671793D01*
X11167801Y-22671793D02*
X11158277Y-22652746D01*
X11158277Y-22652746D02*
X11158277Y-22643222D01*
X11158277Y-22643222D02*
X11167801Y-22624174D01*
X11167801Y-22624174D02*
X11186849Y-22614650D01*
X11186849Y-22614650D02*
X11215420Y-22614650D01*
X11215420Y-22614650D02*
X11234468Y-22624174D01*
X11358277Y-22747984D02*
X11339230Y-22738460D01*
X11339230Y-22738460D02*
X11329706Y-22719412D01*
X11329706Y-22719412D02*
X11329706Y-22547984D01*
X11463039Y-22747984D02*
X11443992Y-22738460D01*
X11443992Y-22738460D02*
X11434468Y-22728936D01*
X11434468Y-22728936D02*
X11424944Y-22709888D01*
X11424944Y-22709888D02*
X11424944Y-22652746D01*
X11424944Y-22652746D02*
X11434468Y-22633698D01*
X11434468Y-22633698D02*
X11443992Y-22624174D01*
X11443992Y-22624174D02*
X11463039Y-22614650D01*
X11463039Y-22614650D02*
X11491611Y-22614650D01*
X11491611Y-22614650D02*
X11510658Y-22624174D01*
X11510658Y-22624174D02*
X11520182Y-22633698D01*
X11520182Y-22633698D02*
X11529706Y-22652746D01*
X11529706Y-22652746D02*
X11529706Y-22709888D01*
X11529706Y-22709888D02*
X11520182Y-22728936D01*
X11520182Y-22728936D02*
X11510658Y-22738460D01*
X11510658Y-22738460D02*
X11491611Y-22747984D01*
X11491611Y-22747984D02*
X11463039Y-22747984D01*
X11586849Y-22614650D02*
X11663039Y-22614650D01*
X11615420Y-22547984D02*
X11615420Y-22719412D01*
X11615420Y-22719412D02*
X11624944Y-22738460D01*
X11624944Y-22738460D02*
X11643992Y-22747984D01*
X11643992Y-22747984D02*
X11663039Y-22747984D01*
X11720182Y-22738460D02*
X11739230Y-22747984D01*
X11739230Y-22747984D02*
X11777325Y-22747984D01*
X11777325Y-22747984D02*
X11796373Y-22738460D01*
X11796373Y-22738460D02*
X11805896Y-22719412D01*
X11805896Y-22719412D02*
X11805896Y-22709888D01*
X11805896Y-22709888D02*
X11796373Y-22690841D01*
X11796373Y-22690841D02*
X11777325Y-22681317D01*
X11777325Y-22681317D02*
X11748754Y-22681317D01*
X11748754Y-22681317D02*
X11729706Y-22671793D01*
X11729706Y-22671793D02*
X11720182Y-22652746D01*
X11720182Y-22652746D02*
X11720182Y-22643222D01*
X11720182Y-22643222D02*
X11729706Y-22624174D01*
X11729706Y-22624174D02*
X11748754Y-22614650D01*
X11748754Y-22614650D02*
X11777325Y-22614650D01*
X11777325Y-22614650D02*
X11796373Y-22624174D01*
X11872563Y-22824174D02*
X11882087Y-22814650D01*
X11882087Y-22814650D02*
X11901135Y-22786079D01*
X11901135Y-22786079D02*
X11910658Y-22767031D01*
X11910658Y-22767031D02*
X11920182Y-22738460D01*
X11920182Y-22738460D02*
X11929706Y-22690841D01*
X11929706Y-22690841D02*
X11929706Y-22652746D01*
X11929706Y-22652746D02*
X11920182Y-22605127D01*
X11920182Y-22605127D02*
X11910658Y-22576555D01*
X11910658Y-22576555D02*
X11901135Y-22557508D01*
X11901135Y-22557508D02*
X11882087Y-22528936D01*
X11882087Y-22528936D02*
X11872563Y-22519412D01*
D13*
X5042500Y-22865500D02*
X5042500Y-22975500D01*
X4987500Y-22920500D02*
X5097500Y-22920500D01*
D11*
X5463039Y-23011984D02*
X5348753Y-23011984D01*
X5405896Y-23011984D02*
X5405896Y-22811984D01*
X5405896Y-22811984D02*
X5386848Y-22840555D01*
X5386848Y-22840555D02*
X5367801Y-22859603D01*
X5367801Y-22859603D02*
X5348753Y-22869127D01*
X5548753Y-22992936D02*
X5558277Y-23002460D01*
X5558277Y-23002460D02*
X5548753Y-23011984D01*
X5548753Y-23011984D02*
X5539229Y-23002460D01*
X5539229Y-23002460D02*
X5548753Y-22992936D01*
X5548753Y-22992936D02*
X5548753Y-23011984D01*
X5748753Y-23011984D02*
X5634467Y-23011984D01*
X5691610Y-23011984D02*
X5691610Y-22811984D01*
X5691610Y-22811984D02*
X5672562Y-22840555D01*
X5672562Y-22840555D02*
X5653515Y-22859603D01*
X5653515Y-22859603D02*
X5634467Y-22869127D01*
X5872562Y-22811984D02*
X5891610Y-22811984D01*
X5891610Y-22811984D02*
X5910658Y-22821508D01*
X5910658Y-22821508D02*
X5920182Y-22831031D01*
X5920182Y-22831031D02*
X5929705Y-22850079D01*
X5929705Y-22850079D02*
X5939229Y-22888174D01*
X5939229Y-22888174D02*
X5939229Y-22935793D01*
X5939229Y-22935793D02*
X5929705Y-22973888D01*
X5929705Y-22973888D02*
X5920182Y-22992936D01*
X5920182Y-22992936D02*
X5910658Y-23002460D01*
X5910658Y-23002460D02*
X5891610Y-23011984D01*
X5891610Y-23011984D02*
X5872562Y-23011984D01*
X5872562Y-23011984D02*
X5853515Y-23002460D01*
X5853515Y-23002460D02*
X5843991Y-22992936D01*
X5843991Y-22992936D02*
X5834467Y-22973888D01*
X5834467Y-22973888D02*
X5824943Y-22935793D01*
X5824943Y-22935793D02*
X5824943Y-22888174D01*
X5824943Y-22888174D02*
X5834467Y-22850079D01*
X5834467Y-22850079D02*
X5843991Y-22831031D01*
X5843991Y-22831031D02*
X5853515Y-22821508D01*
X5853515Y-22821508D02*
X5872562Y-22811984D01*
X6063039Y-22811984D02*
X6082086Y-22811984D01*
X6082086Y-22811984D02*
X6101134Y-22821508D01*
X6101134Y-22821508D02*
X6110658Y-22831031D01*
X6110658Y-22831031D02*
X6120182Y-22850079D01*
X6120182Y-22850079D02*
X6129705Y-22888174D01*
X6129705Y-22888174D02*
X6129705Y-22935793D01*
X6129705Y-22935793D02*
X6120182Y-22973888D01*
X6120182Y-22973888D02*
X6110658Y-22992936D01*
X6110658Y-22992936D02*
X6101134Y-23002460D01*
X6101134Y-23002460D02*
X6082086Y-23011984D01*
X6082086Y-23011984D02*
X6063039Y-23011984D01*
X6063039Y-23011984D02*
X6043991Y-23002460D01*
X6043991Y-23002460D02*
X6034467Y-22992936D01*
X6034467Y-22992936D02*
X6024943Y-22973888D01*
X6024943Y-22973888D02*
X6015420Y-22935793D01*
X6015420Y-22935793D02*
X6015420Y-22888174D01*
X6015420Y-22888174D02*
X6024943Y-22850079D01*
X6024943Y-22850079D02*
X6034467Y-22831031D01*
X6034467Y-22831031D02*
X6043991Y-22821508D01*
X6043991Y-22821508D02*
X6063039Y-22811984D01*
X6215420Y-23011984D02*
X6215420Y-22878650D01*
X6215420Y-22897698D02*
X6224943Y-22888174D01*
X6224943Y-22888174D02*
X6243991Y-22878650D01*
X6243991Y-22878650D02*
X6272563Y-22878650D01*
X6272563Y-22878650D02*
X6291610Y-22888174D01*
X6291610Y-22888174D02*
X6301134Y-22907222D01*
X6301134Y-22907222D02*
X6301134Y-23011984D01*
X6301134Y-22907222D02*
X6310658Y-22888174D01*
X6310658Y-22888174D02*
X6329705Y-22878650D01*
X6329705Y-22878650D02*
X6358277Y-22878650D01*
X6358277Y-22878650D02*
X6377324Y-22888174D01*
X6377324Y-22888174D02*
X6386848Y-22907222D01*
X6386848Y-22907222D02*
X6386848Y-23011984D01*
X6482086Y-23011984D02*
X6482086Y-22878650D01*
X6482086Y-22897698D02*
X6491610Y-22888174D01*
X6491610Y-22888174D02*
X6510658Y-22878650D01*
X6510658Y-22878650D02*
X6539229Y-22878650D01*
X6539229Y-22878650D02*
X6558277Y-22888174D01*
X6558277Y-22888174D02*
X6567801Y-22907222D01*
X6567801Y-22907222D02*
X6567801Y-23011984D01*
X6567801Y-22907222D02*
X6577324Y-22888174D01*
X6577324Y-22888174D02*
X6596372Y-22878650D01*
X6596372Y-22878650D02*
X6624943Y-22878650D01*
X6624943Y-22878650D02*
X6643991Y-22888174D01*
X6643991Y-22888174D02*
X6653515Y-22907222D01*
X6653515Y-22907222D02*
X6653515Y-23011984D01*
X7043991Y-22802460D02*
X6872563Y-23059603D01*
X7301134Y-22811984D02*
X7320182Y-22811984D01*
X7320182Y-22811984D02*
X7339229Y-22821508D01*
X7339229Y-22821508D02*
X7348753Y-22831031D01*
X7348753Y-22831031D02*
X7358277Y-22850079D01*
X7358277Y-22850079D02*
X7367801Y-22888174D01*
X7367801Y-22888174D02*
X7367801Y-22935793D01*
X7367801Y-22935793D02*
X7358277Y-22973888D01*
X7358277Y-22973888D02*
X7348753Y-22992936D01*
X7348753Y-22992936D02*
X7339229Y-23002460D01*
X7339229Y-23002460D02*
X7320182Y-23011984D01*
X7320182Y-23011984D02*
X7301134Y-23011984D01*
X7301134Y-23011984D02*
X7282086Y-23002460D01*
X7282086Y-23002460D02*
X7272563Y-22992936D01*
X7272563Y-22992936D02*
X7263039Y-22973888D01*
X7263039Y-22973888D02*
X7253515Y-22935793D01*
X7253515Y-22935793D02*
X7253515Y-22888174D01*
X7253515Y-22888174D02*
X7263039Y-22850079D01*
X7263039Y-22850079D02*
X7272563Y-22831031D01*
X7272563Y-22831031D02*
X7282086Y-22821508D01*
X7282086Y-22821508D02*
X7301134Y-22811984D01*
X7453515Y-22992936D02*
X7463039Y-23002460D01*
X7463039Y-23002460D02*
X7453515Y-23011984D01*
X7453515Y-23011984D02*
X7443991Y-23002460D01*
X7443991Y-23002460D02*
X7453515Y-22992936D01*
X7453515Y-22992936D02*
X7453515Y-23011984D01*
X7586848Y-22811984D02*
X7605896Y-22811984D01*
X7605896Y-22811984D02*
X7624944Y-22821508D01*
X7624944Y-22821508D02*
X7634467Y-22831031D01*
X7634467Y-22831031D02*
X7643991Y-22850079D01*
X7643991Y-22850079D02*
X7653515Y-22888174D01*
X7653515Y-22888174D02*
X7653515Y-22935793D01*
X7653515Y-22935793D02*
X7643991Y-22973888D01*
X7643991Y-22973888D02*
X7634467Y-22992936D01*
X7634467Y-22992936D02*
X7624944Y-23002460D01*
X7624944Y-23002460D02*
X7605896Y-23011984D01*
X7605896Y-23011984D02*
X7586848Y-23011984D01*
X7586848Y-23011984D02*
X7567801Y-23002460D01*
X7567801Y-23002460D02*
X7558277Y-22992936D01*
X7558277Y-22992936D02*
X7548753Y-22973888D01*
X7548753Y-22973888D02*
X7539229Y-22935793D01*
X7539229Y-22935793D02*
X7539229Y-22888174D01*
X7539229Y-22888174D02*
X7548753Y-22850079D01*
X7548753Y-22850079D02*
X7558277Y-22831031D01*
X7558277Y-22831031D02*
X7567801Y-22821508D01*
X7567801Y-22821508D02*
X7586848Y-22811984D01*
X7824944Y-22878650D02*
X7824944Y-23011984D01*
X7777325Y-22802460D02*
X7729706Y-22945317D01*
X7729706Y-22945317D02*
X7853515Y-22945317D01*
X7910658Y-22811984D02*
X8034467Y-22811984D01*
X8034467Y-22811984D02*
X7967801Y-22888174D01*
X7967801Y-22888174D02*
X7996372Y-22888174D01*
X7996372Y-22888174D02*
X8015420Y-22897698D01*
X8015420Y-22897698D02*
X8024944Y-22907222D01*
X8024944Y-22907222D02*
X8034467Y-22926269D01*
X8034467Y-22926269D02*
X8034467Y-22973888D01*
X8034467Y-22973888D02*
X8024944Y-22992936D01*
X8024944Y-22992936D02*
X8015420Y-23002460D01*
X8015420Y-23002460D02*
X7996372Y-23011984D01*
X7996372Y-23011984D02*
X7939229Y-23011984D01*
X7939229Y-23011984D02*
X7920182Y-23002460D01*
X7920182Y-23002460D02*
X7910658Y-22992936D01*
X8101134Y-22811984D02*
X8224944Y-22811984D01*
X8224944Y-22811984D02*
X8158277Y-22888174D01*
X8158277Y-22888174D02*
X8186848Y-22888174D01*
X8186848Y-22888174D02*
X8205896Y-22897698D01*
X8205896Y-22897698D02*
X8215420Y-22907222D01*
X8215420Y-22907222D02*
X8224944Y-22926269D01*
X8224944Y-22926269D02*
X8224944Y-22973888D01*
X8224944Y-22973888D02*
X8215420Y-22992936D01*
X8215420Y-22992936D02*
X8205896Y-23002460D01*
X8205896Y-23002460D02*
X8186848Y-23011984D01*
X8186848Y-23011984D02*
X8129706Y-23011984D01*
X8129706Y-23011984D02*
X8110658Y-23002460D01*
X8110658Y-23002460D02*
X8101134Y-22992936D01*
X8301134Y-22811984D02*
X8301134Y-22850079D01*
X8377325Y-22811984D02*
X8377325Y-22850079D01*
X8672563Y-23088174D02*
X8663039Y-23078650D01*
X8663039Y-23078650D02*
X8643991Y-23050079D01*
X8643991Y-23050079D02*
X8634468Y-23031031D01*
X8634468Y-23031031D02*
X8624944Y-23002460D01*
X8624944Y-23002460D02*
X8615420Y-22954841D01*
X8615420Y-22954841D02*
X8615420Y-22916746D01*
X8615420Y-22916746D02*
X8624944Y-22869127D01*
X8624944Y-22869127D02*
X8634468Y-22840555D01*
X8634468Y-22840555D02*
X8643991Y-22821508D01*
X8643991Y-22821508D02*
X8663039Y-22792936D01*
X8663039Y-22792936D02*
X8672563Y-22783412D01*
X8834468Y-22878650D02*
X8834468Y-23011984D01*
X8786849Y-22802460D02*
X8739230Y-22945317D01*
X8739230Y-22945317D02*
X8863039Y-22945317D01*
X9091611Y-23011984D02*
X9091611Y-22811984D01*
X9177325Y-23011984D02*
X9177325Y-22907222D01*
X9177325Y-22907222D02*
X9167801Y-22888174D01*
X9167801Y-22888174D02*
X9148753Y-22878650D01*
X9148753Y-22878650D02*
X9120182Y-22878650D01*
X9120182Y-22878650D02*
X9101134Y-22888174D01*
X9101134Y-22888174D02*
X9091611Y-22897698D01*
X9301134Y-23011984D02*
X9282087Y-23002460D01*
X9282087Y-23002460D02*
X9272563Y-22992936D01*
X9272563Y-22992936D02*
X9263039Y-22973888D01*
X9263039Y-22973888D02*
X9263039Y-22916746D01*
X9263039Y-22916746D02*
X9272563Y-22897698D01*
X9272563Y-22897698D02*
X9282087Y-22888174D01*
X9282087Y-22888174D02*
X9301134Y-22878650D01*
X9301134Y-22878650D02*
X9329706Y-22878650D01*
X9329706Y-22878650D02*
X9348753Y-22888174D01*
X9348753Y-22888174D02*
X9358277Y-22897698D01*
X9358277Y-22897698D02*
X9367801Y-22916746D01*
X9367801Y-22916746D02*
X9367801Y-22973888D01*
X9367801Y-22973888D02*
X9358277Y-22992936D01*
X9358277Y-22992936D02*
X9348753Y-23002460D01*
X9348753Y-23002460D02*
X9329706Y-23011984D01*
X9329706Y-23011984D02*
X9301134Y-23011984D01*
X9482087Y-23011984D02*
X9463039Y-23002460D01*
X9463039Y-23002460D02*
X9453515Y-22983412D01*
X9453515Y-22983412D02*
X9453515Y-22811984D01*
X9634468Y-23002460D02*
X9615420Y-23011984D01*
X9615420Y-23011984D02*
X9577325Y-23011984D01*
X9577325Y-23011984D02*
X9558277Y-23002460D01*
X9558277Y-23002460D02*
X9548753Y-22983412D01*
X9548753Y-22983412D02*
X9548753Y-22907222D01*
X9548753Y-22907222D02*
X9558277Y-22888174D01*
X9558277Y-22888174D02*
X9577325Y-22878650D01*
X9577325Y-22878650D02*
X9615420Y-22878650D01*
X9615420Y-22878650D02*
X9634468Y-22888174D01*
X9634468Y-22888174D02*
X9643992Y-22907222D01*
X9643992Y-22907222D02*
X9643992Y-22926269D01*
X9643992Y-22926269D02*
X9548753Y-22945317D01*
X9720182Y-23002460D02*
X9739230Y-23011984D01*
X9739230Y-23011984D02*
X9777325Y-23011984D01*
X9777325Y-23011984D02*
X9796373Y-23002460D01*
X9796373Y-23002460D02*
X9805896Y-22983412D01*
X9805896Y-22983412D02*
X9805896Y-22973888D01*
X9805896Y-22973888D02*
X9796373Y-22954841D01*
X9796373Y-22954841D02*
X9777325Y-22945317D01*
X9777325Y-22945317D02*
X9748753Y-22945317D01*
X9748753Y-22945317D02*
X9729706Y-22935793D01*
X9729706Y-22935793D02*
X9720182Y-22916746D01*
X9720182Y-22916746D02*
X9720182Y-22907222D01*
X9720182Y-22907222D02*
X9729706Y-22888174D01*
X9729706Y-22888174D02*
X9748753Y-22878650D01*
X9748753Y-22878650D02*
X9777325Y-22878650D01*
X9777325Y-22878650D02*
X9796373Y-22888174D01*
X9872563Y-23088174D02*
X9882087Y-23078650D01*
X9882087Y-23078650D02*
X9901134Y-23050079D01*
X9901134Y-23050079D02*
X9910658Y-23031031D01*
X9910658Y-23031031D02*
X9920182Y-23002460D01*
X9920182Y-23002460D02*
X9929706Y-22954841D01*
X9929706Y-22954841D02*
X9929706Y-22916746D01*
X9929706Y-22916746D02*
X9920182Y-22869127D01*
X9920182Y-22869127D02*
X9910658Y-22840555D01*
X9910658Y-22840555D02*
X9901134Y-22821508D01*
X9901134Y-22821508D02*
X9882087Y-22792936D01*
X9882087Y-22792936D02*
X9872563Y-22783412D01*
M02*
