%TF.GenerationSoftware,KiCad,Pcbnew,9.0.4*%
%TF.CreationDate,2025-10-04T20:54:08+02:00*%
%TF.ProjectId,DMH_Dual_VCA_Mk2_PCB_1,444d485f-4475-4616-9c5f-5643415f4d6b,1*%
%TF.SameCoordinates,Original*%
%TF.FileFunction,Legend,Top*%
%TF.FilePolarity,Positive*%
%FSLAX46Y46*%
G04 Gerber Fmt 4.6, Leading zero omitted, Abs format (unit mm)*
G04 Created by KiCad (PCBNEW 9.0.4) date 2025-10-04 20:54:08*
%MOMM*%
%LPD*%
G01*
G04 APERTURE LIST*
G04 Aperture macros list*
%AMRoundRect*
0 Rectangle with rounded corners*
0 $1 Rounding radius*
0 $2 $3 $4 $5 $6 $7 $8 $9 X,Y pos of 4 corners*
0 Add a 4 corners polygon primitive as box body*
4,1,4,$2,$3,$4,$5,$6,$7,$8,$9,$2,$3,0*
0 Add four circle primitives for the rounded corners*
1,1,$1+$1,$2,$3*
1,1,$1+$1,$4,$5*
1,1,$1+$1,$6,$7*
1,1,$1+$1,$8,$9*
0 Add four rect primitives between the rounded corners*
20,1,$1+$1,$2,$3,$4,$5,0*
20,1,$1+$1,$4,$5,$6,$7,0*
20,1,$1+$1,$6,$7,$8,$9,0*
20,1,$1+$1,$8,$9,$2,$3,0*%
%AMHorizOval*
0 Thick line with rounded ends*
0 $1 width*
0 $2 $3 position (X,Y) of the first rounded end (center of the circle)*
0 $4 $5 position (X,Y) of the second rounded end (center of the circle)*
0 Add line between two ends*
20,1,$1,$2,$3,$4,$5,0*
0 Add two circle primitives to create the rounded ends*
1,1,$1,$2,$3*
1,1,$1,$4,$5*%
G04 Aperture macros list end*
%ADD10C,0.150000*%
%ADD11C,0.120000*%
%ADD12HorizOval,1.712000X-0.533159X0.533159X0.533159X-0.533159X0*%
%ADD13O,3.220000X1.712000*%
%ADD14O,1.712000X3.220000*%
%ADD15R,1.700000X1.700000*%
%ADD16O,1.700000X1.700000*%
%ADD17HorizOval,1.712000X-0.533159X-0.533159X0.533159X0.533159X0*%
%ADD18C,1.600000*%
%ADD19O,1.600000X1.600000*%
%ADD20R,2.200000X2.200000*%
%ADD21O,2.200000X2.200000*%
%ADD22R,1.600000X1.600000*%
%ADD23R,1.500000X1.500000*%
%ADD24C,1.500000*%
%ADD25C,1.440000*%
%ADD26RoundRect,0.250000X-0.550000X0.550000X-0.550000X-0.550000X0.550000X-0.550000X0.550000X0.550000X0*%
%ADD27RoundRect,0.250000X-0.600000X0.600000X-0.600000X-0.600000X0.600000X-0.600000X0.600000X0.600000X0*%
%ADD28C,1.700000*%
%ADD29RoundRect,0.250000X0.600000X-0.600000X0.600000X0.600000X-0.600000X0.600000X-0.600000X-0.600000X0*%
G04 APERTURE END LIST*
D10*
X83954819Y-194658333D02*
X84669104Y-194658333D01*
X84669104Y-194658333D02*
X84811961Y-194705952D01*
X84811961Y-194705952D02*
X84907200Y-194801190D01*
X84907200Y-194801190D02*
X84954819Y-194944047D01*
X84954819Y-194944047D02*
X84954819Y-195039285D01*
X84383390Y-194039285D02*
X84335771Y-194134523D01*
X84335771Y-194134523D02*
X84288152Y-194182142D01*
X84288152Y-194182142D02*
X84192914Y-194229761D01*
X84192914Y-194229761D02*
X84145295Y-194229761D01*
X84145295Y-194229761D02*
X84050057Y-194182142D01*
X84050057Y-194182142D02*
X84002438Y-194134523D01*
X84002438Y-194134523D02*
X83954819Y-194039285D01*
X83954819Y-194039285D02*
X83954819Y-193848809D01*
X83954819Y-193848809D02*
X84002438Y-193753571D01*
X84002438Y-193753571D02*
X84050057Y-193705952D01*
X84050057Y-193705952D02*
X84145295Y-193658333D01*
X84145295Y-193658333D02*
X84192914Y-193658333D01*
X84192914Y-193658333D02*
X84288152Y-193705952D01*
X84288152Y-193705952D02*
X84335771Y-193753571D01*
X84335771Y-193753571D02*
X84383390Y-193848809D01*
X84383390Y-193848809D02*
X84383390Y-194039285D01*
X84383390Y-194039285D02*
X84431009Y-194134523D01*
X84431009Y-194134523D02*
X84478628Y-194182142D01*
X84478628Y-194182142D02*
X84573866Y-194229761D01*
X84573866Y-194229761D02*
X84764342Y-194229761D01*
X84764342Y-194229761D02*
X84859580Y-194182142D01*
X84859580Y-194182142D02*
X84907200Y-194134523D01*
X84907200Y-194134523D02*
X84954819Y-194039285D01*
X84954819Y-194039285D02*
X84954819Y-193848809D01*
X84954819Y-193848809D02*
X84907200Y-193753571D01*
X84907200Y-193753571D02*
X84859580Y-193705952D01*
X84859580Y-193705952D02*
X84764342Y-193658333D01*
X84764342Y-193658333D02*
X84573866Y-193658333D01*
X84573866Y-193658333D02*
X84478628Y-193705952D01*
X84478628Y-193705952D02*
X84431009Y-193753571D01*
X84431009Y-193753571D02*
X84383390Y-193848809D01*
X53190476Y-119184819D02*
X53190476Y-119899104D01*
X53190476Y-119899104D02*
X53142857Y-120041961D01*
X53142857Y-120041961D02*
X53047619Y-120137200D01*
X53047619Y-120137200D02*
X52904762Y-120184819D01*
X52904762Y-120184819D02*
X52809524Y-120184819D01*
X54095238Y-119184819D02*
X53904762Y-119184819D01*
X53904762Y-119184819D02*
X53809524Y-119232438D01*
X53809524Y-119232438D02*
X53761905Y-119280057D01*
X53761905Y-119280057D02*
X53666667Y-119422914D01*
X53666667Y-119422914D02*
X53619048Y-119613390D01*
X53619048Y-119613390D02*
X53619048Y-119994342D01*
X53619048Y-119994342D02*
X53666667Y-120089580D01*
X53666667Y-120089580D02*
X53714286Y-120137200D01*
X53714286Y-120137200D02*
X53809524Y-120184819D01*
X53809524Y-120184819D02*
X54000000Y-120184819D01*
X54000000Y-120184819D02*
X54095238Y-120137200D01*
X54095238Y-120137200D02*
X54142857Y-120089580D01*
X54142857Y-120089580D02*
X54190476Y-119994342D01*
X54190476Y-119994342D02*
X54190476Y-119756247D01*
X54190476Y-119756247D02*
X54142857Y-119661009D01*
X54142857Y-119661009D02*
X54095238Y-119613390D01*
X54095238Y-119613390D02*
X54000000Y-119565771D01*
X54000000Y-119565771D02*
X53809524Y-119565771D01*
X53809524Y-119565771D02*
X53714286Y-119613390D01*
X53714286Y-119613390D02*
X53666667Y-119661009D01*
X53666667Y-119661009D02*
X53619048Y-119756247D01*
X54809524Y-119184819D02*
X54904762Y-119184819D01*
X54904762Y-119184819D02*
X55000000Y-119232438D01*
X55000000Y-119232438D02*
X55047619Y-119280057D01*
X55047619Y-119280057D02*
X55095238Y-119375295D01*
X55095238Y-119375295D02*
X55142857Y-119565771D01*
X55142857Y-119565771D02*
X55142857Y-119803866D01*
X55142857Y-119803866D02*
X55095238Y-119994342D01*
X55095238Y-119994342D02*
X55047619Y-120089580D01*
X55047619Y-120089580D02*
X55000000Y-120137200D01*
X55000000Y-120137200D02*
X54904762Y-120184819D01*
X54904762Y-120184819D02*
X54809524Y-120184819D01*
X54809524Y-120184819D02*
X54714286Y-120137200D01*
X54714286Y-120137200D02*
X54666667Y-120089580D01*
X54666667Y-120089580D02*
X54619048Y-119994342D01*
X54619048Y-119994342D02*
X54571429Y-119803866D01*
X54571429Y-119803866D02*
X54571429Y-119565771D01*
X54571429Y-119565771D02*
X54619048Y-119375295D01*
X54619048Y-119375295D02*
X54666667Y-119280057D01*
X54666667Y-119280057D02*
X54714286Y-119232438D01*
X54714286Y-119232438D02*
X54809524Y-119184819D01*
X70591666Y-182704819D02*
X70591666Y-183419104D01*
X70591666Y-183419104D02*
X70544047Y-183561961D01*
X70544047Y-183561961D02*
X70448809Y-183657200D01*
X70448809Y-183657200D02*
X70305952Y-183704819D01*
X70305952Y-183704819D02*
X70210714Y-183704819D01*
X70972619Y-182704819D02*
X71639285Y-182704819D01*
X71639285Y-182704819D02*
X71210714Y-183704819D01*
X64954819Y-186508333D02*
X65669104Y-186508333D01*
X65669104Y-186508333D02*
X65811961Y-186555952D01*
X65811961Y-186555952D02*
X65907200Y-186651190D01*
X65907200Y-186651190D02*
X65954819Y-186794047D01*
X65954819Y-186794047D02*
X65954819Y-186889285D01*
X64954819Y-186127380D02*
X64954819Y-185508333D01*
X64954819Y-185508333D02*
X65335771Y-185841666D01*
X65335771Y-185841666D02*
X65335771Y-185698809D01*
X65335771Y-185698809D02*
X65383390Y-185603571D01*
X65383390Y-185603571D02*
X65431009Y-185555952D01*
X65431009Y-185555952D02*
X65526247Y-185508333D01*
X65526247Y-185508333D02*
X65764342Y-185508333D01*
X65764342Y-185508333D02*
X65859580Y-185555952D01*
X65859580Y-185555952D02*
X65907200Y-185603571D01*
X65907200Y-185603571D02*
X65954819Y-185698809D01*
X65954819Y-185698809D02*
X65954819Y-185984523D01*
X65954819Y-185984523D02*
X65907200Y-186079761D01*
X65907200Y-186079761D02*
X65859580Y-186127380D01*
X64954819Y-205008333D02*
X65669104Y-205008333D01*
X65669104Y-205008333D02*
X65811961Y-205055952D01*
X65811961Y-205055952D02*
X65907200Y-205151190D01*
X65907200Y-205151190D02*
X65954819Y-205294047D01*
X65954819Y-205294047D02*
X65954819Y-205389285D01*
X65050057Y-204579761D02*
X65002438Y-204532142D01*
X65002438Y-204532142D02*
X64954819Y-204436904D01*
X64954819Y-204436904D02*
X64954819Y-204198809D01*
X64954819Y-204198809D02*
X65002438Y-204103571D01*
X65002438Y-204103571D02*
X65050057Y-204055952D01*
X65050057Y-204055952D02*
X65145295Y-204008333D01*
X65145295Y-204008333D02*
X65240533Y-204008333D01*
X65240533Y-204008333D02*
X65383390Y-204055952D01*
X65383390Y-204055952D02*
X65954819Y-204627380D01*
X65954819Y-204627380D02*
X65954819Y-204008333D01*
X70591666Y-201204819D02*
X70591666Y-201919104D01*
X70591666Y-201919104D02*
X70544047Y-202061961D01*
X70544047Y-202061961D02*
X70448809Y-202157200D01*
X70448809Y-202157200D02*
X70305952Y-202204819D01*
X70305952Y-202204819D02*
X70210714Y-202204819D01*
X71496428Y-201204819D02*
X71305952Y-201204819D01*
X71305952Y-201204819D02*
X71210714Y-201252438D01*
X71210714Y-201252438D02*
X71163095Y-201300057D01*
X71163095Y-201300057D02*
X71067857Y-201442914D01*
X71067857Y-201442914D02*
X71020238Y-201633390D01*
X71020238Y-201633390D02*
X71020238Y-202014342D01*
X71020238Y-202014342D02*
X71067857Y-202109580D01*
X71067857Y-202109580D02*
X71115476Y-202157200D01*
X71115476Y-202157200D02*
X71210714Y-202204819D01*
X71210714Y-202204819D02*
X71401190Y-202204819D01*
X71401190Y-202204819D02*
X71496428Y-202157200D01*
X71496428Y-202157200D02*
X71544047Y-202109580D01*
X71544047Y-202109580D02*
X71591666Y-202014342D01*
X71591666Y-202014342D02*
X71591666Y-201776247D01*
X71591666Y-201776247D02*
X71544047Y-201681009D01*
X71544047Y-201681009D02*
X71496428Y-201633390D01*
X71496428Y-201633390D02*
X71401190Y-201585771D01*
X71401190Y-201585771D02*
X71210714Y-201585771D01*
X71210714Y-201585771D02*
X71115476Y-201633390D01*
X71115476Y-201633390D02*
X71067857Y-201681009D01*
X71067857Y-201681009D02*
X71020238Y-201776247D01*
X95190476Y-85844819D02*
X95190476Y-86559104D01*
X95190476Y-86559104D02*
X95142857Y-86701961D01*
X95142857Y-86701961D02*
X95047619Y-86797200D01*
X95047619Y-86797200D02*
X94904762Y-86844819D01*
X94904762Y-86844819D02*
X94809524Y-86844819D01*
X96142857Y-85844819D02*
X95666667Y-85844819D01*
X95666667Y-85844819D02*
X95619048Y-86321009D01*
X95619048Y-86321009D02*
X95666667Y-86273390D01*
X95666667Y-86273390D02*
X95761905Y-86225771D01*
X95761905Y-86225771D02*
X96000000Y-86225771D01*
X96000000Y-86225771D02*
X96095238Y-86273390D01*
X96095238Y-86273390D02*
X96142857Y-86321009D01*
X96142857Y-86321009D02*
X96190476Y-86416247D01*
X96190476Y-86416247D02*
X96190476Y-86654342D01*
X96190476Y-86654342D02*
X96142857Y-86749580D01*
X96142857Y-86749580D02*
X96095238Y-86797200D01*
X96095238Y-86797200D02*
X96000000Y-86844819D01*
X96000000Y-86844819D02*
X95761905Y-86844819D01*
X95761905Y-86844819D02*
X95666667Y-86797200D01*
X95666667Y-86797200D02*
X95619048Y-86749580D01*
X96809524Y-85844819D02*
X96904762Y-85844819D01*
X96904762Y-85844819D02*
X97000000Y-85892438D01*
X97000000Y-85892438D02*
X97047619Y-85940057D01*
X97047619Y-85940057D02*
X97095238Y-86035295D01*
X97095238Y-86035295D02*
X97142857Y-86225771D01*
X97142857Y-86225771D02*
X97142857Y-86463866D01*
X97142857Y-86463866D02*
X97095238Y-86654342D01*
X97095238Y-86654342D02*
X97047619Y-86749580D01*
X97047619Y-86749580D02*
X97000000Y-86797200D01*
X97000000Y-86797200D02*
X96904762Y-86844819D01*
X96904762Y-86844819D02*
X96809524Y-86844819D01*
X96809524Y-86844819D02*
X96714286Y-86797200D01*
X96714286Y-86797200D02*
X96666667Y-86749580D01*
X96666667Y-86749580D02*
X96619048Y-86654342D01*
X96619048Y-86654342D02*
X96571429Y-86463866D01*
X96571429Y-86463866D02*
X96571429Y-86225771D01*
X96571429Y-86225771D02*
X96619048Y-86035295D01*
X96619048Y-86035295D02*
X96666667Y-85940057D01*
X96666667Y-85940057D02*
X96714286Y-85892438D01*
X96714286Y-85892438D02*
X96809524Y-85844819D01*
X83954819Y-213158333D02*
X84669104Y-213158333D01*
X84669104Y-213158333D02*
X84811961Y-213205952D01*
X84811961Y-213205952D02*
X84907200Y-213301190D01*
X84907200Y-213301190D02*
X84954819Y-213444047D01*
X84954819Y-213444047D02*
X84954819Y-213539285D01*
X84954819Y-212634523D02*
X84954819Y-212444047D01*
X84954819Y-212444047D02*
X84907200Y-212348809D01*
X84907200Y-212348809D02*
X84859580Y-212301190D01*
X84859580Y-212301190D02*
X84716723Y-212205952D01*
X84716723Y-212205952D02*
X84526247Y-212158333D01*
X84526247Y-212158333D02*
X84145295Y-212158333D01*
X84145295Y-212158333D02*
X84050057Y-212205952D01*
X84050057Y-212205952D02*
X84002438Y-212253571D01*
X84002438Y-212253571D02*
X83954819Y-212348809D01*
X83954819Y-212348809D02*
X83954819Y-212539285D01*
X83954819Y-212539285D02*
X84002438Y-212634523D01*
X84002438Y-212634523D02*
X84050057Y-212682142D01*
X84050057Y-212682142D02*
X84145295Y-212729761D01*
X84145295Y-212729761D02*
X84383390Y-212729761D01*
X84383390Y-212729761D02*
X84478628Y-212682142D01*
X84478628Y-212682142D02*
X84526247Y-212634523D01*
X84526247Y-212634523D02*
X84573866Y-212539285D01*
X84573866Y-212539285D02*
X84573866Y-212348809D01*
X84573866Y-212348809D02*
X84526247Y-212253571D01*
X84526247Y-212253571D02*
X84478628Y-212205952D01*
X84478628Y-212205952D02*
X84383390Y-212158333D01*
X64954819Y-168008333D02*
X65669104Y-168008333D01*
X65669104Y-168008333D02*
X65811961Y-168055952D01*
X65811961Y-168055952D02*
X65907200Y-168151190D01*
X65907200Y-168151190D02*
X65954819Y-168294047D01*
X65954819Y-168294047D02*
X65954819Y-168389285D01*
X65954819Y-167008333D02*
X65954819Y-167579761D01*
X65954819Y-167294047D02*
X64954819Y-167294047D01*
X64954819Y-167294047D02*
X65097676Y-167389285D01*
X65097676Y-167389285D02*
X65192914Y-167484523D01*
X65192914Y-167484523D02*
X65240533Y-167579761D01*
X70591666Y-164204819D02*
X70591666Y-164919104D01*
X70591666Y-164919104D02*
X70544047Y-165061961D01*
X70544047Y-165061961D02*
X70448809Y-165157200D01*
X70448809Y-165157200D02*
X70305952Y-165204819D01*
X70305952Y-165204819D02*
X70210714Y-165204819D01*
X71544047Y-164204819D02*
X71067857Y-164204819D01*
X71067857Y-164204819D02*
X71020238Y-164681009D01*
X71020238Y-164681009D02*
X71067857Y-164633390D01*
X71067857Y-164633390D02*
X71163095Y-164585771D01*
X71163095Y-164585771D02*
X71401190Y-164585771D01*
X71401190Y-164585771D02*
X71496428Y-164633390D01*
X71496428Y-164633390D02*
X71544047Y-164681009D01*
X71544047Y-164681009D02*
X71591666Y-164776247D01*
X71591666Y-164776247D02*
X71591666Y-165014342D01*
X71591666Y-165014342D02*
X71544047Y-165109580D01*
X71544047Y-165109580D02*
X71496428Y-165157200D01*
X71496428Y-165157200D02*
X71401190Y-165204819D01*
X71401190Y-165204819D02*
X71163095Y-165204819D01*
X71163095Y-165204819D02*
X71067857Y-165157200D01*
X71067857Y-165157200D02*
X71020238Y-165109580D01*
X83954819Y-176158333D02*
X84669104Y-176158333D01*
X84669104Y-176158333D02*
X84811961Y-176205952D01*
X84811961Y-176205952D02*
X84907200Y-176301190D01*
X84907200Y-176301190D02*
X84954819Y-176444047D01*
X84954819Y-176444047D02*
X84954819Y-176539285D01*
X84288152Y-175253571D02*
X84954819Y-175253571D01*
X83907200Y-175491666D02*
X84621485Y-175729761D01*
X84621485Y-175729761D02*
X84621485Y-175110714D01*
%TO.C,J8*%
X87300000Y-190250000D02*
X87300000Y-187900000D01*
X87300000Y-190250000D02*
X87300000Y-192600000D01*
X95700000Y-190250000D02*
X95700000Y-187900000D01*
X95700000Y-190250000D02*
X95700000Y-192600000D01*
X87311121Y-187906222D02*
G75*
G02*
X91500000Y-185450000I4188881J-2343781D01*
G01*
X91500000Y-185450000D02*
G75*
G02*
X95688879Y-187906222I-2J-4800003D01*
G01*
X91500000Y-195050000D02*
G75*
G02*
X87311121Y-192593778I0J4800000D01*
G01*
X95688879Y-192593778D02*
G75*
G02*
X91500000Y-195050000I-4188879J2343778D01*
G01*
D11*
%TO.C,J60*%
X52670000Y-123770000D02*
X52670000Y-141610000D01*
X52670000Y-123770000D02*
X55330000Y-123770000D01*
X52670000Y-141610000D02*
X55330000Y-141610000D01*
X54000000Y-121170000D02*
X55330000Y-121170000D01*
X55330000Y-121170000D02*
X55330000Y-122500000D01*
X55330000Y-123770000D02*
X55330000Y-141610000D01*
D10*
%TO.C,J7*%
X75000000Y-186050000D02*
X72650000Y-186050000D01*
X75000000Y-186050000D02*
X77350000Y-186050000D01*
X75000000Y-194450000D02*
X72650000Y-194450000D01*
X75000000Y-194450000D02*
X77350000Y-194450000D01*
X70200000Y-190250000D02*
G75*
G02*
X72656222Y-186061121I4800000J0D01*
G01*
X72656222Y-194438879D02*
G75*
G02*
X70200000Y-190250000I2343778J4188879D01*
G01*
X77343778Y-186061121D02*
G75*
G02*
X79800000Y-190250000I-2343781J-4188881D01*
G01*
X79800000Y-190250000D02*
G75*
G02*
X77343778Y-194438879I-4800003J2D01*
G01*
%TO.C,J3*%
X54300000Y-190250000D02*
X54300000Y-187900000D01*
X54300000Y-190250000D02*
X54300000Y-192600000D01*
X62700000Y-190250000D02*
X62700000Y-187900000D01*
X62700000Y-190250000D02*
X62700000Y-192600000D01*
X54311121Y-187906222D02*
G75*
G02*
X58500000Y-185450000I4188879J-2343778D01*
G01*
X58500000Y-185450000D02*
G75*
G02*
X62688879Y-187906222I0J-4800000D01*
G01*
X58500000Y-195050000D02*
G75*
G02*
X54311121Y-192593778I2J4800003D01*
G01*
X62688879Y-192593778D02*
G75*
G02*
X58500000Y-195050000I-4188881J2343781D01*
G01*
%TO.C,J2*%
X54300000Y-208750000D02*
X54300000Y-206400000D01*
X54300000Y-208750000D02*
X54300000Y-211100000D01*
X62700000Y-208750000D02*
X62700000Y-206400000D01*
X62700000Y-208750000D02*
X62700000Y-211100000D01*
X54311121Y-206406222D02*
G75*
G02*
X58500000Y-203950000I4188879J-2343778D01*
G01*
X58500000Y-203950000D02*
G75*
G02*
X62688879Y-206406222I0J-4800000D01*
G01*
X58500000Y-213550000D02*
G75*
G02*
X54311121Y-211093778I2J4800003D01*
G01*
X62688879Y-211093778D02*
G75*
G02*
X58500000Y-213550000I-4188881J2343781D01*
G01*
%TO.C,J6*%
X75000000Y-204550000D02*
X72650000Y-204550000D01*
X75000000Y-204550000D02*
X77350000Y-204550000D01*
X75000000Y-212950000D02*
X72650000Y-212950000D01*
X75000000Y-212950000D02*
X77350000Y-212950000D01*
X70200000Y-208750000D02*
G75*
G02*
X72656222Y-204561121I4800000J0D01*
G01*
X72656222Y-212938879D02*
G75*
G02*
X70200000Y-208750000I2343778J4188879D01*
G01*
X77343778Y-204561121D02*
G75*
G02*
X79800000Y-208750000I-2343781J-4188881D01*
G01*
X79800000Y-208750000D02*
G75*
G02*
X77343778Y-212938879I-4800003J2D01*
G01*
D11*
%TO.C,J50*%
X94670000Y-82350000D02*
X94670000Y-64510000D01*
X94670000Y-84950000D02*
X94670000Y-83620000D01*
X96000000Y-84950000D02*
X94670000Y-84950000D01*
X97330000Y-64510000D02*
X94670000Y-64510000D01*
X97330000Y-82350000D02*
X94670000Y-82350000D01*
X97330000Y-82350000D02*
X97330000Y-64510000D01*
D10*
%TO.C,J9*%
X87300000Y-208750000D02*
X87300000Y-206400000D01*
X87300000Y-208750000D02*
X87300000Y-211100000D01*
X95700000Y-208750000D02*
X95700000Y-206400000D01*
X95700000Y-208750000D02*
X95700000Y-211100000D01*
X87311121Y-206406222D02*
G75*
G02*
X91500000Y-203950000I4188881J-2343781D01*
G01*
X91500000Y-203950000D02*
G75*
G02*
X95688879Y-206406222I-2J-4800003D01*
G01*
X91500000Y-213550000D02*
G75*
G02*
X87311121Y-211093778I0J4800000D01*
G01*
X95688879Y-211093778D02*
G75*
G02*
X91500000Y-213550000I-4188879J2343778D01*
G01*
%TO.C,J1*%
X54300000Y-171750000D02*
X54300000Y-169400000D01*
X54300000Y-171750000D02*
X54300000Y-174100000D01*
X62700000Y-171750000D02*
X62700000Y-169400000D01*
X62700000Y-171750000D02*
X62700000Y-174100000D01*
X54311121Y-169406222D02*
G75*
G02*
X58500000Y-166950000I4188879J-2343778D01*
G01*
X58500000Y-166950000D02*
G75*
G02*
X62688879Y-169406222I0J-4800000D01*
G01*
X58500000Y-176550000D02*
G75*
G02*
X54311121Y-174093778I2J4800003D01*
G01*
X62688879Y-174093778D02*
G75*
G02*
X58500000Y-176550000I-4188881J2343781D01*
G01*
%TO.C,J5*%
X75000000Y-167550000D02*
X72650000Y-167550000D01*
X75000000Y-167550000D02*
X77350000Y-167550000D01*
X75000000Y-175950000D02*
X72650000Y-175950000D01*
X75000000Y-175950000D02*
X77350000Y-175950000D01*
X70200000Y-171750000D02*
G75*
G02*
X72656222Y-167561121I4800000J0D01*
G01*
X72656222Y-175938879D02*
G75*
G02*
X70200000Y-171750000I2343778J4188879D01*
G01*
X77343778Y-167561121D02*
G75*
G02*
X79800000Y-171750000I-2343781J-4188881D01*
G01*
X79800000Y-171750000D02*
G75*
G02*
X77343778Y-175938879I-4800003J2D01*
G01*
%TO.C,J4*%
X87300000Y-171750000D02*
X87300000Y-169400000D01*
X87300000Y-171750000D02*
X87300000Y-174100000D01*
X95700000Y-171750000D02*
X95700000Y-169400000D01*
X95700000Y-171750000D02*
X95700000Y-174100000D01*
X87311121Y-169406222D02*
G75*
G02*
X91500000Y-166950000I4188881J-2343781D01*
G01*
X91500000Y-166950000D02*
G75*
G02*
X95688879Y-169406222I-2J-4800003D01*
G01*
X91500000Y-176550000D02*
G75*
G02*
X87311121Y-174093778I0J4800000D01*
G01*
X95688879Y-174093778D02*
G75*
G02*
X91500000Y-176550000I-4188879J2343778D01*
G01*
%TD*%
%LPC*%
D12*
%TO.C,J8*%
X86903810Y-194846190D03*
D13*
X91000000Y-183750000D03*
D14*
X85000000Y-187750000D03*
%TD*%
D15*
%TO.C,J60*%
X54000000Y-122500000D03*
D16*
X54000000Y-125040000D03*
X54000000Y-127580000D03*
X54000000Y-130120000D03*
X54000000Y-132660000D03*
X54000000Y-135200000D03*
X54000000Y-137740000D03*
X54000000Y-140280000D03*
%TD*%
D17*
%TO.C,J7*%
X70403810Y-185653810D03*
D14*
X81500000Y-189750000D03*
D13*
X77500000Y-183750000D03*
%TD*%
D12*
%TO.C,J3*%
X63096190Y-185653810D03*
D13*
X59000000Y-196750000D03*
D14*
X65000000Y-192750000D03*
%TD*%
D12*
%TO.C,J2*%
X63096190Y-204153810D03*
D13*
X59000000Y-215250000D03*
D14*
X65000000Y-211250000D03*
%TD*%
D17*
%TO.C,J6*%
X70403810Y-204153810D03*
D14*
X81500000Y-208250000D03*
D13*
X77500000Y-202250000D03*
%TD*%
D15*
%TO.C,J50*%
X96000000Y-83620000D03*
D16*
X96000000Y-81080000D03*
X96000000Y-78540000D03*
X96000000Y-76000000D03*
X96000000Y-73460000D03*
X96000000Y-70920000D03*
X96000000Y-68380000D03*
X96000000Y-65840000D03*
%TD*%
D12*
%TO.C,J9*%
X86903810Y-213346190D03*
D13*
X91000000Y-202250000D03*
D14*
X85000000Y-206250000D03*
%TD*%
D12*
%TO.C,J1*%
X63096190Y-167153810D03*
D13*
X59000000Y-178250000D03*
D14*
X65000000Y-174250000D03*
%TD*%
D17*
%TO.C,J5*%
X70403810Y-167153810D03*
D14*
X81500000Y-171250000D03*
D13*
X77500000Y-165250000D03*
%TD*%
D12*
%TO.C,J4*%
X86903810Y-176346190D03*
D13*
X91000000Y-165250000D03*
D14*
X85000000Y-169250000D03*
%TD*%
D18*
%TO.C,R26*%
X72900000Y-142890000D03*
D19*
X80520000Y-142890000D03*
%TD*%
D20*
%TO.C,D2*%
X97000000Y-44170000D03*
D21*
X97000000Y-54330000D03*
%TD*%
D22*
%TO.C,C2*%
X89544888Y-47250000D03*
D18*
X91544888Y-47250000D03*
%TD*%
D20*
%TO.C,D1*%
X53000000Y-54330000D03*
D21*
X53000000Y-44170000D03*
%TD*%
D18*
%TO.C,R17*%
X66865000Y-86930000D03*
D19*
X74485000Y-86930000D03*
%TD*%
D18*
%TO.C,R3*%
X57000000Y-69690000D03*
D19*
X57000000Y-77310000D03*
%TD*%
D18*
%TO.C,R25*%
X61400000Y-142890000D03*
D19*
X69020000Y-142890000D03*
%TD*%
D18*
%TO.C,R49*%
X62250000Y-97190000D03*
D19*
X62250000Y-104810000D03*
%TD*%
D18*
%TO.C,C6*%
X80460000Y-135640000D03*
X75460000Y-135640000D03*
%TD*%
%TO.C,R1*%
X53750000Y-77310000D03*
D19*
X53750000Y-69690000D03*
%TD*%
D23*
%TO.C,Q1*%
X88200000Y-57450000D03*
D24*
X88200000Y-59990000D03*
X88200000Y-62530000D03*
%TD*%
D18*
%TO.C,R50*%
X80500000Y-109500000D03*
D19*
X72880000Y-109500000D03*
%TD*%
D18*
%TO.C,R32*%
X92020000Y-121890000D03*
D19*
X84400000Y-121890000D03*
%TD*%
D23*
%TO.C,Q2*%
X92050000Y-62550000D03*
D24*
X92050000Y-60010000D03*
X92050000Y-57470000D03*
%TD*%
D18*
%TO.C,C3*%
X69500000Y-66500000D03*
X74500000Y-66500000D03*
%TD*%
%TO.C,R12*%
X82865000Y-69680000D03*
D19*
X90485000Y-69680000D03*
%TD*%
D18*
%TO.C,R42*%
X84400000Y-142890000D03*
D19*
X92020000Y-142890000D03*
%TD*%
D25*
%TO.C,RV8*%
X62460000Y-120000000D03*
X65000000Y-120000000D03*
X67540000Y-120000000D03*
%TD*%
D18*
%TO.C,C7*%
X66500000Y-103500000D03*
X66500000Y-98500000D03*
%TD*%
%TO.C,R41*%
X92020000Y-139640000D03*
D19*
X84400000Y-139640000D03*
%TD*%
D18*
%TO.C,C4*%
X74500000Y-80500000D03*
X69500000Y-80500000D03*
%TD*%
%TO.C,R35*%
X95750000Y-143310000D03*
D19*
X95750000Y-135690000D03*
%TD*%
D26*
%TO.C,U1*%
X63050000Y-69630000D03*
D18*
X65590000Y-69630000D03*
X68130000Y-69630000D03*
X70670000Y-69630000D03*
X73210000Y-69630000D03*
X75750000Y-69630000D03*
X78290000Y-69630000D03*
X78290000Y-77250000D03*
X75750000Y-77250000D03*
X73210000Y-77250000D03*
X70670000Y-77250000D03*
X68130000Y-77250000D03*
X65590000Y-77250000D03*
X63050000Y-77250000D03*
%TD*%
%TO.C,C8*%
X83500000Y-103500000D03*
X83500000Y-98500000D03*
%TD*%
%TO.C,R30*%
X69020000Y-139640000D03*
D19*
X61400000Y-139640000D03*
%TD*%
D18*
%TO.C,R36*%
X88650000Y-132140000D03*
D19*
X96270000Y-132140000D03*
%TD*%
D23*
%TO.C,Q3*%
X94600000Y-118790000D03*
D24*
X94600000Y-116250000D03*
X94600000Y-113710000D03*
%TD*%
D18*
%TO.C,R38*%
X80480000Y-112750000D03*
D19*
X72860000Y-112750000D03*
%TD*%
D18*
%TO.C,R47*%
X74500000Y-90250000D03*
D19*
X66880000Y-90250000D03*
%TD*%
D25*
%TO.C,RV10*%
X81700000Y-62040000D03*
X81700000Y-59500000D03*
X81700000Y-56960000D03*
%TD*%
D18*
%TO.C,R46*%
X57500000Y-104810000D03*
D19*
X57500000Y-97190000D03*
%TD*%
D18*
%TO.C,R15*%
X74500000Y-60250000D03*
D19*
X66880000Y-60250000D03*
%TD*%
D18*
%TO.C,R4*%
X78365000Y-66430000D03*
D19*
X85985000Y-66430000D03*
%TD*%
D25*
%TO.C,RV12*%
X84750000Y-117540000D03*
X84750000Y-115000000D03*
X84750000Y-112460000D03*
%TD*%
D18*
%TO.C,R31*%
X72900000Y-139640000D03*
D19*
X80520000Y-139640000D03*
%TD*%
D18*
%TO.C,C5*%
X75460000Y-122140000D03*
X80460000Y-122140000D03*
%TD*%
D22*
%TO.C,C1*%
X58544888Y-47250000D03*
D18*
X60544888Y-47250000D03*
%TD*%
%TO.C,R39*%
X84400000Y-136390000D03*
D19*
X92020000Y-136390000D03*
%TD*%
D18*
%TO.C,R7*%
X85985000Y-86930000D03*
D19*
X78365000Y-86930000D03*
%TD*%
D18*
%TO.C,R16*%
X66865000Y-83680000D03*
D19*
X74485000Y-83680000D03*
%TD*%
D25*
%TO.C,RV7*%
X56450000Y-64250000D03*
X58990000Y-64250000D03*
X61530000Y-64250000D03*
%TD*%
%TO.C,RV9*%
X56450000Y-58750000D03*
X58990000Y-58750000D03*
X61530000Y-58750000D03*
%TD*%
D18*
%TO.C,R22*%
X72880000Y-119140000D03*
D19*
X80500000Y-119140000D03*
%TD*%
D18*
%TO.C,R20*%
X62985000Y-83680000D03*
D19*
X55365000Y-83680000D03*
%TD*%
D18*
%TO.C,R6*%
X74500000Y-57000000D03*
D19*
X66880000Y-57000000D03*
%TD*%
D18*
%TO.C,R23*%
X72880000Y-115890000D03*
D19*
X80500000Y-115890000D03*
%TD*%
D27*
%TO.C,J200*%
X69920000Y-157000000D03*
D28*
X72460000Y-157000000D03*
X75000000Y-157000000D03*
X77540000Y-157000000D03*
X80080000Y-157000000D03*
X69920000Y-159540000D03*
X72460000Y-159540000D03*
X75000000Y-159540000D03*
X77540000Y-159540000D03*
X80080000Y-159540000D03*
%TD*%
D18*
%TO.C,R51*%
X68810000Y-109500000D03*
D19*
X61190000Y-109500000D03*
%TD*%
D18*
%TO.C,R9*%
X78365000Y-83680000D03*
D19*
X85985000Y-83680000D03*
%TD*%
D26*
%TO.C,U3*%
X71190000Y-97190000D03*
D18*
X73730000Y-97190000D03*
X76270000Y-97190000D03*
X78810000Y-97190000D03*
X78810000Y-104810000D03*
X76270000Y-104810000D03*
X73730000Y-104810000D03*
X71190000Y-104810000D03*
%TD*%
%TO.C,R10*%
X82865000Y-77180000D03*
D19*
X90485000Y-77180000D03*
%TD*%
D18*
%TO.C,R13*%
X82865000Y-73430000D03*
D19*
X90485000Y-73430000D03*
%TD*%
D18*
%TO.C,R19*%
X62985000Y-86930000D03*
D19*
X55365000Y-86930000D03*
%TD*%
D18*
%TO.C,R14*%
X74500000Y-63500000D03*
D19*
X66880000Y-63500000D03*
%TD*%
D18*
%TO.C,R24*%
X62460000Y-133060000D03*
D19*
X62460000Y-125440000D03*
%TD*%
D18*
%TO.C,R34*%
X88650000Y-128890000D03*
D19*
X96270000Y-128890000D03*
%TD*%
D18*
%TO.C,R11*%
X90425000Y-81120000D03*
D19*
X90425000Y-88740000D03*
%TD*%
D25*
%TO.C,RV11*%
X62450000Y-114500000D03*
X64990000Y-114500000D03*
X67530000Y-114500000D03*
%TD*%
D18*
%TO.C,R33*%
X96270000Y-125640000D03*
D19*
X88650000Y-125640000D03*
%TD*%
D18*
%TO.C,R8*%
X78365000Y-80430000D03*
D19*
X85985000Y-80430000D03*
%TD*%
D29*
%TO.C,J100*%
X80080000Y-49002500D03*
D28*
X80080000Y-46462500D03*
X77540000Y-49002500D03*
X77540000Y-46462500D03*
X75000000Y-49002500D03*
X75000000Y-46462500D03*
X72460000Y-49002500D03*
X72460000Y-46462500D03*
X69920000Y-49002500D03*
X69920000Y-46462500D03*
%TD*%
D26*
%TO.C,U2*%
X69085000Y-125090000D03*
D18*
X71625000Y-125090000D03*
X74165000Y-125090000D03*
X76705000Y-125090000D03*
X79245000Y-125090000D03*
X81785000Y-125090000D03*
X84325000Y-125090000D03*
X84325000Y-132710000D03*
X81785000Y-132710000D03*
X79245000Y-132710000D03*
X76705000Y-132710000D03*
X74165000Y-132710000D03*
X71625000Y-132710000D03*
X69085000Y-132710000D03*
%TD*%
%TO.C,R48*%
X66880000Y-93500000D03*
D19*
X74500000Y-93500000D03*
%TD*%
D18*
%TO.C,R29*%
X61400000Y-136390000D03*
D19*
X69020000Y-136390000D03*
%TD*%
D23*
%TO.C,Q4*%
X90750000Y-113710000D03*
D24*
X90750000Y-116250000D03*
X90750000Y-118790000D03*
%TD*%
D18*
%TO.C,R28*%
X59210000Y-125440000D03*
D19*
X59210000Y-133060000D03*
%TD*%
D18*
%TO.C,R18*%
X55365000Y-80430000D03*
D19*
X62985000Y-80430000D03*
%TD*%
%LPD*%
M02*
