%TF.GenerationSoftware,KiCad,Pcbnew,9.0.4*%
%TF.CreationDate,2025-10-04T20:48:30+02:00*%
%TF.ProjectId,DMH_Dual_VCA_Mk2_PANEL,444d485f-4475-4616-9c5f-5643415f4d6b,rev?*%
%TF.SameCoordinates,Original*%
%TF.FileFunction,Legend,Top*%
%TF.FilePolarity,Positive*%
%FSLAX46Y46*%
G04 Gerber Fmt 4.6, Leading zero omitted, Abs format (unit mm)*
G04 Created by KiCad (PCBNEW 9.0.4) date 2025-10-04 20:48:30*
%MOMM*%
%LPD*%
G01*
G04 APERTURE LIST*
%ADD10C,0.400000*%
%ADD11C,0.800000*%
%ADD12C,0.875000*%
%ADD13C,0.150000*%
%ADD14C,0.500000*%
%ADD15C,0.000000*%
%ADD16C,0.500000*%
%ADD17C,12.000000*%
%ADD18C,4.000000*%
%ADD19O,2.500000X1.500000*%
G04 APERTURE END LIST*
D10*
X52000000Y-103250000D02*
X98000000Y-103250000D01*
D11*
G36*
X63648570Y-38839016D02*
G01*
X63794353Y-39122984D01*
X63959816Y-39373672D01*
X64132303Y-39577694D01*
X64322862Y-39753342D01*
X64524506Y-39896302D01*
X64743865Y-40013279D01*
X65240116Y-40170779D01*
X65843824Y-40226315D01*
X66178355Y-40210627D01*
X66486496Y-40163337D01*
X66748894Y-40091171D01*
X66990389Y-39991411D01*
X67203469Y-39869327D01*
X67398710Y-39721286D01*
X67739744Y-39344695D01*
X68027355Y-38839016D01*
X70737963Y-32840411D01*
X70861061Y-32504333D01*
X68497767Y-32504333D01*
X68408374Y-32773000D01*
X66168179Y-37999309D01*
X66098945Y-38119832D01*
X66018246Y-38193425D01*
X65854571Y-38234270D01*
X65745722Y-38217896D01*
X65647979Y-38165801D01*
X65530217Y-37999309D01*
X63267551Y-32773000D01*
X63189393Y-32504333D01*
X60792394Y-32504333D01*
X60915492Y-32840411D01*
X63648570Y-38839016D01*
G37*
G36*
X78515632Y-38076489D02*
G01*
X74551082Y-38076489D01*
X74238813Y-38061173D01*
X73957777Y-38016485D01*
X73713366Y-37946842D01*
X73495257Y-37853056D01*
X73131745Y-37599887D01*
X73027983Y-37495191D01*
X72880884Y-37314063D01*
X72758326Y-37113620D01*
X72663090Y-36897664D01*
X72596965Y-36668114D01*
X72557572Y-36298401D01*
X72617675Y-35839522D01*
X72795679Y-35407933D01*
X72926223Y-35212281D01*
X73080994Y-35036515D01*
X73117376Y-35001472D01*
X73310208Y-34845054D01*
X73530034Y-34714905D01*
X73749126Y-34625009D01*
X73997570Y-34559525D01*
X74551082Y-34509567D01*
X78515632Y-34509567D01*
X78515632Y-32504333D01*
X74551082Y-32504333D01*
X74135563Y-32519731D01*
X73745022Y-32564991D01*
X73382202Y-32637849D01*
X73042396Y-32737247D01*
X72723728Y-32862337D01*
X72426768Y-33011420D01*
X71884644Y-33384657D01*
X71751082Y-33501332D01*
X71288930Y-34014118D01*
X71094042Y-34300285D01*
X70925293Y-34604164D01*
X70785750Y-34920325D01*
X70674919Y-35250473D01*
X70595627Y-35586247D01*
X70546945Y-35932325D01*
X70530356Y-36287655D01*
X70591078Y-36977622D01*
X70770515Y-37635040D01*
X71063227Y-38244697D01*
X71460538Y-38788711D01*
X71504885Y-38838039D01*
X71747993Y-39081385D01*
X72014068Y-39301548D01*
X72292157Y-39490111D01*
X72592333Y-39654543D01*
X72907450Y-39790681D01*
X73244434Y-39901294D01*
X73600788Y-39984615D01*
X73979415Y-40040409D01*
X74551082Y-40070000D01*
X78515632Y-40070000D01*
X78515632Y-38076489D01*
G37*
G36*
X84740360Y-32372322D02*
G01*
X85233641Y-32531552D01*
X85453141Y-32650281D01*
X85655152Y-32795272D01*
X85846684Y-32973631D01*
X86020183Y-33180534D01*
X86186653Y-33434270D01*
X86333357Y-33721151D01*
X89065946Y-39734410D01*
X89189044Y-40070000D01*
X86904397Y-40070000D01*
X86815520Y-39814911D01*
X86814515Y-39812568D01*
X86411515Y-38894214D01*
X81931612Y-38894214D01*
X81539847Y-39801332D01*
X81539029Y-39803513D01*
X81461200Y-40070000D01*
X79120377Y-40070000D01*
X79243475Y-39734410D01*
X80374620Y-37225059D01*
X82670691Y-37225059D01*
X85672436Y-37225059D01*
X84507397Y-34507124D01*
X84383319Y-34339506D01*
X84278173Y-34287542D01*
X84160572Y-34271186D01*
X84142955Y-34271514D01*
X83964403Y-34326253D01*
X83888062Y-34398134D01*
X83824494Y-34507124D01*
X82670691Y-37225059D01*
X80374620Y-37225059D01*
X81954083Y-33721151D01*
X82252465Y-33197366D01*
X82595413Y-32821092D01*
X82791321Y-32673241D01*
X83005212Y-32551142D01*
X83246803Y-32451603D01*
X83509383Y-32379497D01*
X83816208Y-32332413D01*
X84149337Y-32316755D01*
X84740360Y-32372322D01*
G37*
D12*
G36*
X68976488Y-223893568D02*
G01*
X69152175Y-223905313D01*
X69317283Y-223929624D01*
X69473154Y-223966196D01*
X69618952Y-224014298D01*
X69758376Y-224074980D01*
X69887899Y-224146500D01*
X70013418Y-224232387D01*
X70128851Y-224328709D01*
X70250509Y-224453742D01*
X70427607Y-224696849D01*
X70557332Y-224965618D01*
X70636341Y-225251559D01*
X70662919Y-225547725D01*
X70662865Y-225561527D01*
X70654629Y-225717379D01*
X70632825Y-225868689D01*
X70597348Y-226017389D01*
X70549131Y-226160071D01*
X70488025Y-226297700D01*
X70415233Y-226427799D01*
X70331092Y-226550146D01*
X70236562Y-226663518D01*
X70077392Y-226815963D01*
X69839621Y-226979464D01*
X69708413Y-227045113D01*
X69567876Y-227100070D01*
X69417663Y-227143855D01*
X69257765Y-227175872D01*
X69085939Y-227195753D01*
X68903851Y-227202501D01*
X68399062Y-227202501D01*
X68148958Y-227189555D01*
X67983309Y-227165145D01*
X67827404Y-227128692D01*
X67679974Y-227080298D01*
X67542110Y-227020738D01*
X67410783Y-226948799D01*
X67289119Y-226866303D01*
X67172711Y-226769982D01*
X67066351Y-226663518D01*
X67046950Y-226641937D01*
X66873126Y-226403931D01*
X66745065Y-226137206D01*
X66666561Y-225849585D01*
X66640409Y-225552426D01*
X67526902Y-225552426D01*
X67544136Y-225714176D01*
X67573066Y-225814604D01*
X67614732Y-225909085D01*
X67668351Y-225996778D01*
X67732707Y-226076022D01*
X67778103Y-226121826D01*
X67937139Y-226232588D01*
X68032562Y-226273619D01*
X68139491Y-226304088D01*
X68262445Y-226323639D01*
X68399062Y-226330340D01*
X68903851Y-226330340D01*
X68984564Y-226328080D01*
X69109151Y-226314520D01*
X69221336Y-226289369D01*
X69322818Y-226252921D01*
X69412984Y-226206164D01*
X69497193Y-226146018D01*
X69570207Y-226076022D01*
X69672350Y-225937830D01*
X69749826Y-225751199D01*
X69776012Y-225552426D01*
X69775865Y-225537276D01*
X69766667Y-225432109D01*
X69743804Y-225330683D01*
X69707577Y-225232955D01*
X69659122Y-225141642D01*
X69530884Y-224985020D01*
X69521089Y-224976058D01*
X69362691Y-224865872D01*
X69270439Y-224825831D01*
X69166127Y-224795924D01*
X69043320Y-224776495D01*
X68903851Y-224769811D01*
X68399062Y-224769811D01*
X68156901Y-224791668D01*
X68048207Y-224820317D01*
X67952354Y-224859647D01*
X67856180Y-224916587D01*
X67771816Y-224985020D01*
X67755899Y-225000351D01*
X67688187Y-225077249D01*
X67631074Y-225162847D01*
X67553197Y-225351667D01*
X67526902Y-225552426D01*
X66640409Y-225552426D01*
X66639995Y-225547725D01*
X66647252Y-225392268D01*
X66668551Y-225240859D01*
X66703241Y-225093958D01*
X66751730Y-224949518D01*
X66812780Y-224811198D01*
X66886607Y-224678250D01*
X66971871Y-224553052D01*
X67174062Y-224328709D01*
X67232496Y-224277663D01*
X67469675Y-224114372D01*
X67599595Y-224049148D01*
X67739012Y-223994421D01*
X67887677Y-223950934D01*
X68046411Y-223919059D01*
X68217273Y-223899258D01*
X68399062Y-223892521D01*
X68903851Y-223892521D01*
X68976488Y-223893568D01*
G37*
G36*
X73321289Y-224769811D02*
G01*
X73362799Y-224776100D01*
X73389626Y-224792764D01*
X73409338Y-224848030D01*
X73403915Y-224885991D01*
X73380059Y-224931164D01*
X71870822Y-227065511D01*
X71797305Y-227202501D01*
X72914594Y-227202501D01*
X72983195Y-227075342D01*
X74350314Y-225068368D01*
X74437831Y-224928017D01*
X74494733Y-224810696D01*
X74524724Y-224719137D01*
X74538739Y-224636736D01*
X74541373Y-224578539D01*
X74515072Y-224387559D01*
X74438305Y-224214802D01*
X74369762Y-224122904D01*
X74302459Y-224055576D01*
X74224354Y-223998493D01*
X74140833Y-223955232D01*
X74046639Y-223922640D01*
X73942588Y-223901726D01*
X73826997Y-223892799D01*
X73801501Y-223892521D01*
X70787941Y-223892521D01*
X70787941Y-224769811D01*
X73321289Y-224769811D01*
G37*
G36*
X77446783Y-223828064D02*
G01*
X77619649Y-223888441D01*
X77758601Y-223987196D01*
X77857738Y-224117778D01*
X77895406Y-224202448D01*
X77924040Y-224302834D01*
X77943038Y-224426199D01*
X77949660Y-224570631D01*
X77949660Y-227202501D01*
X77058051Y-227202501D01*
X77058051Y-226737462D01*
X74750170Y-226737462D01*
X74558799Y-226722776D01*
X74463989Y-226700163D01*
X74384134Y-226668128D01*
X74313067Y-226624079D01*
X74255212Y-226570980D01*
X74236898Y-226549055D01*
X74192567Y-226479508D01*
X74160687Y-226401676D01*
X74139666Y-226308392D01*
X74132755Y-226208310D01*
X74132919Y-226194495D01*
X74158758Y-226046061D01*
X74189662Y-225975504D01*
X74232369Y-225909540D01*
X75490043Y-225909540D01*
X75498689Y-225940532D01*
X75516751Y-225957118D01*
X75543898Y-225963395D01*
X77058051Y-225963395D01*
X77058051Y-224938430D01*
X77051743Y-224897322D01*
X77035356Y-224866992D01*
X76984534Y-224840336D01*
X76947081Y-224845866D01*
X76906102Y-224869829D01*
X75524237Y-225855471D01*
X75521598Y-225857104D01*
X75497407Y-225879776D01*
X75490043Y-225909540D01*
X74232369Y-225909540D01*
X74235551Y-225904625D01*
X74254204Y-225880839D01*
X74330989Y-225801888D01*
X74456102Y-225703521D01*
X76812923Y-223977365D01*
X76884032Y-223928482D01*
X77065563Y-223841011D01*
X77167227Y-223817695D01*
X77273474Y-223810456D01*
X77446783Y-223828064D01*
G37*
G36*
X78340113Y-225834741D02*
G01*
X79673037Y-225834741D01*
X79673037Y-225271394D01*
X78340113Y-225271394D01*
X78340113Y-225834741D01*
G37*
G36*
X79878843Y-224769811D02*
G01*
X82171978Y-224769811D01*
X82254078Y-224776826D01*
X82318169Y-224798574D01*
X82355193Y-224826307D01*
X82380799Y-224864059D01*
X82397444Y-224950826D01*
X82390563Y-225004009D01*
X82369747Y-225049492D01*
X82292084Y-225117738D01*
X82230962Y-225146373D01*
X80295368Y-225919371D01*
X80180828Y-225972858D01*
X80084731Y-226032134D01*
X80006016Y-226095946D01*
X79942796Y-226163643D01*
X79855393Y-226311695D01*
X79814353Y-226477773D01*
X79810241Y-226555807D01*
X79817162Y-226652877D01*
X79838254Y-226748425D01*
X79871947Y-226836016D01*
X79919353Y-226918457D01*
X79976529Y-226989329D01*
X80046441Y-227052571D01*
X80124771Y-227104097D01*
X80215151Y-227146131D01*
X80314850Y-227176678D01*
X80426492Y-227195861D01*
X80550114Y-227202501D01*
X83382445Y-227202501D01*
X83382445Y-226354917D01*
X81285071Y-226354917D01*
X81257582Y-226348475D01*
X81238073Y-226330734D01*
X81231215Y-226305977D01*
X81256180Y-226264562D01*
X81270538Y-226257036D01*
X82765030Y-225713993D01*
X82882516Y-225663650D01*
X82988954Y-225603589D01*
X83084680Y-225534243D01*
X83168853Y-225456810D01*
X83241830Y-225371445D01*
X83302681Y-225279646D01*
X83387763Y-225078474D01*
X83421153Y-224860506D01*
X83421555Y-224833284D01*
X83414769Y-224711776D01*
X83394624Y-224595820D01*
X83362081Y-224487872D01*
X83317223Y-224386677D01*
X83261279Y-224294252D01*
X83193965Y-224209702D01*
X83116357Y-224134354D01*
X83028156Y-224068012D01*
X82929832Y-224011406D01*
X82821514Y-223965042D01*
X82702829Y-223929392D01*
X82574610Y-223905376D01*
X82377783Y-223892521D01*
X79878843Y-223892521D01*
X79878843Y-224769811D01*
G37*
D13*
G36*
X55178908Y-199881622D02*
G01*
X54187770Y-199881622D01*
X54109703Y-199877793D01*
X54039444Y-199866621D01*
X53978341Y-199849210D01*
X53923814Y-199825764D01*
X53832936Y-199762471D01*
X53806996Y-199736297D01*
X53770221Y-199691015D01*
X53739581Y-199640905D01*
X53715772Y-199586916D01*
X53699241Y-199529528D01*
X53689393Y-199437100D01*
X53704419Y-199322380D01*
X53748920Y-199214483D01*
X53781556Y-199165570D01*
X53820248Y-199121628D01*
X53829344Y-199112868D01*
X53877552Y-199073763D01*
X53932508Y-199041226D01*
X53987281Y-199018752D01*
X54049392Y-199002381D01*
X54187770Y-198989891D01*
X55178908Y-198989891D01*
X55178908Y-198488583D01*
X54187770Y-198488583D01*
X54083891Y-198492432D01*
X53986255Y-198503747D01*
X53895550Y-198521962D01*
X53810599Y-198546811D01*
X53730932Y-198578084D01*
X53656692Y-198615355D01*
X53521161Y-198708664D01*
X53487770Y-198737833D01*
X53372232Y-198866029D01*
X53323510Y-198937571D01*
X53281323Y-199013541D01*
X53246437Y-199092581D01*
X53218729Y-199175118D01*
X53198907Y-199259061D01*
X53186736Y-199345581D01*
X53182589Y-199434413D01*
X53197769Y-199606905D01*
X53242629Y-199771260D01*
X53315807Y-199923674D01*
X53415134Y-200059677D01*
X53426221Y-200072009D01*
X53486998Y-200132846D01*
X53553517Y-200187887D01*
X53623039Y-200235027D01*
X53698083Y-200276135D01*
X53776862Y-200310170D01*
X53861108Y-200337823D01*
X53950197Y-200358653D01*
X54044854Y-200372602D01*
X54187770Y-200380000D01*
X55178908Y-200380000D01*
X55178908Y-199881622D01*
G37*
G36*
X56044138Y-200072254D02*
G01*
X56080584Y-200143246D01*
X56121950Y-200205918D01*
X56165071Y-200256923D01*
X56212711Y-200300835D01*
X56263122Y-200336575D01*
X56317962Y-200365819D01*
X56442025Y-200405194D01*
X56592952Y-200419078D01*
X56676584Y-200415156D01*
X56753620Y-200403334D01*
X56819219Y-200385292D01*
X56879593Y-200360352D01*
X56932863Y-200329831D01*
X56981673Y-200292821D01*
X57066932Y-200198673D01*
X57138835Y-200072254D01*
X57816486Y-198572602D01*
X57847261Y-198488583D01*
X57256437Y-198488583D01*
X57234089Y-198555750D01*
X56674040Y-199862327D01*
X56656732Y-199892458D01*
X56636557Y-199910856D01*
X56595638Y-199921067D01*
X56568426Y-199916974D01*
X56543990Y-199903950D01*
X56514550Y-199862327D01*
X55948883Y-198555750D01*
X55929344Y-198488583D01*
X55330094Y-198488583D01*
X55360869Y-198572602D01*
X56044138Y-200072254D01*
G37*
G36*
X60490568Y-198455580D02*
G01*
X60613888Y-198495388D01*
X60668763Y-198525070D01*
X60719266Y-198561318D01*
X60767149Y-198605907D01*
X60810524Y-198657633D01*
X60852141Y-198721067D01*
X60888817Y-198792787D01*
X61571964Y-200296102D01*
X61602739Y-200380000D01*
X61031577Y-200380000D01*
X61009358Y-200316227D01*
X61009107Y-200315642D01*
X60908357Y-200086053D01*
X59788381Y-200086053D01*
X59690440Y-200312833D01*
X59690235Y-200313378D01*
X59670778Y-200380000D01*
X59085572Y-200380000D01*
X59116347Y-200296102D01*
X59399133Y-199668764D01*
X59973151Y-199668764D01*
X60723587Y-199668764D01*
X60432327Y-198989281D01*
X60401308Y-198947376D01*
X60375021Y-198934385D01*
X60345621Y-198930296D01*
X60341217Y-198930378D01*
X60296579Y-198944063D01*
X60277493Y-198962033D01*
X60261601Y-198989281D01*
X59973151Y-199668764D01*
X59399133Y-199668764D01*
X59793999Y-198792787D01*
X59868594Y-198661841D01*
X59954331Y-198567773D01*
X60003308Y-198530810D01*
X60056781Y-198500285D01*
X60117179Y-198475400D01*
X60182824Y-198457374D01*
X60259530Y-198445603D01*
X60342812Y-198441688D01*
X60490568Y-198455580D01*
G37*
G36*
X62866207Y-198488583D02*
G01*
X62866207Y-198989891D01*
X63177006Y-198989891D01*
X63207157Y-198993832D01*
X63229008Y-199005788D01*
X63247984Y-199043750D01*
X63249913Y-199068171D01*
X63249913Y-200380000D01*
X63753908Y-200380000D01*
X63753908Y-198992578D01*
X63749851Y-198886663D01*
X63737085Y-198794096D01*
X63719812Y-198728849D01*
X63695809Y-198671875D01*
X63668783Y-198628482D01*
X63635876Y-198591202D01*
X63555736Y-198536617D01*
X63447287Y-198502156D01*
X63286305Y-198488583D01*
X62866207Y-198488583D01*
G37*
G36*
X51514776Y-179988583D02*
G01*
X51514776Y-181880000D01*
X52024389Y-181880000D01*
X52024389Y-179988583D01*
X51514776Y-179988583D01*
G37*
G36*
X54656350Y-179988583D02*
G01*
X54160781Y-179988583D01*
X54160781Y-181211385D01*
X54157118Y-181235490D01*
X54147102Y-181251795D01*
X54121580Y-181261699D01*
X54096713Y-181257852D01*
X54073953Y-181239351D01*
X53149982Y-180134152D01*
X53096684Y-180074903D01*
X53042641Y-180027972D01*
X52994005Y-179996457D01*
X52942680Y-179972763D01*
X52829381Y-179946323D01*
X52741242Y-179941688D01*
X52664195Y-179945687D01*
X52592461Y-179958050D01*
X52534350Y-179976278D01*
X52481475Y-180001778D01*
X52438500Y-180031497D01*
X52400653Y-180067778D01*
X52369821Y-180108554D01*
X52344302Y-180155736D01*
X52310632Y-180269745D01*
X52301605Y-180384989D01*
X52301605Y-181880000D01*
X52799982Y-181880000D01*
X52799982Y-180595282D01*
X52803614Y-180573526D01*
X52813405Y-180557092D01*
X52846264Y-180542056D01*
X52847610Y-180542037D01*
X52866314Y-180545945D01*
X52883414Y-180557669D01*
X52892428Y-180567316D01*
X53931193Y-181770701D01*
X53972186Y-181812155D01*
X54017220Y-181846419D01*
X54118086Y-181893814D01*
X54241512Y-181916861D01*
X54300732Y-181919078D01*
X54357817Y-181915120D01*
X54412923Y-181903044D01*
X54461723Y-181884140D01*
X54507002Y-181857626D01*
X54545366Y-181825753D01*
X54579193Y-181786818D01*
X54606672Y-181742745D01*
X54628726Y-181691839D01*
X54644565Y-181634740D01*
X54653926Y-181570646D01*
X54656350Y-181513513D01*
X54656350Y-179988583D01*
G37*
G36*
X56475600Y-179999453D02*
G01*
X56557265Y-180014902D01*
X56631637Y-180036626D01*
X56701116Y-180065156D01*
X56764046Y-180099570D01*
X56825810Y-180143281D01*
X56881280Y-180193014D01*
X56956113Y-180281132D01*
X57030531Y-180411146D01*
X57076009Y-180551712D01*
X57091207Y-180696032D01*
X57090155Y-180733887D01*
X57081911Y-180808421D01*
X57065817Y-180881076D01*
X57041661Y-180952888D01*
X57010156Y-181021620D01*
X56971416Y-181087193D01*
X56926099Y-181148492D01*
X56887496Y-181191013D01*
X56778943Y-181280127D01*
X56717538Y-181315895D01*
X56650184Y-181346097D01*
X56576691Y-181370306D01*
X56496696Y-181388165D01*
X56408406Y-181399399D01*
X56312805Y-181403237D01*
X55442079Y-181403237D01*
X55442079Y-181880000D01*
X54935275Y-181880000D01*
X54935275Y-180528848D01*
X55442079Y-180528848D01*
X55442079Y-180938443D01*
X56324040Y-180938443D01*
X56393665Y-180933348D01*
X56439622Y-180922341D01*
X56478181Y-180905599D01*
X56513713Y-180880522D01*
X56542393Y-180849295D01*
X56572514Y-180796432D01*
X56583421Y-180757970D01*
X56587212Y-180715572D01*
X56577969Y-180647764D01*
X56562355Y-180608598D01*
X56539585Y-180573422D01*
X56507574Y-180542248D01*
X56474182Y-180520819D01*
X56433933Y-180504504D01*
X56383713Y-180493672D01*
X56324040Y-180489891D01*
X55478471Y-180489891D01*
X55456481Y-180495245D01*
X55445833Y-180507832D01*
X55442079Y-180528848D01*
X54935275Y-180528848D01*
X54935275Y-180106186D01*
X54948403Y-180042338D01*
X54963962Y-180020423D01*
X54985440Y-180004214D01*
X55018009Y-179992491D01*
X55058496Y-179988583D01*
X56312805Y-179988583D01*
X56475600Y-179999453D01*
G37*
G36*
X58796388Y-181880000D02*
G01*
X58911085Y-181876056D01*
X59013758Y-181864083D01*
X59094658Y-181846682D01*
X59166735Y-181822716D01*
X59224901Y-181795062D01*
X59276152Y-181761734D01*
X59318583Y-181724741D01*
X59355113Y-181682440D01*
X59411084Y-181581636D01*
X59446613Y-181451795D01*
X59459996Y-181275376D01*
X59459996Y-179988583D01*
X58950384Y-179988583D01*
X58950384Y-181219445D01*
X58946467Y-181267883D01*
X58934680Y-181308305D01*
X58918043Y-181336991D01*
X58895410Y-181359866D01*
X58833852Y-181388151D01*
X58762805Y-181395666D01*
X57975977Y-181395666D01*
X57924330Y-181391758D01*
X57881703Y-181380034D01*
X57852024Y-181363681D01*
X57828654Y-181341536D01*
X57800759Y-181282498D01*
X57794016Y-181219445D01*
X57794016Y-179988583D01*
X57284403Y-179988583D01*
X57284403Y-181275376D01*
X57288369Y-181376061D01*
X57300502Y-181466921D01*
X57318140Y-181538680D01*
X57342564Y-181603176D01*
X57371032Y-181655901D01*
X57405549Y-181702775D01*
X57444575Y-181742396D01*
X57489511Y-181776808D01*
X57599303Y-181830936D01*
X57744223Y-181866238D01*
X57948011Y-181880000D01*
X58796388Y-181880000D01*
G37*
G36*
X59644277Y-179988583D02*
G01*
X59644277Y-180489891D01*
X60475924Y-180489891D01*
X60475924Y-181880000D01*
X60985415Y-181880000D01*
X60985415Y-180489891D01*
X61814253Y-180489891D01*
X61814253Y-179988583D01*
X59644277Y-179988583D01*
G37*
G36*
X64458049Y-179955580D02*
G01*
X64581369Y-179995388D01*
X64636244Y-180025070D01*
X64686746Y-180061318D01*
X64734630Y-180105907D01*
X64778004Y-180157633D01*
X64819622Y-180221067D01*
X64856298Y-180292787D01*
X65539445Y-181796102D01*
X65570220Y-181880000D01*
X64999058Y-181880000D01*
X64976838Y-181816227D01*
X64976587Y-181815642D01*
X64875837Y-181586053D01*
X63755862Y-181586053D01*
X63657920Y-181812833D01*
X63657716Y-181813378D01*
X63638259Y-181880000D01*
X63053053Y-181880000D01*
X63083827Y-181796102D01*
X63366613Y-181168764D01*
X63940631Y-181168764D01*
X64691067Y-181168764D01*
X64399808Y-180489281D01*
X64368788Y-180447376D01*
X64342502Y-180434385D01*
X64313102Y-180430296D01*
X64308697Y-180430378D01*
X64264059Y-180444063D01*
X64244974Y-180462033D01*
X64229082Y-180489281D01*
X63940631Y-181168764D01*
X63366613Y-181168764D01*
X63761479Y-180292787D01*
X63836075Y-180161841D01*
X63921812Y-180067773D01*
X63970789Y-180030810D01*
X64024262Y-180000285D01*
X64084659Y-179975400D01*
X64150304Y-179957374D01*
X64227011Y-179945603D01*
X64310293Y-179941688D01*
X64458049Y-179955580D01*
G37*
G36*
X68176953Y-179988583D02*
G01*
X68176953Y-181880000D01*
X68686566Y-181880000D01*
X68686566Y-179988583D01*
X68176953Y-179988583D01*
G37*
G36*
X71318527Y-179988583D02*
G01*
X70822958Y-179988583D01*
X70822958Y-181211385D01*
X70819295Y-181235490D01*
X70809279Y-181251795D01*
X70783757Y-181261699D01*
X70758890Y-181257852D01*
X70736130Y-181239351D01*
X69812159Y-180134152D01*
X69758861Y-180074903D01*
X69704818Y-180027972D01*
X69656182Y-179996457D01*
X69604857Y-179972763D01*
X69491558Y-179946323D01*
X69403419Y-179941688D01*
X69326372Y-179945687D01*
X69254638Y-179958050D01*
X69196527Y-179976278D01*
X69143652Y-180001778D01*
X69100677Y-180031497D01*
X69062830Y-180067778D01*
X69031998Y-180108554D01*
X69006479Y-180155736D01*
X68972809Y-180269745D01*
X68963782Y-180384989D01*
X68963782Y-181880000D01*
X69462159Y-181880000D01*
X69462159Y-180595282D01*
X69465791Y-180573526D01*
X69475582Y-180557092D01*
X69508441Y-180542056D01*
X69509787Y-180542037D01*
X69528491Y-180545945D01*
X69545591Y-180557669D01*
X69554605Y-180567316D01*
X70593370Y-181770701D01*
X70634363Y-181812155D01*
X70679397Y-181846419D01*
X70780263Y-181893814D01*
X70903689Y-181916861D01*
X70962909Y-181919078D01*
X71019994Y-181915120D01*
X71075100Y-181903044D01*
X71123900Y-181884140D01*
X71169179Y-181857626D01*
X71207543Y-181825753D01*
X71241370Y-181786818D01*
X71268849Y-181742745D01*
X71290903Y-181691839D01*
X71306742Y-181634740D01*
X71316103Y-181570646D01*
X71318527Y-181513513D01*
X71318527Y-179988583D01*
G37*
G36*
X73137777Y-179999453D02*
G01*
X73219442Y-180014902D01*
X73293814Y-180036626D01*
X73363293Y-180065156D01*
X73426223Y-180099570D01*
X73487987Y-180143281D01*
X73543457Y-180193014D01*
X73618290Y-180281132D01*
X73692708Y-180411146D01*
X73738186Y-180551712D01*
X73753384Y-180696032D01*
X73752332Y-180733887D01*
X73744088Y-180808421D01*
X73727994Y-180881076D01*
X73703838Y-180952888D01*
X73672333Y-181021620D01*
X73633593Y-181087193D01*
X73588276Y-181148492D01*
X73549673Y-181191013D01*
X73441120Y-181280127D01*
X73379715Y-181315895D01*
X73312361Y-181346097D01*
X73238868Y-181370306D01*
X73158873Y-181388165D01*
X73070583Y-181399399D01*
X72974982Y-181403237D01*
X72104256Y-181403237D01*
X72104256Y-181880000D01*
X71597452Y-181880000D01*
X71597452Y-180528848D01*
X72104256Y-180528848D01*
X72104256Y-180938443D01*
X72986217Y-180938443D01*
X73055842Y-180933348D01*
X73101799Y-180922341D01*
X73140358Y-180905599D01*
X73175890Y-180880522D01*
X73204570Y-180849295D01*
X73234691Y-180796432D01*
X73245598Y-180757970D01*
X73249389Y-180715572D01*
X73240146Y-180647764D01*
X73224532Y-180608598D01*
X73201762Y-180573422D01*
X73169751Y-180542248D01*
X73136359Y-180520819D01*
X73096110Y-180504504D01*
X73045890Y-180493672D01*
X72986217Y-180489891D01*
X72140648Y-180489891D01*
X72118658Y-180495245D01*
X72108010Y-180507832D01*
X72104256Y-180528848D01*
X71597452Y-180528848D01*
X71597452Y-180106186D01*
X71610580Y-180042338D01*
X71626139Y-180020423D01*
X71647617Y-180004214D01*
X71680186Y-179992491D01*
X71720673Y-179988583D01*
X72974982Y-179988583D01*
X73137777Y-179999453D01*
G37*
G36*
X75458565Y-181880000D02*
G01*
X75573262Y-181876056D01*
X75675935Y-181864083D01*
X75756835Y-181846682D01*
X75828912Y-181822716D01*
X75887078Y-181795062D01*
X75938329Y-181761734D01*
X75980760Y-181724741D01*
X76017290Y-181682440D01*
X76073261Y-181581636D01*
X76108790Y-181451795D01*
X76122173Y-181275376D01*
X76122173Y-179988583D01*
X75612561Y-179988583D01*
X75612561Y-181219445D01*
X75608644Y-181267883D01*
X75596857Y-181308305D01*
X75580220Y-181336991D01*
X75557587Y-181359866D01*
X75496029Y-181388151D01*
X75424982Y-181395666D01*
X74638154Y-181395666D01*
X74586507Y-181391758D01*
X74543880Y-181380034D01*
X74514201Y-181363681D01*
X74490831Y-181341536D01*
X74462936Y-181282498D01*
X74456193Y-181219445D01*
X74456193Y-179988583D01*
X73946580Y-179988583D01*
X73946580Y-181275376D01*
X73950546Y-181376061D01*
X73962679Y-181466921D01*
X73980317Y-181538680D01*
X74004741Y-181603176D01*
X74033209Y-181655901D01*
X74067726Y-181702775D01*
X74106752Y-181742396D01*
X74151688Y-181776808D01*
X74261480Y-181830936D01*
X74406400Y-181866238D01*
X74610188Y-181880000D01*
X75458565Y-181880000D01*
G37*
G36*
X76306454Y-179988583D02*
G01*
X76306454Y-180489891D01*
X77138101Y-180489891D01*
X77138101Y-181880000D01*
X77647592Y-181880000D01*
X77647592Y-180489891D01*
X78476430Y-180489891D01*
X78476430Y-179988583D01*
X76306454Y-179988583D01*
G37*
G36*
X81394109Y-179995495D02*
G01*
X81533095Y-180028131D01*
X81650256Y-180085582D01*
X81701666Y-180123675D01*
X81748063Y-180167857D01*
X81765034Y-180186825D01*
X81833302Y-180289789D01*
X81875911Y-180409036D01*
X81887005Y-180474872D01*
X81890823Y-180545334D01*
X81881556Y-180646407D01*
X81845000Y-180759996D01*
X81783825Y-180854383D01*
X81700436Y-180927575D01*
X81743936Y-180954736D01*
X81782392Y-180987906D01*
X81819374Y-181031233D01*
X81850064Y-181080297D01*
X81876029Y-181138356D01*
X81894731Y-181200821D01*
X81906454Y-181269044D01*
X81910362Y-181339490D01*
X81897186Y-181457606D01*
X81878516Y-181521427D01*
X81852493Y-181581798D01*
X81818880Y-181639463D01*
X81778838Y-181692421D01*
X81709573Y-181759630D01*
X81604826Y-181823727D01*
X81543150Y-181847414D01*
X81474765Y-181864957D01*
X81396988Y-181876165D01*
X81311235Y-181880000D01*
X79930896Y-181880000D01*
X79921941Y-181879846D01*
X79858934Y-181865919D01*
X79836827Y-181850735D01*
X79820498Y-181829969D01*
X79808775Y-181798709D01*
X79804867Y-181759710D01*
X79804867Y-181378813D01*
X80311671Y-181378813D01*
X80317039Y-181405135D01*
X80329694Y-181416908D01*
X80350872Y-181420823D01*
X81190823Y-181420823D01*
X81197968Y-181420755D01*
X81244180Y-181416413D01*
X81281765Y-181405880D01*
X81314422Y-181388059D01*
X81339200Y-181364769D01*
X81363357Y-181326510D01*
X81378401Y-181258279D01*
X81372966Y-181219557D01*
X81358372Y-181184875D01*
X81336392Y-181154476D01*
X81334771Y-181152729D01*
X81282449Y-181116080D01*
X81242439Y-181105041D01*
X81190823Y-181101231D01*
X80311671Y-181101231D01*
X80311671Y-181378813D01*
X79804867Y-181378813D01*
X79804867Y-180506378D01*
X80311671Y-180506378D01*
X80311671Y-180762344D01*
X81193632Y-180762344D01*
X81199578Y-180762290D01*
X81242227Y-180758091D01*
X81277265Y-180747622D01*
X81308935Y-180728994D01*
X81333583Y-180703970D01*
X81353408Y-180671503D01*
X81367166Y-180612135D01*
X81364387Y-180585718D01*
X81352530Y-180550862D01*
X81333583Y-180520300D01*
X81329553Y-180515666D01*
X81277186Y-180478996D01*
X81239734Y-180468364D01*
X81193632Y-180464612D01*
X80350872Y-180464612D01*
X80329184Y-180468763D01*
X80315814Y-180482675D01*
X80311671Y-180506378D01*
X79804867Y-180506378D01*
X79804867Y-180106186D01*
X79804913Y-180101750D01*
X79818253Y-180042023D01*
X79833984Y-180020302D01*
X79855752Y-180004214D01*
X79889136Y-179992491D01*
X79930896Y-179988583D01*
X81283269Y-179988583D01*
X81394109Y-179995495D01*
G37*
G36*
X79489550Y-132631622D02*
G01*
X78498412Y-132631622D01*
X78420345Y-132627793D01*
X78350086Y-132616621D01*
X78288983Y-132599210D01*
X78234456Y-132575764D01*
X78143578Y-132512471D01*
X78117638Y-132486297D01*
X78080863Y-132441015D01*
X78050223Y-132390905D01*
X78026414Y-132336916D01*
X78009883Y-132279528D01*
X78000035Y-132187100D01*
X78015061Y-132072380D01*
X78059562Y-131964483D01*
X78092198Y-131915570D01*
X78130890Y-131871628D01*
X78139986Y-131862868D01*
X78188194Y-131823763D01*
X78243150Y-131791226D01*
X78297923Y-131768752D01*
X78360034Y-131752381D01*
X78498412Y-131739891D01*
X79489550Y-131739891D01*
X79489550Y-131238583D01*
X78498412Y-131238583D01*
X78394533Y-131242432D01*
X78296897Y-131253747D01*
X78206192Y-131271962D01*
X78121241Y-131296811D01*
X78041574Y-131328084D01*
X77967334Y-131365355D01*
X77831803Y-131458664D01*
X77798412Y-131487833D01*
X77682874Y-131616029D01*
X77634152Y-131687571D01*
X77591965Y-131763541D01*
X77557079Y-131842581D01*
X77529371Y-131925118D01*
X77509549Y-132009061D01*
X77497378Y-132095581D01*
X77493231Y-132184413D01*
X77508411Y-132356905D01*
X77553271Y-132521260D01*
X77626449Y-132673674D01*
X77725776Y-132809677D01*
X77736863Y-132822009D01*
X77797640Y-132882846D01*
X77864159Y-132937887D01*
X77933681Y-132985027D01*
X78008725Y-133026135D01*
X78087504Y-133060170D01*
X78171750Y-133087823D01*
X78260839Y-133108653D01*
X78355496Y-133122602D01*
X78498412Y-133130000D01*
X79489550Y-133130000D01*
X79489550Y-132631622D01*
G37*
G36*
X80354780Y-132822254D02*
G01*
X80391226Y-132893246D01*
X80432592Y-132955918D01*
X80475713Y-133006923D01*
X80523353Y-133050835D01*
X80573764Y-133086575D01*
X80628604Y-133115819D01*
X80752667Y-133155194D01*
X80903594Y-133169078D01*
X80987226Y-133165156D01*
X81064262Y-133153334D01*
X81129861Y-133135292D01*
X81190235Y-133110352D01*
X81243505Y-133079831D01*
X81292315Y-133042821D01*
X81377574Y-132948673D01*
X81449477Y-132822254D01*
X82127128Y-131322602D01*
X82157903Y-131238583D01*
X81567079Y-131238583D01*
X81544731Y-131305750D01*
X80984682Y-132612327D01*
X80967374Y-132642458D01*
X80947199Y-132660856D01*
X80906280Y-132671067D01*
X80879068Y-132666974D01*
X80854632Y-132653950D01*
X80825192Y-132612327D01*
X80259525Y-131305750D01*
X80239986Y-131238583D01*
X79640736Y-131238583D01*
X79671511Y-131322602D01*
X80354780Y-132822254D01*
G37*
G36*
X85075094Y-131245495D02*
G01*
X85214080Y-131278131D01*
X85331240Y-131335582D01*
X85382650Y-131373675D01*
X85429047Y-131417857D01*
X85446018Y-131436825D01*
X85514286Y-131539789D01*
X85556896Y-131659036D01*
X85567989Y-131724872D01*
X85571807Y-131795334D01*
X85562540Y-131896407D01*
X85525985Y-132009996D01*
X85464810Y-132104383D01*
X85381420Y-132177575D01*
X85424921Y-132204736D01*
X85463377Y-132237906D01*
X85500358Y-132281233D01*
X85531048Y-132330297D01*
X85557014Y-132388356D01*
X85575715Y-132450821D01*
X85587439Y-132519044D01*
X85591347Y-132589490D01*
X85578170Y-132707606D01*
X85559500Y-132771427D01*
X85533477Y-132831798D01*
X85499864Y-132889463D01*
X85459822Y-132942421D01*
X85390557Y-133009630D01*
X85285810Y-133073727D01*
X85224134Y-133097414D01*
X85155750Y-133114957D01*
X85077972Y-133126165D01*
X84992219Y-133130000D01*
X83611881Y-133130000D01*
X83602925Y-133129846D01*
X83539918Y-133115919D01*
X83517812Y-133100735D01*
X83501483Y-133079969D01*
X83489759Y-133048709D01*
X83485851Y-133009710D01*
X83485851Y-132628813D01*
X83992655Y-132628813D01*
X83998023Y-132655135D01*
X84010678Y-132666908D01*
X84031856Y-132670823D01*
X84871807Y-132670823D01*
X84878953Y-132670755D01*
X84925165Y-132666413D01*
X84962749Y-132655880D01*
X84995407Y-132638059D01*
X85020185Y-132614769D01*
X85044341Y-132576510D01*
X85059386Y-132508279D01*
X85053950Y-132469557D01*
X85039356Y-132434875D01*
X85017376Y-132404476D01*
X85015756Y-132402729D01*
X84963434Y-132366080D01*
X84923423Y-132355041D01*
X84871807Y-132351231D01*
X83992655Y-132351231D01*
X83992655Y-132628813D01*
X83485851Y-132628813D01*
X83485851Y-131756378D01*
X83992655Y-131756378D01*
X83992655Y-132012344D01*
X84874616Y-132012344D01*
X84880562Y-132012290D01*
X84923211Y-132008091D01*
X84958250Y-131997622D01*
X84989919Y-131978994D01*
X85014567Y-131953970D01*
X85034393Y-131921503D01*
X85048151Y-131862135D01*
X85045371Y-131835718D01*
X85033514Y-131800862D01*
X85014567Y-131770300D01*
X85010537Y-131765666D01*
X84958171Y-131728996D01*
X84920718Y-131718364D01*
X84874616Y-131714612D01*
X84031856Y-131714612D01*
X84010169Y-131718763D01*
X83996798Y-131732675D01*
X83992655Y-131756378D01*
X83485851Y-131756378D01*
X83485851Y-131356186D01*
X83485897Y-131351750D01*
X83499237Y-131292023D01*
X83514968Y-131270302D01*
X83536737Y-131254214D01*
X83570121Y-131242491D01*
X83611881Y-131238583D01*
X84964253Y-131238583D01*
X85075094Y-131245495D01*
G37*
G36*
X86852495Y-131238583D02*
G01*
X86852495Y-131739891D01*
X87163294Y-131739891D01*
X87193445Y-131743832D01*
X87215296Y-131755788D01*
X87234271Y-131793750D01*
X87236200Y-131818171D01*
X87236200Y-133130000D01*
X87740195Y-133130000D01*
X87740195Y-131742578D01*
X87736138Y-131636663D01*
X87723372Y-131544096D01*
X87706100Y-131478849D01*
X87682096Y-131421875D01*
X87655071Y-131378482D01*
X87622164Y-131341202D01*
X87542023Y-131286617D01*
X87433575Y-131252156D01*
X87272592Y-131238583D01*
X86852495Y-131238583D01*
G37*
G36*
X90487183Y-131205580D02*
G01*
X90610504Y-131245388D01*
X90665379Y-131275070D01*
X90715881Y-131311318D01*
X90763764Y-131355907D01*
X90807139Y-131407633D01*
X90848757Y-131471067D01*
X90885433Y-131542787D01*
X91568580Y-133046102D01*
X91599354Y-133130000D01*
X91028193Y-133130000D01*
X91005973Y-133066227D01*
X91005722Y-133065642D01*
X90904972Y-132836053D01*
X89784996Y-132836053D01*
X89687055Y-133062833D01*
X89686851Y-133063378D01*
X89667393Y-133130000D01*
X89082188Y-133130000D01*
X89112962Y-133046102D01*
X89395748Y-132418764D01*
X89969766Y-132418764D01*
X90720202Y-132418764D01*
X90428943Y-131739281D01*
X90397923Y-131697376D01*
X90371637Y-131684385D01*
X90342236Y-131680296D01*
X90337832Y-131680378D01*
X90293194Y-131694063D01*
X90274109Y-131712033D01*
X90258217Y-131739281D01*
X89969766Y-132418764D01*
X89395748Y-132418764D01*
X89790614Y-131542787D01*
X89865209Y-131411841D01*
X89950947Y-131317773D01*
X89999924Y-131280810D01*
X90053396Y-131250285D01*
X90113794Y-131225400D01*
X90179439Y-131207374D01*
X90256145Y-131195603D01*
X90339428Y-131191688D01*
X90487183Y-131205580D01*
G37*
G36*
X93247383Y-133169078D02*
G01*
X93309631Y-133165116D01*
X93369290Y-133153013D01*
X93420776Y-133134387D01*
X93467866Y-133108328D01*
X93506039Y-133077909D01*
X93538893Y-133040921D01*
X93566608Y-132995177D01*
X94140579Y-131803150D01*
X94161677Y-131783737D01*
X94176971Y-131780680D01*
X94195207Y-131784588D01*
X94210520Y-131796311D01*
X94221790Y-131831238D01*
X94221790Y-133130000D01*
X94709054Y-133130000D01*
X94709054Y-131741479D01*
X94705195Y-131655422D01*
X94693813Y-131578535D01*
X94676469Y-131513886D01*
X94652953Y-131456216D01*
X94624160Y-131405936D01*
X94589905Y-131361286D01*
X94532589Y-131306727D01*
X94479012Y-131269013D01*
X94419025Y-131237309D01*
X94358361Y-131214590D01*
X94292699Y-131199152D01*
X94202250Y-131191688D01*
X94136029Y-131195530D01*
X94075009Y-131206793D01*
X94019550Y-131224813D01*
X93968567Y-131249306D01*
X93876355Y-131318573D01*
X93793663Y-131418693D01*
X93723412Y-131545230D01*
X93295010Y-132476528D01*
X93281528Y-132499745D01*
X93264176Y-132510761D01*
X93247383Y-132512920D01*
X93224547Y-132508337D01*
X93207454Y-132491885D01*
X93199878Y-132476528D01*
X92771476Y-131545230D01*
X92727640Y-131460978D01*
X92677900Y-131385899D01*
X92632332Y-131332372D01*
X92581672Y-131286442D01*
X92532162Y-131252668D01*
X92477885Y-131225844D01*
X92422073Y-131207355D01*
X92361403Y-131195842D01*
X92292638Y-131191688D01*
X92167004Y-131206303D01*
X92051795Y-131248809D01*
X91962299Y-131306727D01*
X91916849Y-131348323D01*
X91877636Y-131395885D01*
X91847276Y-131445626D01*
X91822718Y-131501587D01*
X91792168Y-131632723D01*
X91785834Y-131741479D01*
X91785834Y-133130000D01*
X92273098Y-133130000D01*
X92273098Y-131831360D01*
X92276692Y-131809895D01*
X92286214Y-131794323D01*
X92317795Y-131780802D01*
X92349307Y-131795068D01*
X92354309Y-131803272D01*
X92928280Y-132995422D01*
X92981572Y-133070894D01*
X93056771Y-133126006D01*
X93153830Y-133159874D01*
X93247383Y-133169078D01*
G37*
G36*
X94876483Y-131238583D02*
G01*
X94876483Y-131739891D01*
X95708130Y-131739891D01*
X95708130Y-133130000D01*
X96217620Y-133130000D01*
X96217620Y-131739891D01*
X97046458Y-131739891D01*
X97046458Y-131238583D01*
X94876483Y-131238583D01*
G37*
G36*
X78964916Y-162631622D02*
G01*
X77973778Y-162631622D01*
X77895711Y-162627793D01*
X77825452Y-162616621D01*
X77764349Y-162599210D01*
X77709822Y-162575764D01*
X77618944Y-162512471D01*
X77593004Y-162486297D01*
X77556229Y-162441015D01*
X77525589Y-162390905D01*
X77501780Y-162336916D01*
X77485249Y-162279528D01*
X77475401Y-162187100D01*
X77490427Y-162072380D01*
X77534928Y-161964483D01*
X77567564Y-161915570D01*
X77606256Y-161871628D01*
X77615352Y-161862868D01*
X77663560Y-161823763D01*
X77718516Y-161791226D01*
X77773289Y-161768752D01*
X77835400Y-161752381D01*
X77973778Y-161739891D01*
X78964916Y-161739891D01*
X78964916Y-161238583D01*
X77973778Y-161238583D01*
X77869899Y-161242432D01*
X77772263Y-161253747D01*
X77681558Y-161271962D01*
X77596607Y-161296811D01*
X77516940Y-161328084D01*
X77442700Y-161365355D01*
X77307169Y-161458664D01*
X77273778Y-161487833D01*
X77158240Y-161616029D01*
X77109518Y-161687571D01*
X77067331Y-161763541D01*
X77032445Y-161842581D01*
X77004737Y-161925118D01*
X76984915Y-162009061D01*
X76972744Y-162095581D01*
X76968597Y-162184413D01*
X76983777Y-162356905D01*
X77028637Y-162521260D01*
X77101815Y-162673674D01*
X77201142Y-162809677D01*
X77212229Y-162822009D01*
X77273006Y-162882846D01*
X77339525Y-162937887D01*
X77409047Y-162985027D01*
X77484091Y-163026135D01*
X77562870Y-163060170D01*
X77647116Y-163087823D01*
X77736205Y-163108653D01*
X77830862Y-163122602D01*
X77973778Y-163130000D01*
X78964916Y-163130000D01*
X78964916Y-162631622D01*
G37*
G36*
X79830146Y-162822254D02*
G01*
X79866592Y-162893246D01*
X79907958Y-162955918D01*
X79951079Y-163006923D01*
X79998719Y-163050835D01*
X80049130Y-163086575D01*
X80103970Y-163115819D01*
X80228033Y-163155194D01*
X80378960Y-163169078D01*
X80462592Y-163165156D01*
X80539628Y-163153334D01*
X80605227Y-163135292D01*
X80665601Y-163110352D01*
X80718871Y-163079831D01*
X80767681Y-163042821D01*
X80852940Y-162948673D01*
X80924843Y-162822254D01*
X81602494Y-161322602D01*
X81633269Y-161238583D01*
X81042445Y-161238583D01*
X81020097Y-161305750D01*
X80460048Y-162612327D01*
X80442740Y-162642458D01*
X80422565Y-162660856D01*
X80381646Y-162671067D01*
X80354434Y-162666974D01*
X80329998Y-162653950D01*
X80300558Y-162612327D01*
X79734891Y-161305750D01*
X79715352Y-161238583D01*
X79116102Y-161238583D01*
X79146877Y-161322602D01*
X79830146Y-162822254D01*
G37*
G36*
X84550460Y-161245495D02*
G01*
X84689446Y-161278131D01*
X84806606Y-161335582D01*
X84858016Y-161373675D01*
X84904413Y-161417857D01*
X84921384Y-161436825D01*
X84989652Y-161539789D01*
X85032262Y-161659036D01*
X85043355Y-161724872D01*
X85047173Y-161795334D01*
X85037906Y-161896407D01*
X85001351Y-162009996D01*
X84940176Y-162104383D01*
X84856786Y-162177575D01*
X84900287Y-162204736D01*
X84938743Y-162237906D01*
X84975724Y-162281233D01*
X85006414Y-162330297D01*
X85032380Y-162388356D01*
X85051081Y-162450821D01*
X85062805Y-162519044D01*
X85066713Y-162589490D01*
X85053536Y-162707606D01*
X85034866Y-162771427D01*
X85008843Y-162831798D01*
X84975230Y-162889463D01*
X84935188Y-162942421D01*
X84865923Y-163009630D01*
X84761176Y-163073727D01*
X84699500Y-163097414D01*
X84631116Y-163114957D01*
X84553338Y-163126165D01*
X84467585Y-163130000D01*
X83087247Y-163130000D01*
X83078291Y-163129846D01*
X83015284Y-163115919D01*
X82993178Y-163100735D01*
X82976849Y-163079969D01*
X82965125Y-163048709D01*
X82961217Y-163009710D01*
X82961217Y-162628813D01*
X83468021Y-162628813D01*
X83473389Y-162655135D01*
X83486044Y-162666908D01*
X83507222Y-162670823D01*
X84347173Y-162670823D01*
X84354319Y-162670755D01*
X84400531Y-162666413D01*
X84438115Y-162655880D01*
X84470773Y-162638059D01*
X84495551Y-162614769D01*
X84519707Y-162576510D01*
X84534752Y-162508279D01*
X84529316Y-162469557D01*
X84514722Y-162434875D01*
X84492742Y-162404476D01*
X84491122Y-162402729D01*
X84438800Y-162366080D01*
X84398789Y-162355041D01*
X84347173Y-162351231D01*
X83468021Y-162351231D01*
X83468021Y-162628813D01*
X82961217Y-162628813D01*
X82961217Y-161756378D01*
X83468021Y-161756378D01*
X83468021Y-162012344D01*
X84349982Y-162012344D01*
X84355928Y-162012290D01*
X84398577Y-162008091D01*
X84433616Y-161997622D01*
X84465285Y-161978994D01*
X84489933Y-161953970D01*
X84509759Y-161921503D01*
X84523517Y-161862135D01*
X84520737Y-161835718D01*
X84508880Y-161800862D01*
X84489933Y-161770300D01*
X84485903Y-161765666D01*
X84433537Y-161728996D01*
X84396084Y-161718364D01*
X84349982Y-161714612D01*
X83507222Y-161714612D01*
X83485535Y-161718763D01*
X83472164Y-161732675D01*
X83468021Y-161756378D01*
X82961217Y-161756378D01*
X82961217Y-161356186D01*
X82961263Y-161351750D01*
X82974603Y-161292023D01*
X82990334Y-161270302D01*
X83012103Y-161254214D01*
X83045487Y-161242491D01*
X83087247Y-161238583D01*
X84439619Y-161238583D01*
X84550460Y-161245495D01*
G37*
G36*
X86339096Y-161739891D02*
G01*
X87649459Y-161739891D01*
X87696373Y-161743900D01*
X87732996Y-161756327D01*
X87754153Y-161772174D01*
X87768785Y-161793747D01*
X87778297Y-161843328D01*
X87774364Y-161873718D01*
X87762470Y-161899709D01*
X87718091Y-161938706D01*
X87683164Y-161955069D01*
X86577110Y-162396782D01*
X86511659Y-162427347D01*
X86456746Y-162461219D01*
X86411766Y-162497682D01*
X86375641Y-162536367D01*
X86325696Y-162620968D01*
X86302245Y-162715870D01*
X86299895Y-162760460D01*
X86303850Y-162815929D01*
X86315902Y-162870528D01*
X86335155Y-162920580D01*
X86362245Y-162967689D01*
X86394916Y-163008187D01*
X86434866Y-163044325D01*
X86479626Y-163073769D01*
X86531272Y-163097789D01*
X86588243Y-163115244D01*
X86652038Y-163126205D01*
X86722679Y-163130000D01*
X88341154Y-163130000D01*
X88341154Y-162645666D01*
X87142655Y-162645666D01*
X87126947Y-162641985D01*
X87115799Y-162631847D01*
X87111880Y-162617700D01*
X87126146Y-162594035D01*
X87134351Y-162589734D01*
X87988346Y-162279424D01*
X88055481Y-162250657D01*
X88116302Y-162216336D01*
X88171003Y-162176710D01*
X88219102Y-162132462D01*
X88260803Y-162083682D01*
X88295575Y-162031226D01*
X88344193Y-161916270D01*
X88363273Y-161791717D01*
X88363503Y-161776161D01*
X88359625Y-161706728D01*
X88348114Y-161640468D01*
X88329518Y-161578783D01*
X88303885Y-161520958D01*
X88271917Y-161468143D01*
X88233451Y-161419829D01*
X88189104Y-161376773D01*
X88138704Y-161338863D01*
X88082518Y-161306517D01*
X88020622Y-161280023D01*
X87952802Y-161259652D01*
X87879535Y-161245928D01*
X87767062Y-161238583D01*
X86339096Y-161238583D01*
X86339096Y-161739891D01*
G37*
G36*
X91011817Y-161205580D02*
G01*
X91135137Y-161245388D01*
X91190012Y-161275070D01*
X91240515Y-161311318D01*
X91288398Y-161355907D01*
X91331772Y-161407633D01*
X91373390Y-161471067D01*
X91410066Y-161542787D01*
X92093213Y-163046102D01*
X92123988Y-163130000D01*
X91552826Y-163130000D01*
X91530607Y-163066227D01*
X91530355Y-163065642D01*
X91429605Y-162836053D01*
X90309630Y-162836053D01*
X90211688Y-163062833D01*
X90211484Y-163063378D01*
X90192027Y-163130000D01*
X89606821Y-163130000D01*
X89637595Y-163046102D01*
X89920381Y-162418764D01*
X90494399Y-162418764D01*
X91244836Y-162418764D01*
X90953576Y-161739281D01*
X90922556Y-161697376D01*
X90896270Y-161684385D01*
X90866870Y-161680296D01*
X90862465Y-161680378D01*
X90817827Y-161694063D01*
X90798742Y-161712033D01*
X90782850Y-161739281D01*
X90494399Y-162418764D01*
X89920381Y-162418764D01*
X90315247Y-161542787D01*
X90389843Y-161411841D01*
X90475580Y-161317773D01*
X90524557Y-161280810D01*
X90578030Y-161250285D01*
X90638427Y-161225400D01*
X90704072Y-161207374D01*
X90780779Y-161195603D01*
X90864061Y-161191688D01*
X91011817Y-161205580D01*
G37*
G36*
X93772016Y-163169078D02*
G01*
X93834264Y-163165116D01*
X93893924Y-163153013D01*
X93945410Y-163134387D01*
X93992499Y-163108328D01*
X94030673Y-163077909D01*
X94063526Y-163040921D01*
X94091242Y-162995177D01*
X94665212Y-161803150D01*
X94686311Y-161783737D01*
X94701605Y-161780680D01*
X94719840Y-161784588D01*
X94735153Y-161796311D01*
X94746423Y-161831238D01*
X94746423Y-163130000D01*
X95233688Y-163130000D01*
X95233688Y-161741479D01*
X95229828Y-161655422D01*
X95218446Y-161578535D01*
X95201103Y-161513886D01*
X95177586Y-161456216D01*
X95148793Y-161405936D01*
X95114538Y-161361286D01*
X95057222Y-161306727D01*
X95003645Y-161269013D01*
X94943658Y-161237309D01*
X94882994Y-161214590D01*
X94817332Y-161199152D01*
X94726884Y-161191688D01*
X94660663Y-161195530D01*
X94599643Y-161206793D01*
X94544183Y-161224813D01*
X94493201Y-161249306D01*
X94400988Y-161318573D01*
X94318296Y-161418693D01*
X94248046Y-161545230D01*
X93819644Y-162476528D01*
X93806161Y-162499745D01*
X93788810Y-162510761D01*
X93772016Y-162512920D01*
X93749180Y-162508337D01*
X93732087Y-162491885D01*
X93724511Y-162476528D01*
X93296109Y-161545230D01*
X93252273Y-161460978D01*
X93202534Y-161385899D01*
X93156965Y-161332372D01*
X93106305Y-161286442D01*
X93056795Y-161252668D01*
X93002518Y-161225844D01*
X92946706Y-161207355D01*
X92886036Y-161195842D01*
X92817271Y-161191688D01*
X92691637Y-161206303D01*
X92576428Y-161248809D01*
X92486933Y-161306727D01*
X92441482Y-161348323D01*
X92402269Y-161395885D01*
X92371909Y-161445626D01*
X92347351Y-161501587D01*
X92316802Y-161632723D01*
X92310467Y-161741479D01*
X92310467Y-163130000D01*
X92797732Y-163130000D01*
X92797732Y-161831360D01*
X92801325Y-161809895D01*
X92810847Y-161794323D01*
X92842428Y-161780802D01*
X92873940Y-161795068D01*
X92878942Y-161803272D01*
X93452913Y-162995422D01*
X93506206Y-163070894D01*
X93581405Y-163126006D01*
X93678463Y-163159874D01*
X93772016Y-163169078D01*
G37*
G36*
X95401116Y-161238583D02*
G01*
X95401116Y-161739891D01*
X96232763Y-161739891D01*
X96232763Y-163130000D01*
X96742254Y-163130000D01*
X96742254Y-161739891D01*
X97571092Y-161739891D01*
X97571092Y-161238583D01*
X95401116Y-161238583D01*
G37*
G36*
X71841085Y-199881622D02*
G01*
X70849947Y-199881622D01*
X70771880Y-199877793D01*
X70701621Y-199866621D01*
X70640518Y-199849210D01*
X70585991Y-199825764D01*
X70495113Y-199762471D01*
X70469173Y-199736297D01*
X70432398Y-199691015D01*
X70401758Y-199640905D01*
X70377949Y-199586916D01*
X70361418Y-199529528D01*
X70351570Y-199437100D01*
X70366596Y-199322380D01*
X70411097Y-199214483D01*
X70443733Y-199165570D01*
X70482425Y-199121628D01*
X70491521Y-199112868D01*
X70539729Y-199073763D01*
X70594685Y-199041226D01*
X70649458Y-199018752D01*
X70711569Y-199002381D01*
X70849947Y-198989891D01*
X71841085Y-198989891D01*
X71841085Y-198488583D01*
X70849947Y-198488583D01*
X70746068Y-198492432D01*
X70648432Y-198503747D01*
X70557727Y-198521962D01*
X70472776Y-198546811D01*
X70393109Y-198578084D01*
X70318869Y-198615355D01*
X70183338Y-198708664D01*
X70149947Y-198737833D01*
X70034409Y-198866029D01*
X69985687Y-198937571D01*
X69943500Y-199013541D01*
X69908614Y-199092581D01*
X69880906Y-199175118D01*
X69861084Y-199259061D01*
X69848913Y-199345581D01*
X69844766Y-199434413D01*
X69859946Y-199606905D01*
X69904806Y-199771260D01*
X69977984Y-199923674D01*
X70077311Y-200059677D01*
X70088398Y-200072009D01*
X70149175Y-200132846D01*
X70215694Y-200187887D01*
X70285216Y-200235027D01*
X70360260Y-200276135D01*
X70439039Y-200310170D01*
X70523285Y-200337823D01*
X70612374Y-200358653D01*
X70707031Y-200372602D01*
X70849947Y-200380000D01*
X71841085Y-200380000D01*
X71841085Y-199881622D01*
G37*
G36*
X72706315Y-200072254D02*
G01*
X72742761Y-200143246D01*
X72784127Y-200205918D01*
X72827248Y-200256923D01*
X72874888Y-200300835D01*
X72925299Y-200336575D01*
X72980139Y-200365819D01*
X73104202Y-200405194D01*
X73255129Y-200419078D01*
X73338761Y-200415156D01*
X73415797Y-200403334D01*
X73481396Y-200385292D01*
X73541770Y-200360352D01*
X73595040Y-200329831D01*
X73643850Y-200292821D01*
X73729109Y-200198673D01*
X73801012Y-200072254D01*
X74478663Y-198572602D01*
X74509438Y-198488583D01*
X73918614Y-198488583D01*
X73896266Y-198555750D01*
X73336217Y-199862327D01*
X73318909Y-199892458D01*
X73298734Y-199910856D01*
X73257815Y-199921067D01*
X73230603Y-199916974D01*
X73206167Y-199903950D01*
X73176727Y-199862327D01*
X72611060Y-198555750D01*
X72591521Y-198488583D01*
X71992271Y-198488583D01*
X72023046Y-198572602D01*
X72706315Y-200072254D01*
G37*
G36*
X77426629Y-198495495D02*
G01*
X77565615Y-198528131D01*
X77682775Y-198585582D01*
X77734185Y-198623675D01*
X77780582Y-198667857D01*
X77797553Y-198686825D01*
X77865821Y-198789789D01*
X77908431Y-198909036D01*
X77919524Y-198974872D01*
X77923342Y-199045334D01*
X77914075Y-199146407D01*
X77877520Y-199259996D01*
X77816345Y-199354383D01*
X77732955Y-199427575D01*
X77776456Y-199454736D01*
X77814912Y-199487906D01*
X77851893Y-199531233D01*
X77882583Y-199580297D01*
X77908549Y-199638356D01*
X77927250Y-199700821D01*
X77938974Y-199769044D01*
X77942882Y-199839490D01*
X77929705Y-199957606D01*
X77911035Y-200021427D01*
X77885012Y-200081798D01*
X77851399Y-200139463D01*
X77811357Y-200192421D01*
X77742092Y-200259630D01*
X77637345Y-200323727D01*
X77575669Y-200347414D01*
X77507285Y-200364957D01*
X77429507Y-200376165D01*
X77343754Y-200380000D01*
X75963416Y-200380000D01*
X75954460Y-200379846D01*
X75891453Y-200365919D01*
X75869347Y-200350735D01*
X75853018Y-200329969D01*
X75841294Y-200298709D01*
X75837386Y-200259710D01*
X75837386Y-199878813D01*
X76344190Y-199878813D01*
X76349558Y-199905135D01*
X76362213Y-199916908D01*
X76383391Y-199920823D01*
X77223342Y-199920823D01*
X77230488Y-199920755D01*
X77276700Y-199916413D01*
X77314284Y-199905880D01*
X77346942Y-199888059D01*
X77371720Y-199864769D01*
X77395876Y-199826510D01*
X77410921Y-199758279D01*
X77405485Y-199719557D01*
X77390891Y-199684875D01*
X77368911Y-199654476D01*
X77367291Y-199652729D01*
X77314969Y-199616080D01*
X77274958Y-199605041D01*
X77223342Y-199601231D01*
X76344190Y-199601231D01*
X76344190Y-199878813D01*
X75837386Y-199878813D01*
X75837386Y-199006378D01*
X76344190Y-199006378D01*
X76344190Y-199262344D01*
X77226151Y-199262344D01*
X77232097Y-199262290D01*
X77274746Y-199258091D01*
X77309785Y-199247622D01*
X77341454Y-199228994D01*
X77366102Y-199203970D01*
X77385928Y-199171503D01*
X77399686Y-199112135D01*
X77396906Y-199085718D01*
X77385049Y-199050862D01*
X77366102Y-199020300D01*
X77362072Y-199015666D01*
X77309706Y-198978996D01*
X77272253Y-198968364D01*
X77226151Y-198964612D01*
X76383391Y-198964612D01*
X76361704Y-198968763D01*
X76348333Y-198982675D01*
X76344190Y-199006378D01*
X75837386Y-199006378D01*
X75837386Y-198606186D01*
X75837432Y-198601750D01*
X75850772Y-198542023D01*
X75866503Y-198520302D01*
X75888272Y-198504214D01*
X75921656Y-198492491D01*
X75963416Y-198488583D01*
X77315788Y-198488583D01*
X77426629Y-198495495D01*
G37*
G36*
X79204030Y-198488583D02*
G01*
X79204030Y-198989891D01*
X79514829Y-198989891D01*
X79544980Y-198993832D01*
X79566831Y-199005788D01*
X79585806Y-199043750D01*
X79587735Y-199068171D01*
X79587735Y-200380000D01*
X80091730Y-200380000D01*
X80091730Y-198992578D01*
X80087673Y-198886663D01*
X80074907Y-198794096D01*
X80057635Y-198728849D01*
X80033631Y-198671875D01*
X80006606Y-198628482D01*
X79973699Y-198591202D01*
X79893558Y-198536617D01*
X79785110Y-198502156D01*
X79624127Y-198488583D01*
X79204030Y-198488583D01*
G37*
G36*
X87654274Y-181381622D02*
G01*
X86663136Y-181381622D01*
X86585069Y-181377793D01*
X86514810Y-181366621D01*
X86453707Y-181349210D01*
X86399180Y-181325764D01*
X86308302Y-181262471D01*
X86282362Y-181236297D01*
X86245587Y-181191015D01*
X86214947Y-181140905D01*
X86191138Y-181086916D01*
X86174607Y-181029528D01*
X86164759Y-180937100D01*
X86179785Y-180822380D01*
X86224286Y-180714483D01*
X86256922Y-180665570D01*
X86295614Y-180621628D01*
X86304710Y-180612868D01*
X86352918Y-180573763D01*
X86407874Y-180541226D01*
X86462647Y-180518752D01*
X86524758Y-180502381D01*
X86663136Y-180489891D01*
X87654274Y-180489891D01*
X87654274Y-179988583D01*
X86663136Y-179988583D01*
X86559257Y-179992432D01*
X86461621Y-180003747D01*
X86370916Y-180021962D01*
X86285965Y-180046811D01*
X86206298Y-180078084D01*
X86132058Y-180115355D01*
X85996527Y-180208664D01*
X85963136Y-180237833D01*
X85847598Y-180366029D01*
X85798876Y-180437571D01*
X85756689Y-180513541D01*
X85721803Y-180592581D01*
X85694095Y-180675118D01*
X85674273Y-180759061D01*
X85662102Y-180845581D01*
X85657955Y-180934413D01*
X85673135Y-181106905D01*
X85717995Y-181271260D01*
X85791173Y-181423674D01*
X85890500Y-181559677D01*
X85901587Y-181572009D01*
X85962364Y-181632846D01*
X86028883Y-181687887D01*
X86098405Y-181735027D01*
X86173449Y-181776135D01*
X86252228Y-181810170D01*
X86336474Y-181837823D01*
X86425563Y-181858653D01*
X86520220Y-181872602D01*
X86663136Y-181880000D01*
X87654274Y-181880000D01*
X87654274Y-181381622D01*
G37*
G36*
X88519504Y-181572254D02*
G01*
X88555950Y-181643246D01*
X88597316Y-181705918D01*
X88640437Y-181756923D01*
X88688077Y-181800835D01*
X88738488Y-181836575D01*
X88793328Y-181865819D01*
X88917391Y-181905194D01*
X89068318Y-181919078D01*
X89151950Y-181915156D01*
X89228986Y-181903334D01*
X89294585Y-181885292D01*
X89354959Y-181860352D01*
X89408229Y-181829831D01*
X89457039Y-181792821D01*
X89542298Y-181698673D01*
X89614201Y-181572254D01*
X90291852Y-180072602D01*
X90322627Y-179988583D01*
X89731803Y-179988583D01*
X89709455Y-180055750D01*
X89149406Y-181362327D01*
X89132098Y-181392458D01*
X89111923Y-181410856D01*
X89071004Y-181421067D01*
X89043792Y-181416974D01*
X89019356Y-181403950D01*
X88989916Y-181362327D01*
X88424249Y-180055750D01*
X88404710Y-179988583D01*
X87805460Y-179988583D01*
X87836235Y-180072602D01*
X88519504Y-181572254D01*
G37*
G36*
X92965934Y-179955580D02*
G01*
X93089254Y-179995388D01*
X93144129Y-180025070D01*
X93194632Y-180061318D01*
X93242515Y-180105907D01*
X93285890Y-180157633D01*
X93327507Y-180221067D01*
X93364183Y-180292787D01*
X94047330Y-181796102D01*
X94078105Y-181880000D01*
X93506943Y-181880000D01*
X93484724Y-181816227D01*
X93484473Y-181815642D01*
X93383723Y-181586053D01*
X92263747Y-181586053D01*
X92165806Y-181812833D01*
X92165601Y-181813378D01*
X92146144Y-181880000D01*
X91560938Y-181880000D01*
X91591713Y-181796102D01*
X91874499Y-181168764D01*
X92448517Y-181168764D01*
X93198953Y-181168764D01*
X92907693Y-180489281D01*
X92876674Y-180447376D01*
X92850387Y-180434385D01*
X92820987Y-180430296D01*
X92816583Y-180430378D01*
X92771945Y-180444063D01*
X92752859Y-180462033D01*
X92736967Y-180489281D01*
X92448517Y-181168764D01*
X91874499Y-181168764D01*
X92269365Y-180292787D01*
X92343960Y-180161841D01*
X92429697Y-180067773D01*
X92478674Y-180030810D01*
X92532147Y-180000285D01*
X92592545Y-179975400D01*
X92658190Y-179957374D01*
X92734896Y-179945603D01*
X92818178Y-179941688D01*
X92965934Y-179955580D01*
G37*
G36*
X95352808Y-180489891D02*
G01*
X96663171Y-180489891D01*
X96710085Y-180493900D01*
X96746709Y-180506327D01*
X96767866Y-180522174D01*
X96782498Y-180543747D01*
X96792009Y-180593328D01*
X96788077Y-180623718D01*
X96776182Y-180649709D01*
X96731803Y-180688706D01*
X96696877Y-180705069D01*
X95590823Y-181146782D01*
X95525371Y-181177347D01*
X95470459Y-181211219D01*
X95425479Y-181247682D01*
X95389353Y-181286367D01*
X95339409Y-181370968D01*
X95315957Y-181465870D01*
X95313607Y-181510460D01*
X95317562Y-181565929D01*
X95329615Y-181620528D01*
X95348868Y-181670580D01*
X95375957Y-181717689D01*
X95408629Y-181758187D01*
X95448579Y-181794325D01*
X95493339Y-181823769D01*
X95544985Y-181847789D01*
X95601956Y-181865244D01*
X95665751Y-181876205D01*
X95736392Y-181880000D01*
X97354867Y-181880000D01*
X97354867Y-181395666D01*
X96156367Y-181395666D01*
X96140660Y-181391985D01*
X96129511Y-181381847D01*
X96125593Y-181367700D01*
X96139858Y-181344035D01*
X96148063Y-181339734D01*
X97002058Y-181029424D01*
X97069193Y-181000657D01*
X97130015Y-180966336D01*
X97184715Y-180926710D01*
X97232814Y-180882462D01*
X97274515Y-180833682D01*
X97309287Y-180781226D01*
X97357906Y-180666270D01*
X97376985Y-180541717D01*
X97377215Y-180526161D01*
X97373338Y-180456728D01*
X97361826Y-180390468D01*
X97343231Y-180328783D01*
X97317597Y-180270958D01*
X97285629Y-180218143D01*
X97247164Y-180169829D01*
X97202816Y-180126773D01*
X97152416Y-180088863D01*
X97096231Y-180056517D01*
X97034335Y-180030023D01*
X96966515Y-180009652D01*
X96893247Y-179995928D01*
X96780774Y-179988583D01*
X95352808Y-179988583D01*
X95352808Y-180489891D01*
G37*
G36*
X80007330Y-83239181D02*
G01*
X80107723Y-83245892D01*
X80202070Y-83259784D01*
X80291139Y-83280683D01*
X80374452Y-83308169D01*
X80454124Y-83342845D01*
X80528137Y-83383713D01*
X80599862Y-83432792D01*
X80665824Y-83487833D01*
X80735342Y-83559281D01*
X80836541Y-83698198D01*
X80910670Y-83851781D01*
X80955818Y-84015176D01*
X80971005Y-84184413D01*
X80970974Y-84192301D01*
X80966268Y-84281359D01*
X80953808Y-84367822D01*
X80933536Y-84452793D01*
X80905984Y-84534326D01*
X80871066Y-84612971D01*
X80829471Y-84687313D01*
X80781390Y-84757226D01*
X80727373Y-84822009D01*
X80636433Y-84909144D01*
X80500603Y-85002550D01*
X80425624Y-85040063D01*
X80345309Y-85071466D01*
X80259459Y-85096487D01*
X80168073Y-85114783D01*
X80069878Y-85126144D01*
X79965824Y-85130000D01*
X79568196Y-85130000D01*
X79425280Y-85122602D01*
X79330623Y-85108653D01*
X79241534Y-85087823D01*
X79157288Y-85060170D01*
X79078509Y-85026135D01*
X79003465Y-84985027D01*
X78933943Y-84937887D01*
X78867424Y-84882846D01*
X78806647Y-84822009D01*
X78795560Y-84809677D01*
X78696233Y-84673674D01*
X78623055Y-84521260D01*
X78578195Y-84356905D01*
X78563251Y-84187100D01*
X79069819Y-84187100D01*
X79079667Y-84279528D01*
X79096198Y-84336916D01*
X79120007Y-84390905D01*
X79150647Y-84441015D01*
X79187422Y-84486297D01*
X79213362Y-84512471D01*
X79304240Y-84575764D01*
X79358767Y-84599210D01*
X79419870Y-84616621D01*
X79490129Y-84627793D01*
X79568196Y-84631622D01*
X79965824Y-84631622D01*
X80011945Y-84630330D01*
X80083138Y-84622582D01*
X80147243Y-84608210D01*
X80205233Y-84587383D01*
X80256757Y-84560665D01*
X80304876Y-84526295D01*
X80346598Y-84486297D01*
X80404966Y-84407330D01*
X80449238Y-84300684D01*
X80464201Y-84187100D01*
X80464122Y-84178682D01*
X80458895Y-84118558D01*
X80445855Y-84060570D01*
X80425170Y-84004675D01*
X80397496Y-83952450D01*
X80324250Y-83862868D01*
X80318652Y-83857747D01*
X80228118Y-83794790D01*
X80175369Y-83771905D01*
X80115727Y-83754813D01*
X80045529Y-83743710D01*
X79965824Y-83739891D01*
X79568196Y-83739891D01*
X79429818Y-83752381D01*
X79367707Y-83768752D01*
X79312934Y-83791226D01*
X79257978Y-83823763D01*
X79209770Y-83862868D01*
X79200674Y-83871628D01*
X79161982Y-83915570D01*
X79129346Y-83964483D01*
X79084845Y-84072380D01*
X79069819Y-84187100D01*
X78563251Y-84187100D01*
X78563015Y-84184413D01*
X78567162Y-84095581D01*
X78579333Y-84009061D01*
X78599155Y-83925118D01*
X78626863Y-83842581D01*
X78661749Y-83763541D01*
X78703936Y-83687571D01*
X78752658Y-83616029D01*
X78868196Y-83487833D01*
X78901587Y-83458664D01*
X79037118Y-83365355D01*
X79111358Y-83328084D01*
X79191025Y-83296811D01*
X79275976Y-83271962D01*
X79366681Y-83253747D01*
X79464317Y-83242432D01*
X79568196Y-83238583D01*
X79965824Y-83238583D01*
X80007330Y-83239181D01*
G37*
G36*
X81552303Y-83238583D02*
G01*
X81482874Y-83242505D01*
X81421273Y-83254325D01*
X81372828Y-83271655D01*
X81330677Y-83295428D01*
X81296969Y-83323541D01*
X81268789Y-83357389D01*
X81229126Y-83442285D01*
X81211306Y-83557647D01*
X81210729Y-83585896D01*
X81210729Y-85130000D01*
X81717533Y-85130000D01*
X81717533Y-84498387D01*
X83193127Y-84498387D01*
X83193127Y-84027976D01*
X81717533Y-84027976D01*
X81717533Y-83823789D01*
X81721476Y-83789951D01*
X81733441Y-83764801D01*
X81770563Y-83742457D01*
X81795935Y-83739891D01*
X83201553Y-83739891D01*
X83201553Y-83238583D01*
X81552303Y-83238583D01*
G37*
G36*
X83764166Y-83238583D02*
G01*
X83694737Y-83242505D01*
X83633137Y-83254325D01*
X83584692Y-83271655D01*
X83542541Y-83295428D01*
X83508832Y-83323541D01*
X83480652Y-83357389D01*
X83440989Y-83442285D01*
X83423169Y-83557647D01*
X83422593Y-83585896D01*
X83422593Y-85130000D01*
X83929397Y-85130000D01*
X83929397Y-84498387D01*
X85404990Y-84498387D01*
X85404990Y-84027976D01*
X83929397Y-84027976D01*
X83929397Y-83823789D01*
X83933339Y-83789951D01*
X83945304Y-83764801D01*
X83982426Y-83742457D01*
X84007799Y-83739891D01*
X85413416Y-83739891D01*
X85413416Y-83238583D01*
X83764166Y-83238583D01*
G37*
G36*
X87616853Y-83238583D02*
G01*
X86228088Y-83238583D01*
X86129043Y-83242407D01*
X86041604Y-83253546D01*
X85967870Y-83270569D01*
X85902793Y-83293379D01*
X85795371Y-83354188D01*
X85732397Y-83409431D01*
X85688206Y-83460451D01*
X85650243Y-83516229D01*
X85619223Y-83575740D01*
X85595339Y-83638821D01*
X85579369Y-83703381D01*
X85571153Y-83770299D01*
X85570098Y-83804616D01*
X85573951Y-83872586D01*
X85585291Y-83937920D01*
X85629750Y-84060632D01*
X85701951Y-84169918D01*
X85729711Y-84200533D01*
X85778419Y-84244731D01*
X85834469Y-84283348D01*
X85891997Y-84312712D01*
X85957346Y-84336636D01*
X86029713Y-84354342D01*
X86111282Y-84365988D01*
X86228088Y-84371381D01*
X86998064Y-84371381D01*
X87055574Y-84375293D01*
X87096850Y-84387041D01*
X87132397Y-84412903D01*
X87164279Y-84465446D01*
X87171598Y-84512676D01*
X87167793Y-84545618D01*
X87156790Y-84575289D01*
X87140824Y-84598527D01*
X87118198Y-84619276D01*
X87087429Y-84634224D01*
X86998064Y-84645666D01*
X85620412Y-84645666D01*
X85620412Y-85130000D01*
X87087579Y-85130000D01*
X87172118Y-85126162D01*
X87249462Y-85114927D01*
X87318412Y-85097208D01*
X87381142Y-85073219D01*
X87489395Y-85007858D01*
X87566417Y-84934117D01*
X87642205Y-84822234D01*
X87669931Y-84760487D01*
X87690235Y-84695741D01*
X87702252Y-84631242D01*
X87706368Y-84565310D01*
X87691287Y-84439721D01*
X87646126Y-84317838D01*
X87572177Y-84206404D01*
X87544069Y-84175376D01*
X87494568Y-84130374D01*
X87438536Y-84091170D01*
X87380699Y-84060803D01*
X87316342Y-84036435D01*
X87247265Y-84019031D01*
X87171176Y-84008236D01*
X87087579Y-84004528D01*
X86256054Y-84004528D01*
X86199416Y-84000450D01*
X86162217Y-83987531D01*
X86146877Y-83976441D01*
X86125299Y-83954054D01*
X86109347Y-83926072D01*
X86099250Y-83875080D01*
X86103075Y-83840683D01*
X86114219Y-83809888D01*
X86138451Y-83776406D01*
X86162545Y-83758352D01*
X86195791Y-83745961D01*
X86256054Y-83739891D01*
X87616853Y-83739891D01*
X87616853Y-83238583D01*
G37*
G36*
X88175681Y-83238583D02*
G01*
X88112923Y-83242496D01*
X88058494Y-83254258D01*
X88017323Y-83271213D01*
X87982659Y-83294346D01*
X87956125Y-83321599D01*
X87935288Y-83354297D01*
X87910481Y-83437702D01*
X87906891Y-83493450D01*
X87906891Y-84866828D01*
X87910794Y-84926739D01*
X87922482Y-84978855D01*
X87939512Y-85018903D01*
X87962727Y-85052761D01*
X88023664Y-85100051D01*
X88109267Y-85125709D01*
X88172872Y-85130000D01*
X89897715Y-85130000D01*
X89897715Y-84645666D01*
X88458514Y-84645666D01*
X88436536Y-84641758D01*
X88422077Y-84630034D01*
X88413695Y-84595840D01*
X88413695Y-84368572D01*
X89889288Y-84368572D01*
X89889288Y-84004528D01*
X88413695Y-84004528D01*
X88413695Y-83787763D01*
X88417679Y-83763440D01*
X88429934Y-83747456D01*
X88458514Y-83739891D01*
X89897715Y-83739891D01*
X89897715Y-83238583D01*
X88175681Y-83238583D01*
G37*
G36*
X90051221Y-83238583D02*
G01*
X90051221Y-83739891D01*
X90882868Y-83739891D01*
X90882868Y-85130000D01*
X91392359Y-85130000D01*
X91392359Y-83739891D01*
X92221197Y-83739891D01*
X92221197Y-83238583D01*
X90051221Y-83238583D01*
G37*
G36*
X94864992Y-83205580D02*
G01*
X94988313Y-83245388D01*
X95043188Y-83275070D01*
X95093690Y-83311318D01*
X95141574Y-83355907D01*
X95184948Y-83407633D01*
X95226566Y-83471067D01*
X95263242Y-83542787D01*
X95946389Y-85046102D01*
X95977164Y-85130000D01*
X95406002Y-85130000D01*
X95383782Y-85066227D01*
X95383531Y-85065642D01*
X95282781Y-84836053D01*
X94162806Y-84836053D01*
X94064864Y-85062833D01*
X94064660Y-85063378D01*
X94045203Y-85130000D01*
X93459997Y-85130000D01*
X93490771Y-85046102D01*
X93773557Y-84418764D01*
X94347575Y-84418764D01*
X95098011Y-84418764D01*
X94806752Y-83739281D01*
X94775732Y-83697376D01*
X94749446Y-83684385D01*
X94720046Y-83680296D01*
X94715641Y-83680378D01*
X94671003Y-83694063D01*
X94651918Y-83712033D01*
X94636026Y-83739281D01*
X94347575Y-84418764D01*
X93773557Y-84418764D01*
X94168423Y-83542787D01*
X94243019Y-83411841D01*
X94328756Y-83317773D01*
X94377733Y-83280810D01*
X94431206Y-83250285D01*
X94491603Y-83225400D01*
X94557248Y-83207374D01*
X94633954Y-83195603D01*
X94717237Y-83191688D01*
X94864992Y-83205580D01*
G37*
G36*
X54501852Y-216989181D02*
G01*
X54602245Y-216995892D01*
X54696592Y-217009784D01*
X54785661Y-217030683D01*
X54868974Y-217058169D01*
X54948646Y-217092845D01*
X55022659Y-217133713D01*
X55094384Y-217182792D01*
X55160346Y-217237833D01*
X55229864Y-217309281D01*
X55331063Y-217448198D01*
X55405192Y-217601781D01*
X55450340Y-217765176D01*
X55465527Y-217934413D01*
X55465496Y-217942301D01*
X55460790Y-218031359D01*
X55448330Y-218117822D01*
X55428058Y-218202793D01*
X55400506Y-218284326D01*
X55365588Y-218362971D01*
X55323993Y-218437313D01*
X55275912Y-218507226D01*
X55221895Y-218572009D01*
X55130955Y-218659144D01*
X54995125Y-218752550D01*
X54920146Y-218790063D01*
X54839831Y-218821466D01*
X54753981Y-218846487D01*
X54662595Y-218864783D01*
X54564400Y-218876144D01*
X54460346Y-218880000D01*
X54062718Y-218880000D01*
X53919802Y-218872602D01*
X53825145Y-218858653D01*
X53736056Y-218837823D01*
X53651810Y-218810170D01*
X53573031Y-218776135D01*
X53497987Y-218735027D01*
X53428465Y-218687887D01*
X53361946Y-218632846D01*
X53301169Y-218572009D01*
X53290082Y-218559677D01*
X53190755Y-218423674D01*
X53117577Y-218271260D01*
X53072717Y-218106905D01*
X53057773Y-217937100D01*
X53564341Y-217937100D01*
X53574189Y-218029528D01*
X53590720Y-218086916D01*
X53614529Y-218140905D01*
X53645169Y-218191015D01*
X53681944Y-218236297D01*
X53707884Y-218262471D01*
X53798762Y-218325764D01*
X53853289Y-218349210D01*
X53914392Y-218366621D01*
X53984651Y-218377793D01*
X54062718Y-218381622D01*
X54460346Y-218381622D01*
X54506467Y-218380330D01*
X54577660Y-218372582D01*
X54641765Y-218358210D01*
X54699755Y-218337383D01*
X54751279Y-218310665D01*
X54799398Y-218276295D01*
X54841120Y-218236297D01*
X54899488Y-218157330D01*
X54943760Y-218050684D01*
X54958723Y-217937100D01*
X54958644Y-217928682D01*
X54953417Y-217868558D01*
X54940377Y-217810570D01*
X54919692Y-217754675D01*
X54892018Y-217702450D01*
X54818772Y-217612868D01*
X54813174Y-217607747D01*
X54722640Y-217544790D01*
X54669891Y-217521905D01*
X54610249Y-217504813D01*
X54540051Y-217493710D01*
X54460346Y-217489891D01*
X54062718Y-217489891D01*
X53924340Y-217502381D01*
X53862229Y-217518752D01*
X53807456Y-217541226D01*
X53752500Y-217573763D01*
X53704292Y-217612868D01*
X53695196Y-217621628D01*
X53656504Y-217665570D01*
X53623868Y-217714483D01*
X53579367Y-217822380D01*
X53564341Y-217937100D01*
X53057773Y-217937100D01*
X53057537Y-217934413D01*
X53061684Y-217845581D01*
X53073855Y-217759061D01*
X53093677Y-217675118D01*
X53121385Y-217592581D01*
X53156271Y-217513541D01*
X53198458Y-217437571D01*
X53247180Y-217366029D01*
X53362718Y-217237833D01*
X53396109Y-217208664D01*
X53531640Y-217115355D01*
X53605880Y-217078084D01*
X53685547Y-217046811D01*
X53770498Y-217021962D01*
X53861203Y-217003747D01*
X53958839Y-216992432D01*
X54062718Y-216988583D01*
X54460346Y-216988583D01*
X54501852Y-216989181D01*
G37*
G36*
X57208810Y-218880000D02*
G01*
X57323507Y-218876056D01*
X57426180Y-218864083D01*
X57507080Y-218846682D01*
X57579157Y-218822716D01*
X57637323Y-218795062D01*
X57688574Y-218761734D01*
X57731005Y-218724741D01*
X57767535Y-218682440D01*
X57823506Y-218581636D01*
X57859035Y-218451795D01*
X57872418Y-218275376D01*
X57872418Y-216988583D01*
X57362806Y-216988583D01*
X57362806Y-218219445D01*
X57358889Y-218267883D01*
X57347102Y-218308305D01*
X57330465Y-218336991D01*
X57307832Y-218359866D01*
X57246274Y-218388151D01*
X57175227Y-218395666D01*
X56388399Y-218395666D01*
X56336752Y-218391758D01*
X56294125Y-218380034D01*
X56264446Y-218363681D01*
X56241076Y-218341536D01*
X56213181Y-218282498D01*
X56206438Y-218219445D01*
X56206438Y-216988583D01*
X55696825Y-216988583D01*
X55696825Y-218275376D01*
X55700791Y-218376061D01*
X55712924Y-218466921D01*
X55730562Y-218538680D01*
X55754986Y-218603176D01*
X55783454Y-218655901D01*
X55817971Y-218702775D01*
X55856997Y-218742396D01*
X55901933Y-218776808D01*
X56011725Y-218830936D01*
X56156645Y-218866238D01*
X56360433Y-218880000D01*
X57208810Y-218880000D01*
G37*
G36*
X58056699Y-216988583D02*
G01*
X58056699Y-217489891D01*
X58888346Y-217489891D01*
X58888346Y-218880000D01*
X59397837Y-218880000D01*
X59397837Y-217489891D01*
X60226675Y-217489891D01*
X60226675Y-216988583D01*
X58056699Y-216988583D01*
G37*
G36*
X62870471Y-216955580D02*
G01*
X62993791Y-216995388D01*
X63048666Y-217025070D01*
X63099168Y-217061318D01*
X63147052Y-217105907D01*
X63190426Y-217157633D01*
X63232044Y-217221067D01*
X63268720Y-217292787D01*
X63951867Y-218796102D01*
X63982642Y-218880000D01*
X63411480Y-218880000D01*
X63389260Y-218816227D01*
X63389009Y-218815642D01*
X63288259Y-218586053D01*
X62168284Y-218586053D01*
X62070342Y-218812833D01*
X62070138Y-218813378D01*
X62050681Y-218880000D01*
X61465475Y-218880000D01*
X61496249Y-218796102D01*
X61779035Y-218168764D01*
X62353053Y-218168764D01*
X63103489Y-218168764D01*
X62812230Y-217489281D01*
X62781210Y-217447376D01*
X62754924Y-217434385D01*
X62725524Y-217430296D01*
X62721119Y-217430378D01*
X62676481Y-217444063D01*
X62657396Y-217462033D01*
X62641504Y-217489281D01*
X62353053Y-218168764D01*
X61779035Y-218168764D01*
X62173901Y-217292787D01*
X62248497Y-217161841D01*
X62334234Y-217067773D01*
X62383211Y-217030810D01*
X62436684Y-217000285D01*
X62497081Y-216975400D01*
X62562726Y-216957374D01*
X62639433Y-216945603D01*
X62722715Y-216941688D01*
X62870471Y-216955580D01*
G37*
G36*
X89689428Y-218919078D02*
G01*
X89751676Y-218915116D01*
X89811335Y-218903013D01*
X89862821Y-218884387D01*
X89909911Y-218858328D01*
X89948084Y-218827909D01*
X89980937Y-218790921D01*
X90008653Y-218745177D01*
X90582624Y-217553150D01*
X90603722Y-217533737D01*
X90619016Y-217530680D01*
X90637252Y-217534588D01*
X90652565Y-217546311D01*
X90663835Y-217581238D01*
X90663835Y-218880000D01*
X91151099Y-218880000D01*
X91151099Y-217491479D01*
X91147240Y-217405422D01*
X91135857Y-217328535D01*
X91118514Y-217263886D01*
X91094998Y-217206216D01*
X91066204Y-217155936D01*
X91031949Y-217111286D01*
X90974634Y-217056727D01*
X90921057Y-217019013D01*
X90861070Y-216987309D01*
X90800406Y-216964590D01*
X90734744Y-216949152D01*
X90644295Y-216941688D01*
X90578074Y-216945530D01*
X90517054Y-216956793D01*
X90461594Y-216974813D01*
X90410612Y-216999306D01*
X90318399Y-217068573D01*
X90235707Y-217168693D01*
X90165457Y-217295230D01*
X89737055Y-218226528D01*
X89723573Y-218249745D01*
X89706221Y-218260761D01*
X89689428Y-218262920D01*
X89666592Y-218258337D01*
X89649499Y-218241885D01*
X89641922Y-218226528D01*
X89213520Y-217295230D01*
X89169685Y-217210978D01*
X89119945Y-217135899D01*
X89074377Y-217082372D01*
X89023717Y-217036442D01*
X88974206Y-217002668D01*
X88919930Y-216975844D01*
X88864117Y-216957355D01*
X88803448Y-216945842D01*
X88734682Y-216941688D01*
X88609048Y-216956303D01*
X88493840Y-216998809D01*
X88404344Y-217056727D01*
X88358893Y-217098323D01*
X88319681Y-217145885D01*
X88289321Y-217195626D01*
X88264762Y-217251587D01*
X88234213Y-217382723D01*
X88227878Y-217491479D01*
X88227878Y-218880000D01*
X88715143Y-218880000D01*
X88715143Y-217581360D01*
X88718736Y-217559895D01*
X88728259Y-217544323D01*
X88759839Y-217530802D01*
X88791352Y-217545068D01*
X88796354Y-217553272D01*
X89370324Y-218745422D01*
X89423617Y-218820894D01*
X89498816Y-218876006D01*
X89595875Y-218909874D01*
X89689428Y-218919078D01*
G37*
G36*
X91426849Y-216988583D02*
G01*
X91426849Y-218880000D01*
X91936462Y-218880000D01*
X91936462Y-216988583D01*
X91426849Y-216988583D01*
G37*
G36*
X94092516Y-216988583D02*
G01*
X94039271Y-217050254D01*
X93510119Y-217559378D01*
X93008932Y-217050254D01*
X92961305Y-216988583D01*
X92255687Y-216988583D01*
X92308932Y-217050254D01*
X93154501Y-217870055D01*
X92177285Y-218821259D01*
X92175740Y-218822813D01*
X92126849Y-218880000D01*
X92793266Y-218880000D01*
X92843702Y-218824068D01*
X93479222Y-218197341D01*
X94081280Y-218824068D01*
X94126099Y-218880000D01*
X94851256Y-218880000D01*
X94850365Y-218878760D01*
X94803629Y-218821259D01*
X93846075Y-217870055D01*
X94694452Y-217050254D01*
X94750506Y-216988583D01*
X94092516Y-216988583D01*
G37*
G36*
X87816452Y-199881622D02*
G01*
X86825314Y-199881622D01*
X86747247Y-199877793D01*
X86676988Y-199866621D01*
X86615885Y-199849210D01*
X86561358Y-199825764D01*
X86470480Y-199762471D01*
X86444540Y-199736297D01*
X86407765Y-199691015D01*
X86377125Y-199640905D01*
X86353316Y-199586916D01*
X86336785Y-199529528D01*
X86326937Y-199437100D01*
X86341963Y-199322380D01*
X86386464Y-199214483D01*
X86419100Y-199165570D01*
X86457792Y-199121628D01*
X86466888Y-199112868D01*
X86515096Y-199073763D01*
X86570052Y-199041226D01*
X86624825Y-199018752D01*
X86686936Y-199002381D01*
X86825314Y-198989891D01*
X87816452Y-198989891D01*
X87816452Y-198488583D01*
X86825314Y-198488583D01*
X86721435Y-198492432D01*
X86623799Y-198503747D01*
X86533094Y-198521962D01*
X86448143Y-198546811D01*
X86368476Y-198578084D01*
X86294236Y-198615355D01*
X86158705Y-198708664D01*
X86125314Y-198737833D01*
X86009776Y-198866029D01*
X85961054Y-198937571D01*
X85918867Y-199013541D01*
X85883981Y-199092581D01*
X85856273Y-199175118D01*
X85836451Y-199259061D01*
X85824280Y-199345581D01*
X85820133Y-199434413D01*
X85835313Y-199606905D01*
X85880173Y-199771260D01*
X85953351Y-199923674D01*
X86052678Y-200059677D01*
X86063765Y-200072009D01*
X86124542Y-200132846D01*
X86191061Y-200187887D01*
X86260583Y-200235027D01*
X86335627Y-200276135D01*
X86414406Y-200310170D01*
X86498652Y-200337823D01*
X86587741Y-200358653D01*
X86682398Y-200372602D01*
X86825314Y-200380000D01*
X87816452Y-200380000D01*
X87816452Y-199881622D01*
G37*
G36*
X88681682Y-200072254D02*
G01*
X88718128Y-200143246D01*
X88759494Y-200205918D01*
X88802615Y-200256923D01*
X88850255Y-200300835D01*
X88900666Y-200336575D01*
X88955506Y-200365819D01*
X89079569Y-200405194D01*
X89230496Y-200419078D01*
X89314128Y-200415156D01*
X89391164Y-200403334D01*
X89456763Y-200385292D01*
X89517137Y-200360352D01*
X89570407Y-200329831D01*
X89619217Y-200292821D01*
X89704476Y-200198673D01*
X89776379Y-200072254D01*
X90454030Y-198572602D01*
X90484805Y-198488583D01*
X89893981Y-198488583D01*
X89871633Y-198555750D01*
X89311584Y-199862327D01*
X89294276Y-199892458D01*
X89274101Y-199910856D01*
X89233182Y-199921067D01*
X89205970Y-199916974D01*
X89181534Y-199903950D01*
X89152094Y-199862327D01*
X88586427Y-198555750D01*
X88566888Y-198488583D01*
X87967638Y-198488583D01*
X87998413Y-198572602D01*
X88681682Y-200072254D01*
G37*
G36*
X93401996Y-198495495D02*
G01*
X93540982Y-198528131D01*
X93658142Y-198585582D01*
X93709552Y-198623675D01*
X93755949Y-198667857D01*
X93772920Y-198686825D01*
X93841188Y-198789789D01*
X93883798Y-198909036D01*
X93894891Y-198974872D01*
X93898709Y-199045334D01*
X93889442Y-199146407D01*
X93852887Y-199259996D01*
X93791712Y-199354383D01*
X93708322Y-199427575D01*
X93751823Y-199454736D01*
X93790279Y-199487906D01*
X93827260Y-199531233D01*
X93857950Y-199580297D01*
X93883916Y-199638356D01*
X93902617Y-199700821D01*
X93914341Y-199769044D01*
X93918249Y-199839490D01*
X93905072Y-199957606D01*
X93886402Y-200021427D01*
X93860379Y-200081798D01*
X93826766Y-200139463D01*
X93786724Y-200192421D01*
X93717459Y-200259630D01*
X93612712Y-200323727D01*
X93551036Y-200347414D01*
X93482652Y-200364957D01*
X93404874Y-200376165D01*
X93319121Y-200380000D01*
X91938783Y-200380000D01*
X91929827Y-200379846D01*
X91866820Y-200365919D01*
X91844714Y-200350735D01*
X91828385Y-200329969D01*
X91816661Y-200298709D01*
X91812753Y-200259710D01*
X91812753Y-199878813D01*
X92319557Y-199878813D01*
X92324925Y-199905135D01*
X92337580Y-199916908D01*
X92358758Y-199920823D01*
X93198709Y-199920823D01*
X93205855Y-199920755D01*
X93252067Y-199916413D01*
X93289651Y-199905880D01*
X93322309Y-199888059D01*
X93347087Y-199864769D01*
X93371243Y-199826510D01*
X93386288Y-199758279D01*
X93380852Y-199719557D01*
X93366258Y-199684875D01*
X93344278Y-199654476D01*
X93342658Y-199652729D01*
X93290336Y-199616080D01*
X93250325Y-199605041D01*
X93198709Y-199601231D01*
X92319557Y-199601231D01*
X92319557Y-199878813D01*
X91812753Y-199878813D01*
X91812753Y-199006378D01*
X92319557Y-199006378D01*
X92319557Y-199262344D01*
X93201518Y-199262344D01*
X93207464Y-199262290D01*
X93250113Y-199258091D01*
X93285152Y-199247622D01*
X93316821Y-199228994D01*
X93341469Y-199203970D01*
X93361295Y-199171503D01*
X93375053Y-199112135D01*
X93372273Y-199085718D01*
X93360416Y-199050862D01*
X93341469Y-199020300D01*
X93337439Y-199015666D01*
X93285073Y-198978996D01*
X93247620Y-198968364D01*
X93201518Y-198964612D01*
X92358758Y-198964612D01*
X92337071Y-198968763D01*
X92323700Y-198982675D01*
X92319557Y-199006378D01*
X91812753Y-199006378D01*
X91812753Y-198606186D01*
X91812799Y-198601750D01*
X91826139Y-198542023D01*
X91841870Y-198520302D01*
X91863639Y-198504214D01*
X91897023Y-198492491D01*
X91938783Y-198488583D01*
X93291155Y-198488583D01*
X93401996Y-198495495D01*
G37*
G36*
X95190632Y-198989891D02*
G01*
X96500995Y-198989891D01*
X96547909Y-198993900D01*
X96584532Y-199006327D01*
X96605689Y-199022174D01*
X96620321Y-199043747D01*
X96629833Y-199093328D01*
X96625900Y-199123718D01*
X96614006Y-199149709D01*
X96569627Y-199188706D01*
X96534700Y-199205069D01*
X95428646Y-199646782D01*
X95363195Y-199677347D01*
X95308282Y-199711219D01*
X95263302Y-199747682D01*
X95227177Y-199786367D01*
X95177232Y-199870968D01*
X95153781Y-199965870D01*
X95151431Y-200010460D01*
X95155386Y-200065929D01*
X95167438Y-200120528D01*
X95186691Y-200170580D01*
X95213781Y-200217689D01*
X95246452Y-200258187D01*
X95286402Y-200294325D01*
X95331162Y-200323769D01*
X95382808Y-200347789D01*
X95439779Y-200365244D01*
X95503574Y-200376205D01*
X95574215Y-200380000D01*
X97192690Y-200380000D01*
X97192690Y-199895666D01*
X95994191Y-199895666D01*
X95978483Y-199891985D01*
X95967335Y-199881847D01*
X95963416Y-199867700D01*
X95977682Y-199844035D01*
X95985887Y-199839734D01*
X96839882Y-199529424D01*
X96907017Y-199500657D01*
X96967838Y-199466336D01*
X97022539Y-199426710D01*
X97070638Y-199382462D01*
X97112339Y-199333682D01*
X97147111Y-199281226D01*
X97195729Y-199166270D01*
X97214809Y-199041717D01*
X97215039Y-199026161D01*
X97211161Y-198956728D01*
X97199650Y-198890468D01*
X97181054Y-198828783D01*
X97155421Y-198770958D01*
X97123453Y-198718143D01*
X97084987Y-198669829D01*
X97040640Y-198626773D01*
X96990240Y-198588863D01*
X96934054Y-198556517D01*
X96872158Y-198530023D01*
X96804338Y-198509652D01*
X96731071Y-198495928D01*
X96618598Y-198488583D01*
X95190632Y-198488583D01*
X95190632Y-198989891D01*
G37*
G36*
X54827373Y-69631622D02*
G01*
X53836235Y-69631622D01*
X53758168Y-69627793D01*
X53687909Y-69616621D01*
X53626806Y-69599210D01*
X53572279Y-69575764D01*
X53481401Y-69512471D01*
X53455461Y-69486297D01*
X53418686Y-69441015D01*
X53388046Y-69390905D01*
X53364237Y-69336916D01*
X53347706Y-69279528D01*
X53337858Y-69187100D01*
X53352884Y-69072380D01*
X53397385Y-68964483D01*
X53430021Y-68915570D01*
X53468713Y-68871628D01*
X53477809Y-68862868D01*
X53526017Y-68823763D01*
X53580973Y-68791226D01*
X53635746Y-68768752D01*
X53697857Y-68752381D01*
X53836235Y-68739891D01*
X54827373Y-68739891D01*
X54827373Y-68238583D01*
X53836235Y-68238583D01*
X53732356Y-68242432D01*
X53634720Y-68253747D01*
X53544015Y-68271962D01*
X53459064Y-68296811D01*
X53379397Y-68328084D01*
X53305157Y-68365355D01*
X53169626Y-68458664D01*
X53136235Y-68487833D01*
X53020697Y-68616029D01*
X52971975Y-68687571D01*
X52929788Y-68763541D01*
X52894902Y-68842581D01*
X52867194Y-68925118D01*
X52847372Y-69009061D01*
X52835201Y-69095581D01*
X52831054Y-69184413D01*
X52846234Y-69356905D01*
X52891094Y-69521260D01*
X52964272Y-69673674D01*
X53063599Y-69809677D01*
X53074686Y-69822009D01*
X53135463Y-69882846D01*
X53201982Y-69937887D01*
X53271504Y-69985027D01*
X53346548Y-70026135D01*
X53425327Y-70060170D01*
X53509573Y-70087823D01*
X53598662Y-70108653D01*
X53693319Y-70122602D01*
X53836235Y-70130000D01*
X54827373Y-70130000D01*
X54827373Y-69631622D01*
G37*
G36*
X55692603Y-69822254D02*
G01*
X55729049Y-69893246D01*
X55770415Y-69955918D01*
X55813536Y-70006923D01*
X55861176Y-70050835D01*
X55911587Y-70086575D01*
X55966427Y-70115819D01*
X56090490Y-70155194D01*
X56241417Y-70169078D01*
X56325049Y-70165156D01*
X56402085Y-70153334D01*
X56467684Y-70135292D01*
X56528058Y-70110352D01*
X56581328Y-70079831D01*
X56630138Y-70042821D01*
X56715397Y-69948673D01*
X56787300Y-69822254D01*
X57464951Y-68322602D01*
X57495726Y-68238583D01*
X56904902Y-68238583D01*
X56882554Y-68305750D01*
X56322505Y-69612327D01*
X56305197Y-69642458D01*
X56285022Y-69660856D01*
X56244103Y-69671067D01*
X56216891Y-69666974D01*
X56192455Y-69653950D01*
X56163015Y-69612327D01*
X55597348Y-68305750D01*
X55577809Y-68238583D01*
X54978559Y-68238583D01*
X55009334Y-68322602D01*
X55692603Y-69822254D01*
G37*
G36*
X60139033Y-68205580D02*
G01*
X60262353Y-68245388D01*
X60317228Y-68275070D01*
X60367731Y-68311318D01*
X60415614Y-68355907D01*
X60458989Y-68407633D01*
X60500606Y-68471067D01*
X60537282Y-68542787D01*
X61220429Y-70046102D01*
X61251204Y-70130000D01*
X60680042Y-70130000D01*
X60657823Y-70066227D01*
X60657572Y-70065642D01*
X60556822Y-69836053D01*
X59436846Y-69836053D01*
X59338905Y-70062833D01*
X59338700Y-70063378D01*
X59319243Y-70130000D01*
X58734037Y-70130000D01*
X58764812Y-70046102D01*
X59047598Y-69418764D01*
X59621616Y-69418764D01*
X60372052Y-69418764D01*
X60080792Y-68739281D01*
X60049773Y-68697376D01*
X60023486Y-68684385D01*
X59994086Y-68680296D01*
X59989682Y-68680378D01*
X59945044Y-68694063D01*
X59925958Y-68712033D01*
X59910066Y-68739281D01*
X59621616Y-69418764D01*
X59047598Y-69418764D01*
X59442464Y-68542787D01*
X59517059Y-68411841D01*
X59602796Y-68317773D01*
X59651773Y-68280810D01*
X59705246Y-68250285D01*
X59765644Y-68225400D01*
X59831289Y-68207374D01*
X59907995Y-68195603D01*
X59991277Y-68191688D01*
X60139033Y-68205580D01*
G37*
G36*
X62514672Y-68238583D02*
G01*
X62514672Y-68739891D01*
X62825471Y-68739891D01*
X62855622Y-68743832D01*
X62877473Y-68755788D01*
X62896449Y-68793750D01*
X62898378Y-68818171D01*
X62898378Y-70130000D01*
X63402373Y-70130000D01*
X63402373Y-68742578D01*
X63398316Y-68636663D01*
X63385550Y-68544096D01*
X63368277Y-68478849D01*
X63344274Y-68421875D01*
X63317248Y-68378482D01*
X63284341Y-68341202D01*
X63204201Y-68286617D01*
X63095752Y-68252156D01*
X62934770Y-68238583D01*
X62514672Y-68238583D01*
G37*
G36*
X66149361Y-68205580D02*
G01*
X66272681Y-68245388D01*
X66327556Y-68275070D01*
X66378059Y-68311318D01*
X66425942Y-68355907D01*
X66469317Y-68407633D01*
X66510934Y-68471067D01*
X66547610Y-68542787D01*
X67230757Y-70046102D01*
X67261532Y-70130000D01*
X66690370Y-70130000D01*
X66668151Y-70066227D01*
X66667900Y-70065642D01*
X66567149Y-69836053D01*
X65447174Y-69836053D01*
X65349233Y-70062833D01*
X65349028Y-70063378D01*
X65329571Y-70130000D01*
X64744365Y-70130000D01*
X64775140Y-70046102D01*
X65057926Y-69418764D01*
X65631944Y-69418764D01*
X66382380Y-69418764D01*
X66091120Y-68739281D01*
X66060101Y-68697376D01*
X66033814Y-68684385D01*
X66004414Y-68680296D01*
X66000010Y-68680378D01*
X65955372Y-68694063D01*
X65936286Y-68712033D01*
X65920394Y-68739281D01*
X65631944Y-69418764D01*
X65057926Y-69418764D01*
X65452791Y-68542787D01*
X65527387Y-68411841D01*
X65613124Y-68317773D01*
X65662101Y-68280810D01*
X65715574Y-68250285D01*
X65775972Y-68225400D01*
X65841617Y-68207374D01*
X65918323Y-68195603D01*
X66001605Y-68191688D01*
X66149361Y-68205580D01*
G37*
G36*
X68909561Y-70169078D02*
G01*
X68971808Y-70165116D01*
X69031468Y-70153013D01*
X69082954Y-70134387D01*
X69130044Y-70108328D01*
X69168217Y-70077909D01*
X69201070Y-70040921D01*
X69228786Y-69995177D01*
X69802757Y-68803150D01*
X69823855Y-68783737D01*
X69839149Y-68780680D01*
X69857384Y-68784588D01*
X69872698Y-68796311D01*
X69883967Y-68831238D01*
X69883967Y-70130000D01*
X70371232Y-70130000D01*
X70371232Y-68741479D01*
X70367373Y-68655422D01*
X70355990Y-68578535D01*
X70338647Y-68513886D01*
X70315131Y-68456216D01*
X70286337Y-68405936D01*
X70252082Y-68361286D01*
X70194766Y-68306727D01*
X70141189Y-68269013D01*
X70081203Y-68237309D01*
X70020538Y-68214590D01*
X69954877Y-68199152D01*
X69864428Y-68191688D01*
X69798207Y-68195530D01*
X69737187Y-68206793D01*
X69681727Y-68224813D01*
X69630745Y-68249306D01*
X69538532Y-68318573D01*
X69455840Y-68418693D01*
X69385590Y-68545230D01*
X68957188Y-69476528D01*
X68943705Y-69499745D01*
X68926354Y-69510761D01*
X68909561Y-69512920D01*
X68886725Y-69508337D01*
X68869632Y-69491885D01*
X68862055Y-69476528D01*
X68433653Y-68545230D01*
X68389818Y-68460978D01*
X68340078Y-68385899D01*
X68294510Y-68332372D01*
X68243850Y-68286442D01*
X68194339Y-68252668D01*
X68140062Y-68225844D01*
X68084250Y-68207355D01*
X68023581Y-68195842D01*
X67954815Y-68191688D01*
X67829181Y-68206303D01*
X67713972Y-68248809D01*
X67624477Y-68306727D01*
X67579026Y-68348323D01*
X67539814Y-68395885D01*
X67509454Y-68445626D01*
X67484895Y-68501587D01*
X67454346Y-68632723D01*
X67448011Y-68741479D01*
X67448011Y-70130000D01*
X67935276Y-70130000D01*
X67935276Y-68831360D01*
X67938869Y-68809895D01*
X67948391Y-68794323D01*
X67979972Y-68780802D01*
X68011485Y-68795068D01*
X68016487Y-68803272D01*
X68590457Y-69995422D01*
X68643750Y-70070894D01*
X68718949Y-70126006D01*
X68816008Y-70159874D01*
X68909561Y-70169078D01*
G37*
G36*
X70538660Y-68238583D02*
G01*
X70538660Y-68739891D01*
X71370307Y-68739891D01*
X71370307Y-70130000D01*
X71879798Y-70130000D01*
X71879798Y-68739891D01*
X72708636Y-68739891D01*
X72708636Y-68238583D01*
X70538660Y-68238583D01*
G37*
G36*
X54302739Y-99631622D02*
G01*
X53311601Y-99631622D01*
X53233534Y-99627793D01*
X53163275Y-99616621D01*
X53102172Y-99599210D01*
X53047645Y-99575764D01*
X52956767Y-99512471D01*
X52930827Y-99486297D01*
X52894052Y-99441015D01*
X52863412Y-99390905D01*
X52839603Y-99336916D01*
X52823072Y-99279528D01*
X52813224Y-99187100D01*
X52828250Y-99072380D01*
X52872751Y-98964483D01*
X52905387Y-98915570D01*
X52944079Y-98871628D01*
X52953175Y-98862868D01*
X53001383Y-98823763D01*
X53056339Y-98791226D01*
X53111112Y-98768752D01*
X53173223Y-98752381D01*
X53311601Y-98739891D01*
X54302739Y-98739891D01*
X54302739Y-98238583D01*
X53311601Y-98238583D01*
X53207722Y-98242432D01*
X53110086Y-98253747D01*
X53019381Y-98271962D01*
X52934430Y-98296811D01*
X52854763Y-98328084D01*
X52780523Y-98365355D01*
X52644992Y-98458664D01*
X52611601Y-98487833D01*
X52496063Y-98616029D01*
X52447341Y-98687571D01*
X52405154Y-98763541D01*
X52370268Y-98842581D01*
X52342560Y-98925118D01*
X52322738Y-99009061D01*
X52310567Y-99095581D01*
X52306420Y-99184413D01*
X52321600Y-99356905D01*
X52366460Y-99521260D01*
X52439638Y-99673674D01*
X52538965Y-99809677D01*
X52550052Y-99822009D01*
X52610829Y-99882846D01*
X52677348Y-99937887D01*
X52746870Y-99985027D01*
X52821914Y-100026135D01*
X52900693Y-100060170D01*
X52984939Y-100087823D01*
X53074028Y-100108653D01*
X53168685Y-100122602D01*
X53311601Y-100130000D01*
X54302739Y-100130000D01*
X54302739Y-99631622D01*
G37*
G36*
X55167969Y-99822254D02*
G01*
X55204415Y-99893246D01*
X55245781Y-99955918D01*
X55288902Y-100006923D01*
X55336542Y-100050835D01*
X55386953Y-100086575D01*
X55441793Y-100115819D01*
X55565856Y-100155194D01*
X55716783Y-100169078D01*
X55800415Y-100165156D01*
X55877451Y-100153334D01*
X55943050Y-100135292D01*
X56003424Y-100110352D01*
X56056694Y-100079831D01*
X56105504Y-100042821D01*
X56190763Y-99948673D01*
X56262666Y-99822254D01*
X56940317Y-98322602D01*
X56971092Y-98238583D01*
X56380268Y-98238583D01*
X56357920Y-98305750D01*
X55797871Y-99612327D01*
X55780563Y-99642458D01*
X55760388Y-99660856D01*
X55719469Y-99671067D01*
X55692257Y-99666974D01*
X55667821Y-99653950D01*
X55638381Y-99612327D01*
X55072714Y-98305750D01*
X55053175Y-98238583D01*
X54453925Y-98238583D01*
X54484700Y-98322602D01*
X55167969Y-99822254D01*
G37*
G36*
X59614399Y-98205580D02*
G01*
X59737719Y-98245388D01*
X59792594Y-98275070D01*
X59843097Y-98311318D01*
X59890980Y-98355907D01*
X59934355Y-98407633D01*
X59975972Y-98471067D01*
X60012648Y-98542787D01*
X60695795Y-100046102D01*
X60726570Y-100130000D01*
X60155408Y-100130000D01*
X60133189Y-100066227D01*
X60132938Y-100065642D01*
X60032188Y-99836053D01*
X58912212Y-99836053D01*
X58814271Y-100062833D01*
X58814066Y-100063378D01*
X58794609Y-100130000D01*
X58209403Y-100130000D01*
X58240178Y-100046102D01*
X58522964Y-99418764D01*
X59096982Y-99418764D01*
X59847418Y-99418764D01*
X59556158Y-98739281D01*
X59525139Y-98697376D01*
X59498852Y-98684385D01*
X59469452Y-98680296D01*
X59465048Y-98680378D01*
X59420410Y-98694063D01*
X59401324Y-98712033D01*
X59385432Y-98739281D01*
X59096982Y-99418764D01*
X58522964Y-99418764D01*
X58917830Y-98542787D01*
X58992425Y-98411841D01*
X59078162Y-98317773D01*
X59127139Y-98280810D01*
X59180612Y-98250285D01*
X59241010Y-98225400D01*
X59306655Y-98207374D01*
X59383361Y-98195603D01*
X59466643Y-98191688D01*
X59614399Y-98205580D01*
G37*
G36*
X62001273Y-98739891D02*
G01*
X63311636Y-98739891D01*
X63358550Y-98743900D01*
X63395174Y-98756327D01*
X63416331Y-98772174D01*
X63430963Y-98793747D01*
X63440474Y-98843328D01*
X63436542Y-98873718D01*
X63424647Y-98899709D01*
X63380268Y-98938706D01*
X63345342Y-98955069D01*
X62239288Y-99396782D01*
X62173836Y-99427347D01*
X62118924Y-99461219D01*
X62073944Y-99497682D01*
X62037818Y-99536367D01*
X61987874Y-99620968D01*
X61964422Y-99715870D01*
X61962072Y-99760460D01*
X61966027Y-99815929D01*
X61978080Y-99870528D01*
X61997333Y-99920580D01*
X62024422Y-99967689D01*
X62057094Y-100008187D01*
X62097044Y-100044325D01*
X62141804Y-100073769D01*
X62193450Y-100097789D01*
X62250421Y-100115244D01*
X62314216Y-100126205D01*
X62384857Y-100130000D01*
X64003332Y-100130000D01*
X64003332Y-99645666D01*
X62804832Y-99645666D01*
X62789125Y-99641985D01*
X62777976Y-99631847D01*
X62774058Y-99617700D01*
X62788323Y-99594035D01*
X62796528Y-99589734D01*
X63650523Y-99279424D01*
X63717658Y-99250657D01*
X63778480Y-99216336D01*
X63833180Y-99176710D01*
X63881279Y-99132462D01*
X63922980Y-99083682D01*
X63957752Y-99031226D01*
X64006371Y-98916270D01*
X64025450Y-98791717D01*
X64025680Y-98776161D01*
X64021803Y-98706728D01*
X64010291Y-98640468D01*
X63991696Y-98578783D01*
X63966062Y-98520958D01*
X63934094Y-98468143D01*
X63895629Y-98419829D01*
X63851281Y-98376773D01*
X63800881Y-98338863D01*
X63744696Y-98306517D01*
X63682800Y-98280023D01*
X63614980Y-98259652D01*
X63541712Y-98245928D01*
X63429239Y-98238583D01*
X62001273Y-98238583D01*
X62001273Y-98739891D01*
G37*
G36*
X66673994Y-98205580D02*
G01*
X66797314Y-98245388D01*
X66852189Y-98275070D01*
X66902692Y-98311318D01*
X66950575Y-98355907D01*
X66993950Y-98407633D01*
X67035567Y-98471067D01*
X67072243Y-98542787D01*
X67755391Y-100046102D01*
X67786165Y-100130000D01*
X67215003Y-100130000D01*
X67192784Y-100066227D01*
X67192533Y-100065642D01*
X67091783Y-99836053D01*
X65971807Y-99836053D01*
X65873866Y-100062833D01*
X65873661Y-100063378D01*
X65854204Y-100130000D01*
X65268998Y-100130000D01*
X65299773Y-100046102D01*
X65582559Y-99418764D01*
X66156577Y-99418764D01*
X66907013Y-99418764D01*
X66615753Y-98739281D01*
X66584734Y-98697376D01*
X66558447Y-98684385D01*
X66529047Y-98680296D01*
X66524643Y-98680378D01*
X66480005Y-98694063D01*
X66460920Y-98712033D01*
X66445028Y-98739281D01*
X66156577Y-99418764D01*
X65582559Y-99418764D01*
X65977425Y-98542787D01*
X66052020Y-98411841D01*
X66137757Y-98317773D01*
X66186734Y-98280810D01*
X66240207Y-98250285D01*
X66300605Y-98225400D01*
X66366250Y-98207374D01*
X66442956Y-98195603D01*
X66526238Y-98191688D01*
X66673994Y-98205580D01*
G37*
G36*
X69434194Y-100169078D02*
G01*
X69496442Y-100165116D01*
X69556101Y-100153013D01*
X69607587Y-100134387D01*
X69654677Y-100108328D01*
X69692850Y-100077909D01*
X69725703Y-100040921D01*
X69753419Y-99995177D01*
X70327390Y-98803150D01*
X70348488Y-98783737D01*
X70363782Y-98780680D01*
X70382018Y-98784588D01*
X70397331Y-98796311D01*
X70408601Y-98831238D01*
X70408601Y-100130000D01*
X70895865Y-100130000D01*
X70895865Y-98741479D01*
X70892006Y-98655422D01*
X70880623Y-98578535D01*
X70863280Y-98513886D01*
X70839764Y-98456216D01*
X70810970Y-98405936D01*
X70776715Y-98361286D01*
X70719400Y-98306727D01*
X70665823Y-98269013D01*
X70605836Y-98237309D01*
X70545172Y-98214590D01*
X70479510Y-98199152D01*
X70389061Y-98191688D01*
X70322840Y-98195530D01*
X70261820Y-98206793D01*
X70206361Y-98224813D01*
X70155378Y-98249306D01*
X70063165Y-98318573D01*
X69980474Y-98418693D01*
X69910223Y-98545230D01*
X69481821Y-99476528D01*
X69468339Y-99499745D01*
X69450987Y-99510761D01*
X69434194Y-99512920D01*
X69411358Y-99508337D01*
X69394265Y-99491885D01*
X69386689Y-99476528D01*
X68958287Y-98545230D01*
X68914451Y-98460978D01*
X68864711Y-98385899D01*
X68819143Y-98332372D01*
X68768483Y-98286442D01*
X68718972Y-98252668D01*
X68664696Y-98225844D01*
X68608884Y-98207355D01*
X68548214Y-98195842D01*
X68479448Y-98191688D01*
X68353815Y-98206303D01*
X68238606Y-98248809D01*
X68149110Y-98306727D01*
X68103659Y-98348323D01*
X68064447Y-98395885D01*
X68034087Y-98445626D01*
X68009529Y-98501587D01*
X67978979Y-98632723D01*
X67972645Y-98741479D01*
X67972645Y-100130000D01*
X68459909Y-100130000D01*
X68459909Y-98831360D01*
X68463502Y-98809895D01*
X68473025Y-98794323D01*
X68504606Y-98780802D01*
X68536118Y-98795068D01*
X68541120Y-98803272D01*
X69115091Y-99995422D01*
X69168383Y-100070894D01*
X69243582Y-100126006D01*
X69340641Y-100159874D01*
X69434194Y-100169078D01*
G37*
G36*
X71063294Y-98238583D02*
G01*
X71063294Y-98739891D01*
X71894940Y-98739891D01*
X71894940Y-100130000D01*
X72404431Y-100130000D01*
X72404431Y-98739891D01*
X73233269Y-98739891D01*
X73233269Y-98238583D01*
X71063294Y-98238583D01*
G37*
G36*
X71164029Y-216989181D02*
G01*
X71264422Y-216995892D01*
X71358769Y-217009784D01*
X71447838Y-217030683D01*
X71531151Y-217058169D01*
X71610823Y-217092845D01*
X71684836Y-217133713D01*
X71756561Y-217182792D01*
X71822523Y-217237833D01*
X71892041Y-217309281D01*
X71993240Y-217448198D01*
X72067369Y-217601781D01*
X72112517Y-217765176D01*
X72127704Y-217934413D01*
X72127673Y-217942301D01*
X72122967Y-218031359D01*
X72110507Y-218117822D01*
X72090235Y-218202793D01*
X72062683Y-218284326D01*
X72027765Y-218362971D01*
X71986170Y-218437313D01*
X71938089Y-218507226D01*
X71884072Y-218572009D01*
X71793132Y-218659144D01*
X71657302Y-218752550D01*
X71582323Y-218790063D01*
X71502008Y-218821466D01*
X71416158Y-218846487D01*
X71324772Y-218864783D01*
X71226577Y-218876144D01*
X71122523Y-218880000D01*
X70724895Y-218880000D01*
X70581979Y-218872602D01*
X70487322Y-218858653D01*
X70398233Y-218837823D01*
X70313987Y-218810170D01*
X70235208Y-218776135D01*
X70160164Y-218735027D01*
X70090642Y-218687887D01*
X70024123Y-218632846D01*
X69963346Y-218572009D01*
X69952259Y-218559677D01*
X69852932Y-218423674D01*
X69779754Y-218271260D01*
X69734894Y-218106905D01*
X69719950Y-217937100D01*
X70226518Y-217937100D01*
X70236366Y-218029528D01*
X70252897Y-218086916D01*
X70276706Y-218140905D01*
X70307346Y-218191015D01*
X70344121Y-218236297D01*
X70370061Y-218262471D01*
X70460939Y-218325764D01*
X70515466Y-218349210D01*
X70576569Y-218366621D01*
X70646828Y-218377793D01*
X70724895Y-218381622D01*
X71122523Y-218381622D01*
X71168644Y-218380330D01*
X71239837Y-218372582D01*
X71303942Y-218358210D01*
X71361932Y-218337383D01*
X71413456Y-218310665D01*
X71461575Y-218276295D01*
X71503297Y-218236297D01*
X71561665Y-218157330D01*
X71605937Y-218050684D01*
X71620900Y-217937100D01*
X71620821Y-217928682D01*
X71615594Y-217868558D01*
X71602554Y-217810570D01*
X71581869Y-217754675D01*
X71554195Y-217702450D01*
X71480949Y-217612868D01*
X71475351Y-217607747D01*
X71384817Y-217544790D01*
X71332068Y-217521905D01*
X71272426Y-217504813D01*
X71202228Y-217493710D01*
X71122523Y-217489891D01*
X70724895Y-217489891D01*
X70586517Y-217502381D01*
X70524406Y-217518752D01*
X70469633Y-217541226D01*
X70414677Y-217573763D01*
X70366469Y-217612868D01*
X70357373Y-217621628D01*
X70318681Y-217665570D01*
X70286045Y-217714483D01*
X70241544Y-217822380D01*
X70226518Y-217937100D01*
X69719950Y-217937100D01*
X69719714Y-217934413D01*
X69723861Y-217845581D01*
X69736032Y-217759061D01*
X69755854Y-217675118D01*
X69783562Y-217592581D01*
X69818448Y-217513541D01*
X69860635Y-217437571D01*
X69909357Y-217366029D01*
X70024895Y-217237833D01*
X70058286Y-217208664D01*
X70193817Y-217115355D01*
X70268057Y-217078084D01*
X70347724Y-217046811D01*
X70432675Y-217021962D01*
X70523380Y-217003747D01*
X70621016Y-216992432D01*
X70724895Y-216988583D01*
X71122523Y-216988583D01*
X71164029Y-216989181D01*
G37*
G36*
X73870987Y-218880000D02*
G01*
X73985684Y-218876056D01*
X74088357Y-218864083D01*
X74169257Y-218846682D01*
X74241334Y-218822716D01*
X74299500Y-218795062D01*
X74350751Y-218761734D01*
X74393182Y-218724741D01*
X74429712Y-218682440D01*
X74485683Y-218581636D01*
X74521212Y-218451795D01*
X74534595Y-218275376D01*
X74534595Y-216988583D01*
X74024983Y-216988583D01*
X74024983Y-218219445D01*
X74021066Y-218267883D01*
X74009279Y-218308305D01*
X73992642Y-218336991D01*
X73970009Y-218359866D01*
X73908451Y-218388151D01*
X73837404Y-218395666D01*
X73050576Y-218395666D01*
X72998929Y-218391758D01*
X72956302Y-218380034D01*
X72926623Y-218363681D01*
X72903253Y-218341536D01*
X72875358Y-218282498D01*
X72868615Y-218219445D01*
X72868615Y-216988583D01*
X72359002Y-216988583D01*
X72359002Y-218275376D01*
X72362968Y-218376061D01*
X72375101Y-218466921D01*
X72392739Y-218538680D01*
X72417163Y-218603176D01*
X72445631Y-218655901D01*
X72480148Y-218702775D01*
X72519174Y-218742396D01*
X72564110Y-218776808D01*
X72673902Y-218830936D01*
X72818822Y-218866238D01*
X73022610Y-218880000D01*
X73870987Y-218880000D01*
G37*
G36*
X74718876Y-216988583D02*
G01*
X74718876Y-217489891D01*
X75550523Y-217489891D01*
X75550523Y-218880000D01*
X76060014Y-218880000D01*
X76060014Y-217489891D01*
X76888852Y-217489891D01*
X76888852Y-216988583D01*
X74718876Y-216988583D01*
G37*
G36*
X79806531Y-216995495D02*
G01*
X79945517Y-217028131D01*
X80062678Y-217085582D01*
X80114088Y-217123675D01*
X80160485Y-217167857D01*
X80177456Y-217186825D01*
X80245724Y-217289789D01*
X80288333Y-217409036D01*
X80299427Y-217474872D01*
X80303245Y-217545334D01*
X80293978Y-217646407D01*
X80257422Y-217759996D01*
X80196247Y-217854383D01*
X80112858Y-217927575D01*
X80156358Y-217954736D01*
X80194814Y-217987906D01*
X80231796Y-218031233D01*
X80262486Y-218080297D01*
X80288451Y-218138356D01*
X80307153Y-218200821D01*
X80318876Y-218269044D01*
X80322784Y-218339490D01*
X80309608Y-218457606D01*
X80290938Y-218521427D01*
X80264915Y-218581798D01*
X80231302Y-218639463D01*
X80191260Y-218692421D01*
X80121995Y-218759630D01*
X80017248Y-218823727D01*
X79955572Y-218847414D01*
X79887187Y-218864957D01*
X79809410Y-218876165D01*
X79723657Y-218880000D01*
X78343318Y-218880000D01*
X78334363Y-218879846D01*
X78271356Y-218865919D01*
X78249249Y-218850735D01*
X78232920Y-218829969D01*
X78221197Y-218798709D01*
X78217289Y-218759710D01*
X78217289Y-218378813D01*
X78724093Y-218378813D01*
X78729461Y-218405135D01*
X78742116Y-218416908D01*
X78763294Y-218420823D01*
X79603245Y-218420823D01*
X79610390Y-218420755D01*
X79656602Y-218416413D01*
X79694187Y-218405880D01*
X79726844Y-218388059D01*
X79751622Y-218364769D01*
X79775779Y-218326510D01*
X79790823Y-218258279D01*
X79785388Y-218219557D01*
X79770794Y-218184875D01*
X79748814Y-218154476D01*
X79747193Y-218152729D01*
X79694871Y-218116080D01*
X79654861Y-218105041D01*
X79603245Y-218101231D01*
X78724093Y-218101231D01*
X78724093Y-218378813D01*
X78217289Y-218378813D01*
X78217289Y-217506378D01*
X78724093Y-217506378D01*
X78724093Y-217762344D01*
X79606054Y-217762344D01*
X79612000Y-217762290D01*
X79654649Y-217758091D01*
X79689687Y-217747622D01*
X79721356Y-217728994D01*
X79746005Y-217703970D01*
X79765830Y-217671503D01*
X79779588Y-217612135D01*
X79776809Y-217585718D01*
X79764952Y-217550862D01*
X79746005Y-217520300D01*
X79741975Y-217515666D01*
X79689608Y-217478996D01*
X79652156Y-217468364D01*
X79606054Y-217464612D01*
X78763294Y-217464612D01*
X78741606Y-217468763D01*
X78728236Y-217482675D01*
X78724093Y-217506378D01*
X78217289Y-217506378D01*
X78217289Y-217106186D01*
X78217335Y-217101750D01*
X78230675Y-217042023D01*
X78246406Y-217020302D01*
X78268174Y-217004214D01*
X78301558Y-216992491D01*
X78343318Y-216988583D01*
X79695691Y-216988583D01*
X79806531Y-216995495D01*
G37*
G36*
X55669507Y-146239181D02*
G01*
X55769900Y-146245892D01*
X55864247Y-146259784D01*
X55953316Y-146280683D01*
X56036629Y-146308169D01*
X56116301Y-146342845D01*
X56190314Y-146383713D01*
X56262039Y-146432792D01*
X56328001Y-146487833D01*
X56397519Y-146559281D01*
X56498718Y-146698198D01*
X56572847Y-146851781D01*
X56617995Y-147015176D01*
X56633182Y-147184413D01*
X56633151Y-147192301D01*
X56628445Y-147281359D01*
X56615985Y-147367822D01*
X56595713Y-147452793D01*
X56568161Y-147534326D01*
X56533243Y-147612971D01*
X56491648Y-147687313D01*
X56443567Y-147757226D01*
X56389550Y-147822009D01*
X56298610Y-147909144D01*
X56162780Y-148002550D01*
X56087801Y-148040063D01*
X56007486Y-148071466D01*
X55921636Y-148096487D01*
X55830250Y-148114783D01*
X55732055Y-148126144D01*
X55628001Y-148130000D01*
X55230373Y-148130000D01*
X55087457Y-148122602D01*
X54992800Y-148108653D01*
X54903711Y-148087823D01*
X54819465Y-148060170D01*
X54740686Y-148026135D01*
X54665642Y-147985027D01*
X54596120Y-147937887D01*
X54529601Y-147882846D01*
X54468824Y-147822009D01*
X54457737Y-147809677D01*
X54358410Y-147673674D01*
X54285232Y-147521260D01*
X54240372Y-147356905D01*
X54225428Y-147187100D01*
X54731996Y-147187100D01*
X54741844Y-147279528D01*
X54758375Y-147336916D01*
X54782184Y-147390905D01*
X54812824Y-147441015D01*
X54849599Y-147486297D01*
X54875539Y-147512471D01*
X54966417Y-147575764D01*
X55020944Y-147599210D01*
X55082047Y-147616621D01*
X55152306Y-147627793D01*
X55230373Y-147631622D01*
X55628001Y-147631622D01*
X55674122Y-147630330D01*
X55745315Y-147622582D01*
X55809420Y-147608210D01*
X55867410Y-147587383D01*
X55918934Y-147560665D01*
X55967053Y-147526295D01*
X56008775Y-147486297D01*
X56067143Y-147407330D01*
X56111415Y-147300684D01*
X56126378Y-147187100D01*
X56126299Y-147178682D01*
X56121072Y-147118558D01*
X56108032Y-147060570D01*
X56087347Y-147004675D01*
X56059673Y-146952450D01*
X55986427Y-146862868D01*
X55980829Y-146857747D01*
X55890295Y-146794790D01*
X55837546Y-146771905D01*
X55777904Y-146754813D01*
X55707706Y-146743710D01*
X55628001Y-146739891D01*
X55230373Y-146739891D01*
X55091995Y-146752381D01*
X55029884Y-146768752D01*
X54975111Y-146791226D01*
X54920155Y-146823763D01*
X54871947Y-146862868D01*
X54862851Y-146871628D01*
X54824159Y-146915570D01*
X54791523Y-146964483D01*
X54747022Y-147072380D01*
X54731996Y-147187100D01*
X54225428Y-147187100D01*
X54225192Y-147184413D01*
X54229339Y-147095581D01*
X54241510Y-147009061D01*
X54261332Y-146925118D01*
X54289040Y-146842581D01*
X54323926Y-146763541D01*
X54366113Y-146687571D01*
X54414835Y-146616029D01*
X54530373Y-146487833D01*
X54563764Y-146458664D01*
X54699295Y-146365355D01*
X54773535Y-146328084D01*
X54853202Y-146296811D01*
X54938153Y-146271962D01*
X55028858Y-146253747D01*
X55126494Y-146242432D01*
X55230373Y-146238583D01*
X55628001Y-146238583D01*
X55669507Y-146239181D01*
G37*
G36*
X57214480Y-146238583D02*
G01*
X57145051Y-146242505D01*
X57083450Y-146254325D01*
X57035005Y-146271655D01*
X56992854Y-146295428D01*
X56959146Y-146323541D01*
X56930966Y-146357389D01*
X56891303Y-146442285D01*
X56873483Y-146557647D01*
X56872906Y-146585896D01*
X56872906Y-148130000D01*
X57379710Y-148130000D01*
X57379710Y-147498387D01*
X58855304Y-147498387D01*
X58855304Y-147027976D01*
X57379710Y-147027976D01*
X57379710Y-146823789D01*
X57383653Y-146789951D01*
X57395618Y-146764801D01*
X57432740Y-146742457D01*
X57458112Y-146739891D01*
X58863730Y-146739891D01*
X58863730Y-146238583D01*
X57214480Y-146238583D01*
G37*
G36*
X59426343Y-146238583D02*
G01*
X59356914Y-146242505D01*
X59295314Y-146254325D01*
X59246869Y-146271655D01*
X59204718Y-146295428D01*
X59171009Y-146323541D01*
X59142829Y-146357389D01*
X59103166Y-146442285D01*
X59085346Y-146557647D01*
X59084770Y-146585896D01*
X59084770Y-148130000D01*
X59591574Y-148130000D01*
X59591574Y-147498387D01*
X61067167Y-147498387D01*
X61067167Y-147027976D01*
X59591574Y-147027976D01*
X59591574Y-146823789D01*
X59595516Y-146789951D01*
X59607481Y-146764801D01*
X59644603Y-146742457D01*
X59669976Y-146739891D01*
X61075593Y-146739891D01*
X61075593Y-146238583D01*
X59426343Y-146238583D01*
G37*
G36*
X63279030Y-146238583D02*
G01*
X61890265Y-146238583D01*
X61791220Y-146242407D01*
X61703781Y-146253546D01*
X61630047Y-146270569D01*
X61564970Y-146293379D01*
X61457548Y-146354188D01*
X61394574Y-146409431D01*
X61350383Y-146460451D01*
X61312420Y-146516229D01*
X61281400Y-146575740D01*
X61257516Y-146638821D01*
X61241546Y-146703381D01*
X61233330Y-146770299D01*
X61232275Y-146804616D01*
X61236128Y-146872586D01*
X61247468Y-146937920D01*
X61291927Y-147060632D01*
X61364128Y-147169918D01*
X61391888Y-147200533D01*
X61440596Y-147244731D01*
X61496646Y-147283348D01*
X61554174Y-147312712D01*
X61619523Y-147336636D01*
X61691890Y-147354342D01*
X61773459Y-147365988D01*
X61890265Y-147371381D01*
X62660241Y-147371381D01*
X62717751Y-147375293D01*
X62759027Y-147387041D01*
X62794574Y-147412903D01*
X62826456Y-147465446D01*
X62833775Y-147512676D01*
X62829970Y-147545618D01*
X62818967Y-147575289D01*
X62803001Y-147598527D01*
X62780375Y-147619276D01*
X62749606Y-147634224D01*
X62660241Y-147645666D01*
X61282589Y-147645666D01*
X61282589Y-148130000D01*
X62749756Y-148130000D01*
X62834295Y-148126162D01*
X62911639Y-148114927D01*
X62980589Y-148097208D01*
X63043319Y-148073219D01*
X63151572Y-148007858D01*
X63228594Y-147934117D01*
X63304382Y-147822234D01*
X63332108Y-147760487D01*
X63352412Y-147695741D01*
X63364429Y-147631242D01*
X63368545Y-147565310D01*
X63353464Y-147439721D01*
X63308303Y-147317838D01*
X63234354Y-147206404D01*
X63206246Y-147175376D01*
X63156745Y-147130374D01*
X63100713Y-147091170D01*
X63042876Y-147060803D01*
X62978519Y-147036435D01*
X62909442Y-147019031D01*
X62833353Y-147008236D01*
X62749756Y-147004528D01*
X61918231Y-147004528D01*
X61861593Y-147000450D01*
X61824394Y-146987531D01*
X61809054Y-146976441D01*
X61787476Y-146954054D01*
X61771524Y-146926072D01*
X61761427Y-146875080D01*
X61765252Y-146840683D01*
X61776396Y-146809888D01*
X61800628Y-146776406D01*
X61824722Y-146758352D01*
X61857968Y-146745961D01*
X61918231Y-146739891D01*
X63279030Y-146739891D01*
X63279030Y-146238583D01*
G37*
G36*
X63837858Y-146238583D02*
G01*
X63775100Y-146242496D01*
X63720671Y-146254258D01*
X63679500Y-146271213D01*
X63644836Y-146294346D01*
X63618302Y-146321599D01*
X63597465Y-146354297D01*
X63572658Y-146437702D01*
X63569068Y-146493450D01*
X63569068Y-147866828D01*
X63572971Y-147926739D01*
X63584659Y-147978855D01*
X63601689Y-148018903D01*
X63624904Y-148052761D01*
X63685841Y-148100051D01*
X63771444Y-148125709D01*
X63835049Y-148130000D01*
X65559892Y-148130000D01*
X65559892Y-147645666D01*
X64120691Y-147645666D01*
X64098713Y-147641758D01*
X64084254Y-147630034D01*
X64075872Y-147595840D01*
X64075872Y-147368572D01*
X65551465Y-147368572D01*
X65551465Y-147004528D01*
X64075872Y-147004528D01*
X64075872Y-146787763D01*
X64079856Y-146763440D01*
X64092111Y-146747456D01*
X64120691Y-146739891D01*
X65559892Y-146739891D01*
X65559892Y-146238583D01*
X63837858Y-146238583D01*
G37*
G36*
X65713398Y-146238583D02*
G01*
X65713398Y-146739891D01*
X66545045Y-146739891D01*
X66545045Y-148130000D01*
X67054536Y-148130000D01*
X67054536Y-146739891D01*
X67883374Y-146739891D01*
X67883374Y-146238583D01*
X65713398Y-146238583D01*
G37*
G36*
X70801053Y-146245495D02*
G01*
X70940039Y-146278131D01*
X71057200Y-146335582D01*
X71108610Y-146373675D01*
X71155007Y-146417857D01*
X71171978Y-146436825D01*
X71240246Y-146539789D01*
X71282855Y-146659036D01*
X71293949Y-146724872D01*
X71297767Y-146795334D01*
X71288500Y-146896407D01*
X71251944Y-147009996D01*
X71190769Y-147104383D01*
X71107380Y-147177575D01*
X71150880Y-147204736D01*
X71189336Y-147237906D01*
X71226318Y-147281233D01*
X71257008Y-147330297D01*
X71282973Y-147388356D01*
X71301675Y-147450821D01*
X71313398Y-147519044D01*
X71317306Y-147589490D01*
X71304130Y-147707606D01*
X71285460Y-147771427D01*
X71259437Y-147831798D01*
X71225824Y-147889463D01*
X71185782Y-147942421D01*
X71116517Y-148009630D01*
X71011770Y-148073727D01*
X70950094Y-148097414D01*
X70881709Y-148114957D01*
X70803932Y-148126165D01*
X70718179Y-148130000D01*
X69337840Y-148130000D01*
X69328885Y-148129846D01*
X69265878Y-148115919D01*
X69243771Y-148100735D01*
X69227442Y-148079969D01*
X69215719Y-148048709D01*
X69211811Y-148009710D01*
X69211811Y-147628813D01*
X69718615Y-147628813D01*
X69723983Y-147655135D01*
X69736638Y-147666908D01*
X69757816Y-147670823D01*
X70597767Y-147670823D01*
X70604912Y-147670755D01*
X70651124Y-147666413D01*
X70688709Y-147655880D01*
X70721366Y-147638059D01*
X70746144Y-147614769D01*
X70770301Y-147576510D01*
X70785345Y-147508279D01*
X70779910Y-147469557D01*
X70765316Y-147434875D01*
X70743336Y-147404476D01*
X70741715Y-147402729D01*
X70689393Y-147366080D01*
X70649383Y-147355041D01*
X70597767Y-147351231D01*
X69718615Y-147351231D01*
X69718615Y-147628813D01*
X69211811Y-147628813D01*
X69211811Y-146756378D01*
X69718615Y-146756378D01*
X69718615Y-147012344D01*
X70600576Y-147012344D01*
X70606522Y-147012290D01*
X70649171Y-147008091D01*
X70684209Y-146997622D01*
X70715878Y-146978994D01*
X70740527Y-146953970D01*
X70760352Y-146921503D01*
X70774110Y-146862135D01*
X70771331Y-146835718D01*
X70759474Y-146800862D01*
X70740527Y-146770300D01*
X70736497Y-146765666D01*
X70684130Y-146728996D01*
X70646678Y-146718364D01*
X70600576Y-146714612D01*
X69757816Y-146714612D01*
X69736128Y-146718763D01*
X69722758Y-146732675D01*
X69718615Y-146756378D01*
X69211811Y-146756378D01*
X69211811Y-146356186D01*
X69211857Y-146351750D01*
X69225197Y-146292023D01*
X69240928Y-146270302D01*
X69262696Y-146254214D01*
X69296080Y-146242491D01*
X69337840Y-146238583D01*
X70690213Y-146238583D01*
X70801053Y-146245495D01*
G37*
D14*
%TO.C,H13*%
X76500000Y-129000000D02*
X78000000Y-129000000D01*
X79750002Y-119000000D02*
X75250000Y-119000000D01*
X80756990Y-115246229D02*
X76855715Y-113003433D01*
X80756990Y-122753772D02*
X76855773Y-124996669D01*
X83496228Y-112506990D02*
X81253331Y-108605773D01*
X83496229Y-125493010D02*
X81253433Y-129394285D01*
X87250000Y-111500000D02*
X87250000Y-107000000D01*
X91003771Y-112506990D02*
X93246567Y-108605715D01*
X91003772Y-125493010D02*
X93246669Y-129394227D01*
X93743010Y-115246228D02*
X97644227Y-113003331D01*
X93743010Y-122753771D02*
X97644285Y-124996567D01*
X94750000Y-119000000D02*
X99250000Y-119000000D01*
X96500000Y-129000000D02*
X98000000Y-129000000D01*
X97250000Y-129750000D02*
X97250000Y-128250000D01*
X81253433Y-129394285D02*
G75*
G02*
X87250000Y-107000001I5996567J10394285D01*
G01*
X87250000Y-107000004D02*
G75*
G02*
X93246668Y-129394226I-2J-11999998D01*
G01*
%TO.C,H14*%
X76500000Y-159000000D02*
X78000000Y-159000000D01*
X79750002Y-149000000D02*
X75250000Y-149000000D01*
X80756990Y-145246229D02*
X76855715Y-143003433D01*
X80756990Y-152753772D02*
X76855773Y-154996669D01*
X83496228Y-142506990D02*
X81253331Y-138605773D01*
X83496229Y-155493010D02*
X81253433Y-159394285D01*
X87250000Y-141500000D02*
X87250000Y-137000000D01*
X91003771Y-142506990D02*
X93246567Y-138605715D01*
X91003772Y-155493010D02*
X93246669Y-159394227D01*
X93743010Y-145246228D02*
X97644227Y-143003331D01*
X93743010Y-152753771D02*
X97644285Y-154996567D01*
X94750000Y-149000000D02*
X99250000Y-149000000D01*
X96500000Y-159000000D02*
X98000000Y-159000000D01*
X97250000Y-159750000D02*
X97250000Y-158250000D01*
X81253433Y-159394285D02*
G75*
G02*
X87250000Y-137000001I5996567J10394285D01*
G01*
X87250000Y-137000004D02*
G75*
G02*
X93246668Y-159394226I-2J-11999998D01*
G01*
%TO.C,H5*%
X79750002Y-71000000D02*
X75250000Y-71000000D01*
X80756990Y-67246229D02*
X76855715Y-65003433D01*
X80756990Y-74753772D02*
X76855773Y-76996669D01*
X83496228Y-64506990D02*
X81253331Y-60605773D01*
X83496229Y-77493010D02*
X81253433Y-81394285D01*
X87250000Y-63500000D02*
X87250000Y-59000000D01*
X91003771Y-64506990D02*
X93246567Y-60605715D01*
X91003772Y-77493010D02*
X93246669Y-81394227D01*
X93743010Y-67246228D02*
X97644227Y-65003331D01*
X93743010Y-74753771D02*
X97644285Y-76996567D01*
X94750000Y-71000000D02*
X99250000Y-71000000D01*
D15*
%TO.C,H11*%
G36*
X52000000Y-208750000D02*
G01*
X52000000Y-208750000D01*
G75*
G03*
X58500000Y-215250000I6500000J0D01*
G01*
X53000000Y-215250000D01*
X52000000Y-214250000D01*
X52000000Y-208750000D01*
G37*
G36*
X58500000Y-202250000D02*
G01*
X58500000Y-202250000D01*
G75*
G03*
X52000000Y-208750000I0J-6500000D01*
G01*
X52000000Y-203250000D01*
X53000000Y-202250000D01*
X58500000Y-202250000D01*
G37*
G36*
X65000000Y-214250000D02*
G01*
X64000000Y-215250000D01*
X58500000Y-215250000D01*
G75*
G03*
X65000000Y-208750000I0J6500000D01*
G01*
X65000000Y-214250000D01*
G37*
G36*
X65000000Y-203250000D02*
G01*
X65000000Y-208750000D01*
G75*
G03*
X58500000Y-202250000I-6500000J0D01*
G01*
X64000000Y-202250000D01*
X65000000Y-203250000D01*
G37*
%TO.C,H19*%
G36*
X85000000Y-208750000D02*
G01*
X85000000Y-208750000D01*
G75*
G03*
X91500000Y-215250000I6500000J0D01*
G01*
X86000000Y-215250000D01*
X85000000Y-214250000D01*
X85000000Y-208750000D01*
G37*
G36*
X91500000Y-202250000D02*
G01*
X91500000Y-202250000D01*
G75*
G03*
X85000000Y-208750000I0J-6500000D01*
G01*
X85000000Y-203250000D01*
X86000000Y-202250000D01*
X91500000Y-202250000D01*
G37*
G36*
X98000000Y-214250000D02*
G01*
X97000000Y-215250000D01*
X91500000Y-215250000D01*
G75*
G03*
X98000000Y-208750000I0J6500000D01*
G01*
X98000000Y-214250000D01*
G37*
G36*
X98000000Y-203250000D02*
G01*
X98000000Y-208750000D01*
G75*
G03*
X91500000Y-202250000I-6500000J0D01*
G01*
X97000000Y-202250000D01*
X98000000Y-203250000D01*
G37*
D14*
%TO.C,H6*%
X52000000Y-66000000D02*
X53500000Y-66000000D01*
X55250002Y-56000000D02*
X50750000Y-56000000D01*
X56256990Y-52246229D02*
X52355715Y-50003433D01*
X56256990Y-59753772D02*
X52355773Y-61996669D01*
X58996228Y-49506990D02*
X56753331Y-45605773D01*
X58996229Y-62493010D02*
X56753433Y-66394285D01*
X62750000Y-48500000D02*
X62750000Y-44000000D01*
X66503771Y-49506990D02*
X68746567Y-45605715D01*
X66503772Y-62493010D02*
X68746669Y-66394227D01*
X69243010Y-52246228D02*
X73144227Y-50003331D01*
X69243010Y-59753771D02*
X73144285Y-61996567D01*
X70250000Y-56000000D02*
X74750000Y-56000000D01*
X72000000Y-66000000D02*
X73500000Y-66000000D01*
X72750000Y-66750000D02*
X72750000Y-65250000D01*
X56753433Y-66394285D02*
G75*
G02*
X62750000Y-44000001I5996567J10394285D01*
G01*
X62750000Y-44000004D02*
G75*
G02*
X68746668Y-66394226I-2J-11999998D01*
G01*
%TO.C,H7*%
X52000000Y-96000000D02*
X53500000Y-96000000D01*
X55250002Y-86000000D02*
X50750000Y-86000000D01*
X56256990Y-82246229D02*
X52355715Y-80003433D01*
X56256990Y-89753772D02*
X52355773Y-91996669D01*
X58996228Y-79506990D02*
X56753331Y-75605773D01*
X58996229Y-92493010D02*
X56753433Y-96394285D01*
X62750000Y-78500000D02*
X62750000Y-74000000D01*
X66503771Y-79506990D02*
X68746567Y-75605715D01*
X66503772Y-92493010D02*
X68746669Y-96394227D01*
X69243010Y-82246228D02*
X73144227Y-80003331D01*
X69243010Y-89753771D02*
X73144285Y-91996567D01*
X70250000Y-86000000D02*
X74750000Y-86000000D01*
X72000000Y-96000000D02*
X73500000Y-96000000D01*
X72750000Y-96750000D02*
X72750000Y-95250000D01*
X56753433Y-96394285D02*
G75*
G02*
X62750000Y-74000001I5996567J10394285D01*
G01*
X62750000Y-74000004D02*
G75*
G02*
X68746668Y-96394226I-2J-11999998D01*
G01*
D15*
%TO.C,H16*%
G36*
X68500000Y-208750000D02*
G01*
X68500000Y-208750000D01*
G75*
G03*
X75000000Y-215250000I6500000J0D01*
G01*
X69500000Y-215250000D01*
X68500000Y-214250000D01*
X68500000Y-208750000D01*
G37*
G36*
X75000000Y-202250000D02*
G01*
X75000000Y-202250000D01*
G75*
G03*
X68500000Y-208750000I0J-6500000D01*
G01*
X68500000Y-203250000D01*
X69500000Y-202250000D01*
X75000000Y-202250000D01*
G37*
G36*
X81500000Y-214250000D02*
G01*
X80500000Y-215250000D01*
X75000000Y-215250000D01*
G75*
G03*
X81500000Y-208750000I0J6500000D01*
G01*
X81500000Y-214250000D01*
G37*
G36*
X81500000Y-203250000D02*
G01*
X81500000Y-208750000D01*
G75*
G03*
X75000000Y-202250000I-6500000J0D01*
G01*
X80500000Y-202250000D01*
X81500000Y-203250000D01*
G37*
D14*
%TO.C,H12*%
X55250002Y-134000000D02*
X50750000Y-134000000D01*
X56256990Y-130246229D02*
X52355715Y-128003433D01*
X56256990Y-137753772D02*
X52355773Y-139996669D01*
X58996228Y-127506990D02*
X56753331Y-123605773D01*
X58996229Y-140493010D02*
X56753433Y-144394285D01*
X62750000Y-126500000D02*
X62750000Y-122000000D01*
X66503771Y-127506990D02*
X68746567Y-123605715D01*
X66503772Y-140493010D02*
X68746669Y-144394227D01*
X69243010Y-130246228D02*
X73144227Y-128003331D01*
X69243010Y-137753771D02*
X73144285Y-139996567D01*
X70250000Y-134000000D02*
X74750000Y-134000000D01*
%TD*%
%LPC*%
D16*
%TO.C,H9*%
X52800000Y-190250000D03*
X54460000Y-186220000D03*
X54470000Y-194290000D03*
X58500000Y-184550000D03*
D17*
X58500000Y-190250000D03*
D16*
X58500000Y-195950000D03*
X62530000Y-194290000D03*
X62540000Y-186220000D03*
X64200000Y-190250000D03*
%TD*%
D18*
%TO.C,H3*%
X53500000Y-226500000D03*
%TD*%
D16*
%TO.C,H8*%
X52800000Y-171750000D03*
X54460000Y-167720000D03*
X54470000Y-175790000D03*
X58500000Y-166050000D03*
D17*
X58500000Y-171750000D03*
D16*
X58500000Y-177450000D03*
X62530000Y-175790000D03*
X62540000Y-167720000D03*
X64200000Y-171750000D03*
%TD*%
%TO.C,H15*%
X69300000Y-171750000D03*
X70960000Y-167720000D03*
X70970000Y-175790000D03*
X75000000Y-166050000D03*
D17*
X75000000Y-171750000D03*
D16*
X75000000Y-177450000D03*
X79030000Y-175790000D03*
X79040000Y-167720000D03*
X80700000Y-171750000D03*
%TD*%
D17*
%TO.C,H13*%
X87250000Y-119000000D03*
%TD*%
%TO.C,H14*%
X87250000Y-149000000D03*
%TD*%
D16*
%TO.C,H17*%
X69300000Y-190250000D03*
X70960000Y-186220000D03*
X70970000Y-194290000D03*
X75000000Y-184550000D03*
D17*
X75000000Y-190250000D03*
D16*
X75000000Y-195950000D03*
X79030000Y-194290000D03*
X79040000Y-186220000D03*
X80700000Y-190250000D03*
%TD*%
%TO.C,H10*%
X85800000Y-171750000D03*
X87460000Y-167720000D03*
X87470000Y-175790000D03*
X91500000Y-166050000D03*
D17*
X91500000Y-171750000D03*
D16*
X91500000Y-177450000D03*
X95530000Y-175790000D03*
X95540000Y-167720000D03*
X97200000Y-171750000D03*
%TD*%
D17*
%TO.C,H5*%
X87250000Y-71000000D03*
D19*
X87250000Y-77000000D03*
%TD*%
D16*
%TO.C,H11*%
X52800000Y-208750000D03*
X54460000Y-204720000D03*
X54470000Y-212790000D03*
X58500000Y-203050000D03*
D17*
X58500000Y-208750000D03*
D16*
X58500000Y-214450000D03*
X62530000Y-212790000D03*
X62540000Y-204720000D03*
X64200000Y-208750000D03*
%TD*%
%TO.C,H19*%
X85800000Y-208750000D03*
X87460000Y-204720000D03*
X87470000Y-212790000D03*
X91500000Y-203050000D03*
D17*
X91500000Y-208750000D03*
D16*
X91500000Y-214450000D03*
X95530000Y-212790000D03*
X95540000Y-204720000D03*
X97200000Y-208750000D03*
%TD*%
D18*
%TO.C,H2*%
X96500000Y-33500000D03*
%TD*%
%TO.C,H4*%
X96500000Y-226500000D03*
%TD*%
D16*
%TO.C,H18*%
X85800000Y-190250000D03*
X87460000Y-186220000D03*
X87470000Y-194290000D03*
X91500000Y-184550000D03*
D17*
X91500000Y-190250000D03*
D16*
X91500000Y-195950000D03*
X95530000Y-194290000D03*
X95540000Y-186220000D03*
X97200000Y-190250000D03*
%TD*%
D17*
%TO.C,H6*%
X62750000Y-56000000D03*
%TD*%
D18*
%TO.C,H1*%
X53500000Y-33500000D03*
%TD*%
D17*
%TO.C,H7*%
X62750000Y-86000000D03*
%TD*%
D16*
%TO.C,H16*%
X69300000Y-208750000D03*
X70960000Y-204720000D03*
X70970000Y-212790000D03*
X75000000Y-203050000D03*
D17*
X75000000Y-208750000D03*
D16*
X75000000Y-214450000D03*
X79030000Y-212790000D03*
X79040000Y-204720000D03*
X80700000Y-208750000D03*
%TD*%
D17*
%TO.C,H12*%
X62750000Y-134000000D03*
D19*
X62750000Y-140000000D03*
%TD*%
%LPD*%
M02*
