%TF.GenerationSoftware,KiCad,Pcbnew,9.0.4*%
%TF.CreationDate,2025-10-04T20:48:30+02:00*%
%TF.ProjectId,DMH_Dual_VCA_Mk2_PANEL,444d485f-4475-4616-9c5f-5643415f4d6b,rev?*%
%TF.SameCoordinates,Original*%
%TF.FileFunction,Soldermask,Top*%
%TF.FilePolarity,Negative*%
%FSLAX46Y46*%
G04 Gerber Fmt 4.6, Leading zero omitted, Abs format (unit mm)*
G04 Created by KiCad (PCBNEW 9.0.4) date 2025-10-04 20:48:30*
%MOMM*%
%LPD*%
G01*
G04 APERTURE LIST*
%ADD10C,0.500000*%
%ADD11C,12.000000*%
%ADD12C,4.000000*%
%ADD13O,2.500000X1.500000*%
G04 APERTURE END LIST*
D10*
%TO.C,H9*%
X52800000Y-190250000D03*
X54460000Y-186220000D03*
X54470000Y-194290000D03*
X58500000Y-184550000D03*
D11*
X58500000Y-190250000D03*
D10*
X58500000Y-195950000D03*
X62530000Y-194290000D03*
X62540000Y-186220000D03*
X64200000Y-190250000D03*
%TD*%
D12*
%TO.C,H3*%
X53500000Y-226500000D03*
%TD*%
D10*
%TO.C,H8*%
X52800000Y-171750000D03*
X54460000Y-167720000D03*
X54470000Y-175790000D03*
X58500000Y-166050000D03*
D11*
X58500000Y-171750000D03*
D10*
X58500000Y-177450000D03*
X62530000Y-175790000D03*
X62540000Y-167720000D03*
X64200000Y-171750000D03*
%TD*%
%TO.C,H15*%
X69300000Y-171750000D03*
X70960000Y-167720000D03*
X70970000Y-175790000D03*
X75000000Y-166050000D03*
D11*
X75000000Y-171750000D03*
D10*
X75000000Y-177450000D03*
X79030000Y-175790000D03*
X79040000Y-167720000D03*
X80700000Y-171750000D03*
%TD*%
D11*
%TO.C,H13*%
X87250000Y-119000000D03*
%TD*%
%TO.C,H14*%
X87250000Y-149000000D03*
%TD*%
D10*
%TO.C,H17*%
X69300000Y-190250000D03*
X70960000Y-186220000D03*
X70970000Y-194290000D03*
X75000000Y-184550000D03*
D11*
X75000000Y-190250000D03*
D10*
X75000000Y-195950000D03*
X79030000Y-194290000D03*
X79040000Y-186220000D03*
X80700000Y-190250000D03*
%TD*%
%TO.C,H10*%
X85800000Y-171750000D03*
X87460000Y-167720000D03*
X87470000Y-175790000D03*
X91500000Y-166050000D03*
D11*
X91500000Y-171750000D03*
D10*
X91500000Y-177450000D03*
X95530000Y-175790000D03*
X95540000Y-167720000D03*
X97200000Y-171750000D03*
%TD*%
D11*
%TO.C,H5*%
X87250000Y-71000000D03*
D13*
X87250000Y-77000000D03*
%TD*%
D10*
%TO.C,H11*%
X52800000Y-208750000D03*
X54460000Y-204720000D03*
X54470000Y-212790000D03*
X58500000Y-203050000D03*
D11*
X58500000Y-208750000D03*
D10*
X58500000Y-214450000D03*
X62530000Y-212790000D03*
X62540000Y-204720000D03*
X64200000Y-208750000D03*
%TD*%
%TO.C,H19*%
X85800000Y-208750000D03*
X87460000Y-204720000D03*
X87470000Y-212790000D03*
X91500000Y-203050000D03*
D11*
X91500000Y-208750000D03*
D10*
X91500000Y-214450000D03*
X95530000Y-212790000D03*
X95540000Y-204720000D03*
X97200000Y-208750000D03*
%TD*%
D12*
%TO.C,H2*%
X96500000Y-33500000D03*
%TD*%
%TO.C,H4*%
X96500000Y-226500000D03*
%TD*%
D10*
%TO.C,H18*%
X85800000Y-190250000D03*
X87460000Y-186220000D03*
X87470000Y-194290000D03*
X91500000Y-184550000D03*
D11*
X91500000Y-190250000D03*
D10*
X91500000Y-195950000D03*
X95530000Y-194290000D03*
X95540000Y-186220000D03*
X97200000Y-190250000D03*
%TD*%
D11*
%TO.C,H6*%
X62750000Y-56000000D03*
%TD*%
D12*
%TO.C,H1*%
X53500000Y-33500000D03*
%TD*%
D11*
%TO.C,H7*%
X62750000Y-86000000D03*
%TD*%
D10*
%TO.C,H16*%
X69300000Y-208750000D03*
X70960000Y-204720000D03*
X70970000Y-212790000D03*
X75000000Y-203050000D03*
D11*
X75000000Y-208750000D03*
D10*
X75000000Y-214450000D03*
X79030000Y-212790000D03*
X79040000Y-204720000D03*
X80700000Y-208750000D03*
%TD*%
D11*
%TO.C,H12*%
X62750000Y-134000000D03*
D13*
X62750000Y-140000000D03*
%TD*%
M02*
