%TF.GenerationSoftware,KiCad,Pcbnew,9.0.4*%
%TF.CreationDate,2025-10-04T20:48:30+02:00*%
%TF.ProjectId,DMH_Dual_VCA_Mk2_PANEL,444d485f-4475-4616-9c5f-5643415f4d6b,rev?*%
%TF.SameCoordinates,Original*%
%TF.FileFunction,Copper,L1,Top*%
%TF.FilePolarity,Positive*%
%FSLAX46Y46*%
G04 Gerber Fmt 4.6, Leading zero omitted, Abs format (unit mm)*
G04 Created by KiCad (PCBNEW 9.0.4) date 2025-10-04 20:48:30*
%MOMM*%
%LPD*%
G01*
G04 APERTURE LIST*
%TA.AperFunction,ComponentPad*%
%ADD10C,0.500000*%
%TD*%
%TA.AperFunction,ConnectorPad*%
%ADD11C,12.000000*%
%TD*%
%TA.AperFunction,ComponentPad*%
%ADD12C,4.000000*%
%TD*%
%TA.AperFunction,ComponentPad*%
%ADD13O,2.500000X1.500000*%
%TD*%
G04 APERTURE END LIST*
D10*
%TO.P,H9,1,1*%
%TO.N,GND*%
X52800000Y-190250000D03*
X54460000Y-186220000D03*
X54470000Y-194290000D03*
X58500000Y-184550000D03*
D11*
X58500000Y-190250000D03*
D10*
X58500000Y-195950000D03*
X62530000Y-194290000D03*
X62540000Y-186220000D03*
X64200000Y-190250000D03*
%TD*%
D12*
%TO.P,H3,1,1*%
%TO.N,GND*%
X53500000Y-226500000D03*
%TD*%
D10*
%TO.P,H8,1,1*%
%TO.N,GND*%
X52800000Y-171750000D03*
X54460000Y-167720000D03*
X54470000Y-175790000D03*
X58500000Y-166050000D03*
D11*
X58500000Y-171750000D03*
D10*
X58500000Y-177450000D03*
X62530000Y-175790000D03*
X62540000Y-167720000D03*
X64200000Y-171750000D03*
%TD*%
%TO.P,H15,1,1*%
%TO.N,GND*%
X69300000Y-171750000D03*
X70960000Y-167720000D03*
X70970000Y-175790000D03*
X75000000Y-166050000D03*
D11*
X75000000Y-171750000D03*
D10*
X75000000Y-177450000D03*
X79030000Y-175790000D03*
X79040000Y-167720000D03*
X80700000Y-171750000D03*
%TD*%
D11*
%TO.P,H13,1,1*%
%TO.N,GND*%
X87250000Y-119000000D03*
%TD*%
%TO.P,H14,1,1*%
%TO.N,GND*%
X87250000Y-149000000D03*
%TD*%
D10*
%TO.P,H17,1,1*%
%TO.N,GND*%
X69300000Y-190250000D03*
X70960000Y-186220000D03*
X70970000Y-194290000D03*
X75000000Y-184550000D03*
D11*
X75000000Y-190250000D03*
D10*
X75000000Y-195950000D03*
X79030000Y-194290000D03*
X79040000Y-186220000D03*
X80700000Y-190250000D03*
%TD*%
%TO.P,H10,1,1*%
%TO.N,GND*%
X85800000Y-171750000D03*
X87460000Y-167720000D03*
X87470000Y-175790000D03*
X91500000Y-166050000D03*
D11*
X91500000Y-171750000D03*
D10*
X91500000Y-177450000D03*
X95530000Y-175790000D03*
X95540000Y-167720000D03*
X97200000Y-171750000D03*
%TD*%
D11*
%TO.P,H5,1,1*%
%TO.N,GND*%
X87250000Y-71000000D03*
D13*
X87250000Y-77000000D03*
%TD*%
D10*
%TO.P,H11,1,1*%
%TO.N,GND*%
X52800000Y-208750000D03*
X54460000Y-204720000D03*
X54470000Y-212790000D03*
X58500000Y-203050000D03*
D11*
X58500000Y-208750000D03*
D10*
X58500000Y-214450000D03*
X62530000Y-212790000D03*
X62540000Y-204720000D03*
X64200000Y-208750000D03*
%TD*%
%TO.P,H19,1,1*%
%TO.N,GND*%
X85800000Y-208750000D03*
X87460000Y-204720000D03*
X87470000Y-212790000D03*
X91500000Y-203050000D03*
D11*
X91500000Y-208750000D03*
D10*
X91500000Y-214450000D03*
X95530000Y-212790000D03*
X95540000Y-204720000D03*
X97200000Y-208750000D03*
%TD*%
D12*
%TO.P,H2,1,1*%
%TO.N,GND*%
X96500000Y-33500000D03*
%TD*%
%TO.P,H4,1,1*%
%TO.N,GND*%
X96500000Y-226500000D03*
%TD*%
D10*
%TO.P,H18,1,1*%
%TO.N,GND*%
X85800000Y-190250000D03*
X87460000Y-186220000D03*
X87470000Y-194290000D03*
X91500000Y-184550000D03*
D11*
X91500000Y-190250000D03*
D10*
X91500000Y-195950000D03*
X95530000Y-194290000D03*
X95540000Y-186220000D03*
X97200000Y-190250000D03*
%TD*%
D11*
%TO.P,H6,1,1*%
%TO.N,GND*%
X62750000Y-56000000D03*
%TD*%
D12*
%TO.P,H1,1,1*%
%TO.N,GND*%
X53500000Y-33500000D03*
%TD*%
D11*
%TO.P,H7,1,1*%
%TO.N,GND*%
X62750000Y-86000000D03*
%TD*%
D10*
%TO.P,H16,1,1*%
%TO.N,GND*%
X69300000Y-208750000D03*
X70960000Y-204720000D03*
X70970000Y-212790000D03*
X75000000Y-203050000D03*
D11*
X75000000Y-208750000D03*
D10*
X75000000Y-214450000D03*
X79030000Y-212790000D03*
X79040000Y-204720000D03*
X80700000Y-208750000D03*
%TD*%
D11*
%TO.P,H12,1,1*%
%TO.N,GND*%
X62750000Y-134000000D03*
D13*
X62750000Y-140000000D03*
%TD*%
%TA.AperFunction,Conductor*%
%TO.N,GND*%
G36*
X99442539Y-30520185D02*
G01*
X99488294Y-30572989D01*
X99499500Y-30624500D01*
X99499500Y-229375500D01*
X99479815Y-229442539D01*
X99427011Y-229488294D01*
X99375500Y-229499500D01*
X50624500Y-229499500D01*
X50557461Y-229479815D01*
X50511706Y-229427011D01*
X50500500Y-229375500D01*
X50500500Y-208537814D01*
X53099500Y-208537814D01*
X53099500Y-208558097D01*
X53099500Y-208962186D01*
X53132796Y-209385250D01*
X53199182Y-209804398D01*
X53298250Y-210217045D01*
X53298254Y-210217056D01*
X53429385Y-210620641D01*
X53496000Y-210781463D01*
X53591789Y-211012716D01*
X53784450Y-211390835D01*
X53784457Y-211390848D01*
X53784460Y-211390853D01*
X53807375Y-211428246D01*
X54006184Y-211752672D01*
X54006192Y-211752683D01*
X54006198Y-211752692D01*
X54255617Y-212095989D01*
X54255627Y-212096003D01*
X54378919Y-212240358D01*
X54531231Y-212418692D01*
X54831308Y-212718769D01*
X54831314Y-212718774D01*
X55153996Y-212994372D01*
X55154010Y-212994382D01*
X55361749Y-213145313D01*
X55497328Y-213243816D01*
X55625685Y-213322473D01*
X55859146Y-213465539D01*
X55859151Y-213465542D01*
X55859156Y-213465544D01*
X55859165Y-213465550D01*
X56237284Y-213658211D01*
X56629353Y-213820612D01*
X56629358Y-213820614D01*
X56731979Y-213853957D01*
X57032955Y-213951750D01*
X57445602Y-214050818D01*
X57864750Y-214117204D01*
X58287814Y-214150500D01*
X58287822Y-214150500D01*
X58712178Y-214150500D01*
X58712186Y-214150500D01*
X59135250Y-214117204D01*
X59554398Y-214050818D01*
X59967045Y-213951750D01*
X60370647Y-213820612D01*
X60762716Y-213658211D01*
X61140835Y-213465550D01*
X61502672Y-213243816D01*
X61845997Y-212994377D01*
X62168692Y-212718769D01*
X62468769Y-212418692D01*
X62744377Y-212095997D01*
X62993816Y-211752672D01*
X63215550Y-211390835D01*
X63408211Y-211012716D01*
X63570612Y-210620647D01*
X63701750Y-210217045D01*
X63800818Y-209804398D01*
X63867204Y-209385250D01*
X63900500Y-208962186D01*
X63900500Y-208537814D01*
X69599500Y-208537814D01*
X69599500Y-208558097D01*
X69599500Y-208962186D01*
X69632796Y-209385250D01*
X69699182Y-209804398D01*
X69798250Y-210217045D01*
X69798254Y-210217056D01*
X69929385Y-210620641D01*
X69996000Y-210781463D01*
X70091789Y-211012716D01*
X70284450Y-211390835D01*
X70284457Y-211390848D01*
X70284460Y-211390853D01*
X70307375Y-211428246D01*
X70506184Y-211752672D01*
X70506192Y-211752683D01*
X70506198Y-211752692D01*
X70755617Y-212095989D01*
X70755627Y-212096003D01*
X70878919Y-212240358D01*
X71031231Y-212418692D01*
X71331308Y-212718769D01*
X71331314Y-212718774D01*
X71653996Y-212994372D01*
X71654010Y-212994382D01*
X71861749Y-213145313D01*
X71997328Y-213243816D01*
X72125685Y-213322473D01*
X72359146Y-213465539D01*
X72359151Y-213465542D01*
X72359156Y-213465544D01*
X72359165Y-213465550D01*
X72737284Y-213658211D01*
X73129353Y-213820612D01*
X73129358Y-213820614D01*
X73231979Y-213853957D01*
X73532955Y-213951750D01*
X73945602Y-214050818D01*
X74364750Y-214117204D01*
X74787814Y-214150500D01*
X74787822Y-214150500D01*
X75212178Y-214150500D01*
X75212186Y-214150500D01*
X75635250Y-214117204D01*
X76054398Y-214050818D01*
X76467045Y-213951750D01*
X76870647Y-213820612D01*
X77262716Y-213658211D01*
X77640835Y-213465550D01*
X78002672Y-213243816D01*
X78345997Y-212994377D01*
X78668692Y-212718769D01*
X78968769Y-212418692D01*
X79244377Y-212095997D01*
X79493816Y-211752672D01*
X79715550Y-211390835D01*
X79908211Y-211012716D01*
X80070612Y-210620647D01*
X80201750Y-210217045D01*
X80300818Y-209804398D01*
X80367204Y-209385250D01*
X80400500Y-208962186D01*
X80400500Y-208537814D01*
X86099500Y-208537814D01*
X86099500Y-208558097D01*
X86099500Y-208962186D01*
X86132796Y-209385250D01*
X86199182Y-209804398D01*
X86298250Y-210217045D01*
X86298254Y-210217056D01*
X86429385Y-210620641D01*
X86496000Y-210781463D01*
X86591789Y-211012716D01*
X86784450Y-211390835D01*
X86784457Y-211390848D01*
X86784460Y-211390853D01*
X86807375Y-211428246D01*
X87006184Y-211752672D01*
X87006192Y-211752683D01*
X87006198Y-211752692D01*
X87255617Y-212095989D01*
X87255627Y-212096003D01*
X87378919Y-212240358D01*
X87531231Y-212418692D01*
X87831308Y-212718769D01*
X87831314Y-212718774D01*
X88153996Y-212994372D01*
X88154010Y-212994382D01*
X88361749Y-213145313D01*
X88497328Y-213243816D01*
X88625685Y-213322473D01*
X88859146Y-213465539D01*
X88859151Y-213465542D01*
X88859156Y-213465544D01*
X88859165Y-213465550D01*
X89237284Y-213658211D01*
X89629353Y-213820612D01*
X89629358Y-213820614D01*
X89731979Y-213853957D01*
X90032955Y-213951750D01*
X90445602Y-214050818D01*
X90864750Y-214117204D01*
X91287814Y-214150500D01*
X91287822Y-214150500D01*
X91712178Y-214150500D01*
X91712186Y-214150500D01*
X92135250Y-214117204D01*
X92554398Y-214050818D01*
X92967045Y-213951750D01*
X93370647Y-213820612D01*
X93762716Y-213658211D01*
X94140835Y-213465550D01*
X94502672Y-213243816D01*
X94845997Y-212994377D01*
X95168692Y-212718769D01*
X95468769Y-212418692D01*
X95744377Y-212095997D01*
X95993816Y-211752672D01*
X96215550Y-211390835D01*
X96408211Y-211012716D01*
X96570612Y-210620647D01*
X96701750Y-210217045D01*
X96800818Y-209804398D01*
X96867204Y-209385250D01*
X96900500Y-208962186D01*
X96900500Y-208537814D01*
X96867204Y-208114750D01*
X96800818Y-207695602D01*
X96701750Y-207282955D01*
X96570612Y-206879353D01*
X96408211Y-206487284D01*
X96215550Y-206109165D01*
X96215544Y-206109156D01*
X96215542Y-206109151D01*
X96215539Y-206109146D01*
X95993823Y-205747340D01*
X95993816Y-205747328D01*
X95744377Y-205404003D01*
X95744372Y-205403996D01*
X95468774Y-205081314D01*
X95468769Y-205081308D01*
X95168692Y-204781231D01*
X95168685Y-204781225D01*
X94846003Y-204505627D01*
X94845989Y-204505617D01*
X94502692Y-204256198D01*
X94502683Y-204256192D01*
X94502672Y-204256184D01*
X94502659Y-204256176D01*
X94140853Y-204034460D01*
X94140848Y-204034457D01*
X94140838Y-204034452D01*
X94140835Y-204034450D01*
X93762716Y-203841789D01*
X93762702Y-203841783D01*
X93370641Y-203679385D01*
X93083478Y-203586081D01*
X92967045Y-203548250D01*
X92554398Y-203449182D01*
X92135250Y-203382796D01*
X91712191Y-203349500D01*
X91712186Y-203349500D01*
X91287814Y-203349500D01*
X91287808Y-203349500D01*
X90864749Y-203382796D01*
X90864748Y-203382796D01*
X90445607Y-203449181D01*
X90445604Y-203449181D01*
X90445602Y-203449182D01*
X90297817Y-203484661D01*
X90032966Y-203548247D01*
X90032960Y-203548248D01*
X90032955Y-203548250D01*
X90032943Y-203548254D01*
X89629358Y-203679385D01*
X89237297Y-203841783D01*
X89237284Y-203841789D01*
X88859151Y-204034457D01*
X88859146Y-204034460D01*
X88497340Y-204256176D01*
X88497307Y-204256198D01*
X88154010Y-204505617D01*
X88153996Y-204505627D01*
X87831314Y-204781225D01*
X87831300Y-204781238D01*
X87531238Y-205081300D01*
X87531225Y-205081314D01*
X87255627Y-205403996D01*
X87255617Y-205404010D01*
X87006198Y-205747307D01*
X87006176Y-205747340D01*
X86784460Y-206109146D01*
X86784457Y-206109151D01*
X86591789Y-206487284D01*
X86591783Y-206487297D01*
X86429385Y-206879358D01*
X86298254Y-207282943D01*
X86298247Y-207282966D01*
X86199181Y-207695607D01*
X86183000Y-207797774D01*
X86132796Y-208114750D01*
X86099500Y-208537814D01*
X80400500Y-208537814D01*
X80367204Y-208114750D01*
X80300818Y-207695602D01*
X80201750Y-207282955D01*
X80070612Y-206879353D01*
X79908211Y-206487284D01*
X79715550Y-206109165D01*
X79715544Y-206109156D01*
X79715542Y-206109151D01*
X79715539Y-206109146D01*
X79493823Y-205747340D01*
X79493816Y-205747328D01*
X79244377Y-205404003D01*
X79244372Y-205403996D01*
X78968774Y-205081314D01*
X78968769Y-205081308D01*
X78668692Y-204781231D01*
X78668685Y-204781225D01*
X78346003Y-204505627D01*
X78345989Y-204505617D01*
X78002692Y-204256198D01*
X78002683Y-204256192D01*
X78002672Y-204256184D01*
X78002659Y-204256176D01*
X77640853Y-204034460D01*
X77640848Y-204034457D01*
X77640838Y-204034452D01*
X77640835Y-204034450D01*
X77262716Y-203841789D01*
X77262702Y-203841783D01*
X76870641Y-203679385D01*
X76583478Y-203586081D01*
X76467045Y-203548250D01*
X76054398Y-203449182D01*
X75635250Y-203382796D01*
X75212191Y-203349500D01*
X75212186Y-203349500D01*
X74787814Y-203349500D01*
X74787808Y-203349500D01*
X74364749Y-203382796D01*
X74364748Y-203382796D01*
X73945607Y-203449181D01*
X73945604Y-203449181D01*
X73945602Y-203449182D01*
X73797817Y-203484661D01*
X73532966Y-203548247D01*
X73532960Y-203548248D01*
X73532955Y-203548250D01*
X73532943Y-203548254D01*
X73129358Y-203679385D01*
X72737297Y-203841783D01*
X72737284Y-203841789D01*
X72359151Y-204034457D01*
X72359146Y-204034460D01*
X71997340Y-204256176D01*
X71997307Y-204256198D01*
X71654010Y-204505617D01*
X71653996Y-204505627D01*
X71331314Y-204781225D01*
X71331300Y-204781238D01*
X71031238Y-205081300D01*
X71031225Y-205081314D01*
X70755627Y-205403996D01*
X70755617Y-205404010D01*
X70506198Y-205747307D01*
X70506176Y-205747340D01*
X70284460Y-206109146D01*
X70284457Y-206109151D01*
X70091789Y-206487284D01*
X70091783Y-206487297D01*
X69929385Y-206879358D01*
X69798254Y-207282943D01*
X69798247Y-207282966D01*
X69699181Y-207695607D01*
X69683000Y-207797774D01*
X69632796Y-208114750D01*
X69599500Y-208537814D01*
X63900500Y-208537814D01*
X63867204Y-208114750D01*
X63800818Y-207695602D01*
X63701750Y-207282955D01*
X63570612Y-206879353D01*
X63408211Y-206487284D01*
X63215550Y-206109165D01*
X63215544Y-206109156D01*
X63215542Y-206109151D01*
X63215539Y-206109146D01*
X62993823Y-205747340D01*
X62993816Y-205747328D01*
X62744377Y-205404003D01*
X62744372Y-205403996D01*
X62468774Y-205081314D01*
X62468769Y-205081308D01*
X62168692Y-204781231D01*
X62168685Y-204781225D01*
X61846003Y-204505627D01*
X61845989Y-204505617D01*
X61502692Y-204256198D01*
X61502683Y-204256192D01*
X61502672Y-204256184D01*
X61502659Y-204256176D01*
X61140853Y-204034460D01*
X61140848Y-204034457D01*
X61140838Y-204034452D01*
X61140835Y-204034450D01*
X60762716Y-203841789D01*
X60762702Y-203841783D01*
X60370641Y-203679385D01*
X60083478Y-203586081D01*
X59967045Y-203548250D01*
X59554398Y-203449182D01*
X59135250Y-203382796D01*
X58712191Y-203349500D01*
X58712186Y-203349500D01*
X58287814Y-203349500D01*
X58287808Y-203349500D01*
X57864749Y-203382796D01*
X57864748Y-203382796D01*
X57445607Y-203449181D01*
X57445604Y-203449181D01*
X57445602Y-203449182D01*
X57297817Y-203484661D01*
X57032966Y-203548247D01*
X57032960Y-203548248D01*
X57032955Y-203548250D01*
X57032943Y-203548254D01*
X56629358Y-203679385D01*
X56237297Y-203841783D01*
X56237284Y-203841789D01*
X55859151Y-204034457D01*
X55859146Y-204034460D01*
X55497340Y-204256176D01*
X55497307Y-204256198D01*
X55154010Y-204505617D01*
X55153996Y-204505627D01*
X54831314Y-204781225D01*
X54831300Y-204781238D01*
X54531238Y-205081300D01*
X54531225Y-205081314D01*
X54255627Y-205403996D01*
X54255617Y-205404010D01*
X54006198Y-205747307D01*
X54006176Y-205747340D01*
X53784460Y-206109146D01*
X53784457Y-206109151D01*
X53591789Y-206487284D01*
X53591783Y-206487297D01*
X53429385Y-206879358D01*
X53298254Y-207282943D01*
X53298247Y-207282966D01*
X53199181Y-207695607D01*
X53183000Y-207797774D01*
X53132796Y-208114750D01*
X53099500Y-208537814D01*
X50500500Y-208537814D01*
X50500500Y-190037814D01*
X53099500Y-190037814D01*
X53099500Y-190058097D01*
X53099500Y-190462186D01*
X53132796Y-190885250D01*
X53199182Y-191304398D01*
X53298250Y-191717045D01*
X53298254Y-191717056D01*
X53429385Y-192120641D01*
X53496000Y-192281463D01*
X53591789Y-192512716D01*
X53784450Y-192890835D01*
X53784457Y-192890848D01*
X53784460Y-192890853D01*
X53807375Y-192928246D01*
X54006184Y-193252672D01*
X54006192Y-193252683D01*
X54006198Y-193252692D01*
X54255617Y-193595989D01*
X54255627Y-193596003D01*
X54378919Y-193740358D01*
X54531231Y-193918692D01*
X54831308Y-194218769D01*
X54831314Y-194218774D01*
X55153996Y-194494372D01*
X55154010Y-194494382D01*
X55361749Y-194645313D01*
X55497328Y-194743816D01*
X55625685Y-194822473D01*
X55859146Y-194965539D01*
X55859151Y-194965542D01*
X55859156Y-194965544D01*
X55859165Y-194965550D01*
X56237284Y-195158211D01*
X56629353Y-195320612D01*
X56629358Y-195320614D01*
X56731979Y-195353957D01*
X57032955Y-195451750D01*
X57445602Y-195550818D01*
X57864750Y-195617204D01*
X58287814Y-195650500D01*
X58287822Y-195650500D01*
X58712178Y-195650500D01*
X58712186Y-195650500D01*
X59135250Y-195617204D01*
X59554398Y-195550818D01*
X59967045Y-195451750D01*
X60370647Y-195320612D01*
X60762716Y-195158211D01*
X61140835Y-194965550D01*
X61502672Y-194743816D01*
X61845997Y-194494377D01*
X62168692Y-194218769D01*
X62468769Y-193918692D01*
X62744377Y-193595997D01*
X62993816Y-193252672D01*
X63215550Y-192890835D01*
X63408211Y-192512716D01*
X63570612Y-192120647D01*
X63701750Y-191717045D01*
X63800818Y-191304398D01*
X63867204Y-190885250D01*
X63900500Y-190462186D01*
X63900500Y-190037814D01*
X69599500Y-190037814D01*
X69599500Y-190058097D01*
X69599500Y-190462186D01*
X69632796Y-190885250D01*
X69699182Y-191304398D01*
X69798250Y-191717045D01*
X69798254Y-191717056D01*
X69929385Y-192120641D01*
X69996000Y-192281463D01*
X70091789Y-192512716D01*
X70284450Y-192890835D01*
X70284457Y-192890848D01*
X70284460Y-192890853D01*
X70307375Y-192928246D01*
X70506184Y-193252672D01*
X70506192Y-193252683D01*
X70506198Y-193252692D01*
X70755617Y-193595989D01*
X70755627Y-193596003D01*
X70878919Y-193740358D01*
X71031231Y-193918692D01*
X71331308Y-194218769D01*
X71331314Y-194218774D01*
X71653996Y-194494372D01*
X71654010Y-194494382D01*
X71861749Y-194645313D01*
X71997328Y-194743816D01*
X72125685Y-194822473D01*
X72359146Y-194965539D01*
X72359151Y-194965542D01*
X72359156Y-194965544D01*
X72359165Y-194965550D01*
X72737284Y-195158211D01*
X73129353Y-195320612D01*
X73129358Y-195320614D01*
X73231979Y-195353957D01*
X73532955Y-195451750D01*
X73945602Y-195550818D01*
X74364750Y-195617204D01*
X74787814Y-195650500D01*
X74787822Y-195650500D01*
X75212178Y-195650500D01*
X75212186Y-195650500D01*
X75635250Y-195617204D01*
X76054398Y-195550818D01*
X76467045Y-195451750D01*
X76870647Y-195320612D01*
X77262716Y-195158211D01*
X77640835Y-194965550D01*
X78002672Y-194743816D01*
X78345997Y-194494377D01*
X78668692Y-194218769D01*
X78968769Y-193918692D01*
X79244377Y-193595997D01*
X79493816Y-193252672D01*
X79715550Y-192890835D01*
X79908211Y-192512716D01*
X80070612Y-192120647D01*
X80201750Y-191717045D01*
X80300818Y-191304398D01*
X80367204Y-190885250D01*
X80400500Y-190462186D01*
X80400500Y-190037814D01*
X86099500Y-190037814D01*
X86099500Y-190058097D01*
X86099500Y-190462186D01*
X86132796Y-190885250D01*
X86199182Y-191304398D01*
X86298250Y-191717045D01*
X86298254Y-191717056D01*
X86429385Y-192120641D01*
X86496000Y-192281463D01*
X86591789Y-192512716D01*
X86784450Y-192890835D01*
X86784457Y-192890848D01*
X86784460Y-192890853D01*
X86807375Y-192928246D01*
X87006184Y-193252672D01*
X87006192Y-193252683D01*
X87006198Y-193252692D01*
X87255617Y-193595989D01*
X87255627Y-193596003D01*
X87378919Y-193740358D01*
X87531231Y-193918692D01*
X87831308Y-194218769D01*
X87831314Y-194218774D01*
X88153996Y-194494372D01*
X88154010Y-194494382D01*
X88361749Y-194645313D01*
X88497328Y-194743816D01*
X88625685Y-194822473D01*
X88859146Y-194965539D01*
X88859151Y-194965542D01*
X88859156Y-194965544D01*
X88859165Y-194965550D01*
X89237284Y-195158211D01*
X89629353Y-195320612D01*
X89629358Y-195320614D01*
X89731979Y-195353957D01*
X90032955Y-195451750D01*
X90445602Y-195550818D01*
X90864750Y-195617204D01*
X91287814Y-195650500D01*
X91287822Y-195650500D01*
X91712178Y-195650500D01*
X91712186Y-195650500D01*
X92135250Y-195617204D01*
X92554398Y-195550818D01*
X92967045Y-195451750D01*
X93370647Y-195320612D01*
X93762716Y-195158211D01*
X94140835Y-194965550D01*
X94502672Y-194743816D01*
X94845997Y-194494377D01*
X95168692Y-194218769D01*
X95468769Y-193918692D01*
X95744377Y-193595997D01*
X95993816Y-193252672D01*
X96215550Y-192890835D01*
X96408211Y-192512716D01*
X96570612Y-192120647D01*
X96701750Y-191717045D01*
X96800818Y-191304398D01*
X96867204Y-190885250D01*
X96900500Y-190462186D01*
X96900500Y-190037814D01*
X96867204Y-189614750D01*
X96800818Y-189195602D01*
X96701750Y-188782955D01*
X96570612Y-188379353D01*
X96408211Y-187987284D01*
X96215550Y-187609165D01*
X96215544Y-187609156D01*
X96215542Y-187609151D01*
X96215539Y-187609146D01*
X95993823Y-187247340D01*
X95993816Y-187247328D01*
X95744377Y-186904003D01*
X95744372Y-186903996D01*
X95468774Y-186581314D01*
X95468769Y-186581308D01*
X95168692Y-186281231D01*
X95168685Y-186281225D01*
X94846003Y-186005627D01*
X94845989Y-186005617D01*
X94502692Y-185756198D01*
X94502683Y-185756192D01*
X94502672Y-185756184D01*
X94502659Y-185756176D01*
X94140853Y-185534460D01*
X94140848Y-185534457D01*
X94140838Y-185534452D01*
X94140835Y-185534450D01*
X93762716Y-185341789D01*
X93762702Y-185341783D01*
X93370641Y-185179385D01*
X93083478Y-185086081D01*
X92967045Y-185048250D01*
X92554398Y-184949182D01*
X92135250Y-184882796D01*
X91712191Y-184849500D01*
X91712186Y-184849500D01*
X91287814Y-184849500D01*
X91287808Y-184849500D01*
X90864749Y-184882796D01*
X90864748Y-184882796D01*
X90445607Y-184949181D01*
X90445604Y-184949181D01*
X90445602Y-184949182D01*
X90297817Y-184984661D01*
X90032966Y-185048247D01*
X90032960Y-185048248D01*
X90032955Y-185048250D01*
X90032943Y-185048254D01*
X89629358Y-185179385D01*
X89237297Y-185341783D01*
X89237284Y-185341789D01*
X88859151Y-185534457D01*
X88859146Y-185534460D01*
X88497340Y-185756176D01*
X88497307Y-185756198D01*
X88154010Y-186005617D01*
X88153996Y-186005627D01*
X87831314Y-186281225D01*
X87831300Y-186281238D01*
X87531238Y-186581300D01*
X87531225Y-186581314D01*
X87255627Y-186903996D01*
X87255617Y-186904010D01*
X87006198Y-187247307D01*
X87006176Y-187247340D01*
X86784460Y-187609146D01*
X86784457Y-187609151D01*
X86591789Y-187987284D01*
X86591783Y-187987297D01*
X86429385Y-188379358D01*
X86298254Y-188782943D01*
X86298247Y-188782966D01*
X86199181Y-189195607D01*
X86183000Y-189297774D01*
X86132796Y-189614750D01*
X86099500Y-190037814D01*
X80400500Y-190037814D01*
X80367204Y-189614750D01*
X80300818Y-189195602D01*
X80201750Y-188782955D01*
X80070612Y-188379353D01*
X79908211Y-187987284D01*
X79715550Y-187609165D01*
X79715544Y-187609156D01*
X79715542Y-187609151D01*
X79715539Y-187609146D01*
X79493823Y-187247340D01*
X79493816Y-187247328D01*
X79244377Y-186904003D01*
X79244372Y-186903996D01*
X78968774Y-186581314D01*
X78968769Y-186581308D01*
X78668692Y-186281231D01*
X78668685Y-186281225D01*
X78346003Y-186005627D01*
X78345989Y-186005617D01*
X78002692Y-185756198D01*
X78002683Y-185756192D01*
X78002672Y-185756184D01*
X78002659Y-185756176D01*
X77640853Y-185534460D01*
X77640848Y-185534457D01*
X77640838Y-185534452D01*
X77640835Y-185534450D01*
X77262716Y-185341789D01*
X77262702Y-185341783D01*
X76870641Y-185179385D01*
X76583478Y-185086081D01*
X76467045Y-185048250D01*
X76054398Y-184949182D01*
X75635250Y-184882796D01*
X75212191Y-184849500D01*
X75212186Y-184849500D01*
X74787814Y-184849500D01*
X74787808Y-184849500D01*
X74364749Y-184882796D01*
X74364748Y-184882796D01*
X73945607Y-184949181D01*
X73945604Y-184949181D01*
X73945602Y-184949182D01*
X73797817Y-184984661D01*
X73532966Y-185048247D01*
X73532960Y-185048248D01*
X73532955Y-185048250D01*
X73532943Y-185048254D01*
X73129358Y-185179385D01*
X72737297Y-185341783D01*
X72737284Y-185341789D01*
X72359151Y-185534457D01*
X72359146Y-185534460D01*
X71997340Y-185756176D01*
X71997307Y-185756198D01*
X71654010Y-186005617D01*
X71653996Y-186005627D01*
X71331314Y-186281225D01*
X71331300Y-186281238D01*
X71031238Y-186581300D01*
X71031225Y-186581314D01*
X70755627Y-186903996D01*
X70755617Y-186904010D01*
X70506198Y-187247307D01*
X70506176Y-187247340D01*
X70284460Y-187609146D01*
X70284457Y-187609151D01*
X70091789Y-187987284D01*
X70091783Y-187987297D01*
X69929385Y-188379358D01*
X69798254Y-188782943D01*
X69798247Y-188782966D01*
X69699181Y-189195607D01*
X69683000Y-189297774D01*
X69632796Y-189614750D01*
X69599500Y-190037814D01*
X63900500Y-190037814D01*
X63867204Y-189614750D01*
X63800818Y-189195602D01*
X63701750Y-188782955D01*
X63570612Y-188379353D01*
X63408211Y-187987284D01*
X63215550Y-187609165D01*
X63215544Y-187609156D01*
X63215542Y-187609151D01*
X63215539Y-187609146D01*
X62993823Y-187247340D01*
X62993816Y-187247328D01*
X62744377Y-186904003D01*
X62744372Y-186903996D01*
X62468774Y-186581314D01*
X62468769Y-186581308D01*
X62168692Y-186281231D01*
X62168685Y-186281225D01*
X61846003Y-186005627D01*
X61845989Y-186005617D01*
X61502692Y-185756198D01*
X61502683Y-185756192D01*
X61502672Y-185756184D01*
X61502659Y-185756176D01*
X61140853Y-185534460D01*
X61140848Y-185534457D01*
X61140838Y-185534452D01*
X61140835Y-185534450D01*
X60762716Y-185341789D01*
X60762702Y-185341783D01*
X60370641Y-185179385D01*
X60083478Y-185086081D01*
X59967045Y-185048250D01*
X59554398Y-184949182D01*
X59135250Y-184882796D01*
X58712191Y-184849500D01*
X58712186Y-184849500D01*
X58287814Y-184849500D01*
X58287808Y-184849500D01*
X57864749Y-184882796D01*
X57864748Y-184882796D01*
X57445607Y-184949181D01*
X57445604Y-184949181D01*
X57445602Y-184949182D01*
X57297817Y-184984661D01*
X57032966Y-185048247D01*
X57032960Y-185048248D01*
X57032955Y-185048250D01*
X57032943Y-185048254D01*
X56629358Y-185179385D01*
X56237297Y-185341783D01*
X56237284Y-185341789D01*
X55859151Y-185534457D01*
X55859146Y-185534460D01*
X55497340Y-185756176D01*
X55497307Y-185756198D01*
X55154010Y-186005617D01*
X55153996Y-186005627D01*
X54831314Y-186281225D01*
X54831300Y-186281238D01*
X54531238Y-186581300D01*
X54531225Y-186581314D01*
X54255627Y-186903996D01*
X54255617Y-186904010D01*
X54006198Y-187247307D01*
X54006176Y-187247340D01*
X53784460Y-187609146D01*
X53784457Y-187609151D01*
X53591789Y-187987284D01*
X53591783Y-187987297D01*
X53429385Y-188379358D01*
X53298254Y-188782943D01*
X53298247Y-188782966D01*
X53199181Y-189195607D01*
X53183000Y-189297774D01*
X53132796Y-189614750D01*
X53099500Y-190037814D01*
X50500500Y-190037814D01*
X50500500Y-171537814D01*
X53099500Y-171537814D01*
X53099500Y-171558097D01*
X53099500Y-171962186D01*
X53132796Y-172385250D01*
X53199182Y-172804398D01*
X53298250Y-173217045D01*
X53298254Y-173217056D01*
X53429385Y-173620641D01*
X53496000Y-173781463D01*
X53591789Y-174012716D01*
X53784450Y-174390835D01*
X53784457Y-174390848D01*
X53784460Y-174390853D01*
X53807375Y-174428246D01*
X54006184Y-174752672D01*
X54006192Y-174752683D01*
X54006198Y-174752692D01*
X54255617Y-175095989D01*
X54255627Y-175096003D01*
X54378919Y-175240358D01*
X54531231Y-175418692D01*
X54831308Y-175718769D01*
X54831314Y-175718774D01*
X55153996Y-175994372D01*
X55154010Y-175994382D01*
X55361749Y-176145313D01*
X55497328Y-176243816D01*
X55625685Y-176322473D01*
X55859146Y-176465539D01*
X55859151Y-176465542D01*
X55859156Y-176465544D01*
X55859165Y-176465550D01*
X56237284Y-176658211D01*
X56629353Y-176820612D01*
X56629358Y-176820614D01*
X56731979Y-176853957D01*
X57032955Y-176951750D01*
X57445602Y-177050818D01*
X57864750Y-177117204D01*
X58287814Y-177150500D01*
X58287822Y-177150500D01*
X58712178Y-177150500D01*
X58712186Y-177150500D01*
X59135250Y-177117204D01*
X59554398Y-177050818D01*
X59967045Y-176951750D01*
X60370647Y-176820612D01*
X60762716Y-176658211D01*
X61140835Y-176465550D01*
X61502672Y-176243816D01*
X61845997Y-175994377D01*
X62168692Y-175718769D01*
X62468769Y-175418692D01*
X62744377Y-175095997D01*
X62993816Y-174752672D01*
X63215550Y-174390835D01*
X63408211Y-174012716D01*
X63570612Y-173620647D01*
X63701750Y-173217045D01*
X63800818Y-172804398D01*
X63867204Y-172385250D01*
X63900500Y-171962186D01*
X63900500Y-171537814D01*
X69599500Y-171537814D01*
X69599500Y-171558097D01*
X69599500Y-171962186D01*
X69632796Y-172385250D01*
X69699182Y-172804398D01*
X69798250Y-173217045D01*
X69798254Y-173217056D01*
X69929385Y-173620641D01*
X69996000Y-173781463D01*
X70091789Y-174012716D01*
X70284450Y-174390835D01*
X70284457Y-174390848D01*
X70284460Y-174390853D01*
X70307375Y-174428246D01*
X70506184Y-174752672D01*
X70506192Y-174752683D01*
X70506198Y-174752692D01*
X70755617Y-175095989D01*
X70755627Y-175096003D01*
X70878919Y-175240358D01*
X71031231Y-175418692D01*
X71331308Y-175718769D01*
X71331314Y-175718774D01*
X71653996Y-175994372D01*
X71654010Y-175994382D01*
X71861749Y-176145313D01*
X71997328Y-176243816D01*
X72125685Y-176322473D01*
X72359146Y-176465539D01*
X72359151Y-176465542D01*
X72359156Y-176465544D01*
X72359165Y-176465550D01*
X72737284Y-176658211D01*
X73129353Y-176820612D01*
X73129358Y-176820614D01*
X73231979Y-176853957D01*
X73532955Y-176951750D01*
X73945602Y-177050818D01*
X74364750Y-177117204D01*
X74787814Y-177150500D01*
X74787822Y-177150500D01*
X75212178Y-177150500D01*
X75212186Y-177150500D01*
X75635250Y-177117204D01*
X76054398Y-177050818D01*
X76467045Y-176951750D01*
X76870647Y-176820612D01*
X77262716Y-176658211D01*
X77640835Y-176465550D01*
X78002672Y-176243816D01*
X78345997Y-175994377D01*
X78668692Y-175718769D01*
X78968769Y-175418692D01*
X79244377Y-175095997D01*
X79493816Y-174752672D01*
X79715550Y-174390835D01*
X79908211Y-174012716D01*
X80070612Y-173620647D01*
X80201750Y-173217045D01*
X80300818Y-172804398D01*
X80367204Y-172385250D01*
X80400500Y-171962186D01*
X80400500Y-171537814D01*
X86099500Y-171537814D01*
X86099500Y-171558097D01*
X86099500Y-171962186D01*
X86132796Y-172385250D01*
X86199182Y-172804398D01*
X86298250Y-173217045D01*
X86298254Y-173217056D01*
X86429385Y-173620641D01*
X86496000Y-173781463D01*
X86591789Y-174012716D01*
X86784450Y-174390835D01*
X86784457Y-174390848D01*
X86784460Y-174390853D01*
X86807375Y-174428246D01*
X87006184Y-174752672D01*
X87006192Y-174752683D01*
X87006198Y-174752692D01*
X87255617Y-175095989D01*
X87255627Y-175096003D01*
X87378919Y-175240358D01*
X87531231Y-175418692D01*
X87831308Y-175718769D01*
X87831314Y-175718774D01*
X88153996Y-175994372D01*
X88154010Y-175994382D01*
X88361749Y-176145313D01*
X88497328Y-176243816D01*
X88625685Y-176322473D01*
X88859146Y-176465539D01*
X88859151Y-176465542D01*
X88859156Y-176465544D01*
X88859165Y-176465550D01*
X89237284Y-176658211D01*
X89629353Y-176820612D01*
X89629358Y-176820614D01*
X89731979Y-176853957D01*
X90032955Y-176951750D01*
X90445602Y-177050818D01*
X90864750Y-177117204D01*
X91287814Y-177150500D01*
X91287822Y-177150500D01*
X91712178Y-177150500D01*
X91712186Y-177150500D01*
X92135250Y-177117204D01*
X92554398Y-177050818D01*
X92967045Y-176951750D01*
X93370647Y-176820612D01*
X93762716Y-176658211D01*
X94140835Y-176465550D01*
X94502672Y-176243816D01*
X94845997Y-175994377D01*
X95168692Y-175718769D01*
X95468769Y-175418692D01*
X95744377Y-175095997D01*
X95993816Y-174752672D01*
X96215550Y-174390835D01*
X96408211Y-174012716D01*
X96570612Y-173620647D01*
X96701750Y-173217045D01*
X96800818Y-172804398D01*
X96867204Y-172385250D01*
X96900500Y-171962186D01*
X96900500Y-171537814D01*
X96867204Y-171114750D01*
X96800818Y-170695602D01*
X96701750Y-170282955D01*
X96570612Y-169879353D01*
X96408211Y-169487284D01*
X96215550Y-169109165D01*
X96215544Y-169109156D01*
X96215542Y-169109151D01*
X96215539Y-169109146D01*
X95993823Y-168747340D01*
X95993816Y-168747328D01*
X95744377Y-168404003D01*
X95744372Y-168403996D01*
X95468774Y-168081314D01*
X95468769Y-168081308D01*
X95168692Y-167781231D01*
X95168685Y-167781225D01*
X94846003Y-167505627D01*
X94845989Y-167505617D01*
X94502692Y-167256198D01*
X94502683Y-167256192D01*
X94502672Y-167256184D01*
X94502659Y-167256176D01*
X94140853Y-167034460D01*
X94140848Y-167034457D01*
X94140838Y-167034452D01*
X94140835Y-167034450D01*
X93762716Y-166841789D01*
X93762702Y-166841783D01*
X93370641Y-166679385D01*
X93083478Y-166586081D01*
X92967045Y-166548250D01*
X92554398Y-166449182D01*
X92135250Y-166382796D01*
X91712191Y-166349500D01*
X91712186Y-166349500D01*
X91287814Y-166349500D01*
X91287808Y-166349500D01*
X90864749Y-166382796D01*
X90864748Y-166382796D01*
X90445607Y-166449181D01*
X90445604Y-166449181D01*
X90445602Y-166449182D01*
X90297817Y-166484661D01*
X90032966Y-166548247D01*
X90032960Y-166548248D01*
X90032955Y-166548250D01*
X90032943Y-166548254D01*
X89629358Y-166679385D01*
X89237297Y-166841783D01*
X89237284Y-166841789D01*
X88859151Y-167034457D01*
X88859146Y-167034460D01*
X88497340Y-167256176D01*
X88497307Y-167256198D01*
X88154010Y-167505617D01*
X88153996Y-167505627D01*
X87831314Y-167781225D01*
X87831300Y-167781238D01*
X87531238Y-168081300D01*
X87531225Y-168081314D01*
X87255627Y-168403996D01*
X87255617Y-168404010D01*
X87006198Y-168747307D01*
X87006176Y-168747340D01*
X86784460Y-169109146D01*
X86784457Y-169109151D01*
X86591789Y-169487284D01*
X86591783Y-169487297D01*
X86429385Y-169879358D01*
X86298254Y-170282943D01*
X86298247Y-170282966D01*
X86199181Y-170695607D01*
X86183000Y-170797774D01*
X86132796Y-171114750D01*
X86099500Y-171537814D01*
X80400500Y-171537814D01*
X80367204Y-171114750D01*
X80300818Y-170695602D01*
X80201750Y-170282955D01*
X80070612Y-169879353D01*
X79908211Y-169487284D01*
X79715550Y-169109165D01*
X79715544Y-169109156D01*
X79715542Y-169109151D01*
X79715539Y-169109146D01*
X79493823Y-168747340D01*
X79493816Y-168747328D01*
X79244377Y-168404003D01*
X79244372Y-168403996D01*
X78968774Y-168081314D01*
X78968769Y-168081308D01*
X78668692Y-167781231D01*
X78668685Y-167781225D01*
X78346003Y-167505627D01*
X78345989Y-167505617D01*
X78002692Y-167256198D01*
X78002683Y-167256192D01*
X78002672Y-167256184D01*
X78002659Y-167256176D01*
X77640853Y-167034460D01*
X77640848Y-167034457D01*
X77640838Y-167034452D01*
X77640835Y-167034450D01*
X77262716Y-166841789D01*
X77262702Y-166841783D01*
X76870641Y-166679385D01*
X76583478Y-166586081D01*
X76467045Y-166548250D01*
X76054398Y-166449182D01*
X75635250Y-166382796D01*
X75212191Y-166349500D01*
X75212186Y-166349500D01*
X74787814Y-166349500D01*
X74787808Y-166349500D01*
X74364749Y-166382796D01*
X74364748Y-166382796D01*
X73945607Y-166449181D01*
X73945604Y-166449181D01*
X73945602Y-166449182D01*
X73797817Y-166484661D01*
X73532966Y-166548247D01*
X73532960Y-166548248D01*
X73532955Y-166548250D01*
X73532943Y-166548254D01*
X73129358Y-166679385D01*
X72737297Y-166841783D01*
X72737284Y-166841789D01*
X72359151Y-167034457D01*
X72359146Y-167034460D01*
X71997340Y-167256176D01*
X71997307Y-167256198D01*
X71654010Y-167505617D01*
X71653996Y-167505627D01*
X71331314Y-167781225D01*
X71331300Y-167781238D01*
X71031238Y-168081300D01*
X71031225Y-168081314D01*
X70755627Y-168403996D01*
X70755617Y-168404010D01*
X70506198Y-168747307D01*
X70506176Y-168747340D01*
X70284460Y-169109146D01*
X70284457Y-169109151D01*
X70091789Y-169487284D01*
X70091783Y-169487297D01*
X69929385Y-169879358D01*
X69798254Y-170282943D01*
X69798247Y-170282966D01*
X69699181Y-170695607D01*
X69683000Y-170797774D01*
X69632796Y-171114750D01*
X69599500Y-171537814D01*
X63900500Y-171537814D01*
X63867204Y-171114750D01*
X63800818Y-170695602D01*
X63701750Y-170282955D01*
X63570612Y-169879353D01*
X63408211Y-169487284D01*
X63215550Y-169109165D01*
X63215544Y-169109156D01*
X63215542Y-169109151D01*
X63215539Y-169109146D01*
X62993823Y-168747340D01*
X62993816Y-168747328D01*
X62744377Y-168404003D01*
X62744372Y-168403996D01*
X62468774Y-168081314D01*
X62468769Y-168081308D01*
X62168692Y-167781231D01*
X62168685Y-167781225D01*
X61846003Y-167505627D01*
X61845989Y-167505617D01*
X61502692Y-167256198D01*
X61502683Y-167256192D01*
X61502672Y-167256184D01*
X61502659Y-167256176D01*
X61140853Y-167034460D01*
X61140848Y-167034457D01*
X61140838Y-167034452D01*
X61140835Y-167034450D01*
X60762716Y-166841789D01*
X60762702Y-166841783D01*
X60370641Y-166679385D01*
X60083478Y-166586081D01*
X59967045Y-166548250D01*
X59554398Y-166449182D01*
X59135250Y-166382796D01*
X58712191Y-166349500D01*
X58712186Y-166349500D01*
X58287814Y-166349500D01*
X58287808Y-166349500D01*
X57864749Y-166382796D01*
X57864748Y-166382796D01*
X57445607Y-166449181D01*
X57445604Y-166449181D01*
X57445602Y-166449182D01*
X57297817Y-166484661D01*
X57032966Y-166548247D01*
X57032960Y-166548248D01*
X57032955Y-166548250D01*
X57032943Y-166548254D01*
X56629358Y-166679385D01*
X56237297Y-166841783D01*
X56237284Y-166841789D01*
X55859151Y-167034457D01*
X55859146Y-167034460D01*
X55497340Y-167256176D01*
X55497307Y-167256198D01*
X55154010Y-167505617D01*
X55153996Y-167505627D01*
X54831314Y-167781225D01*
X54831300Y-167781238D01*
X54531238Y-168081300D01*
X54531225Y-168081314D01*
X54255627Y-168403996D01*
X54255617Y-168404010D01*
X54006198Y-168747307D01*
X54006176Y-168747340D01*
X53784460Y-169109146D01*
X53784457Y-169109151D01*
X53591789Y-169487284D01*
X53591783Y-169487297D01*
X53429385Y-169879358D01*
X53298254Y-170282943D01*
X53298247Y-170282966D01*
X53199181Y-170695607D01*
X53183000Y-170797774D01*
X53132796Y-171114750D01*
X53099500Y-171537814D01*
X50500500Y-171537814D01*
X50500500Y-148781669D01*
X82249500Y-148781669D01*
X82249500Y-149218330D01*
X82287557Y-149653320D01*
X82287557Y-149653324D01*
X82363379Y-150083327D01*
X82363383Y-150083344D01*
X82476392Y-150505105D01*
X82625740Y-150915434D01*
X82625746Y-150915449D01*
X82810272Y-151311164D01*
X82810277Y-151311174D01*
X83028603Y-151689326D01*
X83028607Y-151689332D01*
X83028614Y-151689343D01*
X83279057Y-152047013D01*
X83481930Y-152288787D01*
X83559732Y-152381507D01*
X83868493Y-152690268D01*
X83958395Y-152765705D01*
X84202986Y-152970942D01*
X84560656Y-153221385D01*
X84560663Y-153221389D01*
X84560674Y-153221397D01*
X84938826Y-153439723D01*
X84938835Y-153439727D01*
X85334550Y-153624253D01*
X85334555Y-153624255D01*
X85334568Y-153624261D01*
X85744888Y-153773605D01*
X85744889Y-153773605D01*
X85744894Y-153773607D01*
X85877398Y-153809110D01*
X86166663Y-153886619D01*
X86596682Y-153962443D01*
X87031671Y-154000499D01*
X87031672Y-154000500D01*
X87031673Y-154000500D01*
X87468328Y-154000500D01*
X87468328Y-154000499D01*
X87903318Y-153962443D01*
X88333337Y-153886619D01*
X88755112Y-153773605D01*
X89165432Y-153624261D01*
X89561174Y-153439723D01*
X89939326Y-153221397D01*
X90297012Y-152970943D01*
X90631507Y-152690268D01*
X90940268Y-152381507D01*
X91220943Y-152047012D01*
X91471397Y-151689326D01*
X91689723Y-151311174D01*
X91874261Y-150915432D01*
X92023605Y-150505112D01*
X92136619Y-150083337D01*
X92212443Y-149653318D01*
X92250500Y-149218327D01*
X92250500Y-148781673D01*
X92212443Y-148346682D01*
X92136619Y-147916663D01*
X92023605Y-147494888D01*
X91874261Y-147084568D01*
X91689723Y-146688826D01*
X91471397Y-146310674D01*
X91471389Y-146310663D01*
X91471385Y-146310656D01*
X91220942Y-145952986D01*
X90940265Y-145618490D01*
X90631509Y-145309734D01*
X90297013Y-145029057D01*
X89939343Y-144778614D01*
X89939332Y-144778607D01*
X89939326Y-144778603D01*
X89826978Y-144713739D01*
X89561180Y-144560280D01*
X89561164Y-144560272D01*
X89165449Y-144375746D01*
X89165434Y-144375740D01*
X89165432Y-144375739D01*
X89011301Y-144319640D01*
X88755105Y-144226392D01*
X88333344Y-144113383D01*
X88333347Y-144113383D01*
X88333337Y-144113381D01*
X88333331Y-144113379D01*
X88333327Y-144113379D01*
X87903322Y-144037557D01*
X87468330Y-143999500D01*
X87468327Y-143999500D01*
X87031673Y-143999500D01*
X87031669Y-143999500D01*
X86596679Y-144037557D01*
X86596675Y-144037557D01*
X86166672Y-144113379D01*
X86166655Y-144113383D01*
X85744894Y-144226392D01*
X85334565Y-144375740D01*
X85334550Y-144375746D01*
X84938835Y-144560272D01*
X84938819Y-144560280D01*
X84560682Y-144778598D01*
X84560656Y-144778614D01*
X84202986Y-145029057D01*
X83868490Y-145309734D01*
X83559734Y-145618490D01*
X83279057Y-145952986D01*
X83028614Y-146310656D01*
X83028598Y-146310682D01*
X82810280Y-146688819D01*
X82810272Y-146688835D01*
X82625746Y-147084550D01*
X82625740Y-147084565D01*
X82476392Y-147494894D01*
X82363383Y-147916655D01*
X82363379Y-147916672D01*
X82287557Y-148346675D01*
X82287557Y-148346679D01*
X82249500Y-148781669D01*
X50500500Y-148781669D01*
X50500500Y-133803471D01*
X58749500Y-133803471D01*
X58749500Y-134196528D01*
X58788026Y-134587702D01*
X58864704Y-134973194D01*
X58864707Y-134973205D01*
X58978810Y-135349354D01*
X59129230Y-135712499D01*
X59129232Y-135712504D01*
X59314511Y-136059137D01*
X59314522Y-136059155D01*
X59532887Y-136385960D01*
X59532897Y-136385974D01*
X59782254Y-136689817D01*
X60060182Y-136967745D01*
X60060187Y-136967749D01*
X60060188Y-136967750D01*
X60364031Y-137217107D01*
X60690851Y-137435482D01*
X60690860Y-137435487D01*
X60690862Y-137435488D01*
X61037495Y-137620767D01*
X61037497Y-137620767D01*
X61037503Y-137620771D01*
X61400647Y-137771190D01*
X61776785Y-137885290D01*
X61776791Y-137885291D01*
X61776794Y-137885292D01*
X61776805Y-137885295D01*
X62162297Y-137961973D01*
X62553468Y-138000500D01*
X62553471Y-138000500D01*
X62946529Y-138000500D01*
X62946532Y-138000500D01*
X63337703Y-137961973D01*
X63412748Y-137947045D01*
X63723194Y-137885295D01*
X63723205Y-137885292D01*
X63723205Y-137885291D01*
X63723215Y-137885290D01*
X64099353Y-137771190D01*
X64462497Y-137620771D01*
X64809149Y-137435482D01*
X65135969Y-137217107D01*
X65439812Y-136967750D01*
X65717750Y-136689812D01*
X65967107Y-136385969D01*
X66185482Y-136059149D01*
X66370771Y-135712497D01*
X66521190Y-135349353D01*
X66635290Y-134973215D01*
X66635292Y-134973205D01*
X66635295Y-134973194D01*
X66711973Y-134587702D01*
X66750500Y-134196528D01*
X66750500Y-133803471D01*
X66711973Y-133412297D01*
X66635295Y-133026805D01*
X66635292Y-133026794D01*
X66635291Y-133026791D01*
X66635290Y-133026785D01*
X66521190Y-132650647D01*
X66370771Y-132287503D01*
X66358355Y-132264275D01*
X66185488Y-131940862D01*
X66185487Y-131940860D01*
X66185482Y-131940851D01*
X65967107Y-131614031D01*
X65717750Y-131310188D01*
X65717749Y-131310187D01*
X65717745Y-131310182D01*
X65439817Y-131032254D01*
X65135974Y-130782897D01*
X65135973Y-130782896D01*
X65135969Y-130782893D01*
X64809149Y-130564518D01*
X64809144Y-130564515D01*
X64809137Y-130564511D01*
X64462504Y-130379232D01*
X64462499Y-130379230D01*
X64099354Y-130228810D01*
X63723205Y-130114707D01*
X63723194Y-130114704D01*
X63337702Y-130038026D01*
X63043089Y-130009010D01*
X62946532Y-129999500D01*
X62553468Y-129999500D01*
X62464251Y-130008287D01*
X62162297Y-130038026D01*
X61776805Y-130114704D01*
X61776794Y-130114707D01*
X61400645Y-130228810D01*
X61037500Y-130379230D01*
X61037495Y-130379232D01*
X60690862Y-130564511D01*
X60690844Y-130564522D01*
X60364039Y-130782887D01*
X60364025Y-130782897D01*
X60060182Y-131032254D01*
X59782254Y-131310182D01*
X59532897Y-131614025D01*
X59532887Y-131614039D01*
X59314522Y-131940844D01*
X59314511Y-131940862D01*
X59129232Y-132287495D01*
X59129230Y-132287500D01*
X58978810Y-132650645D01*
X58864707Y-133026794D01*
X58864704Y-133026805D01*
X58788026Y-133412297D01*
X58749500Y-133803471D01*
X50500500Y-133803471D01*
X50500500Y-118781669D01*
X82249500Y-118781669D01*
X82249500Y-119218330D01*
X82287557Y-119653320D01*
X82287557Y-119653324D01*
X82363379Y-120083327D01*
X82363383Y-120083344D01*
X82476392Y-120505105D01*
X82625740Y-120915434D01*
X82625746Y-120915449D01*
X82810272Y-121311164D01*
X82810277Y-121311174D01*
X83028603Y-121689326D01*
X83028607Y-121689332D01*
X83028614Y-121689343D01*
X83279057Y-122047013D01*
X83481930Y-122288787D01*
X83559732Y-122381507D01*
X83868493Y-122690268D01*
X83958395Y-122765705D01*
X84202986Y-122970942D01*
X84560656Y-123221385D01*
X84560663Y-123221389D01*
X84560674Y-123221397D01*
X84938826Y-123439723D01*
X84938835Y-123439727D01*
X85334550Y-123624253D01*
X85334555Y-123624255D01*
X85334568Y-123624261D01*
X85744888Y-123773605D01*
X85744889Y-123773605D01*
X85744894Y-123773607D01*
X85877398Y-123809110D01*
X86166663Y-123886619D01*
X86596682Y-123962443D01*
X87031671Y-124000499D01*
X87031672Y-124000500D01*
X87031673Y-124000500D01*
X87468328Y-124000500D01*
X87468328Y-124000499D01*
X87903318Y-123962443D01*
X88333337Y-123886619D01*
X88755112Y-123773605D01*
X89165432Y-123624261D01*
X89561174Y-123439723D01*
X89939326Y-123221397D01*
X90297012Y-122970943D01*
X90631507Y-122690268D01*
X90940268Y-122381507D01*
X91220943Y-122047012D01*
X91471397Y-121689326D01*
X91689723Y-121311174D01*
X91874261Y-120915432D01*
X92023605Y-120505112D01*
X92136619Y-120083337D01*
X92212443Y-119653318D01*
X92250500Y-119218327D01*
X92250500Y-118781673D01*
X92212443Y-118346682D01*
X92136619Y-117916663D01*
X92023605Y-117494888D01*
X91874261Y-117084568D01*
X91689723Y-116688826D01*
X91471397Y-116310674D01*
X91471389Y-116310663D01*
X91471385Y-116310656D01*
X91220942Y-115952986D01*
X90940265Y-115618490D01*
X90631509Y-115309734D01*
X90297013Y-115029057D01*
X89939343Y-114778614D01*
X89939332Y-114778607D01*
X89939326Y-114778603D01*
X89826978Y-114713739D01*
X89561180Y-114560280D01*
X89561164Y-114560272D01*
X89165449Y-114375746D01*
X89165434Y-114375740D01*
X89165432Y-114375739D01*
X89011301Y-114319640D01*
X88755105Y-114226392D01*
X88333344Y-114113383D01*
X88333347Y-114113383D01*
X88333337Y-114113381D01*
X88333331Y-114113379D01*
X88333327Y-114113379D01*
X87903322Y-114037557D01*
X87468330Y-113999500D01*
X87468327Y-113999500D01*
X87031673Y-113999500D01*
X87031669Y-113999500D01*
X86596679Y-114037557D01*
X86596675Y-114037557D01*
X86166672Y-114113379D01*
X86166655Y-114113383D01*
X85744894Y-114226392D01*
X85334565Y-114375740D01*
X85334550Y-114375746D01*
X84938835Y-114560272D01*
X84938819Y-114560280D01*
X84560682Y-114778598D01*
X84560656Y-114778614D01*
X84202986Y-115029057D01*
X83868490Y-115309734D01*
X83559734Y-115618490D01*
X83279057Y-115952986D01*
X83028614Y-116310656D01*
X83028598Y-116310682D01*
X82810280Y-116688819D01*
X82810272Y-116688835D01*
X82625746Y-117084550D01*
X82625740Y-117084565D01*
X82476392Y-117494894D01*
X82363383Y-117916655D01*
X82363379Y-117916672D01*
X82287557Y-118346675D01*
X82287557Y-118346679D01*
X82249500Y-118781669D01*
X50500500Y-118781669D01*
X50500500Y-85781669D01*
X57749500Y-85781669D01*
X57749500Y-86218330D01*
X57787557Y-86653320D01*
X57787557Y-86653324D01*
X57863379Y-87083327D01*
X57863383Y-87083344D01*
X57976392Y-87505105D01*
X58125740Y-87915434D01*
X58125746Y-87915449D01*
X58310272Y-88311164D01*
X58310277Y-88311174D01*
X58528603Y-88689326D01*
X58528607Y-88689332D01*
X58528614Y-88689343D01*
X58779057Y-89047013D01*
X58981930Y-89288787D01*
X59059732Y-89381507D01*
X59368493Y-89690268D01*
X59458395Y-89765705D01*
X59702986Y-89970942D01*
X60060656Y-90221385D01*
X60060663Y-90221389D01*
X60060674Y-90221397D01*
X60438826Y-90439723D01*
X60438835Y-90439727D01*
X60834550Y-90624253D01*
X60834555Y-90624255D01*
X60834568Y-90624261D01*
X61244888Y-90773605D01*
X61244889Y-90773605D01*
X61244894Y-90773607D01*
X61377398Y-90809110D01*
X61666663Y-90886619D01*
X62096682Y-90962443D01*
X62531671Y-91000499D01*
X62531672Y-91000500D01*
X62531673Y-91000500D01*
X62968328Y-91000500D01*
X62968328Y-91000499D01*
X63403318Y-90962443D01*
X63833337Y-90886619D01*
X64255112Y-90773605D01*
X64665432Y-90624261D01*
X65061174Y-90439723D01*
X65439326Y-90221397D01*
X65797012Y-89970943D01*
X66131507Y-89690268D01*
X66440268Y-89381507D01*
X66720943Y-89047012D01*
X66971397Y-88689326D01*
X67189723Y-88311174D01*
X67374261Y-87915432D01*
X67523605Y-87505112D01*
X67636619Y-87083337D01*
X67712443Y-86653318D01*
X67750500Y-86218327D01*
X67750500Y-85781673D01*
X67712443Y-85346682D01*
X67636619Y-84916663D01*
X67523605Y-84494888D01*
X67374261Y-84084568D01*
X67189723Y-83688826D01*
X66971397Y-83310674D01*
X66971389Y-83310663D01*
X66971385Y-83310656D01*
X66720942Y-82952986D01*
X66440265Y-82618490D01*
X66131509Y-82309734D01*
X65797013Y-82029057D01*
X65439343Y-81778614D01*
X65439332Y-81778607D01*
X65439326Y-81778603D01*
X65326978Y-81713739D01*
X65061180Y-81560280D01*
X65061164Y-81560272D01*
X64665449Y-81375746D01*
X64665434Y-81375740D01*
X64665432Y-81375739D01*
X64511301Y-81319640D01*
X64255105Y-81226392D01*
X63833344Y-81113383D01*
X63833347Y-81113383D01*
X63833337Y-81113381D01*
X63833331Y-81113379D01*
X63833327Y-81113379D01*
X63403322Y-81037557D01*
X62968330Y-80999500D01*
X62968327Y-80999500D01*
X62531673Y-80999500D01*
X62531669Y-80999500D01*
X62096679Y-81037557D01*
X62096675Y-81037557D01*
X61666672Y-81113379D01*
X61666655Y-81113383D01*
X61244894Y-81226392D01*
X60834565Y-81375740D01*
X60834550Y-81375746D01*
X60438835Y-81560272D01*
X60438819Y-81560280D01*
X60060682Y-81778598D01*
X60060656Y-81778614D01*
X59702986Y-82029057D01*
X59368490Y-82309734D01*
X59059734Y-82618490D01*
X58779057Y-82952986D01*
X58528614Y-83310656D01*
X58528598Y-83310682D01*
X58310280Y-83688819D01*
X58310272Y-83688835D01*
X58125746Y-84084550D01*
X58125740Y-84084565D01*
X57976392Y-84494894D01*
X57863383Y-84916655D01*
X57863379Y-84916672D01*
X57787557Y-85346675D01*
X57787557Y-85346679D01*
X57749500Y-85781669D01*
X50500500Y-85781669D01*
X50500500Y-70803471D01*
X83249500Y-70803471D01*
X83249500Y-71196528D01*
X83288026Y-71587702D01*
X83364704Y-71973194D01*
X83364707Y-71973205D01*
X83478810Y-72349354D01*
X83629230Y-72712499D01*
X83629232Y-72712504D01*
X83814511Y-73059137D01*
X83814522Y-73059155D01*
X84032887Y-73385960D01*
X84032897Y-73385974D01*
X84282254Y-73689817D01*
X84560182Y-73967745D01*
X84560187Y-73967749D01*
X84560188Y-73967750D01*
X84864031Y-74217107D01*
X85190851Y-74435482D01*
X85190860Y-74435487D01*
X85190862Y-74435488D01*
X85537495Y-74620767D01*
X85537497Y-74620767D01*
X85537503Y-74620771D01*
X85900647Y-74771190D01*
X86276785Y-74885290D01*
X86276791Y-74885291D01*
X86276794Y-74885292D01*
X86276805Y-74885295D01*
X86662297Y-74961973D01*
X87053468Y-75000500D01*
X87053471Y-75000500D01*
X87446529Y-75000500D01*
X87446532Y-75000500D01*
X87837703Y-74961973D01*
X87912748Y-74947045D01*
X88223194Y-74885295D01*
X88223205Y-74885292D01*
X88223205Y-74885291D01*
X88223215Y-74885290D01*
X88599353Y-74771190D01*
X88962497Y-74620771D01*
X89309149Y-74435482D01*
X89635969Y-74217107D01*
X89939812Y-73967750D01*
X90217750Y-73689812D01*
X90467107Y-73385969D01*
X90685482Y-73059149D01*
X90870771Y-72712497D01*
X91021190Y-72349353D01*
X91135290Y-71973215D01*
X91135292Y-71973205D01*
X91135295Y-71973194D01*
X91211973Y-71587702D01*
X91250500Y-71196528D01*
X91250500Y-70803471D01*
X91211973Y-70412297D01*
X91135295Y-70026805D01*
X91135292Y-70026794D01*
X91135291Y-70026791D01*
X91135290Y-70026785D01*
X91021190Y-69650647D01*
X90870771Y-69287503D01*
X90858355Y-69264275D01*
X90685488Y-68940862D01*
X90685487Y-68940860D01*
X90685482Y-68940851D01*
X90467107Y-68614031D01*
X90217750Y-68310188D01*
X90217749Y-68310187D01*
X90217745Y-68310182D01*
X89939817Y-68032254D01*
X89635974Y-67782897D01*
X89635973Y-67782896D01*
X89635969Y-67782893D01*
X89309149Y-67564518D01*
X89309144Y-67564515D01*
X89309137Y-67564511D01*
X88962504Y-67379232D01*
X88962499Y-67379230D01*
X88599354Y-67228810D01*
X88223205Y-67114707D01*
X88223194Y-67114704D01*
X87837702Y-67038026D01*
X87543089Y-67009010D01*
X87446532Y-66999500D01*
X87053468Y-66999500D01*
X86964251Y-67008287D01*
X86662297Y-67038026D01*
X86276805Y-67114704D01*
X86276794Y-67114707D01*
X85900645Y-67228810D01*
X85537500Y-67379230D01*
X85537495Y-67379232D01*
X85190862Y-67564511D01*
X85190844Y-67564522D01*
X84864039Y-67782887D01*
X84864025Y-67782897D01*
X84560182Y-68032254D01*
X84282254Y-68310182D01*
X84032897Y-68614025D01*
X84032887Y-68614039D01*
X83814522Y-68940844D01*
X83814511Y-68940862D01*
X83629232Y-69287495D01*
X83629230Y-69287500D01*
X83478810Y-69650645D01*
X83364707Y-70026794D01*
X83364704Y-70026805D01*
X83288026Y-70412297D01*
X83249500Y-70803471D01*
X50500500Y-70803471D01*
X50500500Y-55781669D01*
X57749500Y-55781669D01*
X57749500Y-56218330D01*
X57787557Y-56653320D01*
X57787557Y-56653324D01*
X57863379Y-57083327D01*
X57863383Y-57083344D01*
X57976392Y-57505105D01*
X58125740Y-57915434D01*
X58125746Y-57915449D01*
X58310272Y-58311164D01*
X58310277Y-58311174D01*
X58528603Y-58689326D01*
X58528607Y-58689332D01*
X58528614Y-58689343D01*
X58779057Y-59047013D01*
X58981930Y-59288787D01*
X59059732Y-59381507D01*
X59368493Y-59690268D01*
X59458395Y-59765705D01*
X59702986Y-59970942D01*
X60060656Y-60221385D01*
X60060663Y-60221389D01*
X60060674Y-60221397D01*
X60438826Y-60439723D01*
X60438835Y-60439727D01*
X60834550Y-60624253D01*
X60834555Y-60624255D01*
X60834568Y-60624261D01*
X61244888Y-60773605D01*
X61244889Y-60773605D01*
X61244894Y-60773607D01*
X61377398Y-60809110D01*
X61666663Y-60886619D01*
X62096682Y-60962443D01*
X62531671Y-61000499D01*
X62531672Y-61000500D01*
X62531673Y-61000500D01*
X62968328Y-61000500D01*
X62968328Y-61000499D01*
X63403318Y-60962443D01*
X63833337Y-60886619D01*
X64255112Y-60773605D01*
X64665432Y-60624261D01*
X65061174Y-60439723D01*
X65439326Y-60221397D01*
X65797012Y-59970943D01*
X66131507Y-59690268D01*
X66440268Y-59381507D01*
X66720943Y-59047012D01*
X66971397Y-58689326D01*
X67189723Y-58311174D01*
X67374261Y-57915432D01*
X67523605Y-57505112D01*
X67636619Y-57083337D01*
X67712443Y-56653318D01*
X67750500Y-56218327D01*
X67750500Y-55781673D01*
X67712443Y-55346682D01*
X67636619Y-54916663D01*
X67523605Y-54494888D01*
X67374261Y-54084568D01*
X67189723Y-53688826D01*
X66971397Y-53310674D01*
X66971389Y-53310663D01*
X66971385Y-53310656D01*
X66720942Y-52952986D01*
X66440265Y-52618490D01*
X66131509Y-52309734D01*
X65797013Y-52029057D01*
X65439343Y-51778614D01*
X65439332Y-51778607D01*
X65439326Y-51778603D01*
X65326978Y-51713739D01*
X65061180Y-51560280D01*
X65061164Y-51560272D01*
X64665449Y-51375746D01*
X64665434Y-51375740D01*
X64665432Y-51375739D01*
X64511301Y-51319640D01*
X64255105Y-51226392D01*
X63833344Y-51113383D01*
X63833347Y-51113383D01*
X63833337Y-51113381D01*
X63833331Y-51113379D01*
X63833327Y-51113379D01*
X63403322Y-51037557D01*
X62968330Y-50999500D01*
X62968327Y-50999500D01*
X62531673Y-50999500D01*
X62531669Y-50999500D01*
X62096679Y-51037557D01*
X62096675Y-51037557D01*
X61666672Y-51113379D01*
X61666655Y-51113383D01*
X61244894Y-51226392D01*
X60834565Y-51375740D01*
X60834550Y-51375746D01*
X60438835Y-51560272D01*
X60438819Y-51560280D01*
X60060682Y-51778598D01*
X60060656Y-51778614D01*
X59702986Y-52029057D01*
X59368490Y-52309734D01*
X59059734Y-52618490D01*
X58779057Y-52952986D01*
X58528614Y-53310656D01*
X58528598Y-53310682D01*
X58310280Y-53688819D01*
X58310272Y-53688835D01*
X58125746Y-54084550D01*
X58125740Y-54084565D01*
X57976392Y-54494894D01*
X57863383Y-54916655D01*
X57863379Y-54916672D01*
X57787557Y-55346675D01*
X57787557Y-55346679D01*
X57749500Y-55781669D01*
X50500500Y-55781669D01*
X50500500Y-30624500D01*
X50520185Y-30557461D01*
X50572989Y-30511706D01*
X50624500Y-30500500D01*
X99375500Y-30500500D01*
X99442539Y-30520185D01*
G37*
%TD.AperFunction*%
%TD*%
M02*
